<?xml version="1.0" encoding="utf-8"?>
<!-- Generator: Adobe Illustrator 23.0.1, SVG Export Plug-In . SVG Version: 6.00 Build 0)  -->
<svg version="1.1" id="Layer_1" xmlns="http://www.w3.org/2000/svg" xmlns:xlink="http://www.w3.org/1999/xlink" x="0px" y="0px"
	 viewBox="0 0 130 130" style="enable-background:new 0 0 130 130;" xml:space="preserve">
<style type="text/css">
	.st0{fill:#2386A9;}
	.st1{fill:#FFB900;}
	.st2{fill:#FFFFFF;}
</style>
<g>
	<path class="st0" d="M65.23,130.16c35.9,0,65-29.1,65-65c0-35.9-29.1-65-65-65c-35.9,0-65,29.1-65,65
		C0.23,101.06,29.33,130.16,65.23,130.16"/>
	<g>
		<rect x="85.54" y="12.16" class="st1" width="44.69" height="18"/>
		<path class="st2" d="M94.05,26.56c0.57,0,1.05,0,1.36-0.09c0.53-0.09,1.01-0.22,1.36-0.48c0.83-0.53,1.23-1.36,1.23-2.46
			c0-1.4-0.7-2.24-2.11-2.55c1.27-0.31,1.89-1.14,1.89-2.46c0-0.66-0.18-1.27-0.53-1.71c-0.35-0.48-0.88-0.79-1.58-0.97
			c-0.44-0.09-1.1-0.18-1.98-0.18h-2.9v10.8h3.25V26.56z M92.69,17.16h0.79c0.4,0,0.66,0,0.83,0.04c0.4,0.04,0.7,0.13,0.97,0.31
			c0.4,0.26,0.61,0.7,0.61,1.32c0,0.61-0.22,1.05-0.61,1.32c-0.31,0.18-0.88,0.31-1.71,0.31h-0.88V17.16z M92.69,21.73h0.92
			c0.75,0,1.32,0.09,1.67,0.26c0.53,0.26,0.79,0.75,0.79,1.4c0,0.92-0.44,1.49-1.27,1.62c-0.26,0.04-0.66,0.04-1.23,0.04h-0.88
			V21.73z M106.52,26.56v-1.54h-4.65v-3.2h4.21v-1.54h-4.21v-3.03h4.43v-1.49h-6.32v10.8H106.52z M112.76,26.56V17.3h3.2v-1.54
			h-8.25v1.54h3.16v9.31h1.89V26.56z M123.16,26.56h2.02l-4.08-10.8h-2.11l-4,10.8h1.89l1.1-3.12h4.04L123.16,26.56z M118.51,21.99
			l0.92-2.55c0.26-0.7,0.44-1.32,0.61-1.84c0.18,0.61,0.4,1.27,0.61,1.84l0.92,2.55C121.58,21.99,118.51,21.99,118.51,21.99z"/>
	</g>
</g>
<path class="st2" d="M102.23,56.16h-6v-15c0-2.48-2.02-4.5-4.5-4.5h-9c-2.48,0-4.5,2.02-4.5,4.5v15h-4v-15c0-2.48-2.02-4.5-4.5-4.5
	h-9c-2.48,0-4.5,2.02-4.5,4.5v15h-4v-15c0-2.48-2.02-4.5-4.5-4.5h-9c-2.48,0-4.5,2.02-4.5,4.5v15h-6c-2.48,0-4.5,2.02-4.5,4.5v9
	c0,2.48,2.02,4.5,4.5,4.5h6v15c0,2.48,2.02,4.5,4.5,4.5h9c2.48,0,4.5-2.02,4.5-4.5v-15h4v15c0,2.48,2.02,4.5,4.5,4.5h9
	c2.48,0,4.5-2.02,4.5-4.5v-15h4v15c0,2.48,2.02,4.5,4.5,4.5h9c2.48,0,4.5-2.02,4.5-4.5v-15h6c2.48,0,4.5-2.02,4.5-4.5v-9
	C106.73,58.18,104.71,56.16,102.23,56.16z M81.23,41.16c0-0.83,0.67-1.5,1.5-1.5h9c0.83,0,1.5,0.67,1.5,1.5v15h-12V41.16z
	 M93.23,59.16v12h-12v-12H93.23z M59.23,41.16c0-0.83,0.67-1.5,1.5-1.5h9c0.83,0,1.5,0.67,1.5,1.5v15h-12V41.16z M71.23,59.16v12
	h-12v-12H71.23z M37.23,41.16c0-0.83,0.67-1.5,1.5-1.5h9c0.83,0,1.5,0.67,1.5,1.5v15h-12V41.16z M49.23,59.16v12h-12v-12H49.23z
	 M28.23,71.16c-0.83,0-1.5-0.67-1.5-1.5v-9c0-0.83,0.67-1.5,1.5-1.5h6v12H28.23z M49.23,89.16c0,0.83-0.67,1.5-1.5,1.5h-9
	c-0.83,0-1.5-0.67-1.5-1.5v-15h12V89.16z M52.23,71.16v-12h4v12H52.23z M71.23,89.16c0,0.83-0.67,1.5-1.5,1.5h-9
	c-0.83,0-1.5-0.67-1.5-1.5v-15h12V89.16z M74.23,71.16v-12h4v12H74.23z M93.23,89.16c0,0.83-0.67,1.5-1.5,1.5h-9
	c-0.83,0-1.5-0.67-1.5-1.5v-15h12V89.16z M103.73,69.66c0,0.83-0.67,1.5-1.5,1.5h-6v-12h6c0.83,0,1.5,0.67,1.5,1.5V69.66z"/>
</svg>
