<?xml version="1.0" encoding="utf-8"?>
<!-- Generator: Adobe Illustrator 22.0.1, SVG Export Plug-In . SVG Version: 6.00 Build 0)  -->
<svg version="1.1" id="Ebene_1" xmlns="http://www.w3.org/2000/svg" xmlns:xlink="http://www.w3.org/1999/xlink" x="0px" y="0px"
	 viewBox="0 0 280 34" style="enable-background:new 0 0 280 34;" xml:space="preserve">
<style type="text/css">
	.st0{fill:#009999;}
</style>
<image style="display:none;overflow:visible;" width="490" height="65" xlink:href="siemens-logo.png"  transform="matrix(0.5 0 0 0.5 18 0.5)">
</image>
<g id="SIEMENS">
	<g>
		<path class="st0" d="M19.7,31.8v-6.2c3.5,1.1,6.6,1.7,9.3,1.7c3.7,0,5.6-1,5.6-3c0-0.7-0.3-1.4-0.8-1.9c-0.6-0.5-2-1.3-4.3-2.2
			c-4.1-1.7-6.8-3.1-8-4.3c-1.6-1.6-2.4-3.6-2.4-6c0-3.1,1.2-5.4,3.5-7.1C25,1.3,28,0.5,31.7,0.5c2.1,0,5,0.4,8.9,1.1v5.9
			c-2.9-1.2-5.6-1.7-8.1-1.7c-3.5,0-5.3,1-5.3,2.9c0,0.7,0.4,1.3,1.1,1.8c0.6,0.4,2.2,1.1,4.9,2.3c3.8,1.7,6.4,3.2,7.6,4.4
			c1.5,1.5,2.3,3.4,2.3,5.8c0,3.4-1.5,6-4.4,7.7c-2.4,1.4-5.5,2.2-9.3,2.2C26.2,32.9,23,32.5,19.7,31.8L19.7,31.8z"/>
		<polygon class="st0" points="48.1,1 48.1,1 56.8,1 56.8,32.3 48.1,32.3 		"/>
		<polygon class="st0" points="64.8,32.3 64.8,1 87.2,1 87.2,6.7 73.2,6.7 73.2,13.7 85.4,13.7 85.4,18.9 73.2,18.9 73.2,26.3 
			87.5,26.3 87.5,32.3 		"/>
		<polygon class="st0" points="93.2,32.3 93.2,1 104.6,1 112.4,21 120.5,1 131.2,1 131.2,32.3 123,32.3 123,10.1 113.8,32.6 
			108.4,32.6 99.4,10.1 99.4,32.3 		"/>
		<polygon class="st0" points="139.2,32.3 139.2,1 161.6,1 161.6,6.7 147.7,6.7 147.7,13.7 159.8,13.7 159.8,18.9 147.7,18.9 
			147.7,26.3 162,26.3 162,32.3 		"/>
		<polygon class="st0" points="167.7,32.3 167.7,1 177.9,1 188.6,21.9 188.6,1 194.7,1 194.7,32.3 184.9,32.3 173.9,11.1 
			173.9,32.3 		"/>
		<path class="st0" d="M200.9,31.8v-6.2c3.5,1.1,6.6,1.7,9.3,1.7c3.7,0,5.6-1,5.6-3c0-0.7-0.3-1.4-0.8-1.9c-0.6-0.5-2-1.3-4.3-2.2
			c-4.1-1.7-6.8-3.1-8-4.3c-1.6-1.6-2.4-3.6-2.4-6c0-3.1,1.2-5.4,3.5-7c2.3-1.6,5.4-2.4,9.1-2.4c2.1,0,4.8,0.3,8.2,1l0.8,0.1v5.9
			c-2.9-1.2-5.6-1.7-8.1-1.7c-3.5,0-5.2,1-5.2,2.9c0,0.7,0.4,1.3,1.1,1.8c0.6,0.4,2.2,1.1,4.9,2.3c3.8,1.7,6.3,3.2,7.6,4.4
			c1.5,1.5,2.3,3.4,2.3,5.8c0,3.4-1.5,6-4.4,7.7c-2.4,1.4-5.5,2.2-9.3,2.2C207.4,32.9,204.2,32.5,200.9,31.8L200.9,31.8z"/>
	</g>
</g>
</svg>
