<?xml version="1.0" encoding="utf-8"?>
<!-- Generator: Adobe Illustrator 22.0.1, SVG Export Plug-In . SVG Version: 6.00 Build 0)  -->
<svg version="1.1" id="Ebene_1" xmlns="http://www.w3.org/2000/svg" xmlns:xlink="http://www.w3.org/1999/xlink" x="0px" y="0px"
	 viewBox="0 0 280 35.5" style="enable-background:new 0 0 280 35.5;" xml:space="preserve">
<image style="display:none;overflow:visible;" width="490" height="99" xlink:href="siemens-claim.png"  transform="matrix(0.5 0 0 0.5 18 -13.75)">
</image>
<g id="Ingenuity_for_life">
	<path d="M91.8,17.5l0,0.3c0.1,0.8,0.1,1.7,0.1,2.4l0,0.1l0,0c-3.6,2.4-5.9,5.1-6.9,8c-0.8,2.3-0.7,4.5,0.3,5.9c0.7,1,1.7,1.5,3,1.5
		c2.2,0,3.9-1.6,5.1-4.9c1.2-3.4,1.6-7.6,1.8-10.6l0-0.1l0,0c1.6-1,3.5-1.9,5.6-2.9l0.1,0l0,0.1c1,1.4,3.1,2.8,5.4,2.8
		c2.8,0,5.6-2.2,6.6-3.1l0.1-0.1l0,0.2c0.2,0.9,0.7,1.5,1.5,2c1.4,0.9,2.5,0.9,3.3,0c0.6-0.6,1.1-1.2,1.5-1.7
		c0.7-0.9,1.4-1.6,2.4-2.3c0.4-0.3,0.9-0.2,1.1,0.3c1.7,2.9,3.6,4.5,5.6,4.7c0.6,0,1.1-0.1,1.2-0.4c0.1-0.2-0.1-0.4-0.4-0.6
		c-1.3-0.8-2.4-2.4-3.4-4.9c-0.3-0.8-0.8-1.4-2.3-2c-0.3-0.1-0.5-0.2-0.8-0.2c-0.5,0-0.9,0.2-1.2,0.5l-0.1,0.1c-1,0.7-2.3,2-3.2,3
		c-0.4,0.4-0.8,0.8-1,1c-0.4,0.4-0.7,0.4-0.9,0.2c-0.1-0.1-0.2-0.4-0.2-0.6c0.1-1.4,0.5-2.9,1.3-4.7c0.1-0.3,0.2-0.6,0.1-0.9
		c-0.1-0.3-0.5-0.6-1.1-0.8c-0.4-0.1-0.7-0.2-0.9-0.2c-0.7,0-1,0.4-1.3,1.1c-0.5,1.2-0.8,2.2-1,3.7l0,0l0,0
		c-2.5,2.5-4.8,3.7-6.6,3.7c-1.5,0-2.4-0.9-2.6-2.3l0-0.1l0.1,0c2.1-0.9,4.1-2,5.1-3.2c0.7-0.9,0.6-1.7,0.3-2.2
		c-0.4-0.9-1.6-1.7-2.7-1.7c-1.4,0-6.4,2.5-6.4,7l0,0.1l-0.1,0c-1.2,0.5-3,1.3-4.8,2.3l-0.2,0.1l0-0.2c0.3-2.5,1-4.6,1.4-5.3
		c0.2-0.5,0.3-0.8,0.2-1.1c-0.1-0.3-0.4-0.5-0.9-0.7c-0.7-0.3-1.4-0.2-1.9,0.2l-0.1,0.1l-0.1-0.1c0,0-0.6-1-1.9-1
		c-2.7,0-6.6,4.6-6.8,6.4c-0.1,0.5,0.1,0.9,0.5,1.4c0.7,0.8,2.2,1.5,3.3,1.4c1.1-0.1,2.3-0.9,2.9-1.6L91.8,17.5z M165.9,17.6
		l-0.1,0.2c-0.6,1.2-1.1,2.6-1.7,4c-1.7,4-3.5,8.6-7,13.1c-0.2,0.2-0.2,0.4-0.1,0.5c0.1,0.1,0.2,0.2,0.5,0.2c0.2,0,0.5-0.1,0.8-0.3
		c2.3-1.5,5.6-6.5,9.1-13.7c2.6-5.4,4.3-7.2,5.6-8.7c0.2-0.2,0.3-0.3,0.5-0.5c0.2-0.2,0.3-0.5,0.2-0.7c-0.1-0.3-0.5-0.7-1.2-0.9
		c-1-0.3-1.7-0.2-2.3,0.4l-0.1,0.1c-1.8,2-4.1,4.4-5.1,4.4c-0.3,0-0.5-0.1-0.6-0.3c-0.5-0.5-0.4-1.7-0.3-2.6c0-0.2,0-0.3,0-0.4
		c0-0.8-0.4-1.1-1.4-1.3c-0.8-0.1-3.5-0.3-5.5-0.4l-0.1,0l0-0.1c0.6-3.1,1.5-6.1,2.4-7.4c0.3-0.5,0.5-0.9,0.4-1.2
		c-0.1-0.2-0.5-0.4-1.1-0.6c-0.3-0.1-0.5-0.1-0.7-0.1c-1.1,0-1.4,0.8-1.6,1.3c-1,2.5-1.8,5.3-2.2,8l0,0.1l-0.1,0c-0.5,0-1,0-1.3,0
		c-0.4,0-0.6,0.1-0.7,0.2c-0.1,0.1-0.1,0.3,0.1,0.6c0.2,0.4,0.7,1.2,1.7,1.5l0.1,0l0,0.1c0,0.6-0.1,1.2-0.1,1.8c0,3,0.9,4.7,2.6,5
		c0.1,0,0.1,0,0.2,0c0.2,0,0.5-0.1,0.6-0.2c0.1-0.1,0-0.2-0.1-0.4c-0.8-1.5-0.7-4.3-0.5-6.4l0-0.1l0.1,0c1.1-0.2,2.5-0.4,3.5-0.4h0
		c0.2,0,0.4,0.1,0.5,0.2c0.1,0.1,0.1,0.3,0.1,0.5c0,0.4,0,2,1,3.1c0.8,0.9,2.1,1.3,3.8,1.3L165.9,17.6z M87.9,34.3
		c-0.4,0-0.7-0.2-1-0.5c-0.4-0.5-0.8-1.9,0.4-5.2c0.8-2.2,2.2-4.1,4.4-6l0.2-0.2l0,0.2C91.7,29.5,90.1,34.3,87.9,34.3z M240.7,16.4
		l0,0.1c-0.5,3.3-0.8,6.4-0.6,8.3c0.2,2.6,1,3.3,1.6,3.6c0.5,0.3,1,0.4,1.1,0.2c0.1-0.1,0.1-0.3,0.1-0.5c-0.4-3.1-0.1-7.5,0.8-12.2
		l0-0.1l0.1,0c1.4-0.3,2.9-0.7,4.3-1.1l0.2,0l0,0.2c-0.1,1,0.3,2.2,1.3,3.3c1.8,2,4.8,3.1,8.3,3.1c2,0,3.8-0.8,4.4-1.4
		c0.3-0.2,0.3-0.5,0.3-0.6c0-0.1-0.2-0.1-0.5-0.1c-1.3,0.4-2.6,0.5-3.8,0.5c-2.8,0-5-0.9-6.1-2.6l-0.1-0.1l0.2,0
		c2.1-0.2,4.7-1.5,5.1-2.4c0.4-0.8,0.1-1.6-0.2-2c-0.7-1-2-1.7-3.2-1.7c-1.5,0-3.4,0.8-4.6,1.9l0,0l0,0c-1.7,0.4-3.4,0.8-5,1l-0.2,0
		l0-0.1c0.7-3.1,1.5-5.8,2.5-8c0.3-0.7,0.6-1.1,1.2-1.2c0.5,0,0.9,0.3,1.2,1c0.1,0.2,0.2,0.4,0.4,0.4c0.2,0,0.4-0.2,0.5-0.5
		c0.3-0.6,0.1-2-1.1-2.8c-0.7-0.5-1.4-0.7-1.9-0.7c-0.7,0-1.4,0.4-1.8,1.1c-1.5,2.4-2.9,6.3-3.9,11l0,0.1l-0.1,0
		c-0.7,0-1.2,0-1.7-0.1c-0.5-0.1-0.8,0-0.9,0.2c-0.1,0.3,0,0.8,0.5,1.5c0.4,0.6,1,0.7,1.7,0.7L240.7,16.4z M184.3,15.5l0,0.2
		c-0.5,2.8-0.7,5.6-0.6,7.5c0.1,2.2,0.5,3.5,1.3,3.9c0.2,0.1,0.5,0.2,0.7,0.2c0.2,0,0.4,0,0.5-0.2c0.1-0.1,0.1-0.3,0.1-0.5
		c-0.3-2.7,0.1-7.1,1-11.6l0-0.1l0.1,0c1.5-0.2,3.1-0.4,4.7-0.6l0.2,0l-0.2,0.2c-0.3,0.4-0.5,0.9-0.5,1.7c0,1.7,2.3,4.3,5.8,4.3
		c2.1,0,4.6-1.8,4.6-4.1c0-2.9-2.4-4.8-4.7-4.8c-0.9,0-1.9,0.4-2.6,1.2l0,0l0,0c-0.6,0-1.1,0-1.7,0c-1.9,0-3.6,0-5.1,0.1l-0.1,0
		l0-0.1c0.8-3.2,1.7-5.9,2.7-7.7c0.4-0.7,0.7-1.1,1.2-1.1c0,0,0.1,0,0.1,0c0.5,0,0.9,0.4,1.3,1.1c0.1,0.1,0.2,0.3,0.4,0.3
		c0.2,0,0.4-0.1,0.6-0.4c0.3-0.3,0.3-0.9,0.2-1.4c-0.2-0.8-0.7-1.4-1.4-1.8c-0.7-0.4-1.3-0.5-1.9-0.5c-0.8,0-1.4,0.4-2,1.1
		c-2.2,3.1-3.5,7.5-4.2,10.7l0,0.1l-0.1,0c-2.4,0.3-4.3,0.8-5.7,1.4c-0.4,0.2-0.6,0.4-0.6,0.6c0,0.3,0.3,0.6,0.8,1
		c0.9,0.6,1.6,0.7,2.3,0.3c0.5-0.3,1.4-0.6,2.7-0.9L184.3,15.5z M232.5,16.5l0,0.3c-0.1,2,0.5,3.4,1.7,4.3c0.3,0.2,0.7,0.3,1,0.3
		c0.2,0,0.3,0,0.4-0.1c0.1-0.1,0.1-0.2,0-0.4c-0.5-1.7-0.3-4,0.5-6.2c0.4-1.1,0.6-1.8-0.6-2.4c-0.9-0.5-1.5-0.5-1.9,0
		c0,0-0.1,0.1-0.1,0.2l-0.1,0.1c-2,3-5.2,6.5-7.3,6.5c-0.3,0-0.6-0.1-0.8-0.4c-0.5-0.5-0.6-1.4-0.5-2.8c0.3-3.5,1.8-8.5,3.4-11.2
		c0.4-0.7,0.5-1.1,0.4-1.4c-0.1-0.2-0.5-0.4-1.2-0.4l-0.1,0c-1.5,0-2,0.8-2.4,1.5c-1.3,2.9-2.9,7.3-3,12c0,1.2,0.4,2.3,1.2,3.1
		c1.1,1.1,2.6,1.5,3.3,1.5c2.2,0,4.6-2.7,5.8-4.3L232.5,16.5z M65.6,0.5c-0.7,0-1.1,0.5-1.2,0.9c-0.1,0.7-0.4,1.8-0.7,3.1
		c-0.8,3.4-1.8,8-2.1,11.2c-0.3,4.2,0.6,5.1,1.6,5.4c0.3,0.1,0.5,0.1,0.6-0.1c0.1-0.1,0.2-0.3,0.2-0.6c0-3.6,2.4-13.3,3.6-17.3
		c0.5-1.5,0.1-2-0.8-2.5C66.4,0.6,66,0.5,65.6,0.5z M205.7,12c-0.2,0-0.5,0-0.7,0.2c-0.1,0.1-0.1,0.3,0,0.6c0.4,1.3-0.1,3.6-0.4,5
		c0,0.2-0.1,0.4-0.1,0.6c-0.2,1.1,0.3,1.5,1,1.9c0.3,0.2,0.7,0.3,1,0.3c0.3,0,0.7-0.1,0.9-0.6c0.8-2.6,3.1-7,9.5-7.3
		c0.2,0,0.3-0.1,0.3-0.3c0-0.2-0.1-0.6-0.5-0.8c-0.4-0.2-1-0.3-1.6-0.3c-2,0-4.7,0.9-6.6,2.2l-0.1,0.1l0-0.1c-0.1-0.2-1-1.2-2-1.4
		C206.1,12,205.9,12,205.7,12z M71.7,9.4c-0.7,0-1,0.4-1.3,1.2c-0.6,1.5-1.4,4.5-1.7,6.7c-0.2,1.4,0.2,1.9,1.2,2.5
		c1.1,0.7,2.3,0.8,2.9,0.1c0.3-0.3,0.6-0.6,0.8-0.9c1.3-1.4,2.7-3.1,4-4c0.3-0.2,0.6-0.1,0.8,0.3c1.5,4,3.9,4.6,5.3,4.6
		c0.2,0,0.4,0,0.6,0c0.5-0.1,0.8-0.4,0.7-0.7c0-0.2-0.1-0.3-0.4-0.3l-0.1,0c-2,0-2.4-2-3-4.7l-0.1-0.3c-0.2-0.9-0.9-1.6-1.9-2
		c-0.3-0.1-0.6-0.2-0.8-0.2c-0.5,0-0.9,0.3-1.3,0.5c-1,0.7-2.4,2.2-3.6,3.4c-1.1,1.1-1.6,1.6-1.8,1.7l-0.2,0l0-0.2
		c0.2-1.1,0.8-3.6,1.7-5.7c0.1-0.3,0.1-0.5,0-0.8c-0.1-0.4-0.5-0.7-1.1-0.9C72.3,9.5,72,9.4,71.7,9.4z M139.5,15.6l0,0.2
		c0.1,2.6,1.9,3.9,2.7,4.1c0.5,0.1,0.9,0.1,1-0.2c0.1-0.1,0-0.3,0-0.4c-1.2-2-0.5-5.7-0.4-6.1c0.3-1.3-0.4-1.7-1.1-2.1l0,0
		c-0.3-0.2-0.7-0.3-0.9-0.3c-0.2,0-0.5,0.1-0.6,0.3c-1,2.3-4.1,5.6-5.6,5.6c-0.5,0-0.8-0.2-1-0.5c-0.5-0.8-0.1-2.4,0.5-3.7
		c0.4-0.8,0.2-1.3-0.7-1.8c-0.4-0.2-0.9-0.4-1.2-0.4c-0.5,0-0.8,0.2-1,0.6c-0.3,0.6-0.8,2.1-1.1,4c-0.1,0.9,0.1,1.8,0.8,2.6
		c0.8,0.9,2,1.6,3,1.6c1.3,0,3.1-1.1,5.5-3.4L139.5,15.6z M147.8,10.4c-0.6,0-0.9,0.4-1.2,1.4c-0.7,2.7-0.6,5.1,0.3,6.5
		c0.5,0.7,1.1,1.2,1.9,1.4c0.5,0.1,0.8,0,1-0.2c0.1-0.1,0-0.2,0-0.3c-0.7-1.5-0.9-4.1,0.1-6.3c0.5-1.1,0.2-1.7-0.9-2.2
		C148.5,10.6,148.1,10.4,147.8,10.4z M196.9,18.5c-0.6,0-1.1-0.2-1.5-0.7c-0.4-0.4-0.5-1.1-0.4-1.7c0.2-1.1,1.5-2.4,2.7-2.4
		c0.5,0,1,0.2,1.3,0.6c0.5,0.5,0.6,1.2,0.6,1.6C199.6,17.3,198.3,18.5,196.9,18.5z M89.1,17.1c-0.2,0-0.4-0.1-0.4-0.2
		c-0.1-0.2-0.1-0.4-0.1-0.8c0.3-1,2.4-4.2,3.5-4.2c0.3,0,0.5,0.2,0.7,0.4c0.3,0.4,0.3,0.9,0.1,1.4C92.2,15.3,90.4,17.1,89.1,17.1z
		 M251.4,15.5l0-0.1c-0.2-1.4,0.9-2.3,1.9-2.6c0.2-0.1,0.3-0.1,0.5-0.1c0.4,0,0.8,0.2,1,0.5c0.1,0.3,0.1,0.6-0.2,1
		c-0.6,0.8-2.2,1.2-3,1.3L251.4,15.5z M104,14.3l0-0.2c0.3-1.5,1.1-2.6,2.1-3.2c0.2-0.1,0.3-0.1,0.5-0.1c0.4,0,0.7,0.2,0.8,0.5
		c0.1,0.2,0.1,0.6-0.5,1.1c-0.6,0.6-1.6,1.2-2.9,1.9L104,14.3z M237.2,3.2c-0.3,0-0.6,0.1-0.7,0.2c-0.2,0.3-0.1,0.7,0,0.9
		c0.5,1,2,2.1,2.9,2.1c0.3,0,0.5-0.1,0.6-0.3c0.3-0.4,0-1.6-0.9-2.2C238.5,3.5,237.8,3.2,237.2,3.2z M148.7,3.2
		c-0.2,0-0.4,0.1-0.5,0.2c-0.2,0.3-0.2,0.6-0.1,1c0.4,0.9,1.8,1.7,2.8,1.7c0.3,0,0.6-0.1,0.8-0.3c0.1-0.1,0-0.4-0.1-0.5
		C151.2,4.4,149.6,3.2,148.7,3.2z"/>
</g>
</svg>
