<?xml version="1.0" encoding="utf-8"?>
<!-- Generator: Adobe Illustrator 18.0.0, SVG Export Plug-In . SVG Version: 6.00 Build 0)  -->
<!DOCTYPE svg PUBLIC "-//W3C//DTD SVG 1.1//EN" "http://www.w3.org/Graphics/SVG/1.1/DTD/svg11.dtd">
<svg version="1.1" id="Ebene_1" xmlns="http://www.w3.org/2000/svg" xmlns:xlink="http://www.w3.org/1999/xlink" x="0px" y="0px"
	 viewBox="0 0 100 100" enable-background="new 0 0 100 100" xml:space="preserve">
<g>
	<defs>
		<rect id="SVGID_1_" y="0" width="100.7" height="100.7"/>
	</defs>
	<clipPath id="SVGID_2_">
		<use xlink:href="#SVGID_1_"  overflow="visible"/>
	</clipPath>
	<path clip-path="url(#SVGID_2_)" fill="#0077B5" d="M93.2,0H7.4C3.3,0,0,3.3,0,7.3v86.2c0,4,3.3,7.3,7.4,7.3h85.8
		c4.1,0,7.5-3.3,7.5-7.3V7.3C100.7,3.3,97.4,0,93.2,0"/>
	<path clip-path="url(#SVGID_2_)" fill="#FFFFFF" d="M22.4,13.9c4.8,0,8.7,3.9,8.7,8.7c0,4.8-3.9,8.7-8.7,8.7
		c-4.8,0-8.7-3.9-8.7-8.7C13.7,17.7,17.6,13.9,22.4,13.9 M14.9,37.8h14.9v48.1H14.9V37.8z"/>
	<path clip-path="url(#SVGID_2_)" fill="#FFFFFF" d="M39.2,37.8h14.3v6.6h0.2c2-3.8,6.9-7.8,14.1-7.8c15.1,0,17.9,10,17.9,22.9v26.4
		H70.9V62.4c0-5.6-0.1-12.7-7.8-12.7c-7.8,0-9,6.1-9,12.3v23.8H39.2V37.8z"/>
</g>
</svg>
