<?xml version="1.0" encoding="utf-8"?>
<!-- Generator: Adobe Illustrator 16.0.4, SVG Export Plug-In . SVG Version: 6.00 Build 0)  -->
<!DOCTYPE svg PUBLIC "-//W3C//DTD SVG 1.1//EN" "http://www.w3.org/Graphics/SVG/1.1/DTD/svg11.dtd">
<svg version="1.1" id="Ebene_1" xmlns="http://www.w3.org/2000/svg" xmlns:xlink="http://www.w3.org/1999/xlink" x="0px" y="0px"
	 width="142px" height="142px" viewBox="0 0 142 142" enable-background="new 0 0 142 142" xml:space="preserve">
<g>
	<path fill="#005578" d="M71,141c38.66,0,70-31.344,70-70S109.66,1,71,1S1,32.344,1,71S32.34,141,71,141"/>
	<path fill="#FFFFFF" d="M110.361,97.228c0.256,0.428,0.383,0.982,0.383,1.661c0,0.615-0.107,1.13-0.321,1.545
		c-0.313,0.624-0.81,0.936-1.483,0.936c-0.619,0-1.092-0.271-1.414-0.812c-0.256-0.434-0.383-0.996-0.383-1.689
		c0-0.597,0.106-1.103,0.32-1.517c0.318-0.625,0.811-0.938,1.477-0.938C109.564,96.413,110.038,96.685,110.361,97.228
		 M106.438,96.112c-0.66,0.681-0.992,1.591-0.992,2.735c0,1.103,0.281,1.987,0.842,2.651c0.625,0.743,1.509,1.114,2.652,1.114
		c1.062,0,1.898-0.315,2.508-0.95c0.662-0.679,0.992-1.604,0.992-2.774c0-1.071-0.281-1.939-0.84-2.605
		c-0.625-0.742-1.51-1.113-2.654-1.113C107.889,95.17,107.053,95.484,106.438,96.112 M101.263,99.969
		c0,0.921,0.116,1.556,0.349,1.907c0.328,0.491,0.896,0.737,1.703,0.737c0.469,0,0.953-0.079,1.455-0.239l-0.144-1.251
		c-0.313,0.119-0.572,0.179-0.772,0.179c-0.4,0-0.673-0.14-0.813-0.417c-0.097-0.188-0.144-0.522-0.144-1.005v-3.315h1.627v-1.245
		h-1.627v-1.866l-1.634,0.315v1.551h-1.149v1.245h1.149V99.969z M97.189,97.228c0.254,0.428,0.381,0.982,0.381,1.661
		c0,0.615-0.106,1.13-0.32,1.545c-0.314,0.624-0.809,0.936-1.482,0.936c-0.621,0-1.093-0.271-1.416-0.812
		c-0.256-0.434-0.383-0.996-0.383-1.689c0-0.597,0.107-1.103,0.321-1.517c0.319-0.625,0.812-0.938,1.478-0.938
		C96.391,96.413,96.865,96.685,97.189,97.228 M93.265,96.112c-0.661,0.681-0.991,1.591-0.991,2.735c0,1.103,0.28,1.987,0.84,2.651
		c0.625,0.743,1.51,1.114,2.654,1.114c1.062,0,1.897-0.315,2.508-0.95c0.66-0.679,0.992-1.604,0.992-2.774
		c0-1.071-0.281-1.939-0.842-2.605c-0.624-0.742-1.509-1.113-2.652-1.113C94.716,95.17,93.88,95.484,93.265,96.112 M85.861,102.456
		v-4.825c0.593-0.803,1.222-1.203,1.887-1.203c0.52,0,0.861,0.205,1.025,0.615c0.092,0.232,0.137,0.636,0.137,1.21v4.203h1.634
		v-4.293c0-0.938-0.104-1.602-0.313-1.988c-0.356-0.67-1.004-1.005-1.942-1.005c-0.907,0-1.718,0.368-2.433,1.106v-4.053h-1.635
		v10.232H85.861z M77.48,97.597c0.487-0.784,1.039-1.176,1.654-1.176c0.52,0,0.918,0.228,1.196,0.684
		c0.278,0.46,0.417,1.043,0.417,1.75c0,0.688-0.127,1.269-0.383,1.743c-0.273,0.506-0.67,0.759-1.189,0.759
		c-0.624,0-1.189-0.411-1.695-1.23V97.597z M77.48,105.465v-3.917c0.537,0.711,1.23,1.065,2.078,1.065
		c0.853,0,1.531-0.312,2.037-0.936c0.565-0.702,0.848-1.637,0.848-2.804c0-1.057-0.244-1.93-0.731-2.617
		c-0.511-0.729-1.224-1.095-2.14-1.095c-0.565,0-1.066,0.157-1.504,0.473c-0.205,0.154-0.426,0.378-0.664,0.67l-0.053-0.985h-1.566
		c0.041,0.757,0.062,1.712,0.062,2.865v7.28H77.48z M65.641,98.253c0.018-0.425,0.116-0.788,0.295-1.095
		c0.299-0.519,0.764-0.778,1.394-0.778c0.643,0,1.098,0.262,1.366,0.785c0.151,0.302,0.233,0.663,0.248,1.088H65.641z
		 M70.617,99.407c-0.01-1.08-0.125-1.909-0.348-2.487c-0.451-1.167-1.432-1.75-2.94-1.75c-1.025,0-1.832,0.305-2.421,0.916
		c-0.664,0.688-0.997,1.629-0.997,2.822c0,1.131,0.294,2.013,0.882,2.646c0.646,0.706,1.6,1.059,2.857,1.059
		c1.002,0,1.916-0.235,2.742-0.711l-0.582-1.203c-0.711,0.461-1.418,0.691-2.119,0.691c-0.711,0-1.248-0.217-1.613-0.65
		c-0.246-0.3-0.396-0.745-0.451-1.333H70.617z M62.127,92.224h-1.635v10.232h1.635V92.224z M56.604,92.325
		c-0.16,0.184-0.24,0.406-0.24,0.67c0,0.274,0.08,0.504,0.24,0.691c0.196,0.228,0.459,0.341,0.787,0.341
		c0.318,0,0.575-0.113,0.771-0.341c0.16-0.183,0.24-0.408,0.24-0.677c0-0.27-0.08-0.497-0.24-0.685
		c-0.196-0.223-0.456-0.335-0.779-0.335C57.064,91.99,56.804,92.103,56.604,92.325 M58.195,95.319h-1.633v7.137h1.633V95.319z
		 M53.541,102.456v-5.892h1.634v-1.245h-1.634v-0.321c0-0.441,0.041-0.78,0.123-1.018c0.137-0.411,0.419-0.616,0.848-0.616
		c0.256,0,0.528,0.064,0.82,0.192l0.13-1.306c-0.474-0.128-0.911-0.191-1.312-0.191c-0.875,0-1.496,0.28-1.86,0.841
		c-0.255,0.396-0.384,1.019-0.384,1.866v0.553h-1.141v1.245h1.141v5.892H53.541z M47.669,97.228
		c0.255,0.428,0.383,0.982,0.383,1.661c0,0.615-0.106,1.13-0.321,1.545c-0.314,0.624-0.809,0.936-1.483,0.936
		c-0.62,0-1.091-0.271-1.415-0.812c-0.256-0.434-0.383-0.996-0.383-1.689c0-0.597,0.106-1.103,0.322-1.517
		c0.318-0.625,0.811-0.938,1.476-0.938C46.872,96.413,47.345,96.685,47.669,97.228 M43.745,96.112
		c-0.661,0.681-0.991,1.591-0.991,2.735c0,1.103,0.279,1.987,0.841,2.651c0.624,0.743,1.509,1.114,2.652,1.114
		c1.062,0,1.897-0.315,2.509-0.95c0.661-0.679,0.991-1.604,0.991-2.774c0-1.071-0.28-1.939-0.841-2.605
		c-0.625-0.742-1.508-1.113-2.652-1.113C45.197,95.17,44.359,95.484,43.745,96.112 M39.637,102.456v-4.148
		c0.109-0.374,0.262-0.688,0.458-0.944c0.354-0.464,0.793-0.697,1.312-0.697c0.156,0,0.339,0.023,0.548,0.069l0.096-1.45
		c-0.219-0.054-0.426-0.082-0.622-0.082c-0.834,0-1.463,0.486-1.887,1.456l-0.055-1.34h-1.539c0.041,0.895,0.062,1.789,0.062,2.688
		v4.449H39.637z M31.256,97.597c0.488-0.784,1.039-1.176,1.654-1.176c0.52,0,0.919,0.228,1.197,0.684
		c0.277,0.46,0.416,1.043,0.416,1.75c0,0.688-0.127,1.269-0.383,1.743c-0.273,0.506-0.67,0.759-1.189,0.759
		c-0.625,0-1.189-0.411-1.695-1.23V97.597z M31.256,105.465v-3.917c0.538,0.711,1.23,1.065,2.078,1.065
		c0.852,0,1.531-0.312,2.037-0.936c0.564-0.702,0.848-1.637,0.848-2.804c0-1.057-0.244-1.93-0.732-2.617
		c-0.51-0.729-1.223-1.095-2.139-1.095c-0.564,0-1.066,0.157-1.504,0.473c-0.205,0.154-0.426,0.378-0.663,0.67l-0.055-0.985h-1.565
		c0.041,0.757,0.062,1.712,0.062,2.865v7.28H31.256z"/>
	<path fill="#FFFFFF" d="M109.534,84.457v-4.15c0.108-0.373,0.263-0.688,0.458-0.942c0.355-0.466,0.793-0.697,1.312-0.697
		c0.154,0,0.338,0.022,0.547,0.067l0.096-1.448c-0.219-0.056-0.426-0.082-0.622-0.082c-0.834,0-1.463,0.484-1.887,1.456
		l-0.056-1.341h-1.537c0.041,0.894,0.062,1.789,0.062,2.688v4.45H109.534z M103.942,77.319v4.826
		c-0.583,0.808-1.199,1.21-1.847,1.21c-0.5,0-0.83-0.205-0.99-0.614c-0.092-0.237-0.137-0.641-0.137-1.21v-4.212h-1.633v4.294
		c0,0.938,0.102,1.604,0.307,1.995c0.351,0.67,0.988,1.006,1.914,1.006c0.656,0,1.24-0.183,1.75-0.548
		c0.232-0.168,0.479-0.389,0.738-0.663l0.055,1.054h1.537c-0.041-0.82-0.061-1.657-0.061-2.509v-4.629H103.942z M95.527,79.227
		c0.255,0.43,0.383,0.983,0.383,1.662c0,0.615-0.107,1.13-0.32,1.544c-0.315,0.625-0.81,0.938-1.484,0.938
		c-0.62,0-1.092-0.271-1.415-0.813c-0.255-0.433-0.384-0.996-0.384-1.688c0-0.598,0.107-1.104,0.322-1.519
		c0.319-0.624,0.812-0.936,1.477-0.936C94.729,78.414,95.203,78.685,95.527,79.227 M91.604,78.113
		c-0.661,0.679-0.991,1.591-0.991,2.734c0,1.103,0.28,1.987,0.841,2.652c0.624,0.743,1.508,1.114,2.652,1.114
		c1.062,0,1.898-0.317,2.509-0.95c0.661-0.68,0.991-1.604,0.991-2.775c0-1.071-0.28-1.939-0.842-2.604
		c-0.623-0.743-1.508-1.114-2.651-1.114C93.055,77.17,92.219,77.483,91.604,78.113 M84.863,85.961
		c-0.219,0.237-0.514,0.354-0.882,0.354c-0.251,0-0.548-0.067-0.89-0.205l-0.279,1.279c0.515,0.164,0.994,0.246,1.436,0.246
		c0.797,0,1.408-0.253,1.832-0.759c0.346-0.42,0.736-1.174,1.17-2.263l2.883-7.295h-1.592l-1.34,3.541
		c-0.191,0.507-0.393,1.076-0.602,1.709c-0.191-0.56-0.393-1.104-0.602-1.634l-1.429-3.616h-1.743l2.871,7.028
		C85.424,85.113,85.146,85.65,84.863,85.961 M73.646,80.253c0.018-0.424,0.116-0.789,0.294-1.094
		c0.301-0.52,0.766-0.779,1.395-0.779c0.643,0,1.098,0.262,1.367,0.786c0.15,0.301,0.232,0.663,0.246,1.087H73.646z M78.622,81.408
		c-0.009-1.08-0.126-1.909-0.349-2.488c-0.451-1.167-1.432-1.75-2.939-1.75c-1.025,0-1.832,0.305-2.42,0.916
		c-0.666,0.688-0.998,1.629-0.998,2.823c0,1.13,0.295,2.012,0.883,2.646c0.646,0.706,1.599,1.06,2.856,1.06
		c1.002,0,1.916-0.237,2.741-0.712L77.815,82.7c-0.711,0.46-1.417,0.689-2.119,0.689c-0.711,0-1.249-0.216-1.612-0.648
		c-0.246-0.302-0.397-0.745-0.451-1.333H78.622z M68.566,81.817c-0.128,0.251-0.28,0.466-0.458,0.644
		c-0.384,0.383-0.793,0.574-1.229,0.574c-0.535,0-0.942-0.235-1.225-0.704c-0.251-0.41-0.376-0.931-0.376-1.56
		c0-0.642,0.118-1.178,0.354-1.605c0.274-0.497,0.676-0.745,1.205-0.745c0.445,0,0.854,0.184,1.223,0.553
		c0.201,0.196,0.369,0.449,0.506,0.759V81.817z M68.655,78.311c-0.533-0.765-1.267-1.147-2.201-1.147
		c-0.87,0-1.563,0.326-2.077,0.977c-0.529,0.675-0.793,1.545-0.793,2.612c0,1.084,0.254,1.937,0.764,2.556
		c0.539,0.657,1.238,0.985,2.1,0.985c0.811,0,1.518-0.35,2.119-1.046v0.513c0,0.815-0.084,1.39-0.253,1.722
		c-0.31,0.603-0.905,0.903-1.784,0.903c-0.734,0-1.441-0.205-2.126-0.616l-0.521,1.225c0.849,0.424,1.771,0.636,2.77,0.636
		c0.788,0,1.465-0.137,2.029-0.41c0.729-0.355,1.186-0.921,1.367-1.696c0.102-0.409,0.151-1.037,0.151-1.88V80.13
		c0-0.574,0.019-1.349,0.056-2.324l0.02-0.486h-1.572L68.655,78.311z M57.172,84.457v-4.826c0.592-0.807,1.221-1.21,1.885-1.21
		c0.521,0,0.863,0.205,1.027,0.615c0.09,0.236,0.135,0.64,0.135,1.21v4.211h1.635v-4.293c0-0.943-0.105-1.609-0.314-1.996
		c-0.355-0.67-1.003-1.005-1.941-1.005c-0.666,0-1.26,0.182-1.784,0.547c-0.22,0.149-0.468,0.371-0.745,0.663l-0.055-1.054h-1.539
		l0.021,0.458c0.027,0.652,0.041,1.333,0.041,2.045v4.635H57.172z M51.572,82.502c-0.451,0.665-0.988,0.998-1.613,0.998
		c-0.351,0-0.627-0.107-0.826-0.321c-0.188-0.201-0.281-0.454-0.281-0.759c0-0.451,0.185-0.793,0.554-1.026
		c0.292-0.182,0.769-0.272,1.429-0.272c0.223,0,0.469,0.011,0.738,0.034V82.502z M51.723,84.457h1.552
		c-0.046-0.456-0.068-1.062-0.068-1.818v-2.133c0-0.492-0.014-0.859-0.04-1.101c-0.07-0.548-0.23-0.982-0.486-1.307
		c-0.496-0.619-1.321-0.929-2.475-0.929c-0.889,0-1.748,0.209-2.576,0.629l0.437,1.175c0.688-0.396,1.331-0.594,1.928-0.594
		c1.054,0,1.579,0.54,1.579,1.62v0.13c-0.52-0.028-0.909-0.041-1.169-0.041c-0.983,0-1.705,0.132-2.16,0.396
		c-0.726,0.421-1.087,1.076-1.087,1.97c0,0.661,0.2,1.185,0.602,1.571c0.396,0.393,0.963,0.589,1.703,0.589
		c0.573,0,1.072-0.125,1.496-0.376c0.223-0.138,0.459-0.336,0.704-0.596L51.723,84.457z M40.826,84.457v-4.826
		c0.592-0.802,1.221-1.203,1.887-1.203c0.52,0,0.861,0.205,1.025,0.615c0.091,0.231,0.137,0.636,0.137,1.21v4.204h1.633v-4.293
		c0-0.939-0.104-1.603-0.313-1.989c-0.354-0.67-1.003-1.005-1.94-1.005c-0.908,0-1.72,0.369-2.435,1.106v-4.054h-1.634v10.234
		H40.826z M36.444,82.994c-0.465,0.169-0.95,0.253-1.456,0.253c-0.83,0-1.504-0.251-2.023-0.752
		c-0.68-0.652-1.019-1.603-1.019-2.852c0-1.061,0.257-1.942,0.772-2.645c0.506-0.68,1.234-1.02,2.188-1.02
		c0.68,0,1.415,0.203,2.208,0.609l0.56-1.32c-0.961-0.437-1.91-0.655-2.85-0.655c-1.244,0-2.258,0.342-3.042,1.025
		c-1.071,0.943-1.606,2.292-1.606,4.046c0,1.56,0.441,2.785,1.326,3.679c0.824,0.834,1.963,1.251,3.411,1.251
		c0.665,0,1.276-0.082,1.832-0.246c0.272-0.077,0.617-0.21,1.032-0.396l-0.473-1.368C36.954,82.782,36.668,82.912,36.444,82.994"/>
	<path fill="#FFFFFF" d="M85,44.877c-0.859,0-1.557-0.694-1.557-1.55c0-0.854,0.697-1.548,1.557-1.548s1.557,0.694,1.557,1.548
		C86.557,44.183,85.859,44.877,85,44.877 M71,60.169c-4.833,0-8.75-3.9-8.75-8.712c0-4.811,3.917-8.71,8.75-8.71
		s8.75,3.899,8.75,8.71C79.75,56.269,75.833,60.169,71,60.169 M79.75,39.844v-4.646h-17.5v4.646H53.5v23.228h35V39.844H79.75z"/>
</g>
</svg>
