<?xml version="1.0" encoding="utf-8"?>
<!-- Generator: Adobe Illustrator 16.0.4, SVG Export Plug-In . SVG Version: 6.00 Build 0)  -->
<!DOCTYPE svg PUBLIC "-//W3C//DTD SVG 1.1//EN" "http://www.w3.org/Graphics/SVG/1.1/DTD/svg11.dtd">
<svg version="1.1" id="Ebene_1" xmlns="http://www.w3.org/2000/svg" xmlns:xlink="http://www.w3.org/1999/xlink" x="0px" y="0px"
	 width="240px" height="240px" viewBox="0 0 240 240" enable-background="new 0 0 240 240" xml:space="preserve">
<g>
	<defs>
		<rect id="SVGID_1_" width="240" height="240"/>
	</defs>
	<clipPath id="SVGID_2_">
		<use xlink:href="#SVGID_1_"  overflow="visible"/>
	</clipPath>
	<path clip-path="url(#SVGID_2_)" fill="#005478" d="M120,240c66.274,0,120-53.732,120-120C240,53.733,186.274,0,120,0
		C53.726,0,0,53.733,0,120C0,186.268,53.726,240,120,240"/>
	<path clip-path="url(#SVGID_2_)" fill="#FFFFFF" d="M129.384,93.106v-5h-18.835v5h-9.417v25h37.669v-25H129.384z M119.966,114.981
		c-5.201,0-9.417-4.197-9.417-9.375c0-5.178,4.216-9.375,9.417-9.375c5.202,0,9.418,4.197,9.418,9.375
		C129.384,110.784,125.168,114.981,119.966,114.981 M135.033,98.523c-0.924,0-1.675-0.747-1.675-1.667
		c0-0.919,0.751-1.666,1.675-1.666c0.925,0,1.676,0.747,1.676,1.666C136.709,97.776,135.958,98.523,135.033,98.523"/>
	<path clip-path="url(#SVGID_2_)" fill="#FFFFFF" d="M182.382,143.268c0.328,0.501,0.492,1.143,0.492,1.927
		c0,0.707-0.138,1.301-0.41,1.784c-0.388,0.698-0.967,1.046-1.737,1.046c-0.711,0-1.262-0.3-1.653-0.902
		c-0.328-0.506-0.492-1.157-0.492-1.954c0-0.688,0.137-1.276,0.41-1.765c0.387-0.691,0.966-1.039,1.735-1.039
		C181.438,142.364,181.99,142.665,182.382,143.268 M178.369,142.528c-0.606,0.67-0.909,1.543-0.909,2.618
		c0,1.049,0.262,1.903,0.786,2.564c0.62,0.778,1.446,1.169,2.48,1.169c0.957,0,1.743-0.343,2.359-1.026
		c0.605-0.674,0.909-1.56,0.909-2.659c0-1.021-0.263-1.858-0.786-2.515c-0.62-0.78-1.447-1.169-2.482-1.169
		C179.766,141.511,178.979,141.85,178.369,142.528 M173.774,146.59c0,0.765,0.104,1.31,0.309,1.634
		c0.272,0.437,0.765,0.656,1.476,0.656c0.356,0,0.739-0.073,1.149-0.22l-0.097-0.848c-0.305,0.142-0.576,0.212-0.812,0.212
		c-0.392,0-0.661-0.147-0.807-0.444c-0.101-0.214-0.15-0.614-0.15-1.202v-3.876h1.674v-0.855h-1.674v-1.777l-1.067,0.227v1.551
		h-1.147v0.855h1.147V146.59z M170.11,143.268c0.328,0.501,0.492,1.143,0.492,1.927c0,0.707-0.136,1.301-0.41,1.784
		c-0.387,0.698-0.966,1.046-1.735,1.046c-0.711,0-1.264-0.3-1.655-0.902c-0.328-0.506-0.492-1.157-0.492-1.954
		c0-0.688,0.138-1.276,0.41-1.765c0.388-0.691,0.967-1.039,1.737-1.039C169.168,142.364,169.719,142.665,170.11,143.268
		 M166.098,142.528c-0.605,0.67-0.909,1.543-0.909,2.618c0,1.049,0.263,1.903,0.786,2.564c0.62,0.778,1.447,1.169,2.482,1.169
		c0.957,0,1.743-0.343,2.357-1.026c0.606-0.674,0.909-1.56,0.909-2.659c0-1.021-0.262-1.858-0.786-2.515
		c-0.62-0.78-1.446-1.169-2.48-1.169C167.495,141.511,166.709,141.85,166.098,142.528 M158.653,148.742v-5.052
		c0.726-0.884,1.475-1.326,2.249-1.326c0.644,0,1.051,0.253,1.225,0.759c0.1,0.287,0.149,0.786,0.149,1.497v4.122h1.067v-4.101
		c0-0.292-0.01-0.597-0.028-0.916c-0.031-0.529-0.121-0.939-0.266-1.231c-0.338-0.655-0.953-0.983-1.846-0.983
		c-0.921,0-1.771,0.412-2.551,1.236v-4.237h-1.065v10.232H158.653z M150.8,143.663c0.51-0.865,1.137-1.299,1.879-1.299
		c0.603,0,1.062,0.251,1.381,0.752c0.338,0.533,0.506,1.22,0.506,2.059c0,0.778-0.143,1.431-0.431,1.955
		c-0.328,0.601-0.818,0.901-1.469,0.901c-0.502,0-0.941-0.2-1.32-0.601c-0.159-0.174-0.341-0.415-0.546-0.726V143.663z
		 M150.8,151.751v-3.979c0.214,0.269,0.412,0.479,0.594,0.629c0.393,0.324,0.873,0.486,1.443,0.486c0.797,0,1.451-0.303,1.962-0.909
		c0.592-0.711,0.888-1.655,0.888-2.831c0-1.057-0.253-1.918-0.759-2.584c-0.533-0.701-1.212-1.052-2.037-1.052
		c-0.551,0-1.048,0.164-1.49,0.492c-0.219,0.158-0.446,0.4-0.683,0.725l-0.041-1.081h-0.999l0.014,0.383
		c0.027,0.871,0.041,1.698,0.041,2.482v7.239H150.8z M139.485,144.628c0.019-0.524,0.129-0.967,0.328-1.326
		c0.352-0.625,0.877-0.938,1.579-0.938c0.734,0,1.254,0.317,1.56,0.95c0.168,0.351,0.26,0.789,0.272,1.313H139.485z
		 M144.359,145.481c-0.018-1.029-0.147-1.836-0.39-2.42c-0.433-1.034-1.28-1.551-2.543-1.551c-0.824,0-1.501,0.246-2.03,0.737
		c-0.706,0.656-1.059,1.639-1.059,2.946c0,1.08,0.264,1.942,0.793,2.584c0.605,0.734,1.469,1.102,2.59,1.102
		c0.843,0,1.634-0.233,2.373-0.697l-0.411-0.828c-0.642,0.447-1.289,0.67-1.94,0.67c-0.767,0-1.345-0.257-1.736-0.771
		c-0.287-0.388-0.47-0.979-0.547-1.771H144.359z M136.437,138.51h-1.065v10.232h1.065V138.51z M131.796,138.666
		c-0.096,0.133-0.145,0.283-0.145,0.451c0,0.183,0.049,0.34,0.145,0.473c0.141,0.195,0.346,0.294,0.615,0.294
		c0.264,0,0.467-0.099,0.607-0.294c0.097-0.133,0.145-0.287,0.145-0.466c0-0.173-0.048-0.325-0.145-0.458
		c-0.141-0.195-0.344-0.294-0.607-0.294C132.142,138.372,131.937,138.471,131.796,138.666 M132.937,141.646h-1.065v7.096h1.065
		V141.646z M128.713,148.742v-6.24h1.674v-0.855h-1.674v-0.587c0-0.543,0.038-0.939,0.116-1.19c0.132-0.428,0.424-0.642,0.875-0.642
		c0.291,0,0.562,0.068,0.812,0.205l0.097-0.923c-0.355-0.091-0.688-0.138-0.998-0.138c-0.762,0-1.302,0.261-1.62,0.779
		c-0.233,0.379-0.35,0.985-0.35,1.819v0.676h-1.147v0.855h1.147v6.24H128.713z M123.743,143.268
		c0.327,0.501,0.491,1.143,0.491,1.927c0,0.707-0.137,1.301-0.409,1.784c-0.388,0.698-0.967,1.046-1.736,1.046
		c-0.711,0-1.263-0.3-1.655-0.902c-0.328-0.506-0.492-1.157-0.492-1.954c0-0.688,0.137-1.276,0.41-1.765
		c0.389-0.691,0.966-1.039,1.737-1.039C122.8,142.364,123.351,142.665,123.743,143.268 M119.73,142.528
		c-0.606,0.67-0.909,1.543-0.909,2.618c0,1.049,0.262,1.903,0.786,2.564c0.62,0.778,1.447,1.169,2.482,1.169
		c0.957,0,1.743-0.343,2.358-1.026c0.605-0.674,0.908-1.56,0.908-2.659c0-1.021-0.262-1.858-0.786-2.515
		c-0.619-0.78-1.446-1.169-2.48-1.169C121.127,141.511,120.341,141.85,119.73,142.528 M115.759,148.742v-4.49
		c0.136-0.365,0.318-0.695,0.546-0.991c0.401-0.529,0.864-0.793,1.388-0.793c0.119,0,0.244,0.016,0.376,0.048l0.096-0.957
		c-0.187-0.037-0.353-0.055-0.499-0.055c-0.488,0-0.896,0.143-1.224,0.431c-0.278,0.241-0.533,0.581-0.765,1.018l-0.042-1.306
		h-0.991l0.007,0.329c0.027,0.925,0.041,1.832,0.041,2.72v4.047H115.759z M107.89,143.663c0.511-0.865,1.137-1.299,1.88-1.299
		c0.602,0,1.062,0.251,1.381,0.752c0.337,0.533,0.506,1.22,0.506,2.059c0,0.778-0.144,1.431-0.431,1.955
		c-0.328,0.601-0.818,0.901-1.469,0.901c-0.502,0-0.942-0.2-1.32-0.601c-0.159-0.174-0.342-0.415-0.547-0.726V143.663z
		 M107.89,151.751v-3.979c0.215,0.269,0.413,0.479,0.595,0.629c0.392,0.324,0.873,0.486,1.442,0.486
		c0.798,0,1.452-0.303,1.962-0.909c0.593-0.711,0.889-1.655,0.889-2.831c0-1.057-0.253-1.918-0.759-2.584
		c-0.533-0.701-1.212-1.052-2.037-1.052c-0.551,0-1.048,0.164-1.49,0.492c-0.219,0.158-0.447,0.4-0.684,0.725l-0.041-1.081h-0.998
		l0.014,0.383c0.027,0.871,0.041,1.698,0.041,2.482v7.239H107.89z M96.577,144.628c0.018-0.524,0.127-0.967,0.328-1.326
		c0.351-0.625,0.877-0.938,1.579-0.938c0.734,0,1.253,0.317,1.559,0.95c0.168,0.351,0.259,0.789,0.273,1.313H96.577z
		 M101.451,145.481c-0.018-1.029-0.148-1.836-0.39-2.42c-0.433-1.034-1.28-1.551-2.543-1.551c-0.825,0-1.501,0.246-2.03,0.737
		c-0.706,0.656-1.06,1.639-1.06,2.946c0,1.08,0.265,1.942,0.793,2.584c0.606,0.734,1.47,1.102,2.591,1.102
		c0.843,0,1.634-0.233,2.372-0.697l-0.41-0.828c-0.642,0.447-1.29,0.67-1.941,0.67c-0.766,0-1.345-0.257-1.737-0.771
		c-0.287-0.388-0.469-0.979-0.546-1.771H101.451z M92.51,146.521c-0.493,0.83-1.119,1.245-1.88,1.245
		c-0.629,0-1.117-0.278-1.463-0.834c-0.301-0.493-0.451-1.102-0.451-1.826c0-0.747,0.143-1.374,0.43-1.879
		c0.328-0.575,0.809-0.862,1.443-0.862c0.455,0,0.881,0.171,1.278,0.514c0.237,0.204,0.451,0.489,0.643,0.854V146.521z
		 M92.551,142.74c-0.525-0.819-1.254-1.229-2.188-1.229c-0.788,0-1.426,0.287-1.914,0.86c-0.57,0.676-0.855,1.592-0.855,2.748
		c0,1.071,0.258,1.919,0.773,2.543c0.524,0.639,1.183,0.957,1.976,0.957c0.783,0,1.506-0.374,2.167-1.121v0.589
		c0,0.916-0.092,1.562-0.274,1.94c-0.324,0.675-0.902,1.012-1.736,1.012c-0.743,0-1.477-0.245-2.201-0.737l-0.458,0.819
		c0.843,0.516,1.736,0.773,2.679,0.773c0.698,0,1.294-0.165,1.791-0.493c0.593-0.396,0.966-0.925,1.121-1.586
		c0.096-0.414,0.144-1.022,0.144-1.825v-3.548c0-0.715,0.018-1.646,0.055-2.796h-1.039L92.551,142.74z M81.066,148.742v-5.052
		c0.729-0.884,1.479-1.326,2.249-1.326c0.638,0,1.046,0.253,1.224,0.759c0.1,0.287,0.15,0.786,0.15,1.497v4.122h1.067v-4.101
		c0-0.292-0.01-0.597-0.028-0.916c-0.032-0.529-0.121-0.939-0.266-1.231c-0.333-0.655-0.948-0.983-1.846-0.983
		c-0.675,0-1.281,0.195-1.818,0.588c-0.237,0.173-0.49,0.4-0.759,0.683l-0.041-1.135h-1.053c0.036,0.461,0.055,1.231,0.055,2.311
		v4.785H81.066z M76.493,146.938c-0.488,0.725-1.103,1.087-1.846,1.087c-0.396,0-0.713-0.116-0.95-0.348
		c-0.228-0.229-0.342-0.533-0.342-0.916c0-0.543,0.228-0.944,0.684-1.203c0.346-0.201,0.9-0.301,1.661-0.301
		c0.278,0,0.542,0.009,0.793,0.026V146.938z M76.623,148.742h0.991c-0.037-0.451-0.055-1.041-0.055-1.77v-2.318
		c0-0.378-0.007-0.667-0.02-0.868c-0.032-0.569-0.141-1.007-0.328-1.312c-0.397-0.644-1.133-0.964-2.208-0.964
		c-0.866,0-1.671,0.233-2.413,0.704l0.464,0.765c0.648-0.41,1.258-0.615,1.832-0.615c0.702,0,1.172,0.246,1.409,0.738
		c0.132,0.269,0.198,0.661,0.198,1.176v0.192c-0.538-0.019-0.877-0.028-1.019-0.028c-0.907,0-1.592,0.117-2.057,0.349
		c-0.789,0.396-1.183,1.062-1.183,1.996c0,0.606,0.173,1.095,0.52,1.464c0.392,0.419,0.959,0.629,1.702,0.629
		c0.537,0,1.012-0.123,1.422-0.369c0.223-0.138,0.455-0.335,0.697-0.596L76.623,148.742z M65.747,148.742v-5.052
		c0.724-0.884,1.474-1.326,2.249-1.326c0.642,0,1.05,0.253,1.223,0.759c0.101,0.287,0.151,0.786,0.151,1.497v4.122h1.066v-4.101
		c0-0.292-0.009-0.597-0.027-0.916c-0.032-0.529-0.121-0.939-0.267-1.231c-0.337-0.655-0.952-0.983-1.845-0.983
		c-0.921,0-1.771,0.412-2.55,1.236v-4.237H64.68v10.232H65.747z M60.531,147.956c-0.565,0-1.062-0.106-1.49-0.32
		c-0.625-0.315-1.094-0.821-1.408-1.519c-0.292-0.642-0.438-1.355-0.438-2.14c0-1.139,0.283-2.114,0.848-2.925
		c0.565-0.808,1.381-1.21,2.447-1.21c0.679,0,1.42,0.19,2.222,0.573l0.362-0.896c-0.893-0.401-1.761-0.601-2.605-0.601
		c-0.72,0-1.371,0.137-1.955,0.409c-0.806,0.384-1.437,1.015-1.893,1.895c-0.41,0.797-0.615,1.713-0.615,2.748
		c0,1.494,0.435,2.702,1.305,3.623c0.811,0.856,1.882,1.285,3.213,1.285c0.811,0,1.679-0.181,2.605-0.54l-0.281-0.896
		C62.064,147.785,61.292,147.956,60.531,147.956"/>
</g>
</svg>
