<?xml version="1.0" encoding="utf-8"?>
<!-- Generator: Adobe Illustrator 18.0.0, SVG Export Plug-In . SVG Version: 6.00 Build 0)  -->
<!DOCTYPE svg PUBLIC "-//W3C//DTD SVG 1.0//EN" "http://www.w3.org/TR/2001/REC-SVG-20010904/DTD/svg10.dtd">
<svg version="1.0" id="Ebene_1" xmlns="http://www.w3.org/2000/svg" xmlns:xlink="http://www.w3.org/1999/xlink" x="0px" y="0px"
	 viewBox="-237.1 86.1 736.8 543.1" enable-background="new -237.1 86.1 736.8 543.1" xml:space="preserve">
<g>
	<defs>
		<rect id="SVGID_1_" x="-237.6" y="85" width="736.8" height="543.1"/>
	</defs>
	<clipPath id="SVGID_2_">
		<use xlink:href="#SVGID_1_"  overflow="visible"/>
	</clipPath>
	<g clip-path="url(#SVGID_2_)">
		<defs>
			<rect id="SVGID_3_" x="-237.6" y="85" width="736.8" height="543.1"/>
		</defs>
		<clipPath id="SVGID_4_">
			<use xlink:href="#SVGID_3_"  overflow="visible"/>
		</clipPath>
		<path clip-path="url(#SVGID_4_)" fill="#004669" d="M487.8,628.1h-714.1c-6.3,0-11.4-5.1-11.4-11.4V96.4c0-6.3,5.1-11.4,11.4-11.4
			h714.1c6.3,0,11.4,5.1,11.4,11.4v520.3C499.2,623,494.1,628.1,487.8,628.1"/>
		<g opacity="0.76" clip-path="url(#SVGID_4_)">
			<g>
				<defs>
					<rect id="SVGID_5_" x="-246.6" y="78" width="754.8" height="551.1"/>
				</defs>
				<clipPath id="SVGID_6_">
					<use xlink:href="#SVGID_5_"  overflow="visible"/>
				</clipPath>
				<path clip-path="url(#SVGID_6_)" fill="#00284C" d="M487.8,628.1h-714.1c-6.3,0-11.4-5.1-11.4-11.4V96.4
					c0-6.3,5.1-11.4,11.4-11.4h714.1c6.3,0,11.4,5.1,11.4,11.4v520.3C499.2,623,494.1,628.1,487.8,628.1"/>
			</g>
		</g>
		<path clip-path="url(#SVGID_4_)" fill="#DFE6ED" d="M499.2,122.9V96.4c0-6.3-5.1-11.4-11.4-11.4h-714.1c-6.3,0-11.4,5.1-11.4,11.4
			v26.6H499.2z"/>
	</g>
	<rect x="272.8" y="96.7" clip-path="url(#SVGID_2_)" fill="#FFFFFF" width="206.4" height="15"/>
	<rect x="-144.8" y="96.7" clip-path="url(#SVGID_2_)" fill="#FFFFFF" width="397.6" height="14.6"/>
	<g clip-path="url(#SVGID_2_)">
		<defs>
			<rect id="SVGID_7_" x="-237.6" y="85" width="736.8" height="543.1"/>
		</defs>
		<clipPath id="SVGID_8_">
			<use xlink:href="#SVGID_7_"  overflow="visible"/>
		</clipPath>
		<path clip-path="url(#SVGID_8_)" fill="#F27D7D" d="M-206.7,104.1c0,3.1-2.4,5.7-5.5,5.7c-3,0-5.5-2.5-5.5-5.7
			c0-3.1,2.5-5.7,5.5-5.7C-209.1,98.4-206.7,100.9-206.7,104.1"/>
		<path clip-path="url(#SVGID_8_)" fill="#F5E391" d="M-185.7,103.8c0,3.1-2.4,5.7-5.5,5.7c-3,0-5.5-2.5-5.5-5.7
			c0-3.1,2.4-5.7,5.5-5.7C-188.2,98.1-185.7,100.7-185.7,103.8"/>
		<path clip-path="url(#SVGID_8_)" fill="#B5EDAD" d="M-164.8,103.8c0,3.1-2.5,5.7-5.5,5.7s-5.5-2.5-5.5-5.7c0-3.1,2.4-5.7,5.5-5.7
			S-164.8,100.7-164.8,103.8"/>
		<path clip-path="url(#SVGID_8_)" fill="#005F87" d="M118.4,419.7c72.1,0,130.5-58.4,130.5-130.5s-58.4-130.5-130.5-130.5
			S-12.1,217.2-12.1,289.2S46.3,419.7,118.4,419.7"/>
		<path clip-path="url(#SVGID_8_)" fill="#FFFFFF" d="M153.2,196.8l1-3c0.3-0.8,0.5-1.5,0.7-2.1c0.2,0.7,0.4,1.4,0.7,2.1l1,3H153.2z
			 M158.6,202.1h2.3l-4.7-12.5h-2.4l-4.6,12.5h2.2l1.3-3.6h4.7L158.6,202.1z M136.9,196.7c0-0.5,0.1-1,0.4-1.4c0.4-0.7,1-1,1.8-1
			c0.8,0,1.4,0.3,1.8,1c0.2,0.4,0.3,0.9,0.3,1.4H136.9z M143.3,198.1c0-1.4-0.2-2.5-0.4-3.2c-0.6-1.5-1.8-2.2-3.8-2.2
			c-1.3,0-2.4,0.4-3.1,1.2c-0.9,0.9-1.3,2.1-1.3,3.6c0,1.5,0.4,2.6,1.1,3.4c0.8,0.9,2.1,1.4,3.7,1.4c1.3,0,2.5-0.3,3.5-0.9l-0.7-1.5
			c-0.9,0.6-1.8,0.9-2.7,0.9c-0.9,0-1.6-0.3-2.1-0.8c-0.3-0.4-0.5-1-0.6-1.7H143.3z M130.6,200.7c-0.8,0-1.4-0.3-1.9-0.8
			c-0.5-0.6-0.7-1.4-0.7-2.4c0-1,0.2-1.7,0.6-2.3c0.4-0.6,1-0.9,1.8-0.9c0.7,0,1.4,0.2,2.1,0.7l0.6-1.6c-1-0.5-2-0.7-3-0.7
			c-1.3,0-2.4,0.4-3.1,1.2c-0.8,0.9-1.2,2.1-1.2,3.6c0,1.5,0.4,2.6,1.2,3.5c0.8,0.9,1.9,1.3,3.4,1.3c1.1,0,2.1-0.3,3-0.8l-0.7-1.5
			C132,200.4,131.3,200.7,130.6,200.7 M117.5,202.1v-6.2c0.8-1,1.6-1.6,2.4-1.6c0.7,0,1.1,0.3,1.3,0.8c0.1,0.3,0.2,0.8,0.2,1.6v5.4
			h2.1v-5.5c0-1.2-0.1-2.1-0.4-2.6c-0.5-0.9-1.3-1.3-2.5-1.3c-0.9,0-1.6,0.2-2.3,0.7c-0.3,0.2-0.6,0.5-1,0.9l-0.1-1.4h-2l0,0.6
			c0,0.8,0.1,1.7,0.1,2.6v6H117.5z M110.1,199.6c-0.6,0.9-1.3,1.3-2.1,1.3c-0.5,0-0.8-0.1-1.1-0.4c-0.2-0.3-0.4-0.6-0.4-1
			c0-0.6,0.2-1,0.7-1.3c0.4-0.2,1-0.4,1.8-0.4c0.3,0,0.6,0,0.9,0V199.6z M110.3,202.1h2c-0.1-0.6-0.1-1.4-0.1-2.3V197
			c0-0.6,0-1.1-0.1-1.4c-0.1-0.7-0.3-1.3-0.6-1.7c-0.6-0.8-1.7-1.2-3.2-1.2c-1.1,0-2.2,0.3-3.3,0.8l0.6,1.5c0.9-0.5,1.7-0.8,2.5-0.8
			c1.4,0,2,0.7,2,2.1v0.2c-0.7,0-1.2-0.1-1.5-0.1c-1.3,0-2.2,0.2-2.8,0.5c-0.9,0.5-1.4,1.4-1.4,2.5c0,0.8,0.3,1.5,0.8,2
			c0.5,0.5,1.2,0.8,2.2,0.8c0.7,0,1.4-0.2,1.9-0.5c0.3-0.2,0.6-0.4,0.9-0.8L110.3,202.1z M100,189c-0.2,0.2-0.3,0.5-0.3,0.9
			c0,0.4,0.1,0.7,0.3,0.9c0.3,0.3,0.6,0.4,1,0.4c0.4,0,0.7-0.1,1-0.4c0.2-0.2,0.3-0.5,0.3-0.9c0-0.3-0.1-0.6-0.3-0.9
			c-0.3-0.3-0.6-0.4-1-0.4C100.6,188.6,100.3,188.8,100,189 M102.1,192.9H100v9.2h2.1V192.9z M96.8,188.9h-2.1v13.2h2.1V188.9z
			 M91.6,188.9h-2.1v13.2h2.1V188.9z M79.9,196.8l1-3c0.3-0.8,0.5-1.5,0.7-2.1c0.2,0.7,0.4,1.4,0.7,2.1l1,3H79.9z M85.3,202.1h2.3
			l-4.7-12.5h-2.4l-4.6,12.5h2.2l1.3-3.6H84L85.3,202.1z"/>
		<path clip-path="url(#SVGID_8_)" fill="#2387AA" d="M-50.6,543c49.7,0,90-40.3,90-90s-40.3-90-90-90s-90,40.3-90,90
			S-100.3,543-50.6,543"/>
		<path clip-path="url(#SVGID_8_)" fill="#FFFFFF" d="M-15.6,454.3h1c0.9,0,1.5,0.1,1.9,0.3c0.6,0.3,0.9,0.9,0.9,1.6
			c0,1.1-0.5,1.7-1.5,1.9c-0.3,0-0.8,0.1-1.4,0.1h-1V454.3z M-15.6,449h0.9c0.4,0,0.8,0,1,0c0.5,0,0.8,0.2,1.1,0.3
			c0.5,0.3,0.7,0.8,0.7,1.5c0,0.7-0.2,1.2-0.7,1.5c-0.4,0.2-1,0.3-2,0.3h-1V449z M-14.1,459.8c0.7,0,1.2,0,1.6-0.1
			c0.6-0.1,1.1-0.3,1.6-0.5c0.9-0.6,1.4-1.5,1.4-2.8c0-1.6-0.8-2.6-2.4-2.9c1.4-0.4,2.2-1.3,2.2-2.8c0-0.8-0.2-1.4-0.6-2
			c-0.4-0.5-1-0.9-1.8-1.1c-0.5-0.1-1.3-0.2-2.3-0.2h-3.3v12.5H-14.1z M-31.4,454.4c0-0.5,0.1-1,0.4-1.4c0.4-0.7,1-1,1.8-1
			c0.8,0,1.4,0.3,1.8,1c0.2,0.4,0.3,0.9,0.3,1.4H-31.4z M-25,455.9c0-1.4-0.2-2.5-0.4-3.2c-0.6-1.5-1.8-2.2-3.8-2.2
			c-1.3,0-2.4,0.4-3.1,1.2c-0.9,0.9-1.3,2.1-1.3,3.6c0,1.5,0.4,2.6,1.1,3.4c0.8,0.9,2.1,1.4,3.7,1.4c1.3,0,2.5-0.3,3.5-0.9l-0.7-1.5
			c-0.9,0.6-1.8,0.9-2.7,0.9c-0.9,0-1.6-0.3-2.1-0.8c-0.3-0.4-0.5-1-0.6-1.7H-25z M-37.7,458.4c-0.8,0-1.4-0.3-1.9-0.8
			c-0.5-0.6-0.7-1.4-0.7-2.4c0-1,0.2-1.7,0.6-2.3c0.4-0.6,1-0.9,1.8-0.9c0.7,0,1.4,0.2,2.1,0.7l0.6-1.6c-1-0.5-2-0.7-3-0.7
			c-1.3,0-2.4,0.4-3.1,1.2c-0.8,0.9-1.2,2.1-1.2,3.6c0,1.5,0.4,2.6,1.2,3.5c0.8,0.9,1.9,1.3,3.4,1.3c1.1,0,2.1-0.3,3-0.8l-0.7-1.5
			C-36.3,458.1-37,458.4-37.7,458.4 M-50.8,459.8v-6.2c0.8-1,1.6-1.6,2.4-1.6c0.7,0,1.1,0.3,1.3,0.8c0.1,0.3,0.2,0.8,0.2,1.6v5.4
			h2.1v-5.5c0-1.2-0.1-2.1-0.4-2.6c-0.5-0.9-1.3-1.3-2.5-1.3c-0.9,0-1.6,0.2-2.3,0.7c-0.3,0.2-0.6,0.5-1,0.9l-0.1-1.4h-2l0,0.6
			c0,0.8,0.1,1.7,0.1,2.6v6H-50.8z M-58.2,457.3c-0.6,0.9-1.3,1.3-2.1,1.3c-0.5,0-0.8-0.1-1.1-0.4c-0.2-0.3-0.4-0.6-0.4-1
			c0-0.6,0.2-1,0.7-1.3c0.4-0.2,1-0.4,1.8-0.4c0.3,0,0.6,0,0.9,0V457.3z M-58,459.8h2c-0.1-0.6-0.1-1.4-0.1-2.3v-2.7
			c0-0.6,0-1.1-0.1-1.4c-0.1-0.7-0.3-1.3-0.6-1.7c-0.6-0.8-1.7-1.2-3.2-1.2c-1.1,0-2.2,0.3-3.3,0.8l0.6,1.5c0.9-0.5,1.7-0.8,2.5-0.8
			c1.4,0,2,0.7,2,2.1v0.2c-0.7,0-1.2-0.1-1.5-0.1c-1.3,0-2.2,0.2-2.8,0.5c-0.9,0.5-1.4,1.4-1.4,2.5c0,0.8,0.3,1.5,0.8,2
			c0.5,0.5,1.2,0.8,2.2,0.8c0.7,0,1.4-0.2,1.9-0.5c0.3-0.2,0.6-0.4,0.9-0.8L-58,459.8z M-68.3,446.8c-0.2,0.2-0.3,0.5-0.3,0.9
			c0,0.4,0.1,0.7,0.3,0.9c0.3,0.3,0.6,0.4,1,0.4c0.4,0,0.7-0.1,1-0.4c0.2-0.2,0.3-0.5,0.3-0.9c0-0.3-0.1-0.6-0.3-0.9
			c-0.3-0.3-0.6-0.4-1-0.4C-67.7,446.3-68,446.5-68.3,446.8 M-66.2,450.6h-2.1v9.2h2.1V450.6z M-71.5,446.6h-2.1v13.2h2.1V446.6z
			 M-76.7,446.6h-2.1v13.2h2.1V446.6z M-88.4,454.5l1-3c0.3-0.8,0.5-1.5,0.7-2.1c0.2,0.7,0.4,1.4,0.7,2.1l1,3H-88.4z M-83,459.8h2.3
			l-4.7-12.5h-2.4l-4.6,12.5h2.2l1.3-3.6h4.7L-83,459.8z"/>
		<path clip-path="url(#SVGID_8_)" fill="#2387AA" d="M109.2,554.7c33.1,0,60-26.9,60-60s-26.9-60-60-60s-60,26.9-60,60
			S76.1,554.7,109.2,554.7"/>
		<path clip-path="url(#SVGID_8_)" fill="#FFFFFF" d="M149.3,499.6c-0.6,0.2-1.2,0.3-1.9,0.3c-1.1,0-1.9-0.3-2.6-1
			c-0.9-0.8-1.3-2.1-1.3-3.7c0-1.4,0.3-2.5,1-3.4c0.7-0.9,1.6-1.3,2.8-1.3c0.9,0,1.8,0.3,2.8,0.8l0.7-1.7c-1.2-0.6-2.5-0.8-3.7-0.8
			c-1.6,0-2.9,0.4-3.9,1.3c-1.4,1.2-2.1,2.9-2.1,5.2c0,2,0.6,3.6,1.7,4.7c1.1,1.1,2.5,1.6,4.4,1.6c0.9,0,1.6-0.1,2.4-0.3
			c0.4-0.1,0.8-0.3,1.3-0.5l-0.6-1.8C150,499.4,149.6,499.5,149.3,499.6 M128.3,496.1c0-0.5,0.1-1,0.4-1.4c0.4-0.7,1-1,1.8-1
			c0.8,0,1.4,0.3,1.8,1c0.2,0.4,0.3,0.9,0.3,1.4H128.3z M134.7,497.6c0-1.4-0.2-2.5-0.4-3.2c-0.6-1.5-1.8-2.2-3.8-2.2
			c-1.3,0-2.4,0.4-3.1,1.2c-0.9,0.9-1.3,2.1-1.3,3.6c0,1.5,0.4,2.6,1.1,3.4c0.8,0.9,2.1,1.4,3.7,1.4c1.3,0,2.5-0.3,3.5-0.9l-0.7-1.5
			c-0.9,0.6-1.8,0.9-2.7,0.9c-0.9,0-1.6-0.3-2.1-0.8c-0.3-0.4-0.5-1-0.6-1.7H134.7z M122,500.1c-0.8,0-1.4-0.3-1.9-0.8
			c-0.5-0.6-0.7-1.4-0.7-2.4c0-1,0.2-1.7,0.6-2.3c0.4-0.6,1-0.9,1.8-0.9c0.7,0,1.4,0.2,2.1,0.7l0.6-1.6c-1-0.5-2-0.7-3-0.7
			c-1.3,0-2.4,0.4-3.1,1.2c-0.8,0.9-1.2,2.1-1.2,3.6c0,1.5,0.4,2.6,1.2,3.5c0.8,0.9,1.9,1.3,3.4,1.3c1.1,0,2.1-0.3,3-0.8l-0.7-1.5
			C123.4,499.9,122.7,500.1,122,500.1 M108.8,501.5v-6.2c0.8-1,1.6-1.6,2.4-1.6c0.7,0,1.1,0.3,1.3,0.8c0.1,0.3,0.2,0.8,0.2,1.6v5.4
			h2.1V496c0-1.2-0.1-2.1-0.4-2.6c-0.5-0.9-1.3-1.3-2.5-1.3c-0.9,0-1.6,0.2-2.3,0.7c-0.3,0.2-0.6,0.5-1,0.9l-0.1-1.4h-2l0,0.6
			c0,0.8,0.1,1.7,0.1,2.6v6H108.8z M101.4,499c-0.6,0.9-1.3,1.3-2.1,1.3c-0.5,0-0.8-0.1-1.1-0.4c-0.2-0.3-0.4-0.6-0.4-1
			c0-0.6,0.2-1,0.7-1.3c0.4-0.2,1-0.4,1.8-0.4c0.3,0,0.6,0,0.9,0V499z M101.6,501.5h2c-0.1-0.6-0.1-1.4-0.1-2.3v-2.7
			c0-0.6,0-1.1-0.1-1.4c-0.1-0.7-0.3-1.3-0.6-1.7c-0.6-0.8-1.7-1.2-3.2-1.2c-1.1,0-2.2,0.3-3.3,0.8l0.6,1.5c0.9-0.5,1.7-0.8,2.5-0.8
			c1.4,0,2,0.7,2,2.1v0.2c-0.7,0-1.2-0.1-1.5-0.1c-1.3,0-2.2,0.2-2.8,0.5c-0.9,0.5-1.4,1.4-1.4,2.5c0,0.8,0.3,1.5,0.8,2
			c0.5,0.5,1.2,0.8,2.2,0.8c0.7,0,1.4-0.2,1.9-0.5c0.3-0.2,0.6-0.4,0.9-0.8L101.6,501.5z M91.4,488.5c-0.2,0.2-0.3,0.5-0.3,0.9
			c0,0.4,0.1,0.7,0.3,0.9c0.3,0.3,0.6,0.4,1,0.4c0.4,0,0.7-0.1,1-0.4c0.2-0.2,0.3-0.5,0.3-0.9c0-0.3-0.1-0.6-0.3-0.9
			c-0.3-0.3-0.6-0.4-1-0.4C92,488.1,91.6,488.2,91.4,488.5 M93.4,492.4h-2.1v9.2h2.1V492.4z M88.2,488.4h-2.1v13.2h2.1V488.4z
			 M82.9,488.4h-2.1v13.2h2.1V488.4z M71.3,496.3l1-3c0.3-0.8,0.5-1.5,0.7-2.1c0.2,0.7,0.4,1.4,0.7,2.1l1,3H71.3z M76.7,501.5H79
			l-4.7-12.5h-2.4l-4.6,12.5h2.2l1.3-3.6h4.7L76.7,501.5z"/>
		<path clip-path="url(#SVGID_8_)" fill="#2387AA" d="M261.2,543.4c44.2,0,80-35.8,80-80s-35.8-80-80-80s-80,35.8-80,80
			S217,543.4,261.2,543.4"/>
		<path clip-path="url(#SVGID_8_)" fill="#FFFFFF" d="M295.4,459.6h0.8c0.9,0,1.6,0,2,0.1c0.9,0.2,1.6,0.7,2,1.5
			c0.4,0.8,0.6,1.7,0.6,2.8c0,0.7-0.1,1.4-0.3,2c-0.3,0.8-0.7,1.4-1.2,1.7c-0.7,0.5-1.7,0.7-3,0.7h-0.9V459.6z M296.1,470.2
			c0.7,0,1.3,0,1.8-0.1c1.2-0.1,2.2-0.4,2.9-0.9c1.5-1,2.3-2.8,2.3-5.3c0-1.4-0.3-2.6-0.8-3.6c-0.6-1.2-1.6-2-3-2.3
			c-0.8-0.2-1.8-0.3-3-0.3h-3.1v12.5H296.1z M279.6,464.8c0-0.5,0.1-1,0.4-1.4c0.4-0.7,1-1,1.8-1c0.8,0,1.4,0.3,1.8,1
			c0.2,0.4,0.3,0.9,0.3,1.4H279.6z M286,466.3c0-1.4-0.2-2.5-0.4-3.2c-0.6-1.5-1.8-2.2-3.8-2.2c-1.3,0-2.4,0.4-3.1,1.2
			c-0.9,0.9-1.3,2.1-1.3,3.6c0,1.5,0.4,2.6,1.1,3.4c0.8,0.9,2.1,1.4,3.7,1.4c1.3,0,2.5-0.3,3.5-0.9L285,468
			c-0.9,0.6-1.8,0.9-2.7,0.9c-0.9,0-1.6-0.3-2.1-0.8c-0.3-0.4-0.5-1-0.6-1.7H286z M273.3,468.8c-0.8,0-1.4-0.3-1.9-0.8
			c-0.5-0.6-0.7-1.4-0.7-2.4c0-1,0.2-1.7,0.6-2.3c0.4-0.6,1-0.9,1.8-0.9c0.7,0,1.4,0.2,2.1,0.7l0.6-1.6c-1-0.5-2-0.7-3-0.7
			c-1.3,0-2.4,0.4-3.1,1.2c-0.8,0.9-1.2,2.1-1.2,3.6c0,1.5,0.4,2.6,1.2,3.5c0.8,0.9,1.9,1.3,3.4,1.3c1.1,0,2.1-0.3,3-0.8l-0.7-1.5
			C274.7,468.6,274,468.8,273.3,468.8 M260.1,470.2V464c0.8-1,1.6-1.6,2.4-1.6c0.7,0,1.1,0.3,1.3,0.8c0.1,0.3,0.2,0.8,0.2,1.6v5.4
			h2.1v-5.5c0-1.2-0.1-2.1-0.4-2.6c-0.5-0.9-1.3-1.3-2.5-1.3c-0.9,0-1.6,0.2-2.3,0.7c-0.3,0.2-0.6,0.5-1,0.9l-0.1-1.4h-2l0,0.6
			c0,0.8,0.1,1.7,0.1,2.6v6H260.1z M252.8,467.7c-0.6,0.9-1.3,1.3-2.1,1.3c-0.5,0-0.8-0.1-1.1-0.4c-0.2-0.3-0.4-0.6-0.4-1
			c0-0.6,0.2-1,0.7-1.3c0.4-0.2,1-0.4,1.8-0.4c0.3,0,0.6,0,0.9,0V467.7z M253,470.2h2c-0.1-0.6-0.1-1.4-0.1-2.3v-2.7
			c0-0.6,0-1.1-0.1-1.4c-0.1-0.7-0.3-1.3-0.6-1.7c-0.6-0.8-1.7-1.2-3.2-1.2c-1.1,0-2.2,0.3-3.3,0.8l0.6,1.5c0.9-0.5,1.7-0.8,2.5-0.8
			c1.4,0,2,0.7,2,2.1v0.2c-0.7,0-1.2-0.1-1.5-0.1c-1.3,0-2.2,0.2-2.8,0.5c-0.9,0.5-1.4,1.4-1.4,2.5c0,0.8,0.3,1.5,0.8,2
			c0.5,0.5,1.2,0.8,2.2,0.8c0.7,0,1.4-0.2,1.9-0.5c0.3-0.2,0.6-0.4,0.9-0.8L253,470.2z M242.7,457.2c-0.2,0.2-0.3,0.5-0.3,0.9
			c0,0.4,0.1,0.7,0.3,0.9c0.3,0.3,0.6,0.4,1,0.4c0.4,0,0.7-0.1,1-0.4c0.2-0.2,0.3-0.5,0.3-0.9c0-0.3-0.1-0.6-0.3-0.9
			c-0.3-0.3-0.6-0.4-1-0.4C243.3,456.8,243,456.9,242.7,457.2 M244.7,461.1h-2.1v9.2h2.1V461.1z M239.5,457.1h-2.1v13.2h2.1V457.1z
			 M234.2,457.1h-2.1v13.2h2.1V457.1z M222.6,465l1-3c0.3-0.8,0.5-1.5,0.7-2.1c0.2,0.7,0.4,1.4,0.7,2.1l1,3H222.6z M228,470.2h2.3
			l-4.7-12.5h-2.4l-4.6,12.5h2.2l1.3-3.6h4.7L228,470.2z"/>
		<path clip-path="url(#SVGID_8_)" fill="#2387AA" d="M332.2,385.3c38.7,0,70-31.3,70-70s-31.3-70-70-70c-38.7,0-70,31.3-70,70
			S293.5,385.3,332.2,385.3"/>
		<path clip-path="url(#SVGID_8_)" fill="#FFFFFF" d="M372.9,322.2v-1.8h-5.4v-3.7h4.9V315h-4.9v-3.5h5.1v-1.8h-7.3v12.5H372.9z
			 M351.8,316.8c0-0.5,0.1-1,0.4-1.4c0.4-0.7,1-1,1.8-1c0.8,0,1.4,0.3,1.8,1c0.2,0.4,0.3,0.9,0.3,1.4H351.8z M358.2,318.2
			c0-1.4-0.2-2.5-0.4-3.2c-0.6-1.5-1.8-2.2-3.8-2.2c-1.3,0-2.4,0.4-3.1,1.2c-0.9,0.9-1.3,2.1-1.3,3.6c0,1.5,0.4,2.6,1.1,3.4
			c0.8,0.9,2.1,1.4,3.7,1.4c1.3,0,2.5-0.3,3.5-0.9l-0.7-1.5c-0.9,0.6-1.8,0.9-2.7,0.9c-0.9,0-1.6-0.3-2.1-0.8
			c-0.3-0.4-0.5-1-0.6-1.7H358.2z M345.4,320.7c-0.8,0-1.4-0.3-1.9-0.8c-0.5-0.6-0.7-1.4-0.7-2.4c0-1,0.2-1.7,0.6-2.3
			c0.4-0.6,1-0.9,1.8-0.9c0.7,0,1.4,0.2,2.1,0.7l0.6-1.6c-1-0.5-2-0.7-3-0.7c-1.3,0-2.4,0.4-3.1,1.2c-0.8,0.9-1.2,2.1-1.2,3.6
			c0,1.5,0.4,2.6,1.2,3.5c0.8,0.9,1.9,1.3,3.4,1.3c1.1,0,2.1-0.3,3-0.8l-0.7-1.5C346.9,320.5,346.2,320.7,345.4,320.7 M332.3,322.2
			V316c0.8-1,1.6-1.6,2.4-1.6c0.7,0,1.1,0.3,1.3,0.8c0.1,0.3,0.2,0.8,0.2,1.6v5.4h2.1v-5.5c0-1.2-0.1-2.1-0.4-2.6
			c-0.5-0.9-1.3-1.3-2.5-1.3c-0.9,0-1.6,0.2-2.3,0.7c-0.3,0.2-0.6,0.5-1,0.9l-0.1-1.4h-2l0,0.6c0,0.8,0.1,1.7,0.1,2.6v6H332.3z
			 M324.9,319.6c-0.6,0.9-1.3,1.3-2.1,1.3c-0.5,0-0.8-0.1-1.1-0.4c-0.2-0.3-0.4-0.6-0.4-1c0-0.6,0.2-1,0.7-1.3
			c0.4-0.2,1-0.4,1.8-0.4c0.3,0,0.6,0,0.9,0V319.6z M325.1,322.2h2c-0.1-0.6-0.1-1.4-0.1-2.3v-2.7c0-0.6,0-1.1-0.1-1.4
			c-0.1-0.7-0.3-1.3-0.6-1.7c-0.6-0.8-1.7-1.2-3.2-1.2c-1.1,0-2.2,0.3-3.3,0.8l0.6,1.5c0.9-0.5,1.7-0.8,2.5-0.8c1.4,0,2,0.7,2,2.1
			v0.2c-0.7,0-1.2-0.1-1.5-0.1c-1.3,0-2.2,0.2-2.8,0.5c-0.9,0.5-1.4,1.4-1.4,2.5c0,0.8,0.3,1.5,0.8,2c0.5,0.5,1.2,0.8,2.2,0.8
			c0.7,0,1.4-0.2,1.9-0.5c0.3-0.2,0.6-0.4,0.9-0.8L325.1,322.2z M314.8,309.1c-0.2,0.2-0.3,0.5-0.3,0.9c0,0.4,0.1,0.7,0.3,0.9
			c0.3,0.3,0.6,0.4,1,0.4c0.4,0,0.7-0.1,1-0.4c0.2-0.2,0.3-0.5,0.3-0.9c0-0.3-0.1-0.6-0.3-0.9c-0.3-0.3-0.6-0.4-1-0.4
			C315.4,308.7,315.1,308.8,314.8,309.1 M316.9,313h-2.1v9.2h2.1V313z M311.6,309h-2.1v13.2h2.1V309z M306.4,309h-2.1v13.2h2.1V309z
			 M294.7,316.9l1-3c0.3-0.8,0.5-1.5,0.7-2.1c0.2,0.7,0.4,1.4,0.7,2.1l1,3H294.7z M300.1,322.2h2.3l-4.7-12.5h-2.4l-4.6,12.5h2.2
			l1.3-3.6h4.7L300.1,322.2z"/>
		<path clip-path="url(#SVGID_8_)" fill="#50BED7" d="M118.4,403.2c24.6,0,44.5-19.9,44.5-44.5c0-24.6-19.9-44.5-44.5-44.5
			c-24.6,0-44.5,19.9-44.5,44.5C73.9,383.3,93.8,403.2,118.4,403.2"/>
		<path clip-path="url(#SVGID_8_)" fill="#50BED7" d="M68.4,317c24.6,0,44.5-19.9,44.5-44.5c0-24.6-19.9-44.5-44.5-44.5
			c-24.6,0-44.5,19.9-44.5,44.5C23.9,297.1,43.8,317,68.4,317"/>
		<path clip-path="url(#SVGID_8_)" fill="#50BED7" d="M168.4,317c24.6,0,44.5-19.9,44.5-44.5c0-24.6-19.9-44.5-44.5-44.5
			c-24.6,0-44.5,19.9-44.5,44.5C123.9,297.1,143.8,317,168.4,317"/>
		<path clip-path="url(#SVGID_8_)" fill="#FFFFFF" d="M83.6,273.5l0.9-2.5c0.2-0.7,0.4-1.3,0.6-1.9c0.2,0.6,0.4,1.2,0.6,1.9l0.9,2.5
			H83.6z M88,277.8h1.2l-3.5-9.7h-1.4l-3.4,9.7H82l1.2-3.4h3.6L88,277.8z M71.7,273.7c0-0.5,0.1-1,0.3-1.3c0.4-0.6,0.9-0.9,1.6-0.9
			c0.7,0,1.3,0.3,1.6,1c0.2,0.4,0.3,0.8,0.3,1.3H71.7z M76.5,274.6c0-1-0.1-1.8-0.4-2.4c-0.4-1-1.3-1.6-2.5-1.6
			c-0.8,0-1.5,0.2-2,0.7c-0.7,0.7-1.1,1.6-1.1,2.9c0,1.1,0.3,1.9,0.8,2.6c0.6,0.7,1.5,1.1,2.6,1.1c0.8,0,1.6-0.2,2.4-0.7l-0.4-0.8
			c-0.6,0.4-1.3,0.7-1.9,0.7c-0.8,0-1.3-0.3-1.7-0.8c-0.3-0.4-0.5-1-0.5-1.8H76.5z M64.3,272.8c0.5-0.9,1.1-1.3,1.9-1.3
			c0.6,0,1.1,0.3,1.4,0.8c0.3,0.5,0.5,1.2,0.5,2.1c0,0.8-0.1,1.4-0.4,2c-0.3,0.6-0.8,0.9-1.5,0.9c-0.5,0-0.9-0.2-1.3-0.6
			c-0.2-0.2-0.4-0.4-0.5-0.7V272.8z M64.2,276.8c0.3,0.3,0.5,0.6,0.7,0.7c0.4,0.3,0.9,0.5,1.4,0.5c0.8,0,1.5-0.3,2-0.9
			c0.6-0.7,0.9-1.7,0.9-2.8c0-1.1-0.3-1.9-0.8-2.6c-0.5-0.7-1.2-1.1-2-1.1c-0.8,0-1.5,0.4-2.1,1.1v-4.1h-1.1v7.6c0,0.7,0,1.4,0,2.3
			l0,0.3h1L64.2,276.8z M59.6,267.8c-0.1,0.1-0.1,0.3-0.1,0.5c0,0.2,0,0.3,0.1,0.5c0.1,0.2,0.3,0.3,0.6,0.3c0.3,0,0.5-0.1,0.6-0.3
			c0.1-0.1,0.1-0.3,0.1-0.5c0-0.2,0-0.3-0.1-0.5c-0.1-0.2-0.3-0.3-0.6-0.3C60,267.5,59.8,267.6,59.6,267.8 M60.8,270.8h-1.1v7.1h1.1
			V270.8z M55.9,277.8v-4.5c0.1-0.4,0.3-0.7,0.5-1c0.4-0.5,0.9-0.8,1.4-0.8c0.1,0,0.2,0,0.4,0l0.1-1c-0.2,0-0.4-0.1-0.5-0.1
			c-0.5,0-0.9,0.1-1.2,0.4c-0.3,0.2-0.5,0.6-0.8,1l0-1.3h-1l0,0.3c0,0.9,0,1.8,0,2.7v4H55.9z M51.5,277.8v-8.8h2.9v-0.9h-6.8v0.9
			h2.8v8.8H51.5z"/>
		<path clip-path="url(#SVGID_8_)" fill="#FFFFFF" d="M136.3,363.3c-0.6,0-1.1-0.1-1.5-0.3c-0.6-0.3-1.1-0.8-1.4-1.5
			c-0.3-0.6-0.4-1.4-0.4-2.1c0-1.1,0.3-2.1,0.8-2.9c0.6-0.8,1.4-1.2,2.4-1.2c0.7,0,1.4,0.2,2.2,0.6l0.4-0.9
			c-0.9-0.4-1.8-0.6-2.6-0.6c-0.7,0-1.4,0.1-2,0.4c-0.8,0.4-1.4,1-1.9,1.9c-0.4,0.8-0.6,1.7-0.6,2.7c0,1.5,0.4,2.7,1.3,3.6
			c0.8,0.9,1.9,1.3,3.2,1.3c0.8,0,1.7-0.2,2.6-0.5l-0.3-0.9C137.8,363.1,137,363.3,136.3,363.3 M121.9,360c0-0.5,0.1-1,0.3-1.3
			c0.4-0.6,0.9-0.9,1.6-0.9c0.7,0,1.3,0.3,1.6,1c0.2,0.4,0.3,0.8,0.3,1.3H121.9z M126.8,360.8c0-1-0.1-1.8-0.4-2.4
			c-0.4-1-1.3-1.6-2.5-1.6c-0.8,0-1.5,0.2-2,0.7c-0.7,0.7-1.1,1.6-1.1,2.9c0,1.1,0.3,1.9,0.8,2.6c0.6,0.7,1.5,1.1,2.6,1.1
			c0.8,0,1.6-0.2,2.4-0.7l-0.4-0.8c-0.6,0.4-1.3,0.7-1.9,0.7c-0.8,0-1.3-0.3-1.7-0.8c-0.3-0.4-0.5-1-0.5-1.8H126.8z M114.5,359
			c0.5-0.9,1.1-1.3,1.9-1.3c0.6,0,1.1,0.3,1.4,0.8c0.3,0.5,0.5,1.2,0.5,2.1c0,0.8-0.1,1.4-0.4,2c-0.3,0.6-0.8,0.9-1.5,0.9
			c-0.5,0-0.9-0.2-1.3-0.6c-0.2-0.2-0.4-0.4-0.5-0.7V359z M114.5,363c0.3,0.3,0.5,0.6,0.7,0.7c0.4,0.3,0.9,0.5,1.4,0.5
			c0.8,0,1.5-0.3,2-0.9c0.6-0.7,0.9-1.7,0.9-2.8c0-1.1-0.3-1.9-0.8-2.6c-0.5-0.7-1.2-1.1-2-1.1c-0.8,0-1.5,0.4-2.1,1.1v-4.1h-1.1
			v7.6c0,0.7,0,1.4,0,2.3l0,0.3h1L114.5,363z M109.9,354c-0.1,0.1-0.1,0.3-0.1,0.5c0,0.2,0,0.3,0.1,0.5c0.1,0.2,0.3,0.3,0.6,0.3
			c0.3,0,0.5-0.1,0.6-0.3c0.1-0.1,0.1-0.3,0.1-0.5c0-0.2,0-0.3-0.1-0.5c-0.1-0.2-0.3-0.3-0.6-0.3C110.2,353.7,110,353.8,109.9,354
			 M111,357H110v7.1h1.1V357z M106.2,364.1v-4.5c0.1-0.4,0.3-0.7,0.5-1c0.4-0.5,0.9-0.8,1.4-0.8c0.1,0,0.2,0,0.4,0l0.1-1
			c-0.2,0-0.4-0.1-0.5-0.1c-0.5,0-0.9,0.1-1.2,0.4c-0.3,0.2-0.5,0.6-0.8,1l0-1.3h-1l0,0.3c0,0.9,0,1.8,0,2.7v4H106.2z M101.7,364.1
			v-8.8h2.9v-0.9h-6.8v0.9h2.8v8.8H101.7z"/>
		<path clip-path="url(#SVGID_8_)" fill="#FFFFFF" d="M183.6,273.4h0.5c0.9,0,1.6,0.1,1.9,0.2c0.6,0.3,0.9,0.8,0.9,1.5
			c0,1-0.5,1.6-1.4,1.7c-0.3,0-0.8,0.1-1.5,0.1h-0.5V273.4z M183.6,269.1h0.5c0.9,0,1.6,0.1,1.9,0.3c0.4,0.2,0.7,0.7,0.7,1.4
			c0,0.7-0.2,1.1-0.7,1.4c-0.3,0.2-1,0.3-1.9,0.3h-0.5V269.1z M184.4,277.8c0.7,0,1.1,0,1.3,0c0.5,0,0.9-0.2,1.3-0.3
			c0.8-0.4,1.2-1.2,1.2-2.2c0-1.4-0.7-2.2-2.2-2.4c0.6-0.1,1-0.3,1.3-0.5c0.5-0.4,0.7-1,0.7-1.7c0-1.4-0.7-2.2-2.2-2.4
			c-0.4-0.1-1-0.1-1.7-0.1h-1.5v9.7H184.4z M172.2,273.7c0-0.5,0.1-1,0.3-1.3c0.4-0.6,0.9-0.9,1.6-0.9c0.7,0,1.3,0.3,1.6,1
			c0.2,0.4,0.3,0.8,0.3,1.3H172.2z M177.1,274.6c0-1-0.1-1.8-0.4-2.4c-0.4-1-1.3-1.6-2.5-1.6c-0.8,0-1.5,0.2-2,0.7
			c-0.7,0.7-1.1,1.6-1.1,2.9c0,1.1,0.3,1.9,0.8,2.6c0.6,0.7,1.5,1.1,2.6,1.1c0.8,0,1.6-0.2,2.4-0.7l-0.4-0.8
			c-0.6,0.4-1.3,0.7-1.9,0.7c-0.8,0-1.3-0.3-1.7-0.8c-0.3-0.4-0.5-1-0.5-1.8H177.1z M164.8,272.8c0.5-0.9,1.1-1.3,1.9-1.3
			c0.6,0,1.1,0.3,1.4,0.8c0.3,0.5,0.5,1.2,0.5,2.1c0,0.8-0.1,1.4-0.4,2c-0.3,0.6-0.8,0.9-1.5,0.9c-0.5,0-0.9-0.2-1.3-0.6
			c-0.2-0.2-0.4-0.4-0.5-0.7V272.8z M164.7,276.8c0.3,0.3,0.5,0.6,0.7,0.7c0.4,0.3,0.9,0.5,1.4,0.5c0.8,0,1.5-0.3,2-0.9
			c0.6-0.7,0.9-1.7,0.9-2.8c0-1.1-0.3-1.9-0.8-2.6c-0.5-0.7-1.2-1.1-2-1.1c-0.8,0-1.5,0.4-2.1,1.1v-4.1h-1.1v7.6c0,0.7,0,1.4,0,2.3
			l0,0.3h1L164.7,276.8z M160.2,267.8c-0.1,0.1-0.1,0.3-0.1,0.5c0,0.2,0,0.3,0.1,0.5c0.1,0.2,0.3,0.3,0.6,0.3c0.3,0,0.5-0.1,0.6-0.3
			c0.1-0.1,0.1-0.3,0.1-0.5c0-0.2,0-0.3-0.1-0.5c-0.1-0.2-0.3-0.3-0.6-0.3C160.5,267.5,160.3,267.6,160.2,267.8 M161.3,270.8h-1.1
			v7.1h1.1V270.8z M156.4,277.8v-4.5c0.1-0.4,0.3-0.7,0.5-1c0.4-0.5,0.9-0.8,1.4-0.8c0.1,0,0.2,0,0.4,0l0.1-1
			c-0.2,0-0.4-0.1-0.5-0.1c-0.5,0-0.9,0.1-1.2,0.4c-0.3,0.2-0.5,0.6-0.8,1l0-1.3h-1l0,0.3c0,0.9,0,1.8,0,2.7v4H156.4z M152,277.8
			v-8.8h2.9v-0.9h-6.8v0.9h2.8v8.8H152z"/>
	</g>
</g>
</svg>
