<?xml version="1.0" encoding="utf-8"?>
<!-- Generator: Adobe Illustrator 18.0.0, SVG Export Plug-In . SVG Version: 6.00 Build 0)  -->
<!DOCTYPE svg PUBLIC "-//W3C//DTD SVG 1.0//EN" "http://www.w3.org/TR/2001/REC-SVG-20010904/DTD/svg10.dtd">
<svg version="1.0" id="Ebene_1" xmlns="http://www.w3.org/2000/svg" xmlns:xlink="http://www.w3.org/1999/xlink" x="0px" y="0px"
	 viewBox="0.1 0 736.8 542" enable-background="new 0.1 0 736.8 542" xml:space="preserve">
<g>
	<defs>
		<rect id="SVGID_1_" x="-0.1" y="-0.9" width="736.8" height="543.1"/>
	</defs>
	<clipPath id="SVGID_2_">
		<use xlink:href="#SVGID_1_"  overflow="visible"/>
	</clipPath>
	<g clip-path="url(#SVGID_2_)">
		<defs>
			<rect id="SVGID_3_" x="-0.1" y="-0.9" width="736.8" height="543.1"/>
		</defs>
		<clipPath id="SVGID_4_">
			<use xlink:href="#SVGID_3_"  overflow="visible"/>
		</clipPath>
		<path clip-path="url(#SVGID_4_)" fill="#004669" d="M725.4,542.3H11.3c-6.3,0-11.4-5.1-11.4-11.4V10.5C-0.1,4.2,5-0.9,11.3-0.9
			h714.1c6.3,0,11.4,5.1,11.4,11.4v520.4C736.8,537.2,731.7,542.3,725.4,542.3"/>
		<g opacity="0.75" clip-path="url(#SVGID_4_)">
			<g>
				<defs>
					<rect id="SVGID_5_" x="52.3" y="193.5" width="632.3" height="64.1"/>
				</defs>
				<clipPath id="SVGID_6_">
					<use xlink:href="#SVGID_5_"  overflow="visible"/>
				</clipPath>
				<path clip-path="url(#SVGID_6_)" fill="#50BED7" d="M75.1,200.5c0,0-13.8,0-13.8,13.8v28.4c0,0,0,13.8,13.8,13.8h586.7
					c0,0,13.8,0,13.8-13.8v-28.4c0,0,0-13.8-13.8-13.8H75.1z"/>
			</g>
		</g>
		<g opacity="0.75" clip-path="url(#SVGID_4_)">
			<g>
				<defs>
					<rect id="SVGID_7_" x="52.3" y="263.4" width="632.3" height="64.1"/>
				</defs>
				<clipPath id="SVGID_8_">
					<use xlink:href="#SVGID_7_"  overflow="visible"/>
				</clipPath>
				<path clip-path="url(#SVGID_8_)" fill="#50BED7" d="M75.1,270.4c0,0-13.8,0-13.8,13.8v28.4c0,0,0,13.8,13.8,13.8h586.7
					c0,0,13.8,0,13.8-13.8v-28.4c0,0,0-13.8-13.8-13.8H75.1z"/>
			</g>
		</g>
		<path clip-path="url(#SVGID_4_)" fill="#FFFFFF" d="M137.6,224v-5.3c0.1-0.5,0.3-0.9,0.6-1.2c0.5-0.6,1-0.9,1.7-0.9
			c0.2,0,0.4,0,0.7,0.1l0.1-1.9c-0.3-0.1-0.5-0.1-0.8-0.1c-1.1,0-1.9,0.6-2.4,1.9l-0.1-1.7h-2c0.1,1.1,0.1,2.3,0.1,3.5v5.7H137.6z
			 M126.9,218.6c0-0.5,0.1-1,0.4-1.4c0.4-0.7,1-1,1.8-1c0.8,0,1.4,0.3,1.8,1c0.2,0.4,0.3,0.9,0.3,1.4H126.9z M133.3,220.1
			c0-1.4-0.2-2.5-0.4-3.2c-0.6-1.5-1.8-2.2-3.8-2.2c-1.3,0-2.4,0.4-3.1,1.2c-0.9,0.9-1.3,2.1-1.3,3.6c0,1.5,0.4,2.6,1.1,3.4
			c0.8,0.9,2.1,1.4,3.7,1.4c1.3,0,2.5-0.3,3.5-0.9l-0.7-1.5c-0.9,0.6-1.8,0.9-2.7,0.9c-0.9,0-1.6-0.3-2.1-0.8
			c-0.3-0.4-0.5-1-0.6-1.7H133.3z M119.3,220.8c0,1.2,0.2,2,0.4,2.5c0.4,0.6,1.2,0.9,2.2,0.9c0.6,0,1.2-0.1,1.9-0.3l-0.2-1.6
			c-0.4,0.2-0.7,0.2-1,0.2c-0.5,0-0.9-0.2-1-0.5c-0.1-0.2-0.2-0.7-0.2-1.3v-4.3h2.1v-1.6h-2.1v-2.4l-2.1,0.4v2h-1.5v1.6h1.5V220.8z
			 M110.3,217.8c0.6-1,1.3-1.5,2.1-1.5c0.7,0,1.2,0.3,1.5,0.9c0.4,0.6,0.5,1.3,0.5,2.2c0,0.9-0.2,1.6-0.5,2.2c-0.4,0.7-0.9,1-1.5,1
			c-0.8,0-1.5-0.5-2.2-1.6V217.8z M110.3,227.9v-5c0.7,0.9,1.6,1.4,2.7,1.4c1.1,0,2-0.4,2.6-1.2c0.7-0.9,1.1-2.1,1.1-3.6
			c0-1.4-0.3-2.5-0.9-3.4c-0.7-0.9-1.6-1.4-2.8-1.4c-0.7,0-1.4,0.2-1.9,0.6c-0.3,0.2-0.5,0.5-0.9,0.9l-0.1-1.3h-2
			c0.1,1,0.1,2.2,0.1,3.7v9.4H110.3z M103.1,221.5c-0.6,0.9-1.3,1.3-2.1,1.3c-0.5,0-0.8-0.1-1.1-0.4c-0.2-0.3-0.4-0.6-0.4-1
			c0-0.6,0.2-1,0.7-1.3c0.4-0.2,1-0.4,1.8-0.4c0.3,0,0.6,0,0.9,0V221.5z M103.3,224h2c-0.1-0.6-0.1-1.4-0.1-2.3v-2.7
			c0-0.6,0-1.1-0.1-1.4c-0.1-0.7-0.3-1.3-0.6-1.7c-0.6-0.8-1.7-1.2-3.2-1.2c-1.1,0-2.2,0.3-3.3,0.8l0.6,1.5c0.9-0.5,1.7-0.8,2.5-0.8
			c1.4,0,2,0.7,2,2.1v0.2c-0.7,0-1.2-0.1-1.5-0.1c-1.3,0-2.2,0.2-2.8,0.5c-0.9,0.5-1.4,1.4-1.4,2.5c0,0.8,0.3,1.5,0.8,2
			c0.5,0.5,1.2,0.8,2.2,0.8c0.7,0,1.4-0.2,1.9-0.5c0.3-0.2,0.6-0.4,0.9-0.8L103.3,224z M89.3,224v-6.2c0.8-1,1.6-1.5,2.4-1.5
			c0.7,0,1.1,0.3,1.3,0.8c0.1,0.3,0.2,0.8,0.2,1.6v5.4h2.1v-5.5c0-1.2-0.1-2.1-0.4-2.6c-0.5-0.9-1.3-1.3-2.5-1.3
			c-1.2,0-2.2,0.5-3.1,1.4v-5.2h-2.1V224H89.3z M83.7,222.1c-0.6,0.2-1.2,0.3-1.9,0.3c-1.1,0-1.9-0.3-2.6-1
			c-0.9-0.8-1.3-2.1-1.3-3.7c0-1.4,0.3-2.5,1-3.4c0.6-0.9,1.6-1.3,2.8-1.3c0.9,0,1.8,0.3,2.8,0.8l0.7-1.7c-1.2-0.6-2.5-0.8-3.7-0.8
			c-1.6,0-2.9,0.4-3.9,1.3c-1.4,1.2-2.1,2.9-2.1,5.2c0,2,0.6,3.6,1.7,4.7c1.1,1.1,2.5,1.6,4.4,1.6c0.9,0,1.6-0.1,2.4-0.3
			c0.4-0.1,0.8-0.3,1.3-0.5l-0.6-1.8C84.3,221.9,84,222,83.7,222.1"/>
		<path clip-path="url(#SVGID_4_)" fill="#FFFFFF" d="M137.6,294.7v-5.3c0.1-0.5,0.3-0.9,0.6-1.2c0.5-0.6,1-0.9,1.7-0.9
			c0.2,0,0.4,0,0.7,0.1l0.1-1.9c-0.3-0.1-0.5-0.1-0.8-0.1c-1.1,0-1.9,0.6-2.4,1.9l-0.1-1.7h-2c0.1,1.1,0.1,2.3,0.1,3.5v5.7H137.6z
			 M126.9,289.3c0-0.5,0.1-1,0.4-1.4c0.4-0.7,1-1,1.8-1c0.8,0,1.4,0.3,1.8,1c0.2,0.4,0.3,0.9,0.3,1.4H126.9z M133.3,290.8
			c0-1.4-0.2-2.5-0.4-3.2c-0.6-1.5-1.8-2.2-3.8-2.2c-1.3,0-2.4,0.4-3.1,1.2c-0.9,0.9-1.3,2.1-1.3,3.6c0,1.5,0.4,2.6,1.1,3.4
			c0.8,0.9,2.1,1.4,3.7,1.4c1.3,0,2.5-0.3,3.5-0.9l-0.7-1.5c-0.9,0.6-1.8,0.9-2.7,0.9c-0.9,0-1.6-0.3-2.1-0.8
			c-0.3-0.4-0.5-1-0.6-1.7H133.3z M119.3,291.5c0,1.2,0.2,2,0.4,2.5c0.4,0.6,1.2,0.9,2.2,0.9c0.6,0,1.2-0.1,1.9-0.3l-0.2-1.6
			c-0.4,0.2-0.7,0.2-1,0.2c-0.5,0-0.9-0.2-1-0.5c-0.1-0.2-0.2-0.7-0.2-1.3v-4.3h2.1v-1.6h-2.1v-2.4l-2.1,0.4v2h-1.5v1.6h1.5V291.5z
			 M110.3,288.5c0.6-1,1.3-1.5,2.1-1.5c0.7,0,1.2,0.3,1.5,0.9c0.4,0.6,0.5,1.3,0.5,2.2c0,0.9-0.2,1.6-0.5,2.2c-0.4,0.7-0.9,1-1.5,1
			c-0.8,0-1.5-0.5-2.2-1.6V288.5z M110.3,298.6v-5c0.7,0.9,1.6,1.4,2.7,1.4c1.1,0,2-0.4,2.6-1.2c0.7-0.9,1.1-2.1,1.1-3.6
			c0-1.4-0.3-2.5-0.9-3.4c-0.7-0.9-1.6-1.4-2.8-1.4c-0.7,0-1.4,0.2-1.9,0.6c-0.3,0.2-0.5,0.5-0.9,0.9l-0.1-1.3h-2
			c0.1,1,0.1,2.2,0.1,3.7v9.4H110.3z M103.1,292.2c-0.6,0.9-1.3,1.3-2.1,1.3c-0.5,0-0.8-0.1-1.1-0.4c-0.2-0.3-0.4-0.6-0.4-1
			c0-0.6,0.2-1,0.7-1.3c0.4-0.2,1-0.4,1.8-0.4c0.3,0,0.6,0,0.9,0V292.2z M103.3,294.7h2c-0.1-0.6-0.1-1.4-0.1-2.3v-2.7
			c0-0.6,0-1.1-0.1-1.4c-0.1-0.7-0.3-1.3-0.6-1.7c-0.6-0.8-1.7-1.2-3.2-1.2c-1.1,0-2.2,0.3-3.3,0.8l0.6,1.5c0.9-0.5,1.7-0.8,2.5-0.8
			c1.4,0,2,0.7,2,2.1v0.2c-0.7,0-1.2-0.1-1.5-0.1c-1.3,0-2.2,0.2-2.8,0.5c-0.9,0.5-1.4,1.4-1.4,2.5c0,0.8,0.3,1.5,0.8,2
			c0.5,0.5,1.2,0.8,2.2,0.8c0.7,0,1.4-0.2,1.9-0.5c0.3-0.2,0.6-0.4,0.9-0.8L103.3,294.7z M89.3,294.7v-6.2c0.8-1,1.6-1.5,2.4-1.5
			c0.7,0,1.1,0.3,1.3,0.8c0.1,0.3,0.2,0.8,0.2,1.6v5.4h2.1v-5.5c0-1.2-0.1-2.1-0.4-2.6c-0.5-0.9-1.3-1.3-2.5-1.3
			c-1.2,0-2.2,0.5-3.1,1.4v-5.2h-2.1v13.2H89.3z M83.7,292.8c-0.6,0.2-1.2,0.3-1.9,0.3c-1.1,0-1.9-0.3-2.6-1
			c-0.9-0.8-1.3-2.1-1.3-3.7c0-1.4,0.3-2.5,1-3.4c0.6-0.9,1.6-1.3,2.8-1.3c0.9,0,1.8,0.3,2.8,0.8l0.7-1.7c-1.2-0.6-2.5-0.8-3.7-0.8
			c-1.6,0-2.9,0.4-3.9,1.3c-1.4,1.2-2.1,2.9-2.1,5.2c0,2,0.6,3.6,1.7,4.7c1.1,1.1,2.5,1.6,4.4,1.6c0.9,0,1.6-0.1,2.4-0.3
			c0.4-0.1,0.8-0.3,1.3-0.5l-0.6-1.8C84.3,292.6,84,292.7,83.7,292.8"/>
		<path clip-path="url(#SVGID_4_)" fill="#FFFFFF" d="M153.1,243.7c-0.2,0.3-0.4,0.6-0.5,0.7c-0.4,0.4-0.8,0.6-1.3,0.6
			c-0.7,0-1.1-0.3-1.5-0.9c-0.3-0.5-0.4-1.2-0.4-2c0-0.8,0.2-1.5,0.5-2.1c0.3-0.5,0.8-0.8,1.4-0.8c0.8,0,1.4,0.4,1.9,1.3V243.7z
			 M153.1,239.7c-0.6-0.7-1.2-1.1-2.1-1.1c-0.8,0-1.4,0.3-1.9,0.9c-0.6,0.7-0.9,1.6-0.9,2.7c0,1.1,0.3,2,0.8,2.7
			c0.5,0.7,1.2,1.1,2.1,1.1c0.6,0,1-0.2,1.4-0.5c0.2-0.2,0.4-0.4,0.7-0.7l0,1.1h1l0-0.3c0-0.9,0-1.7,0-2.3v-7.6h-1.1V239.7z
			 M145.2,244c-0.5,0.7-1.1,1.1-1.8,1.1c-0.4,0-0.7-0.1-0.9-0.3c-0.2-0.2-0.3-0.5-0.3-0.9c0-0.5,0.2-0.9,0.7-1.2
			c0.3-0.2,0.9-0.3,1.7-0.3c0.3,0,0.5,0,0.8,0V244z M145.3,245.8h1c0-0.5-0.1-1-0.1-1.8v-2.3c0-0.4,0-0.7,0-0.9c0-0.6-0.1-1-0.3-1.3
			c-0.4-0.6-1.1-1-2.2-1c-0.9,0-1.7,0.2-2.4,0.7l0.5,0.8c0.6-0.4,1.3-0.6,1.8-0.6c0.7,0,1.2,0.2,1.4,0.7c0.1,0.3,0.2,0.7,0.2,1.2
			v0.2c-0.5,0-0.9,0-1,0c-0.9,0-1.6,0.1-2.1,0.3c-0.8,0.4-1.2,1.1-1.2,2c0,0.6,0.2,1.1,0.5,1.5c0.4,0.4,1,0.6,1.7,0.6
			c0.5,0,1-0.1,1.4-0.4c0.2-0.1,0.5-0.3,0.7-0.6L145.3,245.8z M134.8,241.7c0-0.5,0.1-1,0.3-1.3c0.4-0.6,0.9-0.9,1.6-0.9
			c0.7,0,1.3,0.3,1.6,0.9c0.2,0.4,0.3,0.8,0.3,1.3H134.8z M139.7,242.5c0-1-0.1-1.8-0.4-2.4c-0.4-1-1.3-1.6-2.5-1.6
			c-0.8,0-1.5,0.2-2,0.7c-0.7,0.7-1.1,1.6-1.1,2.9c0,1.1,0.3,1.9,0.8,2.6c0.6,0.7,1.5,1.1,2.6,1.1c0.8,0,1.6-0.2,2.4-0.7l-0.4-0.8
			c-0.6,0.4-1.3,0.7-1.9,0.7c-0.8,0-1.3-0.3-1.7-0.8c-0.3-0.4-0.5-1-0.5-1.8H139.7z M132.9,245.8v-0.9h-4.2v-8.8h-1.1v9.7H132.9z
			 M120.2,245.8v-4.5c0.1-0.4,0.3-0.7,0.5-1c0.4-0.5,0.9-0.8,1.4-0.8c0.1,0,0.2,0,0.4,0l0.1-1c-0.2,0-0.4-0.1-0.5-0.1
			c-0.5,0-0.9,0.1-1.2,0.4c-0.3,0.2-0.5,0.6-0.8,1l0-1.3h-1l0,0.3c0,0.9,0,1.8,0,2.7v4H120.2z M112.4,241.7c0-0.5,0.1-1,0.3-1.3
			c0.4-0.6,0.9-0.9,1.6-0.9c0.7,0,1.3,0.3,1.6,0.9c0.2,0.4,0.3,0.8,0.3,1.3H112.4z M117.2,242.5c0-1-0.1-1.8-0.4-2.4
			c-0.4-1-1.3-1.6-2.5-1.6c-0.8,0-1.5,0.2-2,0.7c-0.7,0.7-1.1,1.6-1.1,2.9c0,1.1,0.3,1.9,0.8,2.6c0.6,0.7,1.5,1.1,2.6,1.1
			c0.8,0,1.6-0.2,2.4-0.7l-0.4-0.8c-0.6,0.4-1.3,0.7-1.9,0.7c-0.8,0-1.3-0.3-1.7-0.8c-0.3-0.4-0.5-1-0.5-1.8H117.2z M107.5,243.6
			c0,0.8,0.1,1.3,0.3,1.6c0.3,0.4,0.8,0.7,1.5,0.7c0.4,0,0.7-0.1,1.1-0.2l-0.1-0.8c-0.3,0.1-0.6,0.2-0.8,0.2c-0.4,0-0.7-0.1-0.8-0.4
			c-0.1-0.2-0.2-0.6-0.2-1.2v-3.9h1.7v-0.9h-1.7v-1.8l-1.1,0.2v1.6h-1.1v0.9h1.1V243.6z M100.5,240.7c0.5-0.9,1.1-1.3,1.9-1.3
			c0.6,0,1.1,0.3,1.4,0.8c0.3,0.5,0.5,1.2,0.5,2.1c0,0.8-0.1,1.4-0.4,2c-0.3,0.6-0.8,0.9-1.5,0.9c-0.5,0-0.9-0.2-1.3-0.6
			c-0.2-0.2-0.3-0.4-0.5-0.7V240.7z M100.5,248.8v-4c0.2,0.3,0.4,0.5,0.6,0.6c0.4,0.3,0.9,0.5,1.4,0.5c0.8,0,1.5-0.3,2-0.9
			c0.6-0.7,0.9-1.7,0.9-2.8c0-1.1-0.3-1.9-0.8-2.6c-0.5-0.7-1.2-1.1-2-1.1c-0.6,0-1,0.2-1.5,0.5c-0.2,0.2-0.4,0.4-0.7,0.7l0-1.1h-1
			l0,0.4c0,0.9,0,1.7,0,2.5v7.2H100.5z M96,244c-0.5,0.7-1.1,1.1-1.8,1.1c-0.4,0-0.7-0.1-0.9-0.3c-0.2-0.2-0.3-0.5-0.3-0.9
			c0-0.5,0.2-0.9,0.7-1.2c0.3-0.2,0.9-0.3,1.7-0.3c0.3,0,0.5,0,0.8,0V244z M96.1,245.8h1c0-0.5-0.1-1-0.1-1.8v-2.3
			c0-0.4,0-0.7,0-0.9c0-0.6-0.1-1-0.3-1.3c-0.4-0.6-1.1-1-2.2-1c-0.9,0-1.7,0.2-2.4,0.7l0.5,0.8c0.6-0.4,1.3-0.6,1.8-0.6
			c0.7,0,1.2,0.2,1.4,0.7c0.1,0.3,0.2,0.7,0.2,1.2v0.2c-0.5,0-0.9,0-1,0c-0.9,0-1.6,0.1-2.1,0.3c-0.8,0.4-1.2,1.1-1.2,2
			c0,0.6,0.2,1.1,0.5,1.5c0.4,0.4,1,0.6,1.7,0.6c0.5,0,1-0.1,1.4-0.4c0.2-0.1,0.5-0.3,0.7-0.6L96.1,245.8z M85.2,245.8v-5.1
			c0.7-0.9,1.5-1.3,2.2-1.3c0.6,0,1.1,0.3,1.2,0.8c0.1,0.3,0.2,0.8,0.2,1.5v4.1h1.1v-4.1c0-0.3,0-0.6,0-0.9c0-0.5-0.1-0.9-0.3-1.2
			c-0.3-0.7-1-1-1.8-1c-0.9,0-1.8,0.4-2.6,1.2v-4.2h-1.1v10.2H85.2z M80,245c-0.6,0-1.1-0.1-1.5-0.3c-0.6-0.3-1.1-0.8-1.4-1.5
			c-0.3-0.6-0.4-1.4-0.4-2.1c0-1.1,0.3-2.1,0.8-2.9c0.6-0.8,1.4-1.2,2.4-1.2c0.7,0,1.4,0.2,2.2,0.6l0.4-0.9
			c-0.9-0.4-1.8-0.6-2.6-0.6c-0.7,0-1.4,0.1-2,0.4c-0.8,0.4-1.4,1-1.9,1.9c-0.4,0.8-0.6,1.7-0.6,2.7c0,1.5,0.4,2.7,1.3,3.6
			c0.8,0.9,1.9,1.3,3.2,1.3c0.8,0,1.7-0.2,2.6-0.5l-0.3-0.9C81.5,244.8,80.8,245,80,245"/>
		<path clip-path="url(#SVGID_4_)" fill="#FFFFFF" d="M153.1,314.4c-0.2,0.3-0.4,0.6-0.5,0.7c-0.4,0.4-0.8,0.6-1.3,0.6
			c-0.7,0-1.1-0.3-1.5-0.9c-0.3-0.5-0.4-1.2-0.4-2c0-0.8,0.2-1.5,0.5-2.1c0.3-0.5,0.8-0.8,1.4-0.8c0.8,0,1.4,0.4,1.9,1.3V314.4z
			 M153.1,310.4c-0.6-0.7-1.2-1.1-2.1-1.1c-0.8,0-1.4,0.3-1.9,0.9c-0.6,0.7-0.9,1.6-0.9,2.7c0,1.1,0.3,2,0.8,2.7
			c0.5,0.7,1.2,1.1,2.1,1.1c0.6,0,1-0.2,1.4-0.5c0.2-0.2,0.4-0.4,0.7-0.7l0,1.1h1l0-0.3c0-0.9,0-1.7,0-2.3v-7.6h-1.1V310.4z
			 M145.2,314.7c-0.5,0.7-1.1,1.1-1.8,1.1c-0.4,0-0.7-0.1-0.9-0.3c-0.2-0.2-0.3-0.5-0.3-0.9c0-0.5,0.2-0.9,0.7-1.2
			c0.3-0.2,0.9-0.3,1.7-0.3c0.3,0,0.5,0,0.8,0V314.7z M145.3,316.5h1c0-0.5-0.1-1-0.1-1.8v-2.3c0-0.4,0-0.7,0-0.9
			c0-0.6-0.1-1-0.3-1.3c-0.4-0.6-1.1-1-2.2-1c-0.9,0-1.7,0.2-2.4,0.7l0.5,0.8c0.6-0.4,1.3-0.6,1.8-0.6c0.7,0,1.2,0.2,1.4,0.7
			c0.1,0.3,0.2,0.7,0.2,1.2v0.2c-0.5,0-0.9,0-1,0c-0.9,0-1.6,0.1-2.1,0.3c-0.8,0.4-1.2,1.1-1.2,2c0,0.6,0.2,1.1,0.5,1.5
			c0.4,0.4,1,0.6,1.7,0.6c0.5,0,1-0.1,1.4-0.4c0.2-0.1,0.5-0.3,0.7-0.6L145.3,316.5z M134.8,312.4c0-0.5,0.1-1,0.3-1.3
			c0.4-0.6,0.9-0.9,1.6-0.9c0.7,0,1.3,0.3,1.6,0.9c0.2,0.4,0.3,0.8,0.3,1.3H134.8z M139.7,313.2c0-1-0.1-1.8-0.4-2.4
			c-0.4-1-1.3-1.6-2.5-1.6c-0.8,0-1.5,0.2-2,0.7c-0.7,0.7-1.1,1.6-1.1,2.9c0,1.1,0.3,1.9,0.8,2.6c0.6,0.7,1.5,1.1,2.6,1.1
			c0.8,0,1.6-0.2,2.4-0.7l-0.4-0.8c-0.6,0.4-1.3,0.7-1.9,0.7c-0.8,0-1.3-0.3-1.7-0.8c-0.3-0.4-0.5-1-0.5-1.8H139.7z M132.9,316.5
			v-0.9h-4.2v-8.8h-1.1v9.7H132.9z M120.2,316.5V312c0.1-0.4,0.3-0.7,0.5-1c0.4-0.5,0.9-0.8,1.4-0.8c0.1,0,0.2,0,0.4,0l0.1-1
			c-0.2,0-0.4-0.1-0.5-0.1c-0.5,0-0.9,0.1-1.2,0.4c-0.3,0.2-0.5,0.6-0.8,1l0-1.3h-1l0,0.3c0,0.9,0,1.8,0,2.7v4H120.2z M112.4,312.4
			c0-0.5,0.1-1,0.3-1.3c0.4-0.6,0.9-0.9,1.6-0.9c0.7,0,1.3,0.3,1.6,0.9c0.2,0.4,0.3,0.8,0.3,1.3H112.4z M117.2,313.2
			c0-1-0.1-1.8-0.4-2.4c-0.4-1-1.3-1.6-2.5-1.6c-0.8,0-1.5,0.2-2,0.7c-0.7,0.7-1.1,1.6-1.1,2.9c0,1.1,0.3,1.9,0.8,2.6
			c0.6,0.7,1.5,1.1,2.6,1.1c0.8,0,1.6-0.2,2.4-0.7l-0.4-0.8c-0.6,0.4-1.3,0.7-1.9,0.7c-0.8,0-1.3-0.3-1.7-0.8
			c-0.3-0.4-0.5-1-0.5-1.8H117.2z M107.5,314.3c0,0.8,0.1,1.3,0.3,1.6c0.3,0.4,0.8,0.7,1.5,0.7c0.4,0,0.7-0.1,1.1-0.2l-0.1-0.8
			c-0.3,0.1-0.6,0.2-0.8,0.2c-0.4,0-0.7-0.1-0.8-0.4c-0.1-0.2-0.2-0.6-0.2-1.2v-3.9h1.7v-0.9h-1.7v-1.8l-1.1,0.2v1.6h-1.1v0.9h1.1
			V314.3z M100.5,311.4c0.5-0.9,1.1-1.3,1.9-1.3c0.6,0,1.1,0.3,1.4,0.8c0.3,0.5,0.5,1.2,0.5,2.1c0,0.8-0.1,1.4-0.4,2
			c-0.3,0.6-0.8,0.9-1.5,0.9c-0.5,0-0.9-0.2-1.3-0.6c-0.2-0.2-0.3-0.4-0.5-0.7V311.4z M100.5,319.5v-4c0.2,0.3,0.4,0.5,0.6,0.6
			c0.4,0.3,0.9,0.5,1.4,0.5c0.8,0,1.5-0.3,2-0.9c0.6-0.7,0.9-1.7,0.9-2.8c0-1.1-0.3-1.9-0.8-2.6c-0.5-0.7-1.2-1.1-2-1.1
			c-0.6,0-1,0.2-1.5,0.5c-0.2,0.2-0.4,0.4-0.7,0.7l0-1.1h-1l0,0.4c0,0.9,0,1.7,0,2.5v7.2H100.5z M96,314.7c-0.5,0.7-1.1,1.1-1.8,1.1
			c-0.4,0-0.7-0.1-0.9-0.3c-0.2-0.2-0.3-0.5-0.3-0.9c0-0.5,0.2-0.9,0.7-1.2c0.3-0.2,0.9-0.3,1.7-0.3c0.3,0,0.5,0,0.8,0V314.7z
			 M96.1,316.5h1c0-0.5-0.1-1-0.1-1.8v-2.3c0-0.4,0-0.7,0-0.9c0-0.6-0.1-1-0.3-1.3c-0.4-0.6-1.1-1-2.2-1c-0.9,0-1.7,0.2-2.4,0.7
			l0.5,0.8c0.6-0.4,1.3-0.6,1.8-0.6c0.7,0,1.2,0.2,1.4,0.7c0.1,0.3,0.2,0.7,0.2,1.2v0.2c-0.5,0-0.9,0-1,0c-0.9,0-1.6,0.1-2.1,0.3
			c-0.8,0.4-1.2,1.1-1.2,2c0,0.6,0.2,1.1,0.5,1.5c0.4,0.4,1,0.6,1.7,0.6c0.5,0,1-0.1,1.4-0.4c0.2-0.1,0.5-0.3,0.7-0.6L96.1,316.5z
			 M85.2,316.5v-5.1c0.7-0.9,1.5-1.3,2.2-1.3c0.6,0,1.1,0.3,1.2,0.8c0.1,0.3,0.2,0.8,0.2,1.5v4.1h1.1v-4.1c0-0.3,0-0.6,0-0.9
			c0-0.5-0.1-0.9-0.3-1.2c-0.3-0.7-1-1-1.8-1c-0.9,0-1.8,0.4-2.6,1.2v-4.2h-1.1v10.2H85.2z M80,315.7c-0.6,0-1.1-0.1-1.5-0.3
			c-0.6-0.3-1.1-0.8-1.4-1.5c-0.3-0.6-0.4-1.4-0.4-2.1c0-1.1,0.3-2.1,0.8-2.9c0.6-0.8,1.4-1.2,2.4-1.2c0.7,0,1.4,0.2,2.2,0.6
			l0.4-0.9c-0.9-0.4-1.8-0.6-2.6-0.6c-0.7,0-1.4,0.1-2,0.4c-0.8,0.4-1.4,1-1.9,1.9c-0.4,0.8-0.6,1.7-0.6,2.7c0,1.5,0.4,2.7,1.3,3.6
			c0.8,0.9,1.9,1.3,3.2,1.3c0.8,0,1.7-0.2,2.6-0.5l-0.3-0.9C81.5,315.5,80.8,315.7,80,315.7"/>
		<g opacity="0.75" clip-path="url(#SVGID_4_)">
			<g>
				<defs>
					<rect id="SVGID_9_" x="52.3" y="383.2" width="632.3" height="64.1"/>
				</defs>
				<clipPath id="SVGID_10_">
					<use xlink:href="#SVGID_9_"  overflow="visible"/>
				</clipPath>
				<path clip-path="url(#SVGID_10_)" fill="#50BED7" d="M75.1,390.2c0,0-13.8,0-13.8,13.8v28.4c0,0,0,13.8,13.8,13.8h586.7
					c0,0,13.8,0,13.8-13.8V404c0,0,0-13.8-13.8-13.8H75.1z"/>
			</g>
		</g>
		<path clip-path="url(#SVGID_4_)" fill="#41AAAA" d="M72.3,162.7c0,0-11,0-11,11v2.8c0,0,0,11,11,11h592.3c0,0,11,0,11-11v-2.8
			c0,0,0-11-11-11H72.3z"/>
		<path clip-path="url(#SVGID_4_)" fill="#41AAAA" d="M72.3,355.4c0,0-11,0-11,11v2.8c0,0,0,11,11,11h592.3c0,0,11,0,11-11v-2.8
			c0,0,0-11-11-11H72.3z"/>
		<path clip-path="url(#SVGID_4_)" fill="#FFFFFF" d="M132.4,179.8c1,0,1.7-0.2,2.3-0.6c0.6-0.5,0.9-1.2,0.9-2.1
			c0-0.4-0.1-0.8-0.2-1.1c-0.2-0.4-0.5-0.7-1-1c-0.3-0.1-0.7-0.4-1.4-0.6c-0.6-0.3-1.1-0.5-1.3-0.7c-0.2-0.2-0.3-0.4-0.3-0.7
			c0-0.3,0.1-0.6,0.4-0.8c0.3-0.2,0.6-0.3,1-0.3c0.6,0,1.3,0.2,2.1,0.5l0.3-1.3c-0.9-0.3-1.8-0.5-2.5-0.5c-0.9,0-1.6,0.2-2.1,0.6
			c-0.6,0.5-0.9,1.2-0.9,2c0,0.4,0.1,0.7,0.2,1c0.2,0.4,0.5,0.7,1,0.9c0.2,0.1,0.6,0.3,1.3,0.6c0.7,0.3,1.2,0.5,1.4,0.7
			c0.2,0.2,0.3,0.5,0.3,0.8c0,0.4-0.1,0.7-0.4,0.9c-0.3,0.3-0.7,0.4-1.2,0.4c-0.7,0-1.5-0.2-2.4-0.6l-0.2,1.4
			C130.6,179.6,131.5,179.8,132.4,179.8 M124,171.9h0.7c0.7,0,1.1,0.1,1.4,0.3c0.4,0.2,0.5,0.6,0.5,1.1c0,0.6-0.2,0.9-0.7,1.2
			c-0.3,0.2-0.8,0.2-1.4,0.2H124V171.9z M124,179.6v-3.8h0.4c0.3,0,0.5,0,0.7,0.1c0.3,0.1,0.5,0.3,0.7,0.7c0.1,0.2,0.3,0.6,0.5,1
			l0.8,1.9h1.7l-1.1-2.6c-0.2-0.6-0.4-1-0.6-1.2c-0.2-0.2-0.4-0.4-0.7-0.6c0.4-0.1,0.8-0.3,1-0.5c0.5-0.4,0.7-1,0.7-1.8
			c0-0.5-0.1-1-0.4-1.4c-0.3-0.4-0.7-0.7-1.3-0.9c-0.4-0.1-0.9-0.1-1.5-0.1h-2.6v9H124z M120.6,179.6v-1.3h-3.9v-2.7h3.5v-1.3h-3.5
			v-2.5h3.7v-1.3h-5.3v9H120.6z M111.3,179.6v-7.7h2.7v-1.3h-6.8v1.3h2.6v7.7H111.3z M102.5,171.9h0.6c0.7,0,1.2,0.1,1.5,0.3
			c0.4,0.2,0.6,0.7,0.6,1.2c0,0.6-0.2,1-0.6,1.2c-0.3,0.1-0.8,0.2-1.5,0.2h-0.5V171.9z M102.5,179.6V176h0.7c0.4,0,0.8,0,1.1-0.1
			c0.5-0.1,1-0.2,1.4-0.5c0.7-0.5,1.1-1.2,1.1-2.2c0-0.6-0.1-1.1-0.4-1.5c-0.3-0.5-0.8-0.9-1.4-1c-0.4-0.1-1-0.2-1.8-0.2h-2.2v9
			H102.5z M94.1,175.8l0.8-2.1c0.2-0.6,0.4-1.1,0.5-1.5c0.2,0.5,0.3,1,0.5,1.5l0.8,2.1H94.1z M98,179.6h1.7l-3.4-9h-1.8l-3.3,9h1.6
			l0.9-2.6h3.4L98,179.6z M84.6,179.6v-4h3.8v4H90v-9h-1.6v3.8h-3.8v-3.8H83v9H84.6z M80.5,178.3c-0.4,0.2-0.9,0.2-1.4,0.2
			c-0.8,0-1.4-0.2-1.9-0.7c-0.6-0.6-0.9-1.5-0.9-2.6c0-1,0.2-1.8,0.7-2.5c0.5-0.6,1.1-0.9,2-0.9c0.6,0,1.3,0.2,2,0.6l0.5-1.2
			c-0.9-0.4-1.8-0.6-2.6-0.6c-1.2,0-2.1,0.3-2.8,1c-1,0.9-1.5,2.1-1.5,3.8c0,1.4,0.4,2.6,1.2,3.4c0.8,0.8,1.8,1.2,3.2,1.2
			c0.6,0,1.2-0.1,1.7-0.2c0.3-0.1,0.6-0.2,1-0.4l-0.4-1.3C81,178.1,80.7,178.2,80.5,178.3"/>
		<path clip-path="url(#SVGID_4_)" fill="#FFFFFF" d="M197.1,372.5c1,0,1.7-0.2,2.3-0.6c0.6-0.5,0.9-1.2,0.9-2.1
			c0-0.4-0.1-0.8-0.2-1.1c-0.2-0.4-0.5-0.7-1-1c-0.3-0.1-0.7-0.4-1.4-0.6c-0.6-0.3-1.1-0.5-1.3-0.7c-0.2-0.2-0.3-0.4-0.3-0.7
			c0-0.3,0.1-0.6,0.4-0.8c0.3-0.2,0.6-0.3,1-0.3c0.6,0,1.3,0.2,2.1,0.5l0.3-1.3c-0.9-0.3-1.8-0.5-2.5-0.5c-0.9,0-1.6,0.2-2.1,0.6
			c-0.6,0.5-0.9,1.2-0.9,2c0,0.4,0.1,0.7,0.2,1c0.2,0.4,0.5,0.7,1,0.9c0.2,0.1,0.6,0.3,1.3,0.6c0.7,0.3,1.2,0.5,1.4,0.7
			c0.2,0.2,0.3,0.5,0.3,0.8c0,0.4-0.1,0.7-0.4,0.9c-0.3,0.3-0.7,0.4-1.2,0.4c-0.7,0-1.5-0.2-2.4-0.6l-0.2,1.4
			C195.4,372.4,196.3,372.5,197.1,372.5 M188.8,364.6h0.7c0.7,0,1.1,0.1,1.4,0.3c0.4,0.2,0.5,0.6,0.5,1.1c0,0.6-0.2,0.9-0.7,1.2
			c-0.3,0.2-0.8,0.2-1.4,0.2h-0.6V364.6z M188.8,372.4v-3.8h0.4c0.3,0,0.5,0,0.7,0.1c0.3,0.1,0.5,0.3,0.7,0.7c0.1,0.2,0.3,0.6,0.5,1
			l0.8,1.9h1.7l-1.1-2.6c-0.2-0.6-0.4-1-0.6-1.2c-0.2-0.2-0.4-0.4-0.7-0.6c0.4-0.1,0.8-0.3,1-0.5c0.5-0.4,0.7-1,0.7-1.8
			c0-0.5-0.1-1-0.4-1.4c-0.3-0.4-0.7-0.7-1.3-0.9c-0.4-0.1-0.9-0.1-1.5-0.1h-2.6v9H188.8z M185.4,372.4v-1.3h-3.9v-2.7h3.5v-1.3
			h-3.5v-2.5h3.7v-1.3h-5.3v9H185.4z M176,372.4v-7.7h2.7v-1.3h-6.8v1.3h2.6v7.7H176z M167.2,364.6h0.6c0.7,0,1.2,0.1,1.5,0.3
			c0.4,0.2,0.6,0.7,0.6,1.2c0,0.6-0.2,1-0.6,1.2c-0.3,0.1-0.8,0.2-1.5,0.2h-0.5V364.6z M167.3,372.4v-3.6h0.7c0.4,0,0.8,0,1.1-0.1
			c0.5-0.1,1-0.2,1.4-0.5c0.7-0.5,1.1-1.2,1.1-2.2c0-0.6-0.1-1.1-0.4-1.5c-0.3-0.5-0.8-0.9-1.4-1c-0.4-0.1-1-0.2-1.8-0.2h-2.2v9
			H167.3z M158.9,368.6l0.8-2.1c0.2-0.6,0.4-1.1,0.5-1.5c0.2,0.5,0.3,1,0.5,1.5l0.8,2.1H158.9z M162.8,372.4h1.7l-3.4-9h-1.8l-3.3,9
			h1.6l0.9-2.6h3.4L162.8,372.4z M149.4,372.4v-4h3.8v4h1.6v-9h-1.6v3.8h-3.8v-3.8h-1.6v9H149.4z M145.3,371
			c-0.4,0.2-0.9,0.2-1.4,0.2c-0.8,0-1.4-0.2-1.9-0.7c-0.6-0.6-0.9-1.5-0.9-2.6c0-1,0.2-1.8,0.7-2.5c0.5-0.6,1.1-0.9,2-0.9
			c0.6,0,1.3,0.2,2.1,0.6l0.5-1.2c-0.9-0.4-1.8-0.6-2.6-0.6c-1.2,0-2.1,0.3-2.8,1c-1,0.9-1.5,2.1-1.5,3.8c0,1.4,0.4,2.6,1.2,3.4
			c0.8,0.8,1.8,1.2,3.2,1.2c0.6,0,1.2-0.1,1.7-0.2c0.3-0.1,0.6-0.2,1-0.4l-0.4-1.3C145.7,370.8,145.5,370.9,145.3,371 M129.3,364.6
			h0.6c0.7,0,1.1,0,1.5,0.1c0.7,0.1,1.2,0.5,1.5,1.1c0.3,0.6,0.5,1.2,0.5,2c0,0.5-0.1,1-0.2,1.5c-0.2,0.6-0.5,1-0.9,1.3
			c-0.5,0.3-1.2,0.5-2.2,0.5h-0.6V364.6z M129.9,372.4c0.5,0,0.9,0,1.3,0c0.9-0.1,1.6-0.3,2.1-0.6c1.1-0.7,1.7-2,1.7-3.8
			c0-1-0.2-1.9-0.6-2.6c-0.5-0.9-1.2-1.4-2.2-1.7c-0.6-0.2-1.3-0.2-2.2-0.2h-2.3v9H129.9z M125.9,372.4v-1.3H122v-2.7h3.5v-1.3H122
			v-2.5h3.7v-1.3h-5.3v9H125.9z M112.5,372.4v-4.8c0-0.8,0-1.5,0-2c0.4,0.9,0.8,1.6,1.1,2.1l2.8,4.6h1.7v-9h-1.5v5.2
			c0,0.7,0,1.2,0,1.5c-0.5-0.9-0.8-1.6-1.1-2l-2.9-4.8H111v9H112.5z M105.7,367.5v1.3h1.7v2.2c-0.4,0.2-0.9,0.2-1.4,0.2
			c-0.8,0-1.4-0.2-1.9-0.7c-0.6-0.6-1-1.5-1-2.6c0-1,0.2-1.8,0.7-2.4c0.5-0.7,1.2-1,2.2-1c0.8,0,1.5,0.2,2.4,0.6l0.5-1.2
			c-0.9-0.4-1.9-0.6-2.9-0.6c-1.3,0-2.3,0.4-3.1,1.1c-1,0.9-1.5,2.1-1.5,3.7c0,1.5,0.4,2.6,1.3,3.4c0.8,0.7,1.8,1.1,3.2,1.1
			c0.9,0,1.9-0.2,3-0.6v-4.4H105.7z M99.6,363.4H98v9h1.6V363.4z M93.1,372.5c1,0,1.7-0.2,2.3-0.6c0.6-0.5,0.9-1.2,0.9-2.1
			c0-0.4-0.1-0.8-0.2-1.1c-0.2-0.4-0.5-0.7-1-1c-0.3-0.1-0.7-0.4-1.4-0.6c-0.6-0.3-1.1-0.5-1.3-0.7c-0.2-0.2-0.3-0.4-0.3-0.7
			c0-0.3,0.1-0.6,0.4-0.8c0.3-0.2,0.6-0.3,1-0.3c0.6,0,1.3,0.2,2.1,0.5l0.3-1.3c-0.9-0.3-1.8-0.5-2.5-0.5c-0.9,0-1.6,0.2-2.1,0.6
			c-0.6,0.5-0.9,1.2-0.9,2c0,0.4,0.1,0.7,0.2,1c0.2,0.4,0.5,0.7,1,0.9c0.2,0.1,0.6,0.3,1.3,0.6c0.7,0.3,1.2,0.5,1.4,0.7
			c0.2,0.2,0.3,0.5,0.3,0.8c0,0.4-0.1,0.7-0.4,0.9c-0.3,0.3-0.7,0.4-1.2,0.4c-0.7,0-1.5-0.2-2.4-0.6l-0.2,1.4
			C91.4,372.4,92.3,372.5,93.1,372.5 M86.1,372.5c1,0,1.7-0.2,2.3-0.6c0.6-0.5,0.9-1.2,0.9-2.1c0-0.4-0.1-0.8-0.2-1.1
			c-0.2-0.4-0.5-0.7-1-1c-0.3-0.1-0.7-0.4-1.4-0.6c-0.6-0.3-1.1-0.5-1.3-0.7c-0.2-0.2-0.3-0.4-0.3-0.7c0-0.3,0.1-0.6,0.4-0.8
			c0.3-0.2,0.6-0.3,1-0.3c0.6,0,1.3,0.2,2.1,0.5l0.3-1.3c-0.9-0.3-1.8-0.5-2.5-0.5c-0.9,0-1.6,0.2-2.1,0.6c-0.6,0.5-0.9,1.2-0.9,2
			c0,0.4,0.1,0.7,0.2,1c0.2,0.4,0.5,0.7,1,0.9c0.2,0.1,0.6,0.3,1.3,0.6c0.7,0.3,1.2,0.5,1.4,0.7c0.2,0.2,0.3,0.5,0.3,0.8
			c0,0.4-0.1,0.7-0.4,0.9c-0.3,0.3-0.7,0.4-1.2,0.4c-0.7,0-1.5-0.2-2.4-0.6l-0.2,1.4C84.3,372.4,85.2,372.5,86.1,372.5 M77.1,368.6
			l0.8-2.1c0.2-0.6,0.4-1.1,0.5-1.5c0.2,0.5,0.3,1,0.5,1.5l0.8,2.1H77.1z M81,372.4h1.7l-3.4-9h-1.8l-3.3,9h1.6l0.9-2.6H80L81,372.4
			z"/>
		<g opacity="0.75" clip-path="url(#SVGID_4_)">
			<g>
				<defs>
					<rect id="SVGID_11_" x="356.6" y="99" width="158.7" height="375.3"/>
				</defs>
				<clipPath id="SVGID_12_">
					<use xlink:href="#SVGID_11_"  overflow="visible"/>
				</clipPath>
				<path clip-path="url(#SVGID_12_)" fill="#005F87" d="M396.6,106c0,0-31,0-31,31v305.4c0,0,0,31,31,31h78.7c0,0,31,0,31-31V137
					c0,0,0-31-31-31H396.6z"/>
			</g>
		</g>
		<g opacity="0.75" clip-path="url(#SVGID_4_)">
			<g>
				<defs>
					<rect id="SVGID_13_" x="512.3" y="99" width="158.7" height="375.3"/>
				</defs>
				<clipPath id="SVGID_14_">
					<use xlink:href="#SVGID_13_"  overflow="visible"/>
				</clipPath>
				<path clip-path="url(#SVGID_14_)" fill="#005F87" d="M552.2,106c0,0-31,0-31,31v305.4c0,0,0,31,31,31H631c0,0,31,0,31-31V137
					c0,0,0-31-31-31H552.2z"/>
			</g>
		</g>
		<path clip-path="url(#SVGID_4_)" fill="#50BED7" d="M458.5,127.1c-0.6,1.1-1.4,1.6-2.2,1.6c-0.7,0-1.2-0.3-1.5-1
			c-0.3-0.6-0.5-1.4-0.5-2.2c0-0.9,0.2-1.7,0.5-2.2c0.4-0.6,0.9-0.9,1.5-0.9c0.8,0,1.5,0.5,2.1,1.5V127.1z M458.5,122.1
			c-0.7-0.9-1.6-1.4-2.7-1.4c-1.1,0-2,0.4-2.6,1.2c-0.7,0.9-1.1,2.1-1.1,3.6c0,1.4,0.3,2.5,0.9,3.4c0.7,0.9,1.6,1.4,2.8,1.4
			c0.7,0,1.4-0.2,1.9-0.6c0.3-0.2,0.6-0.5,0.9-0.9l0.1,1.3h2c-0.1-0.8-0.1-1.9-0.1-3.2V117h-2.1V122.1z M447.7,127.6
			c-0.6,0.9-1.3,1.3-2.1,1.3c-0.5,0-0.8-0.1-1.1-0.4c-0.2-0.3-0.4-0.6-0.4-1c0-0.6,0.2-1,0.7-1.3c0.4-0.2,1-0.4,1.8-0.4
			c0.3,0,0.6,0,1,0V127.6z M447.9,130.1h2c-0.1-0.6-0.1-1.4-0.1-2.3V125c0-0.6,0-1.1-0.1-1.4c-0.1-0.7-0.3-1.3-0.6-1.7
			c-0.6-0.8-1.7-1.2-3.2-1.2c-1.1,0-2.2,0.3-3.3,0.8l0.6,1.5c0.9-0.5,1.7-0.8,2.5-0.8c1.4,0,2,0.7,2,2.1v0.2c-0.7,0-1.2-0.1-1.5-0.1
			c-1.3,0-2.2,0.2-2.8,0.5c-0.9,0.5-1.4,1.4-1.4,2.5c0,0.8,0.3,1.5,0.8,2c0.5,0.5,1.2,0.8,2.2,0.8c0.7,0,1.4-0.2,1.9-0.5
			c0.3-0.2,0.6-0.4,0.9-0.8L447.9,130.1z M437.7,120.9v6.2c-0.8,1-1.5,1.6-2.4,1.6c-0.6,0-1.1-0.3-1.3-0.8c-0.1-0.3-0.2-0.8-0.2-1.6
			v-5.4h-2.1v5.5c0,1.2,0.1,2.1,0.4,2.6c0.5,0.9,1.3,1.3,2.5,1.3c0.8,0,1.6-0.2,2.2-0.7c0.3-0.2,0.6-0.5,0.9-0.9l0.1,1.4h2
			c-0.1-1.1-0.1-2.1-0.1-3.2v-6H437.7z M427,127.1c-0.7,1.1-1.4,1.6-2.2,1.6c-0.7,0-1.2-0.3-1.5-1c-0.3-0.6-0.5-1.4-0.5-2.2
			c0-0.9,0.2-1.7,0.5-2.2c0.4-0.6,0.9-0.9,1.5-0.9c0.8,0,1.5,0.5,2.1,1.5V127.1z M427.1,122.2c-0.3-0.4-0.6-0.7-0.9-0.9
			c-0.6-0.4-1.2-0.6-1.9-0.6c-1.1,0-2,0.4-2.6,1.2c-0.7,0.9-1.1,2.1-1.1,3.6c0,1.4,0.3,2.5,0.9,3.4c0.7,0.9,1.6,1.4,2.8,1.4
			c0.7,0,1.4-0.2,1.9-0.6c0.3-0.2,0.5-0.4,0.8-0.8v5h2.1v-9.4c0-1.6,0-2.8,0.1-3.7h-2L427.1,122.2z M414.5,130.3
			c1.3,0,2.4-0.3,3.1-0.9c0.8-0.7,1.3-1.6,1.3-2.8c0-0.6-0.1-1.1-0.3-1.5c-0.3-0.5-0.7-1-1.4-1.4c-0.4-0.2-1-0.5-1.9-0.9
			c-0.9-0.4-1.5-0.7-1.8-0.9c-0.3-0.3-0.5-0.6-0.5-1c0-0.5,0.2-0.9,0.6-1.2c0.4-0.3,0.8-0.4,1.4-0.4c0.8,0,1.8,0.2,3,0.7l0.4-1.9
			c-1.3-0.4-2.5-0.6-3.5-0.6c-1.2,0-2.2,0.3-2.9,0.9c-0.8,0.7-1.3,1.6-1.3,2.8c0,0.5,0.1,1,0.3,1.4c0.3,0.5,0.7,0.9,1.3,1.3
			c0.3,0.2,0.9,0.5,1.8,0.8c1,0.4,1.6,0.8,1.9,1c0.3,0.3,0.5,0.6,0.5,1.1c0,0.5-0.2,0.9-0.5,1.3c-0.4,0.4-0.9,0.5-1.6,0.5
			c-0.9,0-2-0.3-3.4-0.8l-0.3,1.9C412.1,130.1,413.3,130.3,414.5,130.3"/>
		<path clip-path="url(#SVGID_4_)" fill="#50BED7" d="M469,150.3c-0.2,0.3-0.4,0.6-0.5,0.7c-0.4,0.4-0.8,0.6-1.3,0.6
			c-0.7,0-1.1-0.3-1.5-0.9c-0.3-0.5-0.4-1.2-0.4-2c0-0.8,0.2-1.5,0.5-2.1c0.3-0.5,0.8-0.8,1.4-0.8c0.8,0,1.4,0.4,1.9,1.3V150.3z
			 M469,146.2c-0.6-0.7-1.2-1.1-2.1-1.1c-0.8,0-1.4,0.3-1.9,0.9c-0.6,0.7-0.9,1.6-0.9,2.7c0,1.1,0.3,2,0.8,2.7
			c0.5,0.7,1.2,1.1,2.1,1.1c0.6,0,1-0.2,1.4-0.5c0.2-0.2,0.4-0.4,0.7-0.7l0,1.1h1l0-0.3c0-0.9,0-1.7,0-2.3v-7.6H469V146.2z
			 M461.1,150.5c-0.5,0.7-1.1,1.1-1.8,1.1c-0.4,0-0.7-0.1-1-0.3c-0.2-0.2-0.3-0.5-0.3-0.9c0-0.5,0.2-0.9,0.7-1.2
			c0.3-0.2,0.9-0.3,1.7-0.3c0.3,0,0.5,0,0.8,0V150.5z M461.3,152.4h1c0-0.5-0.1-1-0.1-1.8v-2.3c0-0.4,0-0.7,0-0.9
			c0-0.6-0.1-1-0.3-1.3c-0.4-0.6-1.1-1-2.2-1c-0.9,0-1.7,0.2-2.4,0.7l0.5,0.8c0.6-0.4,1.3-0.6,1.8-0.6c0.7,0,1.2,0.2,1.4,0.7
			c0.1,0.3,0.2,0.7,0.2,1.2v0.2c-0.5,0-0.9,0-1,0c-0.9,0-1.6,0.1-2.1,0.3c-0.8,0.4-1.2,1.1-1.2,2c0,0.6,0.2,1.1,0.5,1.5
			c0.4,0.4,1,0.6,1.7,0.6c0.5,0,1-0.1,1.4-0.4c0.2-0.1,0.5-0.3,0.7-0.6L461.3,152.4z M450.7,148.2c0-0.5,0.1-1,0.3-1.3
			c0.4-0.6,0.9-0.9,1.6-0.9c0.7,0,1.3,0.3,1.6,1c0.2,0.4,0.3,0.8,0.3,1.3H450.7z M455.6,149.1c0-1-0.1-1.8-0.4-2.4
			c-0.4-1-1.3-1.6-2.5-1.6c-0.8,0-1.5,0.2-2,0.7c-0.7,0.7-1.1,1.6-1.1,2.9c0,1.1,0.3,1.9,0.8,2.6c0.6,0.7,1.5,1.1,2.6,1.1
			c0.8,0,1.6-0.2,2.4-0.7l-0.4-0.8c-0.6,0.4-1.3,0.7-1.9,0.7c-0.8,0-1.3-0.3-1.7-0.8c-0.3-0.4-0.5-1-0.5-1.8H455.6z M448.8,152.4
			v-0.9h-4.2v-8.8h-1.1v9.7H448.8z M436.4,150.3c-0.2,0.3-0.4,0.6-0.5,0.7c-0.4,0.4-0.8,0.6-1.3,0.6c-0.7,0-1.1-0.3-1.5-0.9
			c-0.3-0.5-0.4-1.2-0.4-2c0-0.8,0.2-1.5,0.5-2.1c0.3-0.5,0.8-0.8,1.4-0.8c0.8,0,1.4,0.4,1.9,1.3V150.3z M436.4,146.2
			c-0.6-0.7-1.2-1.1-2.1-1.1c-0.8,0-1.4,0.3-1.9,0.9c-0.6,0.7-0.9,1.6-0.9,2.7c0,1.1,0.3,2,0.8,2.7c0.5,0.7,1.2,1.1,2.1,1.1
			c0.6,0,1-0.2,1.4-0.5c0.2-0.2,0.4-0.4,0.7-0.7l0,1.1h1l0-0.3c0-0.9,0-1.7,0-2.3v-7.6h-1.1V146.2z M428.6,150.5
			c-0.5,0.7-1.1,1.1-1.8,1.1c-0.4,0-0.7-0.1-1-0.3c-0.2-0.2-0.3-0.5-0.3-0.9c0-0.5,0.2-0.9,0.7-1.2c0.3-0.2,0.9-0.3,1.7-0.3
			c0.3,0,0.5,0,0.8,0V150.5z M428.7,152.4h1c0-0.5-0.1-1-0.1-1.8v-2.3c0-0.4,0-0.7,0-0.9c0-0.6-0.1-1-0.3-1.3c-0.4-0.6-1.1-1-2.2-1
			c-0.9,0-1.7,0.2-2.4,0.7l0.5,0.8c0.6-0.4,1.3-0.6,1.8-0.6c0.7,0,1.2,0.2,1.4,0.7c0.1,0.3,0.2,0.7,0.2,1.2v0.2c-0.5,0-0.9,0-1,0
			c-0.9,0-1.6,0.1-2.1,0.3c-0.8,0.4-1.2,1.1-1.2,2c0,0.6,0.2,1.1,0.5,1.5c0.4,0.4,1,0.6,1.7,0.6c0.5,0,1-0.1,1.4-0.4
			c0.2-0.1,0.5-0.3,0.7-0.6L428.7,152.4z M421.4,145.3v5.1c-0.7,0.9-1.4,1.3-2.2,1.3c-0.6,0-1-0.3-1.2-0.8c-0.1-0.3-0.1-0.8-0.1-1.5
			v-4.1h-1.1v4.1c0,0.3,0,0.6,0,0.9c0,0.5,0.1,0.9,0.3,1.2c0.3,0.7,0.9,1,1.8,1c0.6,0,1.2-0.2,1.8-0.6c0.2-0.2,0.5-0.4,0.7-0.7
			l0,1.1h1.1c0-0.4-0.1-1.2-0.1-2.3v-4.8H421.4z M413.5,150.3c-0.2,0.3-0.4,0.6-0.5,0.7c-0.4,0.4-0.8,0.6-1.3,0.6
			c-0.7,0-1.1-0.3-1.5-0.9c-0.3-0.5-0.4-1.2-0.4-2c0-0.8,0.2-1.5,0.5-2.1c0.3-0.5,0.8-0.8,1.4-0.8c0.7,0,1.4,0.4,1.9,1.3V150.3z
			 M413.6,146.3c-0.2-0.3-0.5-0.6-0.7-0.7c-0.4-0.3-0.9-0.5-1.5-0.5c-0.8,0-1.4,0.3-1.9,0.9c-0.6,0.7-0.9,1.6-0.9,2.7
			c0,1.1,0.3,2,0.8,2.7c0.5,0.7,1.2,1.1,2.1,1.1c0.6,0,1.1-0.2,1.4-0.5c0.2-0.2,0.4-0.4,0.6-0.6v4h1.1v-7.2c0-0.8,0-1.6,0-2.5l0-0.4
			h-1L413.6,146.3z M403.9,152.5c1,0,1.7-0.2,2.3-0.7c0.6-0.5,0.9-1.2,0.9-2c0-1-0.4-1.7-1.3-2.3c-0.3-0.2-0.8-0.4-1.5-0.7
			c-0.3-0.1-0.6-0.3-0.9-0.4c-0.2-0.1-0.5-0.3-0.6-0.5c-0.2-0.3-0.4-0.6-0.4-0.9c0-0.5,0.2-0.8,0.5-1.1c0.4-0.3,0.8-0.4,1.3-0.4
			c0.7,0,1.4,0.2,2.1,0.5l0.2-1c-0.9-0.3-1.6-0.4-2.3-0.4c-0.5,0-1,0.1-1.4,0.2c-0.5,0.2-0.9,0.4-1.1,0.8c-0.4,0.4-0.5,1-0.5,1.6
			c0,0.4,0.1,0.7,0.2,1c0.2,0.4,0.5,0.7,1,1c0.2,0.1,0.7,0.4,1.4,0.7c0.8,0.4,1.3,0.6,1.5,0.9c0.3,0.3,0.4,0.6,0.4,1.1
			c0,0.5-0.2,0.9-0.5,1.2c-0.4,0.3-0.9,0.5-1.5,0.5c-0.7,0-1.5-0.2-2.4-0.5l-0.1,1C402.4,152.3,403.2,152.5,403.9,152.5"/>
		<path clip-path="url(#SVGID_4_)" fill="#50BED7" d="M614.1,127.1c-0.6,1.1-1.4,1.6-2.2,1.6c-0.7,0-1.2-0.3-1.5-1
			c-0.3-0.6-0.5-1.4-0.5-2.2c0-0.9,0.2-1.7,0.5-2.2c0.4-0.6,0.9-0.9,1.5-0.9c0.8,0,1.5,0.5,2.1,1.5V127.1z M614.1,122.1
			c-0.7-0.9-1.6-1.4-2.7-1.4c-1.1,0-2,0.4-2.6,1.2c-0.7,0.9-1.1,2.1-1.1,3.6c0,1.4,0.3,2.5,0.9,3.4c0.7,0.9,1.6,1.4,2.8,1.4
			c0.7,0,1.4-0.2,1.9-0.6c0.3-0.2,0.6-0.5,0.9-0.9l0.1,1.3h2c-0.1-0.8-0.1-1.9-0.1-3.2V117h-2.1V122.1z M603.4,127.6
			c-0.6,0.9-1.3,1.3-2.1,1.3c-0.5,0-0.8-0.1-1.1-0.4c-0.2-0.3-0.4-0.6-0.4-1c0-0.6,0.2-1,0.7-1.3c0.4-0.2,1-0.4,1.8-0.4
			c0.3,0,0.6,0,1,0V127.6z M603.5,130.1h2c-0.1-0.6-0.1-1.4-0.1-2.3V125c0-0.6,0-1.1-0.1-1.4c-0.1-0.7-0.3-1.3-0.6-1.7
			c-0.6-0.8-1.7-1.2-3.2-1.2c-1.1,0-2.2,0.3-3.3,0.8l0.6,1.5c0.9-0.5,1.7-0.8,2.5-0.8c1.4,0,2,0.7,2,2.1v0.2c-0.7,0-1.2-0.1-1.5-0.1
			c-1.3,0-2.2,0.2-2.8,0.5c-0.9,0.5-1.4,1.4-1.4,2.5c0,0.8,0.3,1.5,0.8,2c0.5,0.5,1.2,0.8,2.2,0.8c0.7,0,1.4-0.2,1.9-0.5
			c0.3-0.2,0.6-0.4,0.9-0.8L603.5,130.1z M593.4,120.9v6.2c-0.8,1-1.5,1.6-2.4,1.6c-0.6,0-1.1-0.3-1.3-0.8c-0.1-0.3-0.2-0.8-0.2-1.6
			v-5.4h-2.1v5.5c0,1.2,0.1,2.1,0.4,2.6c0.5,0.9,1.3,1.3,2.5,1.3c0.8,0,1.6-0.2,2.2-0.7c0.3-0.2,0.6-0.5,0.9-0.9l0.1,1.4h2
			c-0.1-1.1-0.1-2.1-0.1-3.2v-6H593.4z M582.6,127.1c-0.7,1.1-1.4,1.6-2.2,1.6c-0.7,0-1.2-0.3-1.5-1c-0.3-0.6-0.5-1.4-0.5-2.2
			c0-0.9,0.2-1.7,0.5-2.2c0.4-0.6,0.9-0.9,1.5-0.9c0.8,0,1.5,0.5,2.1,1.5V127.1z M582.7,122.2c-0.3-0.4-0.6-0.7-0.9-0.9
			c-0.6-0.4-1.2-0.6-1.9-0.6c-1.1,0-2,0.4-2.6,1.2c-0.7,0.9-1.1,2.1-1.1,3.6c0,1.4,0.3,2.5,0.9,3.4c0.7,0.9,1.6,1.4,2.8,1.4
			c0.7,0,1.4-0.2,1.9-0.6c0.3-0.2,0.5-0.4,0.8-0.8v5h2.1v-9.4c0-1.6,0-2.8,0.1-3.7h-2L582.7,122.2z M570.2,130.3
			c1.3,0,2.4-0.3,3.1-0.9c0.8-0.7,1.3-1.6,1.3-2.8c0-0.6-0.1-1.1-0.3-1.5c-0.3-0.5-0.7-1-1.4-1.4c-0.4-0.2-1-0.5-1.9-0.9
			c-0.9-0.4-1.5-0.7-1.8-0.9c-0.3-0.3-0.5-0.6-0.5-1c0-0.5,0.2-0.9,0.6-1.2c0.4-0.3,0.8-0.4,1.4-0.4c0.8,0,1.8,0.2,3,0.7l0.4-1.9
			c-1.3-0.4-2.5-0.6-3.5-0.6c-1.2,0-2.2,0.3-2.9,0.9c-0.8,0.7-1.3,1.6-1.3,2.8c0,0.5,0.1,1,0.3,1.4c0.3,0.5,0.7,0.9,1.3,1.3
			c0.3,0.2,0.9,0.5,1.8,0.8c1,0.4,1.6,0.8,1.9,1c0.3,0.3,0.5,0.6,0.5,1.1c0,0.5-0.2,0.9-0.5,1.3c-0.4,0.4-0.9,0.5-1.6,0.5
			c-0.9,0-2-0.3-3.4-0.8l-0.3,1.9C567.7,130.1,568.9,130.3,570.2,130.3"/>
		<path clip-path="url(#SVGID_4_)" fill="#50BED7" d="M624.6,150.3c-0.2,0.3-0.4,0.6-0.5,0.7c-0.4,0.4-0.8,0.6-1.3,0.6
			c-0.7,0-1.1-0.3-1.5-0.9c-0.3-0.5-0.4-1.2-0.4-2c0-0.8,0.2-1.5,0.5-2.1c0.3-0.5,0.8-0.8,1.4-0.8c0.8,0,1.4,0.4,1.9,1.3V150.3z
			 M624.6,146.2c-0.6-0.7-1.2-1.1-2.1-1.1c-0.8,0-1.4,0.3-1.9,0.9c-0.6,0.7-0.9,1.6-0.9,2.7c0,1.1,0.3,2,0.8,2.7
			c0.5,0.7,1.2,1.1,2.1,1.1c0.6,0,1-0.2,1.4-0.5c0.2-0.2,0.4-0.4,0.7-0.7l0,1.1h1l0-0.3c0-0.9,0-1.7,0-2.3v-7.6h-1.1V146.2z
			 M616.8,150.5c-0.5,0.7-1.1,1.1-1.8,1.1c-0.4,0-0.7-0.1-1-0.3c-0.2-0.2-0.3-0.5-0.3-0.9c0-0.5,0.2-0.9,0.7-1.2
			c0.3-0.2,0.9-0.3,1.7-0.3c0.3,0,0.5,0,0.8,0V150.5z M616.9,152.4h1c0-0.5-0.1-1-0.1-1.8v-2.3c0-0.4,0-0.7,0-0.9
			c0-0.6-0.1-1-0.3-1.3c-0.4-0.6-1.1-1-2.2-1c-0.9,0-1.7,0.2-2.4,0.7l0.5,0.8c0.6-0.4,1.3-0.6,1.8-0.6c0.7,0,1.2,0.2,1.4,0.7
			c0.1,0.3,0.2,0.7,0.2,1.2v0.2c-0.5,0-0.9,0-1,0c-0.9,0-1.6,0.1-2.1,0.3c-0.8,0.4-1.2,1.1-1.2,2c0,0.6,0.2,1.1,0.5,1.5
			c0.4,0.4,1,0.6,1.7,0.6c0.5,0,1-0.1,1.4-0.4c0.2-0.1,0.5-0.3,0.7-0.6L616.9,152.4z M606.4,148.2c0-0.5,0.1-1,0.3-1.3
			c0.4-0.6,0.9-0.9,1.6-0.9c0.7,0,1.3,0.3,1.6,1c0.2,0.4,0.3,0.8,0.3,1.3H606.4z M611.2,149.1c0-1-0.1-1.8-0.4-2.4
			c-0.4-1-1.3-1.6-2.5-1.6c-0.8,0-1.5,0.2-2,0.7c-0.7,0.7-1.1,1.6-1.1,2.9c0,1.1,0.3,1.9,0.8,2.6c0.6,0.7,1.5,1.1,2.6,1.1
			c0.8,0,1.6-0.2,2.4-0.7l-0.4-0.8c-0.6,0.4-1.3,0.7-1.9,0.7c-0.8,0-1.3-0.3-1.7-0.8c-0.3-0.4-0.5-1-0.5-1.8H611.2z M604.5,152.4
			v-0.9h-4.2v-8.8h-1.1v9.7H604.5z M592.1,150.3c-0.2,0.3-0.4,0.6-0.5,0.7c-0.4,0.4-0.8,0.6-1.3,0.6c-0.7,0-1.1-0.3-1.5-0.9
			c-0.3-0.5-0.4-1.2-0.4-2c0-0.8,0.2-1.5,0.5-2.1c0.3-0.5,0.8-0.8,1.4-0.8c0.8,0,1.4,0.4,1.9,1.3V150.3z M592.1,146.2
			c-0.6-0.7-1.2-1.1-2.1-1.1c-0.8,0-1.4,0.3-1.9,0.9c-0.6,0.7-0.9,1.6-0.9,2.7c0,1.1,0.3,2,0.8,2.7c0.5,0.7,1.2,1.1,2.1,1.1
			c0.6,0,1-0.2,1.4-0.5c0.2-0.2,0.4-0.4,0.7-0.7l0,1.1h1l0-0.3c0-0.9,0-1.7,0-2.3v-7.6h-1.1V146.2z M584.2,150.5
			c-0.5,0.7-1.1,1.1-1.8,1.1c-0.4,0-0.7-0.1-1-0.3c-0.2-0.2-0.3-0.5-0.3-0.9c0-0.5,0.2-0.9,0.7-1.2c0.3-0.2,0.9-0.3,1.7-0.3
			c0.3,0,0.5,0,0.8,0V150.5z M584.4,152.4h1c0-0.5-0.1-1-0.1-1.8v-2.3c0-0.4,0-0.7,0-0.9c0-0.6-0.1-1-0.3-1.3c-0.4-0.6-1.1-1-2.2-1
			c-0.9,0-1.7,0.2-2.4,0.7l0.5,0.8c0.6-0.4,1.3-0.6,1.8-0.6c0.7,0,1.2,0.2,1.4,0.7c0.1,0.3,0.2,0.7,0.2,1.2v0.2c-0.5,0-0.9,0-1,0
			c-0.9,0-1.6,0.1-2.1,0.3c-0.8,0.4-1.2,1.1-1.2,2c0,0.6,0.2,1.1,0.5,1.5c0.4,0.4,1,0.6,1.7,0.6c0.5,0,1-0.1,1.4-0.4
			c0.2-0.1,0.5-0.3,0.7-0.6L584.4,152.4z M577.1,145.3v5.1c-0.7,0.9-1.4,1.3-2.2,1.3c-0.6,0-1-0.3-1.2-0.8c-0.1-0.3-0.2-0.8-0.2-1.5
			v-4.1h-1.1v4.1c0,0.3,0,0.6,0,0.9c0,0.5,0.1,0.9,0.3,1.2c0.3,0.7,0.9,1,1.8,1c0.6,0,1.2-0.2,1.8-0.6c0.2-0.2,0.5-0.4,0.7-0.7
			l0,1.1h1.1c0-0.4-0.1-1.2-0.1-2.3v-4.8H577.1z M569.1,150.3c-0.2,0.3-0.4,0.6-0.5,0.7c-0.4,0.4-0.8,0.6-1.3,0.6
			c-0.7,0-1.1-0.3-1.5-0.9c-0.3-0.5-0.4-1.2-0.4-2c0-0.8,0.2-1.5,0.5-2.1c0.3-0.5,0.8-0.8,1.4-0.8c0.7,0,1.4,0.4,1.9,1.3V150.3z
			 M569.2,146.3c-0.2-0.3-0.5-0.6-0.7-0.7c-0.4-0.3-0.9-0.5-1.5-0.5c-0.8,0-1.4,0.3-1.9,0.9c-0.6,0.7-0.9,1.6-0.9,2.7
			c0,1.1,0.3,2,0.8,2.7c0.5,0.7,1.2,1.1,2.1,1.1c0.6,0,1.1-0.2,1.4-0.5c0.2-0.2,0.4-0.4,0.6-0.6v4h1.1v-7.2c0-0.8,0-1.6,0-2.5l0-0.4
			h-1L569.2,146.3z M559.6,152.5c1,0,1.7-0.2,2.3-0.7c0.6-0.5,0.9-1.2,0.9-2c0-1-0.4-1.7-1.3-2.3c-0.3-0.2-0.8-0.4-1.5-0.7
			c-0.3-0.1-0.6-0.3-0.9-0.4c-0.2-0.1-0.5-0.3-0.6-0.5c-0.2-0.3-0.4-0.6-0.4-0.9c0-0.5,0.2-0.8,0.5-1.1c0.4-0.3,0.8-0.4,1.3-0.4
			c0.7,0,1.4,0.2,2.1,0.5l0.2-1c-0.9-0.3-1.6-0.4-2.3-0.4c-0.5,0-1,0.1-1.4,0.2c-0.5,0.2-0.9,0.4-1.1,0.8c-0.4,0.4-0.5,1-0.5,1.6
			c0,0.4,0.1,0.7,0.2,1c0.2,0.4,0.5,0.7,1,1c0.2,0.1,0.7,0.4,1.4,0.7c0.8,0.4,1.3,0.6,1.5,0.9c0.3,0.3,0.4,0.6,0.4,1.1
			c0,0.5-0.2,0.9-0.5,1.2c-0.4,0.3-0.8,0.5-1.5,0.5c-0.7,0-1.5-0.2-2.4-0.5l-0.1,1C558,152.3,558.9,152.5,559.6,152.5"/>
		<path clip-path="url(#SVGID_4_)" fill="#FFFFFF" d="M392.5,398.9c0,0-18,0-18,18v2.6c0,0,0,18,18,18h86.9c0,0,18,0,18-18v-2.6
			c0,0,0-18-18-18H392.5z"/>
	</g>
	<rect x="417.8" y="409.9" clip-path="url(#SVGID_2_)" fill="#BECDD7" width="58.1" height="6.6"/>
	<rect x="416.1" y="420.8" clip-path="url(#SVGID_2_)" fill="#BECDD7" width="71.2" height="6.6"/>
	<g clip-path="url(#SVGID_2_)">
		<defs>
			<rect id="SVGID_15_" x="-0.1" y="-0.9" width="736.8" height="543.1"/>
		</defs>
		<clipPath id="SVGID_16_">
			<use xlink:href="#SVGID_15_"  overflow="visible"/>
		</clipPath>
		<path clip-path="url(#SVGID_16_)" fill="#EBF0F5" d="M394.8,432.6c7.9,0,14.4-6.4,14.4-14.4c0-7.9-6.4-14.4-14.4-14.4
			c-7.9,0-14.4,6.4-14.4,14.4C380.5,426.1,386.9,432.6,394.8,432.6"/>
	</g>
	<g clip-path="url(#SVGID_2_)">
		<defs>
			<path id="SVGID_17_" d="M380.5,418.2c0,7.9,6.4,14.4,14.4,14.4s14.4-6.4,14.4-14.4s-6.4-14.4-14.4-14.4S380.5,410.3,380.5,418.2"
				/>
		</defs>
		<clipPath id="SVGID_18_">
			<use xlink:href="#SVGID_17_"  overflow="visible"/>
		</clipPath>
		<path clip-path="url(#SVGID_18_)" fill="#879BAA" d="M394.4,416.7c2.7,0,4.5-2,4.5-5.1c0-3.1-1.8-5.1-4.5-5.1
			c-2.7,0-4.5,2-4.5,5.1C390,414.6,391.8,416.7,394.4,416.7"/>
		<path clip-path="url(#SVGID_18_)" fill="#879BAA" d="M391.5,418.6L391.5,418.6L391.5,418.6l-3.1,0.2l0,0c-1.7,0.1-2.9,1.5-2.9,3.5
			c0,0,0,0,0,0v8.9h8.3h1.2h8.3v-8.9c0,0,0,0,0,0c0-2-1.2-3.4-2.9-3.5l0,0l-3.1-0.2v0l0,0H391.5z"/>
	</g>
	<g clip-path="url(#SVGID_2_)">
		<defs>
			<rect id="SVGID_19_" x="-0.1" y="-0.9" width="736.8" height="543.1"/>
		</defs>
		<clipPath id="SVGID_20_">
			<use xlink:href="#SVGID_19_"  overflow="visible"/>
		</clipPath>
		<circle clip-path="url(#SVGID_20_)" fill="none" stroke="#50BED7" stroke-width="2.109" cx="394.8" cy="418.2" r="14.4"/>
		<path clip-path="url(#SVGID_20_)" fill="#FFFFFF" d="M548.2,398.9c0,0-18,0-18,18v2.6c0,0,0,18,18,18H635c0,0,18,0,18-18v-2.6
			c0,0,0-18-18-18H548.2z"/>
	</g>
	<rect x="573.5" y="409.9" clip-path="url(#SVGID_2_)" fill="#BECDD7" width="58.1" height="6.6"/>
	<rect x="571.7" y="420.8" clip-path="url(#SVGID_2_)" fill="#BECDD7" width="71.2" height="6.6"/>
	<g clip-path="url(#SVGID_2_)">
		<defs>
			<rect id="SVGID_21_" x="-0.1" y="-0.9" width="736.8" height="543.1"/>
		</defs>
		<clipPath id="SVGID_22_">
			<use xlink:href="#SVGID_21_"  overflow="visible"/>
		</clipPath>
		<path clip-path="url(#SVGID_22_)" fill="#EBF0F5" d="M550.5,432.6c7.9,0,14.4-6.4,14.4-14.4c0-7.9-6.4-14.4-14.4-14.4
			c-7.9,0-14.4,6.4-14.4,14.4C536.1,426.1,542.6,432.6,550.5,432.6"/>
	</g>
	<g clip-path="url(#SVGID_2_)">
		<defs>
			<path id="SVGID_23_" d="M536.1,418.2c0,7.9,6.4,14.4,14.4,14.4c7.9,0,14.4-6.4,14.4-14.4s-6.4-14.4-14.4-14.4
				C542.6,403.8,536.1,410.3,536.1,418.2"/>
		</defs>
		<clipPath id="SVGID_24_">
			<use xlink:href="#SVGID_23_"  overflow="visible"/>
		</clipPath>
		<path clip-path="url(#SVGID_24_)" fill="#879BAA" d="M550.1,416.7c2.7,0,4.5-2,4.5-5.1c0-3.1-1.8-5.1-4.5-5.1
			c-2.7,0-4.5,2-4.5,5.1C545.6,414.6,547.4,416.7,550.1,416.7"/>
		<path clip-path="url(#SVGID_24_)" fill="#879BAA" d="M547.1,418.6L547.1,418.6L547.1,418.6l-3.1,0.2l0,0c-1.7,0.1-2.9,1.5-2.9,3.5
			c0,0,0,0,0,0v8.9h8.3h1.2h8.3v-8.9c0,0,0,0,0,0c0-2-1.2-3.4-2.9-3.5l0,0l-3.1-0.2v0l0,0H547.1z"/>
	</g>
	<g clip-path="url(#SVGID_2_)">
		<defs>
			<rect id="SVGID_25_" x="-0.1" y="-0.9" width="736.8" height="543.1"/>
		</defs>
		<clipPath id="SVGID_26_">
			<use xlink:href="#SVGID_25_"  overflow="visible"/>
		</clipPath>
		<circle clip-path="url(#SVGID_26_)" fill="none" stroke="#50BED7" stroke-width="2.109" cx="550.5" cy="418.2" r="14.4"/>
		<path clip-path="url(#SVGID_26_)" fill="#FFFFFF" d="M392.5,279.1c0,0-18,0-18,18v2.6c0,0,0,18,18,18h86.9c0,0,18,0,18-18v-2.6
			c0,0,0-18-18-18H392.5z"/>
	</g>
	<rect x="417.8" y="290.1" clip-path="url(#SVGID_2_)" fill="#BECDD7" width="58.1" height="6.6"/>
	<rect x="416.1" y="301" clip-path="url(#SVGID_2_)" fill="#BECDD7" width="71.2" height="6.6"/>
	<g clip-path="url(#SVGID_2_)">
		<defs>
			<rect id="SVGID_27_" x="-0.1" y="-0.9" width="736.8" height="543.1"/>
		</defs>
		<clipPath id="SVGID_28_">
			<use xlink:href="#SVGID_27_"  overflow="visible"/>
		</clipPath>
		<path clip-path="url(#SVGID_28_)" fill="#EBF0F5" d="M394.8,312.8c7.9,0,14.4-6.4,14.4-14.4c0-7.9-6.4-14.4-14.4-14.4
			c-7.9,0-14.4,6.4-14.4,14.4C380.5,306.4,386.9,312.8,394.8,312.8"/>
	</g>
	<g clip-path="url(#SVGID_2_)">
		<defs>
			<path id="SVGID_29_" d="M380.5,298.5c0,7.9,6.4,14.4,14.4,14.4s14.4-6.4,14.4-14.4s-6.4-14.4-14.4-14.4S380.5,290.5,380.5,298.5"
				/>
		</defs>
		<clipPath id="SVGID_30_">
			<use xlink:href="#SVGID_29_"  overflow="visible"/>
		</clipPath>
		<path clip-path="url(#SVGID_30_)" fill="#879BAA" d="M394.4,296.9c2.7,0,4.5-2,4.5-5.1c0-3.1-1.8-5.1-4.5-5.1
			c-2.7,0-4.5,2-4.5,5.1C390,294.9,391.8,296.9,394.4,296.9"/>
		<path clip-path="url(#SVGID_30_)" fill="#879BAA" d="M391.5,298.9L391.5,298.9L391.5,298.9l-3.1,0.2l0,0c-1.7,0.1-2.9,1.5-2.9,3.5
			c0,0,0,0,0,0v8.9h8.3h1.2h8.3v-8.9c0,0,0,0,0,0c0-2-1.2-3.4-2.9-3.5l0,0l-3.1-0.2v0l0,0H391.5z"/>
	</g>
	<g clip-path="url(#SVGID_2_)">
		<defs>
			<rect id="SVGID_31_" x="-0.1" y="-0.9" width="736.8" height="543.1"/>
		</defs>
		<clipPath id="SVGID_32_">
			<use xlink:href="#SVGID_31_"  overflow="visible"/>
		</clipPath>
		<circle clip-path="url(#SVGID_32_)" fill="none" stroke="#50BED7" stroke-width="2.109" cx="394.8" cy="298.5" r="14.4"/>
		<path clip-path="url(#SVGID_32_)" fill="#FFFFFF" d="M548.2,279.1c0,0-18,0-18,18v2.6c0,0,0,18,18,18H635c0,0,18,0,18-18v-2.6
			c0,0,0-18-18-18H548.2z"/>
	</g>
	<rect x="573.5" y="290.1" clip-path="url(#SVGID_2_)" fill="#BECDD7" width="58.1" height="6.6"/>
	<rect x="571.7" y="301" clip-path="url(#SVGID_2_)" fill="#BECDD7" width="71.2" height="6.6"/>
	<g clip-path="url(#SVGID_2_)">
		<defs>
			<rect id="SVGID_33_" x="-0.1" y="-0.9" width="736.8" height="543.1"/>
		</defs>
		<clipPath id="SVGID_34_">
			<use xlink:href="#SVGID_33_"  overflow="visible"/>
		</clipPath>
		<path clip-path="url(#SVGID_34_)" fill="#EBF0F5" d="M550.5,312.8c7.9,0,14.4-6.4,14.4-14.4c0-7.9-6.4-14.4-14.4-14.4
			c-7.9,0-14.4,6.4-14.4,14.4C536.1,306.4,542.6,312.8,550.5,312.8"/>
	</g>
	<g clip-path="url(#SVGID_2_)">
		<defs>
			<path id="SVGID_35_" d="M536.1,298.5c0,7.9,6.4,14.4,14.4,14.4c7.9,0,14.4-6.4,14.4-14.4s-6.4-14.4-14.4-14.4
				C542.6,284.1,536.1,290.5,536.1,298.5"/>
		</defs>
		<clipPath id="SVGID_36_">
			<use xlink:href="#SVGID_35_"  overflow="visible"/>
		</clipPath>
		<path clip-path="url(#SVGID_36_)" fill="#879BAA" d="M550.1,296.9c2.7,0,4.5-2,4.5-5.1c0-3.1-1.8-5.1-4.5-5.1
			c-2.7,0-4.5,2-4.5,5.1C545.6,294.9,547.4,296.9,550.1,296.9"/>
		<path clip-path="url(#SVGID_36_)" fill="#879BAA" d="M547.1,298.9L547.1,298.9L547.1,298.9l-3.1,0.2l0,0c-1.7,0.1-2.9,1.5-2.9,3.5
			c0,0,0,0,0,0v8.9h8.3h1.2h8.3v-8.9c0,0,0,0,0,0c0-2-1.2-3.4-2.9-3.5l0,0l-3.1-0.2v0l0,0H547.1z"/>
	</g>
	<g clip-path="url(#SVGID_2_)">
		<defs>
			<rect id="SVGID_37_" x="-0.1" y="-0.9" width="736.8" height="543.1"/>
		</defs>
		<clipPath id="SVGID_38_">
			<use xlink:href="#SVGID_37_"  overflow="visible"/>
		</clipPath>
		<circle clip-path="url(#SVGID_38_)" fill="none" stroke="#50BED7" stroke-width="2.109" cx="550.5" cy="298.5" r="14.4"/>
		<path clip-path="url(#SVGID_38_)" fill="#FFFFFF" d="M392.5,209.2c0,0-18,0-18,18v2.6c0,0,0,18,18,18h86.9c0,0,18,0,18-18v-2.6
			c0,0,0-18-18-18H392.5z"/>
	</g>
	<rect x="417.8" y="220.2" clip-path="url(#SVGID_2_)" fill="#BECDD7" width="58.1" height="6.6"/>
	<rect x="416.1" y="231.1" clip-path="url(#SVGID_2_)" fill="#BECDD7" width="71.2" height="6.6"/>
	<g clip-path="url(#SVGID_2_)">
		<defs>
			<rect id="SVGID_39_" x="-0.1" y="-0.9" width="736.8" height="543.1"/>
		</defs>
		<clipPath id="SVGID_40_">
			<use xlink:href="#SVGID_39_"  overflow="visible"/>
		</clipPath>
		<path clip-path="url(#SVGID_40_)" fill="#EBF0F5" d="M394.8,242.9c7.9,0,14.4-6.4,14.4-14.4c0-7.9-6.4-14.4-14.4-14.4
			c-7.9,0-14.4,6.4-14.4,14.4C380.5,236.4,386.9,242.9,394.8,242.9"/>
	</g>
	<g clip-path="url(#SVGID_2_)">
		<defs>
			<path id="SVGID_41_" d="M380.5,228.5c0,7.9,6.4,14.4,14.4,14.4s14.4-6.4,14.4-14.4c0-7.9-6.4-14.4-14.4-14.4
				S380.5,220.5,380.5,228.5"/>
		</defs>
		<clipPath id="SVGID_42_">
			<use xlink:href="#SVGID_41_"  overflow="visible"/>
		</clipPath>
		<path clip-path="url(#SVGID_42_)" fill="#879BAA" d="M394.4,227c2.7,0,4.5-2,4.5-5.1c0-3.1-1.8-5.1-4.5-5.1c-2.7,0-4.5,2-4.5,5.1
			C390,224.9,391.8,227,394.4,227"/>
		<path clip-path="url(#SVGID_42_)" fill="#879BAA" d="M391.5,228.9L391.5,228.9L391.5,228.9l-3.1,0.2l0,0c-1.7,0.1-2.9,1.5-2.9,3.5
			c0,0,0,0,0,0v8.9h8.3h1.2h8.3v-8.9c0,0,0,0,0,0c0-2-1.2-3.4-2.9-3.5l0,0l-3.1-0.2v0l0,0H391.5z"/>
	</g>
	<g clip-path="url(#SVGID_2_)">
		<defs>
			<rect id="SVGID_43_" x="-0.1" y="-0.9" width="736.8" height="543.1"/>
		</defs>
		<clipPath id="SVGID_44_">
			<use xlink:href="#SVGID_43_"  overflow="visible"/>
		</clipPath>
		<circle clip-path="url(#SVGID_44_)" fill="none" stroke="#50BED7" stroke-width="2.109" cx="394.8" cy="228.5" r="14.4"/>
		<path clip-path="url(#SVGID_44_)" fill="#FFFFFF" d="M548.2,209.2c0,0-18,0-18,18v2.6c0,0,0,18,18,18H635c0,0,18,0,18-18v-2.6
			c0,0,0-18-18-18H548.2z"/>
	</g>
	<rect x="573.5" y="220.2" clip-path="url(#SVGID_2_)" fill="#BECDD7" width="58.1" height="6.6"/>
	<rect x="571.7" y="231.1" clip-path="url(#SVGID_2_)" fill="#BECDD7" width="71.2" height="6.6"/>
	<g clip-path="url(#SVGID_2_)">
		<defs>
			<rect id="SVGID_45_" x="-0.1" y="-0.9" width="736.8" height="543.1"/>
		</defs>
		<clipPath id="SVGID_46_">
			<use xlink:href="#SVGID_45_"  overflow="visible"/>
		</clipPath>
		<path clip-path="url(#SVGID_46_)" fill="#EBF0F5" d="M550.5,242.9c7.9,0,14.4-6.4,14.4-14.4c0-7.9-6.4-14.4-14.4-14.4
			c-7.9,0-14.4,6.4-14.4,14.4C536.1,236.4,542.6,242.9,550.5,242.9"/>
	</g>
	<g clip-path="url(#SVGID_2_)">
		<defs>
			<path id="SVGID_47_" d="M536.1,228.5c0,7.9,6.4,14.4,14.4,14.4c7.9,0,14.4-6.4,14.4-14.4c0-7.9-6.4-14.4-14.4-14.4
				C542.6,214.1,536.1,220.5,536.1,228.5"/>
		</defs>
		<clipPath id="SVGID_48_">
			<use xlink:href="#SVGID_47_"  overflow="visible"/>
		</clipPath>
		<path clip-path="url(#SVGID_48_)" fill="#879BAA" d="M550.1,227c2.7,0,4.5-2,4.5-5.1c0-3.1-1.8-5.1-4.5-5.1c-2.7,0-4.5,2-4.5,5.1
			C545.6,224.9,547.4,227,550.1,227"/>
		<path clip-path="url(#SVGID_48_)" fill="#879BAA" d="M547.1,228.9L547.1,228.9L547.1,228.9l-3.1,0.2l0,0c-1.7,0.1-2.9,1.5-2.9,3.5
			c0,0,0,0,0,0v8.9h8.3h1.2h8.3v-8.9c0,0,0,0,0,0c0-2-1.2-3.4-2.9-3.5l0,0l-3.1-0.2v0l0,0H547.1z"/>
	</g>
	<g clip-path="url(#SVGID_2_)">
		<defs>
			<rect id="SVGID_49_" x="-0.1" y="-0.9" width="736.8" height="543.1"/>
		</defs>
		<clipPath id="SVGID_50_">
			<use xlink:href="#SVGID_49_"  overflow="visible"/>
		</clipPath>
		<circle clip-path="url(#SVGID_50_)" fill="none" stroke="#50BED7" stroke-width="2.109" cx="550.5" cy="228.5" r="14.4"/>
		<path clip-path="url(#SVGID_50_)" fill="#FFFFFF" d="M137.6,414.5v-5.3c0.1-0.5,0.3-0.9,0.6-1.2c0.5-0.6,1-0.9,1.7-0.9
			c0.2,0,0.4,0,0.7,0.1l0.1-1.9c-0.3-0.1-0.5-0.1-0.8-0.1c-1.1,0-1.9,0.6-2.4,1.9l-0.1-1.7h-2c0.1,1.1,0.1,2.3,0.1,3.5v5.7H137.6z
			 M126.9,409.1c0-0.5,0.1-1,0.4-1.4c0.4-0.7,1-1,1.8-1c0.8,0,1.4,0.3,1.8,1c0.2,0.4,0.3,0.9,0.3,1.4H126.9z M133.3,410.5
			c0-1.4-0.2-2.5-0.4-3.2c-0.6-1.5-1.8-2.2-3.8-2.2c-1.3,0-2.4,0.4-3.1,1.2c-0.9,0.9-1.3,2.1-1.3,3.6c0,1.5,0.4,2.6,1.1,3.4
			c0.8,0.9,2.1,1.4,3.7,1.4c1.3,0,2.5-0.3,3.5-0.9l-0.7-1.5c-0.9,0.6-1.8,0.9-2.7,0.9c-0.9,0-1.6-0.3-2.1-0.8
			c-0.3-0.4-0.5-1-0.6-1.7H133.3z M119.3,411.3c0,1.2,0.2,2,0.4,2.5c0.4,0.6,1.2,0.9,2.2,0.9c0.6,0,1.2-0.1,1.9-0.3l-0.2-1.6
			c-0.4,0.2-0.7,0.2-1,0.2c-0.5,0-0.9-0.2-1-0.5c-0.1-0.2-0.2-0.7-0.2-1.3v-4.3h2.1v-1.6h-2.1v-2.4l-2.1,0.4v2h-1.5v1.6h1.5V411.3z
			 M110.3,408.2c0.6-1,1.3-1.5,2.1-1.5c0.7,0,1.2,0.3,1.5,0.9c0.4,0.6,0.5,1.3,0.5,2.2c0,0.9-0.2,1.6-0.5,2.2c-0.4,0.7-0.9,1-1.5,1
			c-0.8,0-1.5-0.5-2.2-1.6V408.2z M110.3,418.3v-5c0.7,0.9,1.6,1.4,2.7,1.4c1.1,0,2-0.4,2.6-1.2c0.7-0.9,1.1-2.1,1.1-3.6
			c0-1.4-0.3-2.5-0.9-3.4c-0.7-0.9-1.6-1.4-2.8-1.4c-0.7,0-1.4,0.2-1.9,0.6c-0.3,0.2-0.5,0.5-0.9,0.9l-0.1-1.3h-2
			c0.1,1,0.1,2.2,0.1,3.7v9.4H110.3z M103.1,412c-0.6,0.9-1.3,1.3-2.1,1.3c-0.5,0-0.8-0.1-1.1-0.4c-0.2-0.3-0.4-0.6-0.4-1
			c0-0.6,0.2-1,0.7-1.3c0.4-0.2,1-0.4,1.8-0.4c0.3,0,0.6,0,0.9,0V412z M103.3,414.5h2c-0.1-0.6-0.1-1.4-0.1-2.3v-2.7
			c0-0.6,0-1.1-0.1-1.4c-0.1-0.7-0.3-1.3-0.6-1.7c-0.6-0.8-1.7-1.2-3.2-1.2c-1.1,0-2.2,0.3-3.3,0.8l0.6,1.5c0.9-0.5,1.7-0.8,2.5-0.8
			c1.4,0,2,0.7,2,2.1v0.2c-0.7,0-1.2-0.1-1.5-0.1c-1.3,0-2.2,0.2-2.8,0.5c-0.9,0.5-1.4,1.4-1.4,2.5c0,0.8,0.3,1.5,0.8,2
			c0.5,0.5,1.2,0.8,2.2,0.8c0.7,0,1.4-0.2,1.9-0.5c0.3-0.2,0.6-0.4,0.9-0.8L103.3,414.5z M89.3,414.5v-6.2c0.8-1,1.6-1.5,2.4-1.5
			c0.7,0,1.1,0.3,1.3,0.8c0.1,0.3,0.2,0.8,0.2,1.6v5.4h2.1v-5.5c0-1.2-0.1-2.1-0.4-2.6c-0.5-0.9-1.3-1.3-2.5-1.3
			c-1.2,0-2.2,0.5-3.1,1.4v-5.2h-2.1v13.2H89.3z M83.7,412.6c-0.6,0.2-1.2,0.3-1.9,0.3c-1.1,0-1.9-0.3-2.6-1
			c-0.9-0.8-1.3-2.1-1.3-3.7c0-1.4,0.3-2.5,1-3.4c0.6-0.9,1.6-1.3,2.8-1.3c0.9,0,1.8,0.3,2.8,0.8l0.7-1.7c-1.2-0.6-2.5-0.8-3.7-0.8
			c-1.6,0-2.9,0.4-3.9,1.3c-1.4,1.2-2.1,2.9-2.1,5.2c0,2,0.6,3.6,1.7,4.7c1.1,1.1,2.5,1.6,4.4,1.6c0.9,0,1.6-0.1,2.4-0.3
			c0.4-0.1,0.8-0.3,1.3-0.5l-0.6-1.8C84.3,412.3,84,412.5,83.7,412.6"/>
		<path clip-path="url(#SVGID_50_)" fill="#FFFFFF" d="M153.1,434.2c-0.2,0.3-0.4,0.6-0.5,0.7c-0.4,0.4-0.8,0.6-1.3,0.6
			c-0.7,0-1.1-0.3-1.5-0.9c-0.3-0.5-0.4-1.2-0.4-2c0-0.8,0.2-1.5,0.5-2.1c0.3-0.5,0.8-0.8,1.4-0.8c0.8,0,1.4,0.4,1.9,1.3V434.2z
			 M153.1,430.1c-0.6-0.7-1.2-1.1-2.1-1.1c-0.8,0-1.4,0.3-1.9,0.9c-0.6,0.7-0.9,1.6-0.9,2.7c0,1.1,0.3,2,0.8,2.7
			c0.5,0.7,1.2,1.1,2.1,1.1c0.6,0,1-0.2,1.4-0.5c0.2-0.2,0.4-0.4,0.7-0.7l0,1.1h1l0-0.3c0-0.9,0-1.7,0-2.3V426h-1.1V430.1z
			 M145.2,434.4c-0.5,0.7-1.1,1.1-1.8,1.1c-0.4,0-0.7-0.1-0.9-0.3c-0.2-0.2-0.3-0.5-0.3-0.9c0-0.5,0.2-0.9,0.7-1.2
			c0.3-0.2,0.9-0.3,1.7-0.3c0.3,0,0.5,0,0.8,0V434.4z M145.3,436.2h1c0-0.5-0.1-1-0.1-1.8v-2.3c0-0.4,0-0.7,0-0.9
			c0-0.6-0.1-1-0.3-1.3c-0.4-0.6-1.1-1-2.2-1c-0.9,0-1.7,0.2-2.4,0.7l0.5,0.8c0.6-0.4,1.3-0.6,1.8-0.6c0.7,0,1.2,0.2,1.4,0.7
			c0.1,0.3,0.2,0.7,0.2,1.2v0.2c-0.5,0-0.9,0-1,0c-0.9,0-1.6,0.1-2.1,0.3c-0.8,0.4-1.2,1.1-1.2,2c0,0.6,0.2,1.1,0.5,1.5
			c0.4,0.4,1,0.6,1.7,0.6c0.5,0,1-0.1,1.4-0.4c0.2-0.1,0.5-0.3,0.7-0.6L145.3,436.2z M134.8,432.1c0-0.5,0.1-1,0.3-1.3
			c0.4-0.6,0.9-0.9,1.6-0.9c0.7,0,1.3,0.3,1.6,1c0.2,0.4,0.3,0.8,0.3,1.3H134.8z M139.7,433c0-1-0.1-1.8-0.4-2.4
			c-0.4-1-1.3-1.6-2.5-1.6c-0.8,0-1.5,0.2-2,0.7c-0.7,0.7-1.1,1.6-1.1,2.9c0,1.1,0.3,1.9,0.8,2.6c0.6,0.7,1.5,1.1,2.6,1.1
			c0.8,0,1.6-0.2,2.4-0.7l-0.4-0.8c-0.6,0.4-1.3,0.7-1.9,0.7c-0.8,0-1.3-0.3-1.7-0.8c-0.3-0.4-0.5-1-0.5-1.8H139.7z M132.9,436.2
			v-0.9h-4.2v-8.8h-1.1v9.7H132.9z M120.2,436.2v-4.5c0.1-0.4,0.3-0.7,0.5-1c0.4-0.5,0.9-0.8,1.4-0.8c0.1,0,0.2,0,0.4,0l0.1-1
			c-0.2,0-0.4-0.1-0.5-0.1c-0.5,0-0.9,0.1-1.2,0.4c-0.3,0.2-0.5,0.6-0.8,1l0-1.3h-1l0,0.3c0,0.9,0,1.8,0,2.7v4H120.2z M112.4,432.1
			c0-0.5,0.1-1,0.3-1.3c0.4-0.6,0.9-0.9,1.6-0.9c0.7,0,1.3,0.3,1.6,1c0.2,0.4,0.3,0.8,0.3,1.3H112.4z M117.2,433
			c0-1-0.1-1.8-0.4-2.4c-0.4-1-1.3-1.6-2.5-1.6c-0.8,0-1.5,0.2-2,0.7c-0.7,0.7-1.1,1.6-1.1,2.9c0,1.1,0.3,1.9,0.8,2.6
			c0.6,0.7,1.5,1.1,2.6,1.1c0.8,0,1.6-0.2,2.4-0.7l-0.4-0.8c-0.6,0.4-1.3,0.7-1.9,0.7c-0.8,0-1.3-0.3-1.7-0.8
			c-0.3-0.4-0.5-1-0.5-1.8H117.2z M107.5,434.1c0,0.8,0.1,1.3,0.3,1.6c0.3,0.4,0.8,0.7,1.5,0.7c0.4,0,0.7-0.1,1.1-0.2l-0.1-0.8
			c-0.3,0.1-0.6,0.2-0.8,0.2c-0.4,0-0.7-0.1-0.8-0.4c-0.1-0.2-0.2-0.6-0.2-1.2V430h1.7v-0.9h-1.7v-1.8l-1.1,0.2v1.6h-1.1v0.9h1.1
			V434.1z M100.5,431.2c0.5-0.9,1.1-1.3,1.9-1.3c0.6,0,1.1,0.3,1.4,0.8c0.3,0.5,0.5,1.2,0.5,2.1c0,0.8-0.1,1.4-0.4,2
			c-0.3,0.6-0.8,0.9-1.5,0.9c-0.5,0-0.9-0.2-1.3-0.6c-0.2-0.2-0.3-0.4-0.5-0.7V431.2z M100.5,439.2v-4c0.2,0.3,0.4,0.5,0.6,0.6
			c0.4,0.3,0.9,0.5,1.4,0.5c0.8,0,1.5-0.3,2-0.9c0.6-0.7,0.9-1.7,0.9-2.8c0-1.1-0.3-1.9-0.8-2.6c-0.5-0.7-1.2-1.1-2-1.1
			c-0.6,0-1,0.2-1.5,0.5c-0.2,0.2-0.4,0.4-0.7,0.7l0-1.1h-1l0,0.4c0,0.9,0,1.7,0,2.5v7.2H100.5z M96,434.4c-0.5,0.7-1.1,1.1-1.8,1.1
			c-0.4,0-0.7-0.1-0.9-0.3c-0.2-0.2-0.3-0.5-0.3-0.9c0-0.5,0.2-0.9,0.7-1.2c0.3-0.2,0.9-0.3,1.7-0.3c0.3,0,0.5,0,0.8,0V434.4z
			 M96.1,436.2h1c0-0.5-0.1-1-0.1-1.8v-2.3c0-0.4,0-0.7,0-0.9c0-0.6-0.1-1-0.3-1.3c-0.4-0.6-1.1-1-2.2-1c-0.9,0-1.7,0.2-2.4,0.7
			l0.5,0.8c0.6-0.4,1.3-0.6,1.8-0.6c0.7,0,1.2,0.2,1.4,0.7c0.1,0.3,0.2,0.7,0.2,1.2v0.2c-0.5,0-0.9,0-1,0c-0.9,0-1.6,0.1-2.1,0.3
			c-0.8,0.4-1.2,1.1-1.2,2c0,0.6,0.2,1.1,0.5,1.5c0.4,0.4,1,0.6,1.7,0.6c0.5,0,1-0.1,1.4-0.4c0.2-0.1,0.5-0.3,0.7-0.6L96.1,436.2z
			 M85.2,436.2v-5.1c0.7-0.9,1.5-1.3,2.2-1.3c0.6,0,1.1,0.3,1.2,0.8c0.1,0.3,0.2,0.8,0.2,1.5v4.1h1.1v-4.1c0-0.3,0-0.6,0-0.9
			c0-0.5-0.1-0.9-0.3-1.2c-0.3-0.7-1-1-1.8-1c-0.9,0-1.8,0.4-2.6,1.2V426h-1.1v10.2H85.2z M80,435.5c-0.6,0-1.1-0.1-1.5-0.3
			c-0.6-0.3-1.1-0.8-1.4-1.5c-0.3-0.6-0.4-1.4-0.4-2.1c0-1.1,0.3-2.1,0.8-2.9c0.6-0.8,1.4-1.2,2.4-1.2c0.7,0,1.4,0.2,2.2,0.6
			l0.4-0.9c-0.9-0.4-1.8-0.6-2.6-0.6c-0.7,0-1.4,0.1-2,0.4c-0.8,0.4-1.4,1-1.9,1.9c-0.4,0.8-0.6,1.7-0.6,2.7c0,1.5,0.4,2.7,1.3,3.6
			c0.8,0.9,1.9,1.3,3.2,1.3c0.8,0,1.7-0.2,2.6-0.5l-0.3-0.9C81.5,435.3,80.8,435.5,80,435.5"/>
		<g opacity="0.7" clip-path="url(#SVGID_50_)">
			<g>
				<defs>
					<rect id="SVGID_51_" x="-9.1" y="-7.9" width="754.8" height="551.1"/>
				</defs>
				<clipPath id="SVGID_52_">
					<use xlink:href="#SVGID_51_"  overflow="visible"/>
				</clipPath>
				<path clip-path="url(#SVGID_52_)" fill="#00284C" d="M725.4,542.3H11.3c-6.3,0-11.4-5.1-11.4-11.4V10.5C-0.1,4.2,5-0.9,11.3-0.9
					h714.1c6.3,0,11.4,5.1,11.4,11.4v520.4C736.8,537.2,731.7,542.3,725.4,542.3"/>
			</g>
		</g>
		<path clip-path="url(#SVGID_50_)" fill="#DFE6ED" d="M736.8,37.1V10.5c0-6.3-5.1-11.4-11.4-11.4H11.3C5-0.9-0.1,4.2-0.1,10.5v26.6
			H736.8z"/>
	</g>
	<rect x="510.3" y="10.8" clip-path="url(#SVGID_2_)" fill="#FFFFFF" width="206.4" height="15"/>
	<rect x="92.8" y="10.8" clip-path="url(#SVGID_2_)" fill="#FFFFFF" width="397.6" height="14.6"/>
	<g clip-path="url(#SVGID_2_)">
		<defs>
			<rect id="SVGID_53_" x="-0.1" y="-0.9" width="736.8" height="543.1"/>
		</defs>
		<clipPath id="SVGID_54_">
			<use xlink:href="#SVGID_53_"  overflow="visible"/>
		</clipPath>
		<g opacity="0.75" clip-path="url(#SVGID_54_)">
			<g>
				<defs>
					<rect id="SVGID_55_" x="201.1" y="99" width="158.7" height="375.3"/>
				</defs>
				<clipPath id="SVGID_56_">
					<use xlink:href="#SVGID_55_"  overflow="visible"/>
				</clipPath>
				<path clip-path="url(#SVGID_56_)" fill="#005F87" d="M241.1,106c0,0-31,0-31,31v305.4c0,0,0,31,31,31h78.7c0,0,31,0,31-31V137
					c0,0,0-31-31-31H241.1z"/>
			</g>
		</g>
	</g>
	<rect x="210.2" y="162.7" clip-path="url(#SVGID_2_)" fill="#41AAAA" width="140.4" height="24.8"/>
	<g clip-path="url(#SVGID_2_)">
		<defs>
			<rect id="SVGID_57_" x="-0.1" y="-0.9" width="736.8" height="543.1"/>
		</defs>
		<clipPath id="SVGID_58_">
			<use xlink:href="#SVGID_57_"  overflow="visible"/>
		</clipPath>
		<path clip-path="url(#SVGID_58_)" fill="#50BED7" d="M303,127.1c-0.6,1.1-1.4,1.6-2.2,1.6c-0.7,0-1.2-0.3-1.5-1
			c-0.3-0.6-0.5-1.4-0.5-2.2c0-0.9,0.2-1.7,0.5-2.2c0.4-0.6,0.9-0.9,1.5-0.9c0.8,0,1.5,0.5,2.1,1.5V127.1z M303,122.1
			c-0.7-0.9-1.6-1.4-2.7-1.4c-1.1,0-2,0.4-2.6,1.2c-0.7,0.9-1.1,2.1-1.1,3.6c0,1.4,0.3,2.5,0.9,3.4c0.7,0.9,1.6,1.4,2.8,1.4
			c0.7,0,1.4-0.2,1.9-0.6c0.3-0.2,0.6-0.5,0.9-0.9l0.1,1.3h2c-0.1-0.8-0.1-1.9-0.1-3.2V117H303V122.1z M292.2,127.6
			c-0.6,0.9-1.3,1.3-2.1,1.3c-0.5,0-0.8-0.1-1.1-0.4c-0.2-0.3-0.4-0.6-0.4-1c0-0.6,0.2-1,0.7-1.3c0.4-0.2,1-0.4,1.8-0.4
			c0.3,0,0.6,0,1,0V127.6z M292.4,130.1h2c-0.1-0.6-0.1-1.4-0.1-2.3V125c0-0.6,0-1.1-0.1-1.4c-0.1-0.7-0.3-1.3-0.6-1.7
			c-0.6-0.8-1.7-1.2-3.2-1.2c-1.1,0-2.2,0.3-3.3,0.8l0.6,1.5c0.9-0.5,1.7-0.8,2.5-0.8c1.4,0,2,0.7,2,2.1v0.2c-0.7,0-1.2-0.1-1.5-0.1
			c-1.3,0-2.2,0.2-2.8,0.5c-0.9,0.5-1.4,1.4-1.4,2.5c0,0.8,0.3,1.5,0.8,2c0.5,0.5,1.2,0.8,2.2,0.8c0.7,0,1.4-0.2,1.9-0.5
			c0.3-0.2,0.6-0.4,0.9-0.8L292.4,130.1z M282.2,120.9v6.2c-0.8,1-1.5,1.6-2.4,1.6c-0.6,0-1.1-0.3-1.3-0.8c-0.1-0.3-0.2-0.8-0.2-1.6
			v-5.4h-2.1v5.5c0,1.2,0.1,2.1,0.4,2.6c0.5,0.9,1.3,1.3,2.5,1.3c0.8,0,1.6-0.2,2.2-0.7c0.3-0.2,0.6-0.5,0.9-0.9l0.1,1.4h2
			c-0.1-1.1-0.1-2.1-0.1-3.2v-6H282.2z M271.4,127.1c-0.7,1.1-1.4,1.6-2.2,1.6c-0.7,0-1.2-0.3-1.5-1c-0.3-0.6-0.5-1.4-0.5-2.2
			c0-0.9,0.2-1.7,0.5-2.2c0.4-0.6,0.9-0.9,1.5-0.9c0.8,0,1.5,0.5,2.1,1.5V127.1z M271.5,122.2c-0.3-0.4-0.6-0.7-0.9-0.9
			c-0.6-0.4-1.2-0.6-1.9-0.6c-1.1,0-2,0.4-2.6,1.2c-0.7,0.9-1.1,2.1-1.1,3.6c0,1.4,0.3,2.5,0.9,3.4c0.7,0.9,1.6,1.4,2.8,1.4
			c0.7,0,1.4-0.2,1.9-0.6c0.3-0.2,0.5-0.4,0.8-0.8v5h2.1v-9.4c0-1.6,0-2.8,0.1-3.7h-2L271.5,122.2z M259,130.3
			c1.3,0,2.4-0.3,3.1-0.9c0.8-0.7,1.3-1.6,1.3-2.8c0-0.6-0.1-1.1-0.3-1.5c-0.3-0.5-0.7-1-1.4-1.4c-0.4-0.2-1-0.5-1.9-0.9
			c-0.9-0.4-1.5-0.7-1.8-0.9c-0.3-0.3-0.5-0.6-0.5-1c0-0.5,0.2-0.9,0.6-1.2c0.4-0.3,0.8-0.4,1.4-0.4c0.8,0,1.8,0.2,3,0.7l0.4-1.9
			c-1.3-0.4-2.5-0.6-3.5-0.6c-1.2,0-2.2,0.3-2.9,0.9c-0.8,0.7-1.3,1.6-1.3,2.8c0,0.5,0.1,1,0.3,1.4c0.3,0.5,0.7,0.9,1.3,1.3
			c0.3,0.2,0.9,0.5,1.8,0.8c1,0.4,1.6,0.8,1.9,1c0.3,0.3,0.5,0.6,0.5,1.1c0,0.5-0.2,0.9-0.5,1.3c-0.4,0.4-0.9,0.5-1.6,0.5
			c-0.9,0-2-0.3-3.4-0.8l-0.3,1.9C256.5,130.1,257.8,130.3,259,130.3"/>
		<path clip-path="url(#SVGID_58_)" fill="#50BED7" d="M313.5,150.3c-0.2,0.3-0.4,0.6-0.5,0.7c-0.4,0.4-0.8,0.6-1.3,0.6
			c-0.7,0-1.1-0.3-1.5-0.9c-0.3-0.5-0.4-1.2-0.4-2c0-0.8,0.2-1.5,0.5-2.1c0.3-0.5,0.8-0.8,1.4-0.8c0.8,0,1.4,0.4,1.9,1.3V150.3z
			 M313.5,146.2c-0.6-0.7-1.2-1.1-2.1-1.1c-0.8,0-1.4,0.3-1.9,0.9c-0.6,0.7-0.9,1.6-0.9,2.7c0,1.1,0.3,2,0.8,2.7
			c0.5,0.7,1.2,1.1,2.1,1.1c0.6,0,1-0.2,1.4-0.5c0.2-0.2,0.4-0.4,0.7-0.7l0,1.1h1l0-0.3c0-0.9,0-1.7,0-2.3v-7.6h-1.1V146.2z
			 M305.6,150.5c-0.5,0.7-1.1,1.1-1.8,1.1c-0.4,0-0.7-0.1-1-0.3c-0.2-0.2-0.3-0.5-0.3-0.9c0-0.5,0.2-0.9,0.7-1.2
			c0.3-0.2,0.9-0.3,1.7-0.3c0.3,0,0.5,0,0.8,0V150.5z M305.7,152.4h1c0-0.5-0.1-1-0.1-1.8v-2.3c0-0.4,0-0.7,0-0.9
			c0-0.6-0.1-1-0.3-1.3c-0.4-0.6-1.1-1-2.2-1c-0.9,0-1.7,0.2-2.4,0.7l0.5,0.8c0.6-0.4,1.3-0.6,1.8-0.6c0.7,0,1.2,0.2,1.4,0.7
			c0.1,0.3,0.2,0.7,0.2,1.2v0.2c-0.5,0-0.9,0-1,0c-0.9,0-1.6,0.1-2.1,0.3c-0.8,0.4-1.2,1.1-1.2,2c0,0.6,0.2,1.1,0.5,1.5
			c0.4,0.4,1,0.6,1.7,0.6c0.5,0,1-0.1,1.4-0.4c0.2-0.1,0.5-0.3,0.7-0.6L305.7,152.4z M295.2,148.2c0-0.5,0.1-1,0.3-1.3
			c0.4-0.6,0.9-0.9,1.6-0.9c0.7,0,1.3,0.3,1.6,1c0.2,0.4,0.3,0.8,0.3,1.3H295.2z M300.1,149.1c0-1-0.1-1.8-0.4-2.4
			c-0.4-1-1.3-1.6-2.5-1.6c-0.8,0-1.5,0.2-2,0.7c-0.7,0.7-1.1,1.6-1.1,2.9c0,1.1,0.3,1.9,0.8,2.6c0.6,0.7,1.5,1.1,2.6,1.1
			c0.8,0,1.6-0.2,2.4-0.7l-0.4-0.8c-0.6,0.4-1.3,0.7-1.9,0.7c-0.8,0-1.3-0.3-1.7-0.8c-0.3-0.4-0.5-1-0.5-1.8H300.1z M293.3,152.4
			v-0.9h-4.2v-8.8H288v9.7H293.3z M280.9,150.3c-0.2,0.3-0.4,0.6-0.5,0.7c-0.4,0.4-0.8,0.6-1.3,0.6c-0.7,0-1.1-0.3-1.5-0.9
			c-0.3-0.5-0.4-1.2-0.4-2c0-0.8,0.2-1.5,0.5-2.1c0.3-0.5,0.8-0.8,1.4-0.8c0.8,0,1.4,0.4,1.9,1.3V150.3z M280.9,146.2
			c-0.6-0.7-1.2-1.1-2.1-1.1c-0.8,0-1.4,0.3-1.9,0.9c-0.6,0.7-0.9,1.6-0.9,2.7c0,1.1,0.3,2,0.8,2.7c0.5,0.7,1.2,1.1,2.1,1.1
			c0.6,0,1-0.2,1.4-0.5c0.2-0.2,0.4-0.4,0.7-0.7l0,1.1h1l0-0.3c0-0.9,0-1.7,0-2.3v-7.6h-1.1V146.2z M273.1,150.5
			c-0.5,0.7-1.1,1.1-1.8,1.1c-0.4,0-0.7-0.1-1-0.3c-0.2-0.2-0.3-0.5-0.3-0.9c0-0.5,0.2-0.9,0.7-1.2c0.3-0.2,0.9-0.3,1.7-0.3
			c0.3,0,0.5,0,0.8,0V150.5z M273.2,152.4h1c0-0.5-0.1-1-0.1-1.8v-2.3c0-0.4,0-0.7,0-0.9c0-0.6-0.1-1-0.3-1.3c-0.4-0.6-1.1-1-2.2-1
			c-0.9,0-1.7,0.2-2.4,0.7l0.5,0.8c0.6-0.4,1.3-0.6,1.8-0.6c0.7,0,1.2,0.2,1.4,0.7c0.1,0.3,0.2,0.7,0.2,1.2v0.2c-0.5,0-0.9,0-1,0
			c-0.9,0-1.6,0.1-2.1,0.3c-0.8,0.4-1.2,1.1-1.2,2c0,0.6,0.2,1.1,0.5,1.5c0.4,0.4,1,0.6,1.7,0.6c0.5,0,1-0.1,1.4-0.4
			c0.2-0.1,0.5-0.3,0.7-0.6L273.2,152.4z M265.9,145.3v5.1c-0.7,0.9-1.4,1.3-2.2,1.3c-0.6,0-1-0.3-1.2-0.8c-0.1-0.3-0.1-0.8-0.1-1.5
			v-4.1h-1.1v4.1c0,0.3,0,0.6,0,0.9c0,0.5,0.1,0.9,0.3,1.2c0.3,0.7,0.9,1,1.8,1c0.6,0,1.2-0.2,1.8-0.6c0.2-0.2,0.5-0.4,0.7-0.7
			l0,1.1h1.1c0-0.4-0.1-1.2-0.1-2.3v-4.8H265.9z M258,150.3c-0.2,0.3-0.4,0.6-0.5,0.7c-0.4,0.4-0.8,0.6-1.3,0.6
			c-0.7,0-1.1-0.3-1.5-0.9c-0.3-0.5-0.4-1.2-0.4-2c0-0.8,0.2-1.5,0.5-2.1c0.3-0.5,0.8-0.8,1.4-0.8c0.7,0,1.4,0.4,1.9,1.3V150.3z
			 M258,146.3c-0.2-0.3-0.5-0.6-0.7-0.7c-0.4-0.3-0.9-0.5-1.5-0.5c-0.8,0-1.4,0.3-1.9,0.9c-0.6,0.7-0.9,1.6-0.9,2.7
			c0,1.1,0.3,2,0.8,2.7c0.5,0.7,1.2,1.1,2.1,1.1c0.6,0,1.1-0.2,1.4-0.5c0.2-0.2,0.4-0.4,0.6-0.6v4h1.1v-7.2c0-0.8,0-1.6,0-2.5l0-0.4
			h-1L258,146.3z M248.4,152.5c1,0,1.7-0.2,2.3-0.7c0.6-0.5,0.9-1.2,0.9-2c0-1-0.4-1.7-1.3-2.3c-0.3-0.2-0.8-0.4-1.5-0.7
			c-0.3-0.1-0.6-0.3-0.9-0.4c-0.2-0.1-0.5-0.3-0.6-0.5c-0.2-0.3-0.4-0.6-0.4-0.9c0-0.5,0.2-0.8,0.5-1.1c0.4-0.3,0.8-0.4,1.3-0.4
			c0.7,0,1.4,0.2,2.1,0.5l0.2-1c-0.9-0.3-1.6-0.4-2.3-0.4c-0.5,0-1,0.1-1.4,0.2c-0.5,0.2-0.9,0.4-1.1,0.8c-0.4,0.4-0.5,1-0.5,1.6
			c0,0.4,0.1,0.7,0.2,1c0.2,0.4,0.5,0.7,1,1c0.2,0.1,0.7,0.4,1.4,0.7c0.8,0.4,1.3,0.6,1.5,0.9c0.3,0.3,0.4,0.6,0.4,1.1
			c0,0.5-0.2,0.9-0.5,1.2c-0.4,0.3-0.9,0.5-1.5,0.5c-0.7,0-1.5-0.2-2.4-0.5l-0.1,1C246.9,152.3,247.7,152.5,248.4,152.5"/>
		<path clip-path="url(#SVGID_58_)" fill="#FFFFFF" d="M237,398.9c0,0-18,0-18,18v2.6c0,0,0,18,18,18h86.9c0,0,18,0,18-18v-2.6
			c0,0,0-18-18-18H237z"/>
	</g>
	<rect x="262.3" y="409.9" clip-path="url(#SVGID_2_)" fill="#BECDD7" width="58.1" height="6.6"/>
	<rect x="260.5" y="420.8" clip-path="url(#SVGID_2_)" fill="#BECDD7" width="71.2" height="6.6"/>
	<g clip-path="url(#SVGID_2_)">
		<defs>
			<rect id="SVGID_59_" x="-0.1" y="-0.9" width="736.8" height="543.1"/>
		</defs>
		<clipPath id="SVGID_60_">
			<use xlink:href="#SVGID_59_"  overflow="visible"/>
		</clipPath>
		<path clip-path="url(#SVGID_60_)" fill="#EBF0F5" d="M239.3,432.6c7.9,0,14.4-6.4,14.4-14.4c0-7.9-6.4-14.4-14.4-14.4
			c-7.9,0-14.4,6.4-14.4,14.4C224.9,426.1,231.4,432.6,239.3,432.6"/>
	</g>
	<g clip-path="url(#SVGID_2_)">
		<defs>
			<path id="SVGID_61_" d="M224.9,418.2c0,7.9,6.4,14.4,14.4,14.4c7.9,0,14.4-6.4,14.4-14.4s-6.4-14.4-14.4-14.4
				C231.4,403.8,224.9,410.3,224.9,418.2"/>
		</defs>
		<clipPath id="SVGID_62_">
			<use xlink:href="#SVGID_61_"  overflow="visible"/>
		</clipPath>
		<path clip-path="url(#SVGID_62_)" fill="#879BAA" d="M238.9,416.7c2.7,0,4.5-2,4.5-5.1c0-3.1-1.8-5.1-4.5-5.1
			c-2.7,0-4.5,2-4.5,5.1C234.5,414.6,236.3,416.7,238.9,416.7"/>
		<path clip-path="url(#SVGID_62_)" fill="#879BAA" d="M235.9,418.6L235.9,418.6L235.9,418.6l-3.1,0.2l0,0c-1.7,0.1-2.9,1.5-2.9,3.5
			c0,0,0,0,0,0v8.9h8.3h1.2h8.3v-8.9c0,0,0,0,0,0c0-2-1.2-3.4-2.9-3.5l0,0l-3.1-0.2v0l0,0H235.9z"/>
	</g>
	<g clip-path="url(#SVGID_2_)">
		<defs>
			<rect id="SVGID_63_" x="-0.1" y="-0.9" width="736.8" height="543.1"/>
		</defs>
		<clipPath id="SVGID_64_">
			<use xlink:href="#SVGID_63_"  overflow="visible"/>
		</clipPath>
		<circle clip-path="url(#SVGID_64_)" fill="none" stroke="#50BED7" stroke-width="2.109" cx="239.3" cy="418.2" r="14.4"/>
		<path clip-path="url(#SVGID_64_)" fill="#FFFFFF" d="M237,279.1c0,0-18,0-18,18v2.6c0,0,0,18,18,18h86.9c0,0,18,0,18-18v-2.6
			c0,0,0-18-18-18H237z"/>
	</g>
	<rect x="262.3" y="290.1" clip-path="url(#SVGID_2_)" fill="#BECDD7" width="58.1" height="6.6"/>
	<rect x="260.5" y="301" clip-path="url(#SVGID_2_)" fill="#BECDD7" width="71.2" height="6.6"/>
	<g clip-path="url(#SVGID_2_)">
		<defs>
			<rect id="SVGID_65_" x="-0.1" y="-0.9" width="736.8" height="543.1"/>
		</defs>
		<clipPath id="SVGID_66_">
			<use xlink:href="#SVGID_65_"  overflow="visible"/>
		</clipPath>
		<path clip-path="url(#SVGID_66_)" fill="#EBF0F5" d="M239.3,312.8c7.9,0,14.4-6.4,14.4-14.4c0-7.9-6.4-14.4-14.4-14.4
			c-7.9,0-14.4,6.4-14.4,14.4C224.9,306.4,231.4,312.8,239.3,312.8"/>
	</g>
	<g clip-path="url(#SVGID_2_)">
		<defs>
			<path id="SVGID_67_" d="M224.9,298.5c0,7.9,6.4,14.4,14.4,14.4c7.9,0,14.4-6.4,14.4-14.4s-6.4-14.4-14.4-14.4
				C231.4,284.1,224.9,290.5,224.9,298.5"/>
		</defs>
		<clipPath id="SVGID_68_">
			<use xlink:href="#SVGID_67_"  overflow="visible"/>
		</clipPath>
		<path clip-path="url(#SVGID_68_)" fill="#879BAA" d="M238.9,296.9c2.7,0,4.5-2,4.5-5.1c0-3.1-1.8-5.1-4.5-5.1
			c-2.7,0-4.5,2-4.5,5.1C234.5,294.9,236.3,296.9,238.9,296.9"/>
		<path clip-path="url(#SVGID_68_)" fill="#879BAA" d="M235.9,298.9L235.9,298.9L235.9,298.9l-3.1,0.2l0,0c-1.7,0.1-2.9,1.5-2.9,3.5
			c0,0,0,0,0,0v8.9h8.3h1.2h8.3v-8.9c0,0,0,0,0,0c0-2-1.2-3.4-2.9-3.5l0,0l-3.1-0.2v0l0,0H235.9z"/>
	</g>
	<g clip-path="url(#SVGID_2_)">
		<defs>
			<rect id="SVGID_69_" x="-0.1" y="-0.9" width="736.8" height="543.1"/>
		</defs>
		<clipPath id="SVGID_70_">
			<use xlink:href="#SVGID_69_"  overflow="visible"/>
		</clipPath>
		<circle clip-path="url(#SVGID_70_)" fill="none" stroke="#50BED7" stroke-width="2.109" cx="239.3" cy="298.5" r="14.4"/>
		<path clip-path="url(#SVGID_70_)" fill="#FFFFFF" d="M237,209.2c0,0-18,0-18,18v2.6c0,0,0,18,18,18h86.9c0,0,18,0,18-18v-2.6
			c0,0,0-18-18-18H237z"/>
	</g>
	<rect x="262.3" y="220.2" clip-path="url(#SVGID_2_)" fill="#BECDD7" width="58.1" height="6.6"/>
	<rect x="260.5" y="231.1" clip-path="url(#SVGID_2_)" fill="#BECDD7" width="71.2" height="6.6"/>
	<g clip-path="url(#SVGID_2_)">
		<defs>
			<rect id="SVGID_71_" x="-0.1" y="-0.9" width="736.8" height="543.1"/>
		</defs>
		<clipPath id="SVGID_72_">
			<use xlink:href="#SVGID_71_"  overflow="visible"/>
		</clipPath>
		<path clip-path="url(#SVGID_72_)" fill="#EBF0F5" d="M239.3,242.9c7.9,0,14.4-6.4,14.4-14.4c0-7.9-6.4-14.4-14.4-14.4
			c-7.9,0-14.4,6.4-14.4,14.4C224.9,236.4,231.4,242.9,239.3,242.9"/>
	</g>
	<g clip-path="url(#SVGID_2_)">
		<defs>
			<path id="SVGID_73_" d="M224.9,228.5c0,7.9,6.4,14.4,14.4,14.4c7.9,0,14.4-6.4,14.4-14.4c0-7.9-6.4-14.4-14.4-14.4
				C231.4,214.1,224.9,220.5,224.9,228.5"/>
		</defs>
		<clipPath id="SVGID_74_">
			<use xlink:href="#SVGID_73_"  overflow="visible"/>
		</clipPath>
		<path clip-path="url(#SVGID_74_)" fill="#879BAA" d="M238.9,227c2.7,0,4.5-2,4.5-5.1c0-3.1-1.8-5.1-4.5-5.1c-2.7,0-4.5,2-4.5,5.1
			C234.5,224.9,236.3,227,238.9,227"/>
		<path clip-path="url(#SVGID_74_)" fill="#879BAA" d="M235.9,228.9L235.9,228.9L235.9,228.9l-3.1,0.2l0,0c-1.7,0.1-2.9,1.5-2.9,3.5
			c0,0,0,0,0,0v8.9h8.3h1.2h8.3v-8.9c0,0,0,0,0,0c0-2-1.2-3.4-2.9-3.5l0,0l-3.1-0.2v0l0,0H235.9z"/>
	</g>
	<g clip-path="url(#SVGID_2_)">
		<defs>
			<rect id="SVGID_75_" x="-0.1" y="-0.9" width="736.8" height="543.1"/>
		</defs>
		<clipPath id="SVGID_76_">
			<use xlink:href="#SVGID_75_"  overflow="visible"/>
		</clipPath>
		<circle clip-path="url(#SVGID_76_)" fill="none" stroke="#50BED7" stroke-width="2.109" cx="239.3" cy="228.5" r="14.4"/>
		<path clip-path="url(#SVGID_76_)" fill="#F27D7D" d="M30.9,18.3c0,3.1-2.5,5.7-5.5,5.7s-5.5-2.5-5.5-5.7c0-3.1,2.5-5.7,5.5-5.7
			S30.9,15.1,30.9,18.3"/>
		<path clip-path="url(#SVGID_76_)" fill="#F5E391" d="M51.8,18c0,3.1-2.5,5.7-5.5,5.7c-3,0-5.5-2.5-5.5-5.7c0-3.1,2.5-5.7,5.5-5.7
			C49.4,12.3,51.8,14.8,51.8,18"/>
		<path clip-path="url(#SVGID_76_)" fill="#B5EDAD" d="M72.8,18c0,3.1-2.5,5.7-5.5,5.7c-3,0-5.5-2.5-5.5-5.7c0-3.1,2.5-5.7,5.5-5.7
			C70.3,12.3,72.8,14.8,72.8,18"/>
	</g>
</g>
</svg>
