<?xml version="1.0" encoding="utf-8"?>
<!-- Generator: Adobe Illustrator 18.0.0, SVG Export Plug-In . SVG Version: 6.00 Build 0)  -->
<!DOCTYPE svg PUBLIC "-//W3C//DTD SVG 1.0//EN" "http://www.w3.org/TR/2001/REC-SVG-20010904/DTD/svg10.dtd">
<svg version="1.0" id="Ebene_1" xmlns="http://www.w3.org/2000/svg" xmlns:xlink="http://www.w3.org/1999/xlink" x="0px" y="0px"
	 viewBox="0.1 0 736.8 542" enable-background="new 0.1 0 736.8 542" xml:space="preserve">
<g>
	<defs>
		<rect id="SVGID_1_" x="-0.1" y="-0.9" width="736.8" height="543.1"/>
	</defs>
	<clipPath id="SVGID_2_">
		<use xlink:href="#SVGID_1_"  overflow="visible"/>
	</clipPath>
	<g clip-path="url(#SVGID_2_)">
		<defs>
			<rect id="SVGID_3_" x="-0.1" y="-0.9" width="736.8" height="543.1"/>
		</defs>
		<clipPath id="SVGID_4_">
			<use xlink:href="#SVGID_3_"  overflow="visible"/>
		</clipPath>
		<path clip-path="url(#SVGID_4_)" fill="#004669" d="M725.4,542.3H11.3c-6.3,0-11.4-5.1-11.4-11.4V10.5C-0.1,4.2,5-0.9,11.3-0.9
			h714.1c6.3,0,11.4,5.1,11.4,11.4v520.4C736.8,537.2,731.7,542.3,725.4,542.3"/>
		<g opacity="0.65" clip-path="url(#SVGID_4_)">
			<g>
				<defs>
					<rect id="SVGID_5_" x="-9.1" y="-7.9" width="754.8" height="551.1"/>
				</defs>
				<clipPath id="SVGID_6_">
					<use xlink:href="#SVGID_5_"  overflow="visible"/>
				</clipPath>
				<path clip-path="url(#SVGID_6_)" fill="#00284C" d="M725.4,542.3H11.3c-6.3,0-11.4-5.1-11.4-11.4V10.5C-0.1,4.2,5-0.9,11.3-0.9
					h714.1c6.3,0,11.4,5.1,11.4,11.4v520.4C736.8,537.2,731.7,542.3,725.4,542.3"/>
			</g>
		</g>
		<path clip-path="url(#SVGID_4_)" fill="#DFE6ED" d="M736.8,37.1V10.5c0-6.3-5.1-11.4-11.4-11.4H11.3C5-0.9-0.1,4.2-0.1,10.5v26.6
			H736.8z"/>
	</g>
	<rect x="510.3" y="10.8" clip-path="url(#SVGID_2_)" fill="#FFFFFF" width="206.4" height="15"/>
	<rect x="92.8" y="10.8" clip-path="url(#SVGID_2_)" fill="#FFFFFF" width="397.6" height="14.6"/>
	<g clip-path="url(#SVGID_2_)">
		<defs>
			<rect id="SVGID_7_" x="-0.1" y="-0.9" width="736.8" height="543.1"/>
		</defs>
		<clipPath id="SVGID_8_">
			<use xlink:href="#SVGID_7_"  overflow="visible"/>
		</clipPath>
		<path clip-path="url(#SVGID_8_)" fill="#F27D7D" d="M30.9,18.3c0,3.1-2.5,5.7-5.5,5.7s-5.5-2.5-5.5-5.7c0-3.1,2.5-5.7,5.5-5.7
			S30.9,15.1,30.9,18.3"/>
		<path clip-path="url(#SVGID_8_)" fill="#F5E391" d="M51.8,18c0,3.1-2.5,5.7-5.5,5.7c-3,0-5.5-2.5-5.5-5.7c0-3.1,2.5-5.7,5.5-5.7
			C49.4,12.3,51.8,14.8,51.8,18"/>
		<path clip-path="url(#SVGID_8_)" fill="#B5EDAD" d="M72.8,18c0,3.1-2.5,5.7-5.5,5.7c-3,0-5.5-2.5-5.5-5.7c0-3.1,2.5-5.7,5.5-5.7
			C70.3,12.3,72.8,14.8,72.8,18"/>
		<path clip-path="url(#SVGID_8_)" fill="#004669" d="M725.4,542.3H11.3c-6.3,0-11.4-5.1-11.4-11.4V10.5C-0.1,4.2,5-0.9,11.3-0.9
			h714.1c6.3,0,11.4,5.1,11.4,11.4v520.4C736.8,537.2,731.7,542.3,725.4,542.3"/>
		<g opacity="0.65" clip-path="url(#SVGID_8_)">
			<g>
				<defs>
					<rect id="SVGID_9_" x="-9.1" y="-7.9" width="754.8" height="551.1"/>
				</defs>
				<clipPath id="SVGID_10_">
					<use xlink:href="#SVGID_9_"  overflow="visible"/>
				</clipPath>
				<path clip-path="url(#SVGID_10_)" fill="#00284C" d="M725.4,542.3H11.3c-6.3,0-11.4-5.1-11.4-11.4V10.5C-0.1,4.2,5-0.9,11.3-0.9
					h714.1c6.3,0,11.4,5.1,11.4,11.4v520.4C736.8,537.2,731.7,542.3,725.4,542.3"/>
			</g>
		</g>
		<path clip-path="url(#SVGID_8_)" fill="#DFE6ED" d="M736.8,37.1V10.5c0-6.3-5.1-11.4-11.4-11.4H11.3C5-0.9-0.1,4.2-0.1,10.5v26.6
			H736.8z"/>
	</g>
	<rect x="510.3" y="10.8" clip-path="url(#SVGID_2_)" fill="#FFFFFF" width="206.4" height="15"/>
	<rect x="92.8" y="10.8" clip-path="url(#SVGID_2_)" fill="#FFFFFF" width="397.6" height="14.6"/>
	<g clip-path="url(#SVGID_2_)">
		<defs>
			<rect id="SVGID_11_" x="-0.1" y="-0.9" width="736.8" height="543.1"/>
		</defs>
		<clipPath id="SVGID_12_">
			<use xlink:href="#SVGID_11_"  overflow="visible"/>
		</clipPath>
		<path clip-path="url(#SVGID_12_)" fill="#F27D7D" d="M30.9,18.3c0,3.1-2.5,5.7-5.5,5.7s-5.5-2.5-5.5-5.7c0-3.1,2.5-5.7,5.5-5.7
			S30.9,15.1,30.9,18.3"/>
		<path clip-path="url(#SVGID_12_)" fill="#F5E391" d="M51.8,18c0,3.1-2.5,5.7-5.5,5.7c-3,0-5.5-2.5-5.5-5.7c0-3.1,2.5-5.7,5.5-5.7
			C49.4,12.3,51.8,14.8,51.8,18"/>
		<path clip-path="url(#SVGID_12_)" fill="#B5EDAD" d="M72.8,18c0,3.1-2.5,5.7-5.5,5.7c-3,0-5.5-2.5-5.5-5.7c0-3.1,2.5-5.7,5.5-5.7
			C70.3,12.3,72.8,14.8,72.8,18"/>
		<g opacity="0.75" clip-path="url(#SVGID_12_)">
			<g>
				<defs>
					<rect id="SVGID_13_" x="51.4" y="231.9" width="634.9" height="53"/>
				</defs>
				<clipPath id="SVGID_14_">
					<use xlink:href="#SVGID_13_"  overflow="visible"/>
				</clipPath>
				<path clip-path="url(#SVGID_14_)" fill="#50BED7" d="M75.1,238.9c0,0-14.7,0-14.7,14.7v15.5c0,0,0,14.7,14.7,14.7h587.4
					c0,0,14.7,0,14.7-14.7v-15.5c0,0,0-14.7-14.7-14.7H75.1z"/>
			</g>
		</g>
		<g opacity="0.75" clip-path="url(#SVGID_12_)">
			<g>
				<defs>
					<rect id="SVGID_15_" x="51.4" y="290.6" width="634.9" height="53"/>
				</defs>
				<clipPath id="SVGID_16_">
					<use xlink:href="#SVGID_15_"  overflow="visible"/>
				</clipPath>
				<path clip-path="url(#SVGID_16_)" fill="#50BED7" d="M75.1,297.6c0,0-14.7,0-14.7,14.7v15.5c0,0,0,14.7,14.7,14.7h587.4
					c0,0,14.7,0,14.7-14.7v-15.5c0,0,0-14.7-14.7-14.7H75.1z"/>
			</g>
		</g>
		<g opacity="0.75" clip-path="url(#SVGID_12_)">
			<g>
				<defs>
					<rect id="SVGID_17_" x="51.4" y="350.7" width="634.9" height="53"/>
				</defs>
				<clipPath id="SVGID_18_">
					<use xlink:href="#SVGID_17_"  overflow="visible"/>
				</clipPath>
				<path clip-path="url(#SVGID_18_)" fill="#50BED7" d="M75.1,357.7c0,0-14.7,0-14.7,14.7V388c0,0,0,14.7,14.7,14.7h587.4
					c0,0,14.7,0,14.7-14.7v-15.5c0,0,0-14.7-14.7-14.7H75.1z"/>
			</g>
		</g>
		<path clip-path="url(#SVGID_12_)" fill="#FFFFFF" d="M120.3,266.7v-4.5c0.1-0.4,0.3-0.7,0.5-1c0.4-0.5,0.9-0.8,1.4-0.8
			c0.1,0,0.2,0,0.4,0l0.1-1c-0.2,0-0.4-0.1-0.5-0.1c-0.5,0-0.9,0.1-1.2,0.4c-0.3,0.2-0.5,0.6-0.8,1l0-1.3h-1l0,0.3
			c0,0.9,0,1.8,0,2.7v4H120.3z M112.5,262.6c0-0.5,0.1-1,0.3-1.3c0.4-0.6,0.9-0.9,1.6-0.9c0.7,0,1.3,0.3,1.6,0.9
			c0.2,0.4,0.3,0.8,0.3,1.3H112.5z M117.4,263.5c0-1-0.1-1.8-0.4-2.4c-0.4-1-1.3-1.6-2.5-1.6c-0.8,0-1.5,0.2-2,0.7
			c-0.7,0.7-1.1,1.6-1.1,2.9c0,1.1,0.3,1.9,0.8,2.6c0.6,0.7,1.5,1.1,2.6,1.1c0.8,0,1.6-0.2,2.4-0.7l-0.4-0.8
			c-0.6,0.4-1.3,0.7-1.9,0.7c-0.8,0-1.3-0.3-1.7-0.8c-0.3-0.4-0.5-1-0.5-1.8H117.4z M107.7,264.6c0,0.8,0.1,1.3,0.3,1.6
			c0.3,0.4,0.8,0.7,1.5,0.7c0.4,0,0.7-0.1,1.1-0.2l-0.1-0.8c-0.3,0.1-0.6,0.2-0.8,0.2c-0.4,0-0.7-0.1-0.8-0.4
			c-0.1-0.2-0.2-0.6-0.2-1.2v-3.9h1.7v-0.9h-1.7v-1.8l-1.1,0.2v1.6h-1.1v0.9h1.1V264.6z M100.7,261.7c0.5-0.9,1.1-1.3,1.9-1.3
			c0.6,0,1.1,0.3,1.4,0.8c0.3,0.5,0.5,1.2,0.5,2.1c0,0.8-0.1,1.4-0.4,2c-0.3,0.6-0.8,0.9-1.5,0.9c-0.5,0-0.9-0.2-1.3-0.6
			c-0.2-0.2-0.3-0.4-0.5-0.7V261.7z M100.7,269.8v-4c0.2,0.3,0.4,0.5,0.6,0.6c0.4,0.3,0.9,0.5,1.4,0.5c0.8,0,1.5-0.3,2-0.9
			c0.6-0.7,0.9-1.7,0.9-2.8c0-1.1-0.3-1.9-0.8-2.6c-0.5-0.7-1.2-1.1-2-1.1c-0.6,0-1,0.2-1.5,0.5c-0.2,0.2-0.4,0.4-0.7,0.7l0-1.1h-1
			l0,0.4c0,0.9,0,1.7,0,2.5v7.2H100.7z M96.1,264.9c-0.5,0.7-1.1,1.1-1.8,1.1c-0.4,0-0.7-0.1-0.9-0.3c-0.2-0.2-0.3-0.5-0.3-0.9
			c0-0.5,0.2-0.9,0.7-1.2c0.3-0.2,0.9-0.3,1.7-0.3c0.3,0,0.5,0,0.8,0V264.9z M96.2,266.7h1c0-0.5-0.1-1-0.1-1.8v-2.3
			c0-0.4,0-0.7,0-0.9c0-0.6-0.1-1-0.3-1.3c-0.4-0.6-1.1-1-2.2-1c-0.9,0-1.7,0.2-2.4,0.7l0.5,0.8c0.6-0.4,1.3-0.6,1.8-0.6
			c0.7,0,1.2,0.2,1.4,0.7c0.1,0.3,0.2,0.7,0.2,1.2v0.2c-0.5,0-0.9,0-1,0c-0.9,0-1.6,0.1-2.1,0.3c-0.8,0.4-1.2,1.1-1.2,2
			c0,0.6,0.2,1.1,0.5,1.5c0.4,0.4,1,0.6,1.7,0.6c0.5,0,1-0.1,1.4-0.4c0.2-0.1,0.5-0.3,0.7-0.6L96.2,266.7z M85.3,266.7v-5.1
			c0.7-0.9,1.5-1.3,2.2-1.3c0.6,0,1.1,0.3,1.2,0.8c0.1,0.3,0.2,0.8,0.2,1.5v4.1H90v-4.1c0-0.3,0-0.6,0-0.9c0-0.5-0.1-0.9-0.3-1.2
			c-0.3-0.7-1-1-1.8-1c-0.9,0-1.8,0.4-2.6,1.2v-4.2h-1.1v10.2H85.3z M80.1,266c-0.6,0-1.1-0.1-1.5-0.3c-0.6-0.3-1.1-0.8-1.4-1.5
			c-0.3-0.6-0.4-1.4-0.4-2.1c0-1.1,0.3-2.1,0.8-2.9c0.6-0.8,1.4-1.2,2.4-1.2c0.7,0,1.4,0.2,2.2,0.6l0.4-0.9
			c-0.9-0.4-1.8-0.6-2.6-0.6c-0.7,0-1.4,0.1-2,0.4c-0.8,0.4-1.4,1-1.9,1.9c-0.4,0.8-0.6,1.7-0.6,2.7c0,1.5,0.4,2.7,1.3,3.6
			c0.8,0.9,1.9,1.3,3.2,1.3c0.8,0,1.7-0.2,2.6-0.5l-0.3-0.9C81.7,265.8,80.9,266,80.1,266"/>
		<path clip-path="url(#SVGID_12_)" fill="#FFFFFF" d="M120.3,325.5V321c0.1-0.4,0.3-0.7,0.5-1c0.4-0.5,0.9-0.8,1.4-0.8
			c0.1,0,0.2,0,0.4,0l0.1-1c-0.2,0-0.4-0.1-0.5-0.1c-0.5,0-0.9,0.1-1.2,0.4c-0.3,0.2-0.5,0.6-0.8,1l0-1.3h-1l0,0.3
			c0,0.9,0,1.8,0,2.7v4H120.3z M112.5,321.4c0-0.5,0.1-1,0.3-1.3c0.4-0.6,0.9-0.9,1.6-0.9c0.7,0,1.3,0.3,1.6,0.9
			c0.2,0.4,0.3,0.8,0.3,1.3H112.5z M117.4,322.2c0-1-0.1-1.8-0.4-2.4c-0.4-1-1.3-1.6-2.5-1.6c-0.8,0-1.5,0.2-2,0.7
			c-0.7,0.7-1.1,1.6-1.1,2.9c0,1.1,0.3,1.9,0.8,2.6c0.6,0.7,1.5,1.1,2.6,1.1c0.8,0,1.6-0.2,2.4-0.7l-0.4-0.8
			c-0.6,0.4-1.3,0.7-1.9,0.7c-0.8,0-1.3-0.3-1.7-0.8c-0.3-0.4-0.5-1-0.5-1.8H117.4z M107.7,323.3c0,0.8,0.1,1.3,0.3,1.6
			c0.3,0.4,0.8,0.7,1.5,0.7c0.4,0,0.7-0.1,1.1-0.2l-0.1-0.8c-0.3,0.1-0.6,0.2-0.8,0.2c-0.4,0-0.7-0.1-0.8-0.4
			c-0.1-0.2-0.2-0.6-0.2-1.2v-3.9h1.7v-0.9h-1.7v-1.8l-1.1,0.2v1.6h-1.1v0.9h1.1V323.3z M100.7,320.4c0.5-0.9,1.1-1.3,1.9-1.3
			c0.6,0,1.1,0.3,1.4,0.8c0.3,0.5,0.5,1.2,0.5,2.1c0,0.8-0.1,1.4-0.4,2c-0.3,0.6-0.8,0.9-1.5,0.9c-0.5,0-0.9-0.2-1.3-0.6
			c-0.2-0.2-0.3-0.4-0.5-0.7V320.4z M100.7,328.5v-4c0.2,0.3,0.4,0.5,0.6,0.6c0.4,0.3,0.9,0.5,1.4,0.5c0.8,0,1.5-0.3,2-0.9
			c0.6-0.7,0.9-1.7,0.9-2.8c0-1.1-0.3-1.9-0.8-2.6c-0.5-0.7-1.2-1.1-2-1.1c-0.6,0-1,0.2-1.5,0.5c-0.2,0.2-0.4,0.4-0.7,0.7l0-1.1h-1
			l0,0.4c0,0.9,0,1.7,0,2.5v7.2H100.7z M96.1,323.7c-0.5,0.7-1.1,1.1-1.8,1.1c-0.4,0-0.7-0.1-0.9-0.3c-0.2-0.2-0.3-0.5-0.3-0.9
			c0-0.5,0.2-0.9,0.7-1.2c0.3-0.2,0.9-0.3,1.7-0.3c0.3,0,0.5,0,0.8,0V323.7z M96.2,325.5h1c0-0.5-0.1-1-0.1-1.8v-2.3
			c0-0.4,0-0.7,0-0.9c0-0.6-0.1-1-0.3-1.3c-0.4-0.6-1.1-1-2.2-1c-0.9,0-1.7,0.2-2.4,0.7l0.5,0.8c0.6-0.4,1.3-0.6,1.8-0.6
			c0.7,0,1.2,0.2,1.4,0.7c0.1,0.3,0.2,0.7,0.2,1.2v0.2c-0.5,0-0.9,0-1,0c-0.9,0-1.6,0.1-2.1,0.3c-0.8,0.4-1.2,1.1-1.2,2
			c0,0.6,0.2,1.1,0.5,1.5c0.4,0.4,1,0.6,1.7,0.6c0.5,0,1-0.1,1.4-0.4c0.2-0.1,0.5-0.3,0.7-0.6L96.2,325.5z M85.3,325.5v-5.1
			c0.7-0.9,1.5-1.3,2.2-1.3c0.6,0,1.1,0.3,1.2,0.8c0.1,0.3,0.2,0.8,0.2,1.5v4.1H90v-4.1c0-0.3,0-0.6,0-0.9c0-0.5-0.1-0.9-0.3-1.2
			c-0.3-0.7-1-1-1.8-1c-0.9,0-1.8,0.4-2.6,1.2v-4.2h-1.1v10.2H85.3z M80.1,324.7c-0.6,0-1.1-0.1-1.5-0.3c-0.6-0.3-1.1-0.8-1.4-1.5
			c-0.3-0.6-0.4-1.4-0.4-2.1c0-1.1,0.3-2.1,0.8-2.9c0.6-0.8,1.4-1.2,2.4-1.2c0.7,0,1.4,0.2,2.2,0.6l0.4-0.9
			c-0.9-0.4-1.8-0.6-2.6-0.6c-0.7,0-1.4,0.1-2,0.4c-0.8,0.4-1.4,1-1.9,1.9c-0.4,0.8-0.6,1.7-0.6,2.7c0,1.5,0.4,2.7,1.3,3.6
			c0.8,0.9,1.9,1.3,3.2,1.3c0.8,0,1.7-0.2,2.6-0.5l-0.3-0.9C81.7,324.5,80.9,324.7,80.1,324.7"/>
		<path clip-path="url(#SVGID_12_)" fill="#FFFFFF" d="M120.3,385.5V381c0.1-0.4,0.3-0.7,0.5-1c0.4-0.5,0.9-0.8,1.4-0.8
			c0.1,0,0.2,0,0.4,0l0.1-1c-0.2,0-0.4-0.1-0.5-0.1c-0.5,0-0.9,0.1-1.2,0.4c-0.3,0.2-0.5,0.6-0.8,1l0-1.3h-1l0,0.3
			c0,0.9,0,1.8,0,2.7v4H120.3z M112.5,381.4c0-0.5,0.1-1,0.3-1.3c0.4-0.6,0.9-0.9,1.6-0.9c0.7,0,1.3,0.3,1.6,0.9
			c0.2,0.4,0.3,0.8,0.3,1.3H112.5z M117.4,382.2c0-1-0.1-1.8-0.4-2.4c-0.4-1-1.3-1.6-2.5-1.6c-0.8,0-1.5,0.2-2,0.7
			c-0.7,0.7-1.1,1.6-1.1,2.9c0,1.1,0.3,1.9,0.8,2.6c0.6,0.7,1.5,1.1,2.6,1.1c0.8,0,1.6-0.2,2.4-0.7l-0.4-0.8
			c-0.6,0.4-1.3,0.7-1.9,0.7c-0.8,0-1.3-0.3-1.7-0.8c-0.3-0.4-0.5-1-0.5-1.8H117.4z M107.7,383.3c0,0.8,0.1,1.3,0.3,1.6
			c0.3,0.4,0.8,0.7,1.5,0.7c0.4,0,0.7-0.1,1.1-0.2l-0.1-0.8c-0.3,0.1-0.6,0.2-0.8,0.2c-0.4,0-0.7-0.1-0.8-0.4
			c-0.1-0.2-0.2-0.6-0.2-1.2v-3.9h1.7v-0.9h-1.7v-1.8l-1.1,0.2v1.6h-1.1v0.9h1.1V383.3z M100.7,380.4c0.5-0.9,1.1-1.3,1.9-1.3
			c0.6,0,1.1,0.3,1.4,0.8c0.3,0.5,0.5,1.2,0.5,2.1c0,0.8-0.1,1.4-0.4,2c-0.3,0.6-0.8,0.9-1.5,0.9c-0.5,0-0.9-0.2-1.3-0.6
			c-0.2-0.2-0.3-0.4-0.5-0.7V380.4z M100.7,388.5v-4c0.2,0.3,0.4,0.5,0.6,0.6c0.4,0.3,0.9,0.5,1.4,0.5c0.8,0,1.5-0.3,2-0.9
			c0.6-0.7,0.9-1.7,0.9-2.8c0-1.1-0.3-1.9-0.8-2.6c-0.5-0.7-1.2-1.1-2-1.1c-0.6,0-1,0.2-1.5,0.5c-0.2,0.2-0.4,0.4-0.7,0.7l0-1.1h-1
			l0,0.4c0,0.9,0,1.7,0,2.5v7.2H100.7z M96.1,383.7c-0.5,0.7-1.1,1.1-1.8,1.1c-0.4,0-0.7-0.1-0.9-0.3c-0.2-0.2-0.3-0.5-0.3-0.9
			c0-0.5,0.2-0.9,0.7-1.2c0.3-0.2,0.9-0.3,1.7-0.3c0.3,0,0.5,0,0.8,0V383.7z M96.2,385.5h1c0-0.5-0.1-1-0.1-1.8v-2.3
			c0-0.4,0-0.7,0-0.9c0-0.6-0.1-1-0.3-1.3c-0.4-0.6-1.1-1-2.2-1c-0.9,0-1.7,0.2-2.4,0.7l0.5,0.8c0.6-0.4,1.3-0.6,1.8-0.6
			c0.7,0,1.2,0.2,1.4,0.7c0.1,0.3,0.2,0.7,0.2,1.2v0.2c-0.5,0-0.9,0-1,0c-0.9,0-1.6,0.1-2.1,0.3c-0.8,0.4-1.2,1.1-1.2,2
			c0,0.6,0.2,1.1,0.5,1.5c0.4,0.4,1,0.6,1.7,0.6c0.5,0,1-0.1,1.4-0.4c0.2-0.1,0.5-0.3,0.7-0.6L96.2,385.5z M85.3,385.5v-5.1
			c0.7-0.9,1.5-1.3,2.2-1.3c0.6,0,1.1,0.3,1.2,0.8c0.1,0.3,0.2,0.8,0.2,1.5v4.1H90v-4.1c0-0.3,0-0.6,0-0.9c0-0.5-0.1-0.9-0.3-1.2
			c-0.3-0.7-1-1-1.8-1c-0.9,0-1.8,0.4-2.6,1.2v-4.2h-1.1v10.2H85.3z M80.1,384.7c-0.6,0-1.1-0.1-1.5-0.3c-0.6-0.3-1.1-0.8-1.4-1.5
			c-0.3-0.6-0.4-1.4-0.4-2.1c0-1.1,0.3-2.1,0.8-2.9c0.6-0.8,1.4-1.2,2.4-1.2c0.7,0,1.4,0.2,2.2,0.6l0.4-0.9
			c-0.9-0.4-1.8-0.6-2.6-0.6c-0.7,0-1.4,0.1-2,0.4c-0.8,0.4-1.4,1-1.9,1.9c-0.4,0.8-0.6,1.7-0.6,2.7c0,1.5,0.4,2.7,1.3,3.6
			c0.8,0.9,1.9,1.3,3.2,1.3c0.8,0,1.7-0.2,2.6-0.5l-0.3-0.9C81.7,384.5,80.9,384.7,80.1,384.7"/>
		<g opacity="0.75" clip-path="url(#SVGID_12_)">
			<g>
				<defs>
					<rect id="SVGID_19_" x="214.9" y="191.5" width="153.9" height="242.2"/>
				</defs>
				<clipPath id="SVGID_20_">
					<use xlink:href="#SVGID_19_"  overflow="visible"/>
				</clipPath>
				<path clip-path="url(#SVGID_20_)" fill="#005F87" d="M257.9,198.5c0,0-34,0-34,34v166.3c0,0,0,34,34,34h68c0,0,34,0,34-34V232.4
					c0,0,0-34-34-34H257.9z"/>
			</g>
		</g>
		<path clip-path="url(#SVGID_12_)" fill="#FFFFFF" d="M307.2,222.1c-0.2,0.3-0.4,0.6-0.5,0.7c-0.4,0.4-0.8,0.6-1.3,0.6
			c-0.7,0-1.1-0.3-1.5-0.9c-0.3-0.5-0.4-1.2-0.4-2c0-0.8,0.2-1.5,0.5-2.1c0.3-0.5,0.8-0.8,1.4-0.8c0.8,0,1.4,0.4,1.9,1.3V222.1z
			 M307.2,218c-0.6-0.7-1.2-1.1-2.1-1.1c-0.8,0-1.4,0.3-1.9,0.9c-0.6,0.7-0.9,1.6-0.9,2.7c0,1.1,0.3,2,0.8,2.7
			c0.5,0.7,1.2,1.1,2.1,1.1c0.6,0,1-0.2,1.4-0.5c0.2-0.2,0.4-0.4,0.7-0.7l0,1.1h1l0-0.3c0-0.9,0-1.7,0-2.3v-7.6h-1.1V218z
			 M299.3,222.3c-0.5,0.7-1.1,1.1-1.8,1.1c-0.4,0-0.7-0.1-1-0.3c-0.2-0.2-0.3-0.5-0.3-0.9c0-0.5,0.2-0.9,0.7-1.2
			c0.3-0.2,0.9-0.3,1.7-0.3c0.3,0,0.5,0,0.8,0V222.3z M299.4,224.1h1c0-0.5-0.1-1-0.1-1.8V220c0-0.4,0-0.7,0-0.9
			c0-0.6-0.1-1-0.3-1.3c-0.4-0.6-1.1-1-2.2-1c-0.9,0-1.7,0.2-2.4,0.7l0.5,0.8c0.6-0.4,1.3-0.6,1.8-0.6c0.7,0,1.2,0.2,1.4,0.7
			c0.1,0.3,0.2,0.7,0.2,1.2v0.2c-0.5,0-0.9,0-1,0c-0.9,0-1.6,0.1-2.1,0.3c-0.8,0.4-1.2,1.1-1.2,2c0,0.6,0.2,1.1,0.5,1.5
			c0.4,0.4,1,0.6,1.7,0.6c0.5,0,1-0.1,1.4-0.4c0.2-0.1,0.5-0.3,0.7-0.6L299.4,224.1z M292.1,217v5.1c-0.7,0.9-1.4,1.3-2.2,1.3
			c-0.6,0-1-0.3-1.2-0.8c-0.1-0.3-0.1-0.8-0.1-1.5V217h-1.1v4.1c0,0.3,0,0.6,0,0.9c0,0.5,0.1,0.9,0.3,1.2c0.3,0.7,0.9,1,1.8,1
			c0.6,0,1.2-0.2,1.8-0.6c0.2-0.2,0.5-0.4,0.7-0.7l0,1.1h1.1c0-0.4-0.1-1.2-0.1-2.3V217H292.1z M284.2,222.1
			c-0.2,0.3-0.4,0.6-0.5,0.7c-0.4,0.4-0.8,0.6-1.3,0.6c-0.7,0-1.1-0.3-1.5-0.9c-0.3-0.5-0.4-1.2-0.4-2c0-0.8,0.2-1.5,0.5-2.1
			c0.3-0.5,0.8-0.8,1.4-0.8c0.7,0,1.4,0.4,1.9,1.3V222.1z M284.3,218.1c-0.2-0.3-0.5-0.6-0.7-0.7c-0.4-0.3-0.9-0.5-1.5-0.5
			c-0.8,0-1.4,0.3-1.9,0.9c-0.6,0.7-0.9,1.6-0.9,2.7c0,1.1,0.3,2,0.8,2.7c0.5,0.7,1.2,1.1,2.1,1.1c0.6,0,1.1-0.2,1.4-0.5
			c0.2-0.2,0.4-0.4,0.6-0.6v4h1.1v-7.2c0-0.8,0-1.6,0-2.5l0-0.4h-1L284.3,218.1z M274.7,224.3c1,0,1.7-0.2,2.3-0.7
			c0.6-0.5,0.9-1.2,0.9-2c0-1-0.4-1.7-1.3-2.3c-0.3-0.2-0.8-0.4-1.5-0.7c-0.3-0.1-0.6-0.3-0.9-0.4c-0.2-0.1-0.5-0.3-0.6-0.5
			c-0.2-0.3-0.4-0.6-0.4-0.9c0-0.5,0.2-0.8,0.5-1.1c0.4-0.3,0.8-0.4,1.3-0.4c0.7,0,1.4,0.2,2.1,0.5l0.2-1c-0.9-0.3-1.6-0.4-2.3-0.4
			c-0.5,0-1,0.1-1.4,0.2c-0.5,0.2-0.9,0.4-1.1,0.8c-0.4,0.4-0.5,1-0.5,1.6c0,0.4,0.1,0.7,0.2,1c0.2,0.4,0.5,0.7,1,1
			c0.2,0.1,0.7,0.4,1.4,0.7c0.8,0.4,1.3,0.6,1.5,0.9c0.3,0.3,0.4,0.6,0.4,1.1c0,0.5-0.2,0.9-0.5,1.2c-0.4,0.3-0.9,0.5-1.5,0.5
			c-0.7,0-1.5-0.2-2.4-0.5l-0.1,1C273.1,224.1,273.9,224.3,274.7,224.3"/>
		<path clip-path="url(#SVGID_12_)" fill="#FFFFFF" d="M244.9,305.6c0,0-13,0-13,13v3c0,0,0,13,13,13h93.9c0,0,13,0,13-13v-3
			c0,0,0-13-13-13H244.9z"/>
	</g>
	<rect x="268.2" y="312" clip-path="url(#SVGID_2_)" fill="#BECDD7" width="56.7" height="6.4"/>
	<rect x="268.2" y="322.7" clip-path="url(#SVGID_2_)" fill="#BECDD7" width="69.4" height="6.4"/>
	<g clip-path="url(#SVGID_2_)">
		<defs>
			<rect id="SVGID_21_" x="-0.1" y="-0.9" width="736.8" height="543.1"/>
		</defs>
		<clipPath id="SVGID_22_">
			<use xlink:href="#SVGID_21_"  overflow="visible"/>
		</clipPath>
		<path clip-path="url(#SVGID_22_)" fill="#EBF0F5" d="M247.5,332c6.4,0,11.6-5.2,11.6-11.6c0-6.4-5.2-11.6-11.6-11.6
			c-6.4,0-11.6,5.2-11.6,11.6C235.9,326.8,241.1,332,247.5,332"/>
	</g>
	<g clip-path="url(#SVGID_2_)">
		<defs>
			<path id="SVGID_23_" d="M235.9,320.4c0,6.4,5.2,11.6,11.6,11.6c6.4,0,11.6-5.2,11.6-11.6s-5.2-11.6-11.6-11.6
				C241.1,308.8,235.9,314,235.9,320.4"/>
		</defs>
		<clipPath id="SVGID_24_">
			<use xlink:href="#SVGID_23_"  overflow="visible"/>
		</clipPath>
		<path clip-path="url(#SVGID_24_)" fill="#879BAA" d="M247.5,321.5c2,0,3.4-1.6,3.4-3.9c0-2.3-1.4-3.9-3.4-3.9
			c-2,0-3.4,1.6-3.4,3.9C244.1,320,245.4,321.5,247.5,321.5"/>
		<path clip-path="url(#SVGID_24_)" fill="#879BAA" d="M245.2,323L245.2,323L245.2,323l-2.3,0.2l0,0c-1.3,0.1-2.2,1.1-2.2,2.6
			c0,0,0,0,0,0v6.7h6.3h0.9h6.3v-6.7c0,0,0,0,0,0c0-1.5-0.9-2.5-2.2-2.6l0,0l-2.3-0.2v0l0,0H245.2z"/>
	</g>
	<g clip-path="url(#SVGID_2_)">
		<defs>
			<rect id="SVGID_25_" x="-0.1" y="-0.9" width="736.8" height="543.1"/>
		</defs>
		<clipPath id="SVGID_26_">
			<use xlink:href="#SVGID_25_"  overflow="visible"/>
		</clipPath>
		<circle clip-path="url(#SVGID_26_)" fill="none" stroke="#50BED7" stroke-width="1.599" cx="247.5" cy="320.4" r="11.6"/>
		<path clip-path="url(#SVGID_26_)" fill="#FFFFFF" d="M244.9,365.7c0,0-13,0-13,13v3c0,0,0,13,13,13h93.9c0,0,13,0,13-13v-3
			c0,0,0-13-13-13H244.9z"/>
	</g>
	<rect x="268.2" y="372" clip-path="url(#SVGID_2_)" fill="#BECDD7" width="56.7" height="6.4"/>
	<rect x="268.2" y="382.7" clip-path="url(#SVGID_2_)" fill="#BECDD7" width="69.4" height="6.4"/>
	<g clip-path="url(#SVGID_2_)">
		<defs>
			<rect id="SVGID_27_" x="-0.1" y="-0.9" width="736.8" height="543.1"/>
		</defs>
		<clipPath id="SVGID_28_">
			<use xlink:href="#SVGID_27_"  overflow="visible"/>
		</clipPath>
		<path clip-path="url(#SVGID_28_)" fill="#EBF0F5" d="M247.5,392c6.4,0,11.6-5.2,11.6-11.6c0-6.4-5.2-11.6-11.6-11.6
			c-6.4,0-11.6,5.2-11.6,11.6C235.9,386.8,241.1,392,247.5,392"/>
	</g>
	<g clip-path="url(#SVGID_2_)">
		<defs>
			<path id="SVGID_29_" d="M235.9,380.4c0,6.4,5.2,11.6,11.6,11.6c6.4,0,11.6-5.2,11.6-11.6c0-6.4-5.2-11.6-11.6-11.6
				C241.1,368.8,235.9,374,235.9,380.4"/>
		</defs>
		<clipPath id="SVGID_30_">
			<use xlink:href="#SVGID_29_"  overflow="visible"/>
		</clipPath>
		<path clip-path="url(#SVGID_30_)" fill="#879BAA" d="M247.5,381.6c2,0,3.4-1.6,3.4-3.9c0-2.3-1.4-3.9-3.4-3.9
			c-2,0-3.4,1.5-3.4,3.9C244.1,380,245.4,381.6,247.5,381.6"/>
		<path clip-path="url(#SVGID_30_)" fill="#879BAA" d="M245.2,383.1L245.2,383.1L245.2,383.1l-2.3,0.2l0,0c-1.3,0.1-2.2,1.1-2.2,2.6
			c0,0,0,0,0,0v6.7h6.3h0.9h6.3v-6.7c0,0,0,0,0,0c0-1.5-0.9-2.5-2.2-2.6l0,0l-2.3-0.2v0l0,0H245.2z"/>
	</g>
	<g clip-path="url(#SVGID_2_)">
		<defs>
			<rect id="SVGID_31_" x="-0.1" y="-0.9" width="736.8" height="543.1"/>
		</defs>
		<clipPath id="SVGID_32_">
			<use xlink:href="#SVGID_31_"  overflow="visible"/>
		</clipPath>
		<circle clip-path="url(#SVGID_32_)" fill="none" stroke="#50BED7" stroke-width="1.599" cx="247.5" cy="380.4" r="11.6"/>
		<g opacity="0.75" clip-path="url(#SVGID_32_)">
			<g>
				<defs>
					<rect id="SVGID_33_" x="365.8" y="191.5" width="153.9" height="242.2"/>
				</defs>
				<clipPath id="SVGID_34_">
					<use xlink:href="#SVGID_33_"  overflow="visible"/>
				</clipPath>
				<path clip-path="url(#SVGID_34_)" fill="#005F87" d="M408.7,198.5c0,0-34,0-34,34v166.3c0,0,0,34,34,34h68c0,0,34,0,34-34V232.4
					c0,0,0-34-34-34H408.7z"/>
			</g>
		</g>
		<path clip-path="url(#SVGID_32_)" fill="#FFFFFF" d="M458,222.1c-0.2,0.3-0.4,0.6-0.5,0.7c-0.4,0.4-0.8,0.6-1.3,0.6
			c-0.7,0-1.1-0.3-1.5-0.9c-0.3-0.5-0.4-1.2-0.4-2c0-0.8,0.2-1.5,0.5-2.1c0.3-0.5,0.8-0.8,1.4-0.8c0.8,0,1.4,0.4,1.9,1.3V222.1z
			 M458,218c-0.6-0.7-1.2-1.1-2.1-1.1c-0.8,0-1.4,0.3-1.9,0.9c-0.6,0.7-0.9,1.6-0.9,2.7c0,1.1,0.3,2,0.8,2.7
			c0.5,0.7,1.2,1.1,2.1,1.1c0.6,0,1-0.2,1.4-0.5c0.2-0.2,0.4-0.4,0.7-0.7l0,1.1h1l0-0.3c0-0.9,0-1.7,0-2.3v-7.6H458V218z
			 M450.2,222.3c-0.5,0.7-1.1,1.1-1.8,1.1c-0.4,0-0.7-0.1-1-0.3c-0.2-0.2-0.3-0.5-0.3-0.9c0-0.5,0.2-0.9,0.7-1.2
			c0.3-0.2,0.9-0.3,1.7-0.3c0.3,0,0.5,0,0.8,0V222.3z M450.3,224.1h1c0-0.5-0.1-1-0.1-1.8V220c0-0.4,0-0.7,0-0.9
			c0-0.6-0.1-1-0.3-1.3c-0.4-0.6-1.1-1-2.2-1c-0.9,0-1.7,0.2-2.4,0.7l0.5,0.8c0.6-0.4,1.3-0.6,1.8-0.6c0.7,0,1.2,0.2,1.4,0.7
			c0.1,0.3,0.2,0.7,0.2,1.2v0.2c-0.5,0-0.9,0-1,0c-0.9,0-1.6,0.1-2.1,0.3c-0.8,0.4-1.2,1.1-1.2,2c0,0.6,0.2,1.1,0.5,1.5
			c0.4,0.4,1,0.6,1.7,0.6c0.5,0,1-0.1,1.4-0.4c0.2-0.1,0.5-0.3,0.7-0.6L450.3,224.1z M443,217v5.1c-0.7,0.9-1.4,1.3-2.2,1.3
			c-0.6,0-1-0.3-1.2-0.8c-0.1-0.3-0.1-0.8-0.1-1.5V217h-1.1v4.1c0,0.3,0,0.6,0,0.9c0,0.5,0.1,0.9,0.3,1.2c0.3,0.7,0.9,1,1.8,1
			c0.6,0,1.2-0.2,1.8-0.6c0.2-0.2,0.5-0.4,0.7-0.7l0,1.1h1.1c0-0.4-0.1-1.2-0.1-2.3V217H443z M435.1,222.1c-0.2,0.3-0.4,0.6-0.5,0.7
			c-0.4,0.4-0.8,0.6-1.3,0.6c-0.7,0-1.1-0.3-1.5-0.9c-0.3-0.5-0.4-1.2-0.4-2c0-0.8,0.2-1.5,0.5-2.1c0.3-0.5,0.8-0.8,1.4-0.8
			c0.7,0,1.4,0.4,1.9,1.3V222.1z M435.2,218.1c-0.2-0.3-0.5-0.6-0.7-0.7c-0.4-0.3-0.9-0.5-1.5-0.5c-0.8,0-1.4,0.3-1.9,0.9
			c-0.6,0.7-0.9,1.6-0.9,2.7c0,1.1,0.3,2,0.8,2.7c0.5,0.7,1.2,1.1,2.1,1.1c0.6,0,1.1-0.2,1.4-0.5c0.2-0.2,0.4-0.4,0.6-0.6v4h1.1
			v-7.2c0-0.8,0-1.6,0-2.5l0-0.4h-1L435.2,218.1z M425.6,224.3c1,0,1.7-0.2,2.3-0.7c0.6-0.5,0.9-1.2,0.9-2c0-1-0.4-1.7-1.3-2.3
			c-0.3-0.2-0.8-0.4-1.5-0.7c-0.3-0.1-0.6-0.3-0.9-0.4c-0.2-0.1-0.5-0.3-0.6-0.5c-0.2-0.3-0.4-0.6-0.4-0.9c0-0.5,0.2-0.8,0.5-1.1
			c0.4-0.3,0.8-0.4,1.3-0.4c0.7,0,1.4,0.2,2.1,0.5l0.2-1c-0.9-0.3-1.6-0.4-2.3-0.4c-0.5,0-1,0.1-1.4,0.2c-0.5,0.2-0.9,0.4-1.1,0.8
			c-0.4,0.4-0.5,1-0.5,1.6c0,0.4,0.1,0.7,0.2,1c0.2,0.4,0.5,0.7,1,1c0.2,0.1,0.7,0.4,1.4,0.7c0.8,0.4,1.3,0.6,1.5,0.9
			c0.3,0.3,0.4,0.6,0.4,1.1c0,0.5-0.2,0.9-0.5,1.2c-0.4,0.3-0.9,0.5-1.5,0.5c-0.7,0-1.5-0.2-2.4-0.5l-0.1,1
			C424,224.1,424.8,224.3,425.6,224.3"/>
		<path clip-path="url(#SVGID_32_)" fill="#FFFFFF" d="M395.8,246.9c0,0-13,0-13,13v3c0,0,0,13,13,13h93.9c0,0,13,0,13-13v-3
			c0,0,0-13-13-13H395.8z"/>
	</g>
	<rect x="419" y="253.3" clip-path="url(#SVGID_2_)" fill="#BECDD7" width="56.7" height="6.4"/>
	<rect x="419" y="264" clip-path="url(#SVGID_2_)" fill="#BECDD7" width="69.4" height="6.4"/>
	<g clip-path="url(#SVGID_2_)">
		<defs>
			<rect id="SVGID_35_" x="-0.1" y="-0.9" width="736.8" height="543.1"/>
		</defs>
		<clipPath id="SVGID_36_">
			<use xlink:href="#SVGID_35_"  overflow="visible"/>
		</clipPath>
		<path clip-path="url(#SVGID_36_)" fill="#EBF0F5" d="M398.4,273.2c6.4,0,11.6-5.2,11.6-11.6c0-6.4-5.2-11.6-11.6-11.6
			c-6.4,0-11.6,5.2-11.6,11.6C386.8,268,392,273.2,398.4,273.2"/>
	</g>
	<g clip-path="url(#SVGID_2_)">
		<defs>
			<path id="SVGID_37_" d="M386.8,261.6c0,6.4,5.2,11.6,11.6,11.6c6.4,0,11.6-5.2,11.6-11.6c0-6.4-5.2-11.6-11.6-11.6
				C392,250.1,386.8,255.2,386.8,261.6"/>
		</defs>
		<clipPath id="SVGID_38_">
			<use xlink:href="#SVGID_37_"  overflow="visible"/>
		</clipPath>
		<path clip-path="url(#SVGID_38_)" fill="#879BAA" d="M398.3,262.8c2,0,3.4-1.6,3.4-3.9c0-2.3-1.4-3.9-3.4-3.9
			c-2,0-3.4,1.6-3.4,3.9C395,261.3,396.3,262.8,398.3,262.8"/>
		<path clip-path="url(#SVGID_38_)" fill="#879BAA" d="M396.1,264.3L396.1,264.3L396.1,264.3l-2.3,0.2l0,0c-1.3,0.1-2.2,1.1-2.2,2.6
			c0,0,0,0,0,0v6.7h6.3h0.9h6.3v-6.7c0,0,0,0,0,0c0-1.5-0.9-2.5-2.2-2.6l0,0l-2.3-0.2v0l0,0H396.1z"/>
	</g>
	<g clip-path="url(#SVGID_2_)">
		<defs>
			<rect id="SVGID_39_" x="-0.1" y="-0.9" width="736.8" height="543.1"/>
		</defs>
		<clipPath id="SVGID_40_">
			<use xlink:href="#SVGID_39_"  overflow="visible"/>
		</clipPath>
		<circle clip-path="url(#SVGID_40_)" fill="none" stroke="#50BED7" stroke-width="1.599" cx="398.4" cy="261.6" r="11.6"/>
		<path clip-path="url(#SVGID_40_)" fill="#FFFFFF" d="M244.9,246.9c0,0-13,0-13,13v3c0,0,0,13,13,13h93.9c0,0,13,0,13-13v-3
			c0,0,0-13-13-13H244.9z"/>
	</g>
	<rect x="268.2" y="253.3" clip-path="url(#SVGID_2_)" fill="#BECDD7" width="56.7" height="6.4"/>
	<rect x="268.2" y="264" clip-path="url(#SVGID_2_)" fill="#BECDD7" width="69.4" height="6.4"/>
	<g clip-path="url(#SVGID_2_)">
		<defs>
			<rect id="SVGID_41_" x="-0.1" y="-0.9" width="736.8" height="543.1"/>
		</defs>
		<clipPath id="SVGID_42_">
			<use xlink:href="#SVGID_41_"  overflow="visible"/>
		</clipPath>
		<path clip-path="url(#SVGID_42_)" fill="#EBF0F5" d="M247.5,273.2c6.4,0,11.6-5.2,11.6-11.6c0-6.4-5.2-11.6-11.6-11.6
			c-6.4,0-11.6,5.2-11.6,11.6C235.9,268,241.1,273.2,247.5,273.2"/>
	</g>
	<g clip-path="url(#SVGID_2_)">
		<defs>
			<path id="SVGID_43_" d="M235.9,261.6c0,6.4,5.2,11.6,11.6,11.6c6.4,0,11.6-5.2,11.6-11.6c0-6.4-5.2-11.6-11.6-11.6
				C241.1,250.1,235.9,255.2,235.9,261.6"/>
		</defs>
		<clipPath id="SVGID_44_">
			<use xlink:href="#SVGID_43_"  overflow="visible"/>
		</clipPath>
		<path clip-path="url(#SVGID_44_)" fill="#879BAA" d="M247.5,262.8c2,0,3.4-1.6,3.4-3.9c0-2.3-1.4-3.9-3.4-3.9
			c-2,0-3.4,1.6-3.4,3.9C244.1,261.3,245.4,262.8,247.5,262.8"/>
		<path clip-path="url(#SVGID_44_)" fill="#879BAA" d="M245.2,264.3L245.2,264.3L245.2,264.3l-2.3,0.2l0,0c-1.3,0.1-2.2,1.1-2.2,2.6
			c0,0,0,0,0,0v6.7h6.3h0.9h6.3v-6.7c0,0,0,0,0,0c0-1.5-0.9-2.5-2.2-2.6l0,0l-2.3-0.2v0l0,0H245.2z"/>
	</g>
	<g clip-path="url(#SVGID_2_)">
		<defs>
			<rect id="SVGID_45_" x="-0.1" y="-0.9" width="736.8" height="543.1"/>
		</defs>
		<clipPath id="SVGID_46_">
			<use xlink:href="#SVGID_45_"  overflow="visible"/>
		</clipPath>
		<circle clip-path="url(#SVGID_46_)" fill="none" stroke="#50BED7" stroke-width="1.599" cx="247.5" cy="261.6" r="11.6"/>
		<path clip-path="url(#SVGID_46_)" fill="#FFFFFF" d="M395.8,305.6c0,0-13,0-13,13v3c0,0,0,13,13,13h93.9c0,0,13,0,13-13v-3
			c0,0,0-13-13-13H395.8z"/>
	</g>
	<rect x="419" y="312" clip-path="url(#SVGID_2_)" fill="#BECDD7" width="56.7" height="6.4"/>
	<rect x="419" y="322.7" clip-path="url(#SVGID_2_)" fill="#BECDD7" width="69.4" height="6.4"/>
	<g clip-path="url(#SVGID_2_)">
		<defs>
			<rect id="SVGID_47_" x="-0.1" y="-0.9" width="736.8" height="543.1"/>
		</defs>
		<clipPath id="SVGID_48_">
			<use xlink:href="#SVGID_47_"  overflow="visible"/>
		</clipPath>
		<path clip-path="url(#SVGID_48_)" fill="#EBF0F5" d="M398.4,332c6.4,0,11.6-5.2,11.6-11.6c0-6.4-5.2-11.6-11.6-11.6
			c-6.4,0-11.6,5.2-11.6,11.6C386.8,326.8,392,332,398.4,332"/>
	</g>
	<g clip-path="url(#SVGID_2_)">
		<defs>
			<path id="SVGID_49_" d="M386.8,320.4c0,6.4,5.2,11.6,11.6,11.6c6.4,0,11.6-5.2,11.6-11.6s-5.2-11.6-11.6-11.6
				C392,308.8,386.8,314,386.8,320.4"/>
		</defs>
		<clipPath id="SVGID_50_">
			<use xlink:href="#SVGID_49_"  overflow="visible"/>
		</clipPath>
		<path clip-path="url(#SVGID_50_)" fill="#879BAA" d="M398.3,321.5c2,0,3.4-1.6,3.4-3.9c0-2.3-1.4-3.9-3.4-3.9
			c-2,0-3.4,1.6-3.4,3.9C395,320,396.3,321.5,398.3,321.5"/>
		<path clip-path="url(#SVGID_50_)" fill="#879BAA" d="M396.1,323L396.1,323L396.1,323l-2.3,0.2l0,0c-1.3,0.1-2.2,1.1-2.2,2.6
			c0,0,0,0,0,0v6.7h6.3h0.9h6.3v-6.7c0,0,0,0,0,0c0-1.5-0.9-2.5-2.2-2.6l0,0l-2.3-0.2v0l0,0H396.1z"/>
	</g>
	<g clip-path="url(#SVGID_2_)">
		<defs>
			<rect id="SVGID_51_" x="-0.1" y="-0.9" width="736.8" height="543.1"/>
		</defs>
		<clipPath id="SVGID_52_">
			<use xlink:href="#SVGID_51_"  overflow="visible"/>
		</clipPath>
		<circle clip-path="url(#SVGID_52_)" fill="none" stroke="#50BED7" stroke-width="1.599" cx="398.4" cy="320.4" r="11.6"/>
		<path clip-path="url(#SVGID_52_)" fill="#FFFFFF" d="M395.8,365.7c0,0-13,0-13,13v3c0,0,0,13,13,13h93.9c0,0,13,0,13-13v-3
			c0,0,0-13-13-13H395.8z"/>
	</g>
	<rect x="419" y="372" clip-path="url(#SVGID_2_)" fill="#BECDD7" width="56.7" height="6.4"/>
	<rect x="419" y="382.7" clip-path="url(#SVGID_2_)" fill="#BECDD7" width="69.4" height="6.4"/>
	<g clip-path="url(#SVGID_2_)">
		<defs>
			<rect id="SVGID_53_" x="-0.1" y="-0.9" width="736.8" height="543.1"/>
		</defs>
		<clipPath id="SVGID_54_">
			<use xlink:href="#SVGID_53_"  overflow="visible"/>
		</clipPath>
		<path clip-path="url(#SVGID_54_)" fill="#EBF0F5" d="M398.4,392c6.4,0,11.6-5.2,11.6-11.6c0-6.4-5.2-11.6-11.6-11.6
			c-6.4,0-11.6,5.2-11.6,11.6C386.8,386.8,392,392,398.4,392"/>
	</g>
	<g clip-path="url(#SVGID_2_)">
		<defs>
			<path id="SVGID_55_" d="M386.8,380.4c0,6.4,5.2,11.6,11.6,11.6c6.4,0,11.6-5.2,11.6-11.6c0-6.4-5.2-11.6-11.6-11.6
				C392,368.8,386.8,374,386.8,380.4"/>
		</defs>
		<clipPath id="SVGID_56_">
			<use xlink:href="#SVGID_55_"  overflow="visible"/>
		</clipPath>
		<path clip-path="url(#SVGID_56_)" fill="#879BAA" d="M398.3,381.6c2,0,3.4-1.6,3.4-3.9c0-2.3-1.4-3.9-3.4-3.9
			c-2,0-3.4,1.5-3.4,3.9C395,380,396.3,381.6,398.3,381.6"/>
		<path clip-path="url(#SVGID_56_)" fill="#879BAA" d="M396.1,383.1L396.1,383.1L396.1,383.1l-2.3,0.2l0,0c-1.3,0.1-2.2,1.1-2.2,2.6
			c0,0,0,0,0,0v6.7h6.3h0.9h6.3v-6.7c0,0,0,0,0,0c0-1.5-0.9-2.5-2.2-2.6l0,0l-2.3-0.2v0l0,0H396.1z"/>
	</g>
	<g clip-path="url(#SVGID_2_)">
		<defs>
			<rect id="SVGID_57_" x="-0.1" y="-0.9" width="736.8" height="543.1"/>
		</defs>
		<clipPath id="SVGID_58_">
			<use xlink:href="#SVGID_57_"  overflow="visible"/>
		</clipPath>
		<circle clip-path="url(#SVGID_58_)" fill="none" stroke="#50BED7" stroke-width="1.599" cx="398.4" cy="380.4" r="11.6"/>
		<g opacity="0.75" clip-path="url(#SVGID_58_)">
			<g>
				<defs>
					<rect id="SVGID_59_" x="516.7" y="191.5" width="153.9" height="242.2"/>
				</defs>
				<clipPath id="SVGID_60_">
					<use xlink:href="#SVGID_59_"  overflow="visible"/>
				</clipPath>
				<path clip-path="url(#SVGID_60_)" fill="#005F87" d="M559.6,198.5c0,0-34,0-34,34v166.3c0,0,0,34,34,34h68c0,0,34,0,34-34V232.4
					c0,0,0-34-34-34H559.6z"/>
			</g>
		</g>
		<path clip-path="url(#SVGID_58_)" fill="#FFFFFF" d="M608.9,222.1c-0.2,0.3-0.4,0.6-0.5,0.7c-0.4,0.4-0.8,0.6-1.3,0.6
			c-0.7,0-1.1-0.3-1.5-0.9c-0.3-0.5-0.4-1.2-0.4-2c0-0.8,0.2-1.5,0.5-2.1c0.3-0.5,0.8-0.8,1.4-0.8c0.8,0,1.4,0.4,1.9,1.3V222.1z
			 M608.9,218c-0.6-0.7-1.2-1.1-2.1-1.1c-0.8,0-1.4,0.3-1.9,0.9c-0.6,0.7-0.9,1.6-0.9,2.7c0,1.1,0.3,2,0.8,2.7
			c0.5,0.7,1.2,1.1,2.1,1.1c0.6,0,1-0.2,1.4-0.5c0.2-0.2,0.4-0.4,0.7-0.7l0,1.1h1l0-0.3c0-0.9,0-1.7,0-2.3v-7.6h-1.1V218z
			 M601.1,222.3c-0.5,0.7-1.1,1.1-1.8,1.1c-0.4,0-0.7-0.1-1-0.3c-0.2-0.2-0.3-0.5-0.3-0.9c0-0.5,0.2-0.9,0.7-1.2
			c0.3-0.2,0.9-0.3,1.7-0.3c0.3,0,0.5,0,0.8,0V222.3z M601.2,224.1h1c0-0.5-0.1-1-0.1-1.8V220c0-0.4,0-0.7,0-0.9
			c0-0.6-0.1-1-0.3-1.3c-0.4-0.6-1.1-1-2.2-1c-0.9,0-1.7,0.2-2.4,0.7l0.5,0.8c0.6-0.4,1.3-0.6,1.8-0.6c0.7,0,1.2,0.2,1.4,0.7
			c0.1,0.3,0.2,0.7,0.2,1.2v0.2c-0.5,0-0.9,0-1,0c-0.9,0-1.6,0.1-2.1,0.3c-0.8,0.4-1.2,1.1-1.2,2c0,0.6,0.2,1.1,0.5,1.5
			c0.4,0.4,1,0.6,1.7,0.6c0.5,0,1-0.1,1.4-0.4c0.2-0.1,0.5-0.3,0.7-0.6L601.2,224.1z M593.9,217v5.1c-0.7,0.9-1.4,1.3-2.2,1.3
			c-0.6,0-1-0.3-1.2-0.8c-0.1-0.3-0.2-0.8-0.2-1.5V217h-1.1v4.1c0,0.3,0,0.6,0,0.9c0,0.5,0.1,0.9,0.3,1.2c0.3,0.7,0.9,1,1.8,1
			c0.6,0,1.2-0.2,1.8-0.6c0.2-0.2,0.5-0.4,0.7-0.7l0,1.1h1.1c0-0.4-0.1-1.2-0.1-2.3V217H593.9z M586,222.1c-0.2,0.3-0.4,0.6-0.5,0.7
			c-0.4,0.4-0.8,0.6-1.3,0.6c-0.7,0-1.1-0.3-1.5-0.9c-0.3-0.5-0.4-1.2-0.4-2c0-0.8,0.2-1.5,0.5-2.1c0.3-0.5,0.8-0.8,1.4-0.8
			c0.7,0,1.4,0.4,1.9,1.3V222.1z M586,218.1c-0.2-0.3-0.5-0.6-0.7-0.7c-0.4-0.3-0.9-0.5-1.5-0.5c-0.8,0-1.4,0.3-1.9,0.9
			c-0.6,0.7-0.9,1.6-0.9,2.7c0,1.1,0.3,2,0.8,2.7c0.5,0.7,1.2,1.1,2.1,1.1c0.6,0,1.1-0.2,1.4-0.5c0.2-0.2,0.4-0.4,0.6-0.6v4h1.1
			v-7.2c0-0.8,0-1.6,0-2.5l0-0.4h-1L586,218.1z M576.4,224.3c1,0,1.7-0.2,2.3-0.7c0.6-0.5,0.9-1.2,0.9-2c0-1-0.4-1.7-1.3-2.3
			c-0.3-0.2-0.8-0.4-1.5-0.7c-0.3-0.1-0.6-0.3-0.9-0.4c-0.2-0.1-0.5-0.3-0.6-0.5c-0.2-0.3-0.4-0.6-0.4-0.9c0-0.5,0.2-0.8,0.5-1.1
			c0.4-0.3,0.8-0.4,1.3-0.4c0.7,0,1.4,0.2,2.1,0.5l0.2-1c-0.9-0.3-1.6-0.4-2.3-0.4c-0.5,0-1,0.1-1.4,0.2c-0.5,0.2-0.9,0.4-1.1,0.8
			c-0.4,0.4-0.5,1-0.5,1.6c0,0.4,0.1,0.7,0.2,1c0.2,0.4,0.5,0.7,1,1c0.2,0.1,0.7,0.4,1.4,0.7c0.8,0.4,1.3,0.6,1.5,0.9
			c0.3,0.3,0.4,0.6,0.4,1.1c0,0.5-0.2,0.9-0.5,1.2c-0.4,0.3-0.8,0.5-1.5,0.5c-0.7,0-1.5-0.2-2.4-0.5l-0.1,1
			C574.9,224.1,575.7,224.3,576.4,224.3"/>
		<path clip-path="url(#SVGID_58_)" fill="#FFFFFF" d="M546.7,246.9c0,0-13,0-13,13v3c0,0,0,13,13,13h93.9c0,0,13,0,13-13v-3
			c0,0,0-13-13-13H546.7z"/>
	</g>
	<rect x="569.9" y="253.3" clip-path="url(#SVGID_2_)" fill="#BECDD7" width="56.7" height="6.4"/>
	<rect x="569.9" y="264" clip-path="url(#SVGID_2_)" fill="#BECDD7" width="69.4" height="6.4"/>
	<g clip-path="url(#SVGID_2_)">
		<defs>
			<rect id="SVGID_61_" x="-0.1" y="-0.9" width="736.8" height="543.1"/>
		</defs>
		<clipPath id="SVGID_62_">
			<use xlink:href="#SVGID_61_"  overflow="visible"/>
		</clipPath>
		<path clip-path="url(#SVGID_62_)" fill="#EBF0F5" d="M549.2,273.2c6.4,0,11.6-5.2,11.6-11.6c0-6.4-5.2-11.6-11.6-11.6
			c-6.4,0-11.6,5.2-11.6,11.6C537.7,268,542.8,273.2,549.2,273.2"/>
	</g>
	<g clip-path="url(#SVGID_2_)">
		<defs>
			<path id="SVGID_63_" d="M537.7,261.6c0,6.4,5.2,11.6,11.6,11.6s11.6-5.2,11.6-11.6c0-6.4-5.2-11.6-11.6-11.6
				S537.7,255.2,537.7,261.6"/>
		</defs>
		<clipPath id="SVGID_64_">
			<use xlink:href="#SVGID_63_"  overflow="visible"/>
		</clipPath>
		<path clip-path="url(#SVGID_64_)" fill="#879BAA" d="M549.2,262.8c2,0,3.4-1.6,3.4-3.9c0-2.3-1.4-3.9-3.4-3.9
			c-2,0-3.4,1.6-3.4,3.9C545.8,261.3,547.2,262.8,549.2,262.8"/>
		<path clip-path="url(#SVGID_64_)" fill="#879BAA" d="M547,264.3L547,264.3L547,264.3l-2.3,0.2l0,0c-1.3,0.1-2.2,1.1-2.2,2.6
			c0,0,0,0,0,0v6.7h6.3h0.9h6.3v-6.7c0,0,0,0,0,0c0-1.5-0.9-2.5-2.2-2.6l0,0l-2.3-0.2v0l0,0H547z"/>
	</g>
	<g clip-path="url(#SVGID_2_)">
		<defs>
			<rect id="SVGID_65_" x="-0.1" y="-0.9" width="736.8" height="543.1"/>
		</defs>
		<clipPath id="SVGID_66_">
			<use xlink:href="#SVGID_65_"  overflow="visible"/>
		</clipPath>
		<circle clip-path="url(#SVGID_66_)" fill="none" stroke="#50BED7" stroke-width="1.599" cx="549.2" cy="261.6" r="11.6"/>
		<path clip-path="url(#SVGID_66_)" fill="#FFFFFF" d="M546.7,305.6c0,0-13,0-13,13v3c0,0,0,13,13,13h93.9c0,0,13,0,13-13v-3
			c0,0,0-13-13-13H546.7z"/>
	</g>
	<rect x="569.9" y="312" clip-path="url(#SVGID_2_)" fill="#BECDD7" width="56.7" height="6.4"/>
	<rect x="569.9" y="322.7" clip-path="url(#SVGID_2_)" fill="#BECDD7" width="69.4" height="6.4"/>
	<g clip-path="url(#SVGID_2_)">
		<defs>
			<rect id="SVGID_67_" x="-0.1" y="-0.9" width="736.8" height="543.1"/>
		</defs>
		<clipPath id="SVGID_68_">
			<use xlink:href="#SVGID_67_"  overflow="visible"/>
		</clipPath>
		<path clip-path="url(#SVGID_68_)" fill="#EBF0F5" d="M549.2,332c6.4,0,11.6-5.2,11.6-11.6c0-6.4-5.2-11.6-11.6-11.6
			c-6.4,0-11.6,5.2-11.6,11.6C537.7,326.8,542.8,332,549.2,332"/>
	</g>
	<g clip-path="url(#SVGID_2_)">
		<defs>
			<path id="SVGID_69_" d="M537.7,320.4c0,6.4,5.2,11.6,11.6,11.6s11.6-5.2,11.6-11.6s-5.2-11.6-11.6-11.6S537.7,314,537.7,320.4"/>
		</defs>
		<clipPath id="SVGID_70_">
			<use xlink:href="#SVGID_69_"  overflow="visible"/>
		</clipPath>
		<path clip-path="url(#SVGID_70_)" fill="#879BAA" d="M549.2,321.5c2,0,3.4-1.6,3.4-3.9c0-2.3-1.4-3.9-3.4-3.9
			c-2,0-3.4,1.6-3.4,3.9C545.8,320,547.2,321.5,549.2,321.5"/>
		<path clip-path="url(#SVGID_70_)" fill="#879BAA" d="M547,323L547,323L547,323l-2.3,0.2l0,0c-1.3,0.1-2.2,1.1-2.2,2.6c0,0,0,0,0,0
			v6.7h6.3h0.9h6.3v-6.7c0,0,0,0,0,0c0-1.5-0.9-2.5-2.2-2.6l0,0l-2.3-0.2v0l0,0H547z"/>
	</g>
	<g clip-path="url(#SVGID_2_)">
		<defs>
			<rect id="SVGID_71_" x="-0.1" y="-0.9" width="736.8" height="543.1"/>
		</defs>
		<clipPath id="SVGID_72_">
			<use xlink:href="#SVGID_71_"  overflow="visible"/>
		</clipPath>
		<circle clip-path="url(#SVGID_72_)" fill="none" stroke="#50BED7" stroke-width="1.599" cx="549.2" cy="320.4" r="11.6"/>
		<path clip-path="url(#SVGID_72_)" fill="#FFFFFF" d="M546.7,365.7c0,0-13,0-13,13v3c0,0,0,13,13,13h93.9c0,0,13,0,13-13v-3
			c0,0,0-13-13-13H546.7z"/>
	</g>
	<rect x="569.9" y="372" clip-path="url(#SVGID_2_)" fill="#BECDD7" width="56.7" height="6.4"/>
	<rect x="569.9" y="382.7" clip-path="url(#SVGID_2_)" fill="#BECDD7" width="69.4" height="6.4"/>
	<g clip-path="url(#SVGID_2_)">
		<defs>
			<rect id="SVGID_73_" x="-0.1" y="-0.9" width="736.8" height="543.1"/>
		</defs>
		<clipPath id="SVGID_74_">
			<use xlink:href="#SVGID_73_"  overflow="visible"/>
		</clipPath>
		<path clip-path="url(#SVGID_74_)" fill="#EBF0F5" d="M549.2,392c6.4,0,11.6-5.2,11.6-11.6c0-6.4-5.2-11.6-11.6-11.6
			c-6.4,0-11.6,5.2-11.6,11.6C537.7,386.8,542.8,392,549.2,392"/>
	</g>
	<g clip-path="url(#SVGID_2_)">
		<defs>
			<path id="SVGID_75_" d="M537.7,380.4c0,6.4,5.2,11.6,11.6,11.6s11.6-5.2,11.6-11.6c0-6.4-5.2-11.6-11.6-11.6
				S537.7,374,537.7,380.4"/>
		</defs>
		<clipPath id="SVGID_76_">
			<use xlink:href="#SVGID_75_"  overflow="visible"/>
		</clipPath>
		<path clip-path="url(#SVGID_76_)" fill="#879BAA" d="M549.2,381.6c2,0,3.4-1.6,3.4-3.9c0-2.3-1.4-3.9-3.4-3.9
			c-2,0-3.4,1.5-3.4,3.9C545.8,380,547.2,381.6,549.2,381.6"/>
		<path clip-path="url(#SVGID_76_)" fill="#879BAA" d="M547,383.1L547,383.1L547,383.1l-2.3,0.2l0,0c-1.3,0.1-2.2,1.1-2.2,2.6
			c0,0,0,0,0,0v6.7h6.3h0.9h6.3v-6.7c0,0,0,0,0,0c0-1.5-0.9-2.5-2.2-2.6l0,0l-2.3-0.2v0l0,0H547z"/>
	</g>
	<g clip-path="url(#SVGID_2_)">
		<defs>
			<rect id="SVGID_77_" x="-0.1" y="-0.9" width="736.8" height="543.1"/>
		</defs>
		<clipPath id="SVGID_78_">
			<use xlink:href="#SVGID_77_"  overflow="visible"/>
		</clipPath>
		<circle clip-path="url(#SVGID_78_)" fill="none" stroke="#50BED7" stroke-width="1.599" cx="549.2" cy="380.4" r="11.6"/>
		<path clip-path="url(#SVGID_78_)" fill="#FFFFFF" d="M391.6,121c0-0.5,0.1-1,0.4-1.4c0.4-0.7,1-1,1.8-1c0.8,0,1.4,0.3,1.8,1
			c0.2,0.4,0.3,0.9,0.3,1.4H391.6z M398,122.5c0-1.4-0.2-2.5-0.4-3.2c-0.6-1.5-1.8-2.2-3.8-2.2c-1.3,0-2.4,0.4-3.1,1.2
			c-0.9,0.9-1.3,2.1-1.3,3.6c0,1.5,0.4,2.6,1.1,3.4c0.8,0.9,2.1,1.4,3.7,1.4c1.3,0,2.5-0.3,3.5-0.9l-0.7-1.5
			c-0.9,0.6-1.8,0.9-2.7,0.9c-0.9,0-1.6-0.3-2.1-0.8c-0.3-0.4-0.5-1-0.6-1.7H398z M381.2,120.1c0.6-1,1.3-1.5,2.1-1.5
			c0.7,0,1.2,0.3,1.5,0.9c0.4,0.6,0.5,1.3,0.5,2.2c0,0.9-0.2,1.6-0.5,2.2c-0.4,0.6-0.9,1-1.5,1c-0.8,0-1.5-0.5-2.2-1.6V120.1z
			 M381.1,125.1c0.3,0.4,0.6,0.7,0.9,0.9c0.5,0.4,1.2,0.6,1.9,0.6c1.1,0,2-0.4,2.6-1.2c0.7-0.9,1.1-2.1,1.1-3.6
			c0-1.4-0.3-2.5-0.9-3.4c-0.7-0.9-1.6-1.4-2.8-1.4c-1.1,0-2,0.5-2.7,1.4v-5.1h-2.1v9.9c0,1.2,0,2.3-0.1,3.2h2L381.1,125.1z
			 M373.9,113.3c-0.2,0.2-0.3,0.5-0.3,0.9c0,0.4,0.1,0.7,0.3,0.9c0.3,0.3,0.6,0.4,1,0.4c0.4,0,0.7-0.1,1-0.4
			c0.2-0.2,0.3-0.5,0.3-0.9c0-0.3-0.1-0.6-0.3-0.9c-0.3-0.3-0.6-0.4-1-0.4C374.5,112.9,374.2,113.1,373.9,113.3 M376,117.2h-2.1v9.2
			h2.1V117.2z M369,126.4V121c0.1-0.5,0.3-0.9,0.6-1.2c0.5-0.6,1-0.9,1.7-0.9c0.2,0,0.4,0,0.7,0.1l0.1-1.9c-0.3-0.1-0.5-0.1-0.8-0.1
			c-1.1,0-1.9,0.6-2.4,1.9l-0.1-1.7h-2c0.1,1.1,0.1,2.3,0.1,3.5v5.7H369z M362.5,126.4v-10.7h3.7v-1.8h-9.5v1.8h3.6v10.7H362.5z"/>
		<path clip-path="url(#SVGID_78_)" fill="#FFFFFF" d="M418.2,151c-0.2,0.3-0.4,0.6-0.5,0.7c-0.4,0.4-0.8,0.6-1.3,0.6
			c-0.7,0-1.1-0.3-1.5-0.9c-0.3-0.5-0.4-1.2-0.4-2c0-0.8,0.2-1.5,0.5-2.1c0.3-0.5,0.8-0.8,1.4-0.8c0.8,0,1.4,0.4,1.9,1.3V151z
			 M418.2,146.9c-0.6-0.7-1.2-1.1-2.1-1.1c-0.8,0-1.4,0.3-1.9,0.9c-0.6,0.7-0.9,1.6-0.9,2.7c0,1.1,0.3,2,0.8,2.7
			c0.5,0.7,1.2,1.1,2.1,1.1c0.6,0,1-0.2,1.4-0.5c0.2-0.2,0.4-0.4,0.7-0.7l0,1.1h1l0-0.3c0-0.9,0-1.7,0-2.3v-7.6h-1.1V146.9z
			 M410.4,151.2c-0.5,0.7-1.1,1.1-1.8,1.1c-0.4,0-0.7-0.1-1-0.3c-0.2-0.2-0.3-0.5-0.3-0.9c0-0.5,0.2-0.9,0.7-1.2
			c0.3-0.2,0.9-0.3,1.7-0.3c0.3,0,0.5,0,0.8,0V151.2z M410.5,153h1c0-0.5-0.1-1-0.1-1.8v-2.3c0-0.4,0-0.7,0-0.9c0-0.6-0.1-1-0.3-1.3
			c-0.4-0.6-1.1-1-2.2-1c-0.9,0-1.7,0.2-2.4,0.7l0.5,0.8c0.6-0.4,1.3-0.6,1.8-0.6c0.7,0,1.2,0.2,1.4,0.7c0.1,0.3,0.2,0.7,0.2,1.2
			v0.2c-0.5,0-0.9,0-1,0c-0.9,0-1.6,0.1-2.1,0.3c-0.8,0.4-1.2,1.1-1.2,2c0,0.6,0.2,1.1,0.5,1.5c0.4,0.4,1,0.6,1.7,0.6
			c0.5,0,1-0.1,1.4-0.4c0.2-0.1,0.5-0.3,0.7-0.6L410.5,153z M400,148.9c0-0.5,0.1-1,0.3-1.3c0.4-0.6,0.9-0.9,1.6-0.9
			c0.7,0,1.3,0.3,1.6,1c0.2,0.4,0.3,0.8,0.3,1.3H400z M404.8,149.7c0-1-0.1-1.8-0.4-2.4c-0.4-1-1.3-1.6-2.5-1.6
			c-0.8,0-1.5,0.2-2,0.7c-0.7,0.7-1.1,1.6-1.1,2.9c0,1.1,0.3,1.9,0.8,2.6c0.6,0.7,1.5,1.1,2.6,1.1c0.8,0,1.6-0.2,2.4-0.7l-0.4-0.8
			c-0.6,0.4-1.3,0.7-1.9,0.7c-0.8,0-1.3-0.3-1.7-0.8c-0.3-0.4-0.5-1-0.5-1.8H404.8z M398.1,153v-0.9h-4.2v-8.8h-1.1v9.7H398.1z
			 M382.5,148.9c0-0.5,0.1-1,0.3-1.3c0.4-0.6,0.9-0.9,1.6-0.9c0.7,0,1.3,0.3,1.6,1c0.2,0.4,0.3,0.8,0.3,1.3H382.5z M387.3,149.7
			c0-1-0.1-1.8-0.4-2.4c-0.4-1-1.3-1.6-2.5-1.6c-0.8,0-1.5,0.2-2,0.7c-0.7,0.7-1.1,1.6-1.1,2.9c0,1.1,0.3,1.9,0.8,2.6
			c0.6,0.7,1.5,1.1,2.6,1.1c0.8,0,1.6-0.2,2.4-0.7l-0.4-0.8c-0.6,0.4-1.3,0.7-1.9,0.7c-0.8,0-1.3-0.3-1.7-0.8
			c-0.3-0.4-0.5-1-0.5-1.8H387.3z M375.1,148c0.5-0.9,1.1-1.3,1.9-1.3c0.6,0,1.1,0.3,1.4,0.8c0.3,0.5,0.5,1.2,0.5,2.1
			c0,0.8-0.1,1.4-0.4,2c-0.3,0.6-0.8,0.9-1.5,0.9c-0.5,0-0.9-0.2-1.3-0.6c-0.2-0.2-0.4-0.4-0.5-0.7V148z M375,151.9
			c0.3,0.3,0.5,0.6,0.7,0.7c0.4,0.3,0.9,0.5,1.4,0.5c0.8,0,1.5-0.3,2-0.9c0.6-0.7,0.9-1.7,0.9-2.8c0-1.1-0.3-1.9-0.8-2.6
			c-0.5-0.7-1.2-1.1-2-1.1c-0.8,0-1.5,0.4-2.1,1.1v-4.1H374v7.6c0,0.7,0,1.4,0,2.3l0,0.3h1L375,151.9z M370.4,142.9
			c-0.1,0.1-0.1,0.3-0.1,0.5c0,0.2,0,0.3,0.1,0.5c0.1,0.2,0.3,0.3,0.6,0.3c0.3,0,0.5-0.1,0.6-0.3c0.1-0.1,0.1-0.3,0.1-0.5
			c0-0.2,0-0.3-0.1-0.5c-0.1-0.2-0.3-0.3-0.6-0.3C370.8,142.6,370.6,142.7,370.4,142.9 M371.6,145.9h-1.1v7.1h1.1V145.9z M366.7,153
			v-4.5c0.1-0.4,0.3-0.7,0.5-1c0.4-0.5,0.9-0.8,1.4-0.8c0.1,0,0.2,0,0.4,0l0.1-1c-0.2,0-0.4-0.1-0.5-0.1c-0.5,0-0.9,0.1-1.2,0.4
			c-0.3,0.2-0.5,0.6-0.8,1l0-1.3h-1l0,0.3c0,0.9,0,1.8,0,2.7v4H366.7z M362.3,153v-8.8h2.9v-0.9h-6.8v0.9h2.8v8.8H362.3z"/>
		<path clip-path="url(#SVGID_78_)" fill="#EBF0F5" d="M337.7,158.8c6.4,0,11.6-5.2,11.6-11.6c0-6.4-5.2-11.6-11.6-11.6
			c-6.4,0-11.6,5.2-11.6,11.6C326.1,153.6,331.3,158.8,337.7,158.8"/>
	</g>
	<g clip-path="url(#SVGID_2_)">
		<defs>
			<path id="SVGID_79_" d="M326.1,147.2c0,6.4,5.2,11.6,11.6,11.6c6.4,0,11.6-5.2,11.6-11.6c0-6.4-5.2-11.6-11.6-11.6
				C331.3,135.6,326.1,140.8,326.1,147.2"/>
		</defs>
		<clipPath id="SVGID_80_">
			<use xlink:href="#SVGID_79_"  overflow="visible"/>
		</clipPath>
		<path clip-path="url(#SVGID_80_)" fill="#879BAA" d="M337.7,148.4c2,0,3.4-1.6,3.4-3.9c0-2.3-1.4-3.9-3.4-3.9
			c-2,0-3.4,1.6-3.4,3.9C334.3,146.8,335.7,148.4,337.7,148.4"/>
		<path clip-path="url(#SVGID_80_)" fill="#879BAA" d="M335.5,149.9L335.5,149.9L335.5,149.9l-2.3,0.2l0,0c-1.3,0.1-2.2,1.1-2.2,2.6
			c0,0,0,0,0,0v6.7h6.3h0.9h6.3v-6.7c0,0,0,0,0,0c0-1.5-0.9-2.5-2.2-2.6l0,0l-2.3-0.2v0l0,0H335.5z"/>
	</g>
	<g clip-path="url(#SVGID_2_)">
		<defs>
			<rect id="SVGID_81_" x="-0.1" y="-0.9" width="736.8" height="543.1"/>
		</defs>
		<clipPath id="SVGID_82_">
			<use xlink:href="#SVGID_81_"  overflow="visible"/>
		</clipPath>
		<circle clip-path="url(#SVGID_82_)" fill="none" stroke="#50BED7" stroke-width="1.599" cx="337.7" cy="147.2" r="11.6"/>
	</g>
</g>
</svg>
