<svg xmlns="http://www.w3.org/2000/svg" width="26" height="26" viewBox="0 0 26 26">
    <path fill="#005F84" fill-rule="evenodd" d="M13 26C5.82 26 0 20.18 0 13S5.82 0 13 0s13 5.82 13 13-5.82 13-13 13zm.426-7.527c1.413 0 2.535-.561 3.158-1.268.312-.332.416-.602.416-.914a.994.994 0 0 0-1.018-1.018c-.353 0-.644.187-.956.498-.374.416-.852.624-1.58.624-.893 0-1.578-.437-1.87-1.31-.166-.498-.207-1.08-.207-1.849 0-.768.041-1.35.208-1.849.29-.873.976-1.31 1.87-1.31.727 0 1.205.209 1.579.624.312.312.603.499.956.499A.994.994 0 0 0 17 10.182c0-.312-.104-.582-.416-.914C15.961 8.56 14.84 8 13.426 8c-2.016 0-3.532.977-4.114 2.764-.208.623-.312 1.413-.312 2.472 0 1.06.104 1.85.312 2.473.582 1.787 2.098 2.764 4.114 2.764z"/>
</svg>
