<?xml version="1.0" encoding="utf-8"?>
<!-- Generator: Adobe Illustrator 18.0.0, SVG Export Plug-In . SVG Version: 6.00 Build 0)  -->
<!DOCTYPE svg PUBLIC "-//W3C//DTD SVG 1.1//EN" "http://www.w3.org/Graphics/SVG/1.1/DTD/svg11.dtd">
<svg version="1.1" id="Ebene_1" xmlns="http://www.w3.org/2000/svg" xmlns:xlink="http://www.w3.org/1999/xlink" x="0px" y="0px"
	 viewBox="0 0 226.8 226.8" enable-background="new 0 0 226.8 226.8" xml:space="preserve">
<path fill="#1A171B" stroke="#FFFFFF" stroke-miterlimit="10" d="M74.7,196.8h76.9v8H74.7V196.8z M44.8,121.8h23.8v38.3H44.8V121.8z
	 M82.4,121.8h61.5v61.1H82.4V121.8z M157.7,121.8h23.8v38.3h-23.8V121.8z M82.4,72.1h23.8v38.3H82.4V72.1z M120.1,72.1h23.8v38.3
	h-23.8V72.1z M44.8,72h23.8v38.4H44.8V72z M157.7,72h23.8v38.4h-23.8V72z M44.8,22.3h23.8v38.3H44.8V22.3z M82.4,22.3h23.8v38.3
	H82.4V22.3z M120.1,22.3h23.8v38.3h-23.8V22.3z M157.7,22.3h23.8v38.3h-23.8V22.3z M25.9,222h174.6V2.6H25.9V222z"/>
</svg>
