<?xml version="1.0" encoding="utf-8"?>
<!-- Generator: Adobe Illustrator 16.0.4, SVG Export Plug-In . SVG Version: 6.00 Build 0)  -->
<!DOCTYPE svg PUBLIC "-//W3C//DTD SVG 1.1//EN" "http://www.w3.org/Graphics/SVG/1.1/DTD/svg11.dtd">
<svg version="1.1" id="Ebene_1" xmlns="http://www.w3.org/2000/svg" xmlns:xlink="http://www.w3.org/1999/xlink" x="0px" y="0px"
	 width="74.585px" height="55.938px" viewBox="0 0 74.585 55.938" enable-background="new 0 0 74.585 55.938" xml:space="preserve">
<g>
	<path fill="#2387AA" d="M36.94,38.807c2.894,0,5.188-1.146,6.463-2.595c0.64-0.679,0.851-1.23,0.851-1.871
		c0.029-1.122-0.858-2.053-1.982-2.083c-0.034,0-0.066,0-0.099,0c-0.724,0-1.32,0.383-1.958,1.022
		c-0.764,0.852-1.742,1.272-3.232,1.272c-1.828,0-3.23-0.893-3.828-2.68c-0.339-1.019-0.422-2.211-0.422-3.782
		c0-1.574,0.083-2.765,0.424-3.786c0.595-1.787,1.998-2.681,3.828-2.681c1.488,0,2.467,0.428,3.23,1.277
		c0.638,0.637,1.234,1.021,1.958,1.021c1.124,0.025,2.054-0.861,2.081-1.983v-0.102c0-0.638-0.211-1.191-0.851-1.87
		c-1.275-1.45-3.569-2.595-6.463-2.595c-4.125,0-7.228,1.999-8.419,5.656c-0.425,1.276-0.638,2.892-0.638,5.062
		c0,2.168,0.213,3.785,0.638,5.061C29.712,36.808,32.815,38.807,36.94,38.807 M36.068,54.212c-14.693,0-26.604-11.913-26.604-26.605
		C9.464,12.912,21.375,1,36.068,1c14.694,0,26.607,11.912,26.607,26.606C62.675,42.299,50.762,54.212,36.068,54.212"/>
	<path fill="#BECDD7" d="M62.302,33.746c3.391,0,6.14-2.749,6.14-6.14c0-3.392-2.749-6.14-6.14-6.14
		c-3.394,0-6.141,2.748-6.141,6.14C56.162,30.997,58.909,33.746,62.302,33.746"/>
	<circle fill="none" stroke="#FFFFFF" cx="62.302" cy="27.606" r="6.14"/>
</g>
</svg>
