<?xml version="1.0" encoding="utf-8"?>
<!-- Generator: Adobe Illustrator 18.0.0, SVG Export Plug-In . SVG Version: 6.00 Build 0)  -->
<!DOCTYPE svg PUBLIC "-//W3C//DTD SVG 1.0//EN" "http://www.w3.org/TR/2001/REC-SVG-20010904/DTD/svg10.dtd">
<svg version="1.0" id="Ebene_1" xmlns="http://www.w3.org/2000/svg" xmlns:xlink="http://www.w3.org/1999/xlink" x="0px" y="0px"
	 viewBox="0 0 150 124.4" enable-background="new 0 0 150 124.4" xml:space="preserve">
<path d="M9.4,0.3c-1,0-2.1,0.1-3.1,0.5c-4.2,1.5-6.3,5.9-4.9,10L35.2,91c-4.7,13-9.1,19.1-19.2,19.1c-1,0-4.4-0.2-4.6-0.2
	c-3.2-0.2-6.3,1.9-7.2,5.1c-1,3.6,1.2,7.3,4.9,8.4c2.7,0.5,5.4,0.6,7.9,0.6c18.6,0,24.7-10.4,30.9-25.6l36.3-88c1.3-4-1-8.3-5.1-9.5
	c-4-1.2-8.2,0.8-9.7,4.6L43.9,70.9h-0.4l-26.8-66C15.3,2.1,12.5,0.3,9.4,0.3L9.4,0.3z M126.6,18.8c-0.8,0-1.6,0.1-2.4,0.3
	c-0.3,0.1-0.5,0.3-0.9,0.5c-5.1,2.8-39.3,27-35.4,29.7c3.8,2.7,27.2-7.9,43.2-16.7c3-2.4,3.8-6.8,1.7-10.2
	C131.3,20.2,129,18.9,126.6,18.8L126.6,18.8z M142.4,56c-5.8,0-47.5,4.7-45.5,9c2.1,4.3,27.8,6.4,46.1,6.4c3.8-0.7,6.6-4.2,6.4-8.3
	c-0.2-3.6-2.8-6.4-6-7.1C143,56,142.7,56,142.4,56L142.4,56z M90.2,80.7c-1,0-1.8,0.1-2.3,0.4c-3.9,2.7,30.3,26.9,35.4,29.7
	c0.3,0.2,0.6,0.3,0.9,0.5c3.2,0.9,6.7-0.3,8.6-3.2c2.1-3.4,1.4-7.7-1.7-10.2C117.1,90.1,97.4,81,90.2,80.7L90.2,80.7z M90.2,80.7"/>
</svg>
