<?xml version="1.0" encoding="utf-8"?>
<!-- Generator: Adobe Illustrator 18.0.0, SVG Export Plug-In . SVG Version: 6.00 Build 0)  -->
<!DOCTYPE svg PUBLIC "-//W3C//DTD SVG 1.1//EN" "http://www.w3.org/Graphics/SVG/1.1/DTD/svg11.dtd">
<svg version="1.1" id="Ebene_1" xmlns="http://www.w3.org/2000/svg" xmlns:xlink="http://www.w3.org/1999/xlink" x="0px" y="0px"
	 viewBox="0 0 83 100" enable-background="new 0 0 83 100" xml:space="preserve">
<g>
	<path d="M41.4,79.8c-1.3-2.3-3.6-3.1-5.6-1.9l-8,4.6c-3.7-3.2-7-7.1-9.6-11.6c-2.6-4.5-4.3-9.3-5.3-14.1l8-4.6
		c2-1.2,2.5-3.5,1.2-5.8l-5.7-9.9c-1.3-2.3-3.6-3.1-5.6-1.9c-4.1,2.4-7.1,5.3-8.8,7.1C1.7,42,1.4,42.5,1.4,43
		c-1,11.2,1.3,22.8,7.4,33.3c6.1,10.5,15,18.3,25.2,23c0.5,0.2,1,0.3,1.5,0.2c2.4-0.5,6.4-1.7,10.5-4.1c2-1.2,2.5-3.5,1.1-5.8
		L41.4,79.8z"/>
</g>
<path d="M72.8,46.7H41.6v-9.3h31.2V46.7z M41.6,18.7h21.8V28H41.6V18.7z M62.8,0H32.3v68.5h49.8V19.4L62.8,0z"/>
</svg>
