<?xml version="1.0" encoding="utf-8"?>
<!-- Generator: Adobe Illustrator 22.0.1, SVG Export Plug-In . SVG Version: 6.00 Build 0)  -->
<svg version="1.1" id="Ebene_1" xmlns="http://www.w3.org/2000/svg" xmlns:xlink="http://www.w3.org/1999/xlink" x="0px" y="0px"
	 viewBox="0 0 24 24" style="enable-background:new 0 0 24 24;" xml:space="preserve">
<style type="text/css">
	.st0{fill:none;}
	.st1{clip-path:url(#SVGID_2_);}
</style>
<path class="st0" d="M0,0h24v24H0V0z"/>
<polygon points="7.8,9.8 7.8,12.2 9.8,12.2 9.8,18.5 7.8,18.6 7.8,21.3 15.9,21.3 15.9,18.6 13.9,18.5 13.9,9.4 "/>
<g>
	<g>
		<defs>
			<rect id="SVGID_1_" x="8.8" y="3.3" width="8.1" height="18.1"/>
		</defs>
		<clipPath id="SVGID_2_">
			<use xlink:href="#SVGID_1_"  style="overflow:visible;"/>
		</clipPath>
		<path class="st1" d="M11.8,8c-0.7,0-1.2-0.2-1.6-0.7s-0.6-1-0.6-1.6s0.2-1.2,0.6-1.6c0.4-0.4,1-0.7,1.6-0.7s1.2,0.2,1.6,0.7
			c0.4,0.4,0.6,1,0.6,1.6s-0.2,1.2-0.6,1.6S12.5,8,11.8,8"/>
	</g>
</g>
</svg>
