<?xml version="1.0" encoding="utf-8"?>
<!-- Generator: Adobe Illustrator 18.0.0, SVG Export Plug-In . SVG Version: 6.00 Build 0)  -->
<!DOCTYPE svg PUBLIC "-//W3C//DTD SVG 1.1//EN" "http://www.w3.org/Graphics/SVG/1.1/DTD/svg11.dtd">
<svg version="1.1" xmlns="http://www.w3.org/2000/svg" xmlns:xlink="http://www.w3.org/1999/xlink" x="0px" y="0px"
	 viewBox="385.4 266.8 63.3 63" enable-background="new 385.4 266.8 63.3 63" xml:space="preserve">
<g id="Ebene_1">
	<g>
		<path d="M416.9,320.4c12.2,0,22.1-9.9,22.1-22.1c0-12.2-9.9-22.1-22.1-22.1c-7.2,0-13.9,3.5-18.1,9.4l0,0l7.7,1.1v5.3l-20.7,0
			v-20.6h5.3l1.1,8.1c10.4-13.6,29.9-16.1,43.5-5.7c13.6,10.4,16.1,29.9,5.7,43.5c-10.4,13.6-29.9,16.1-43.5,5.7
			c-3.7-2.8-6.7-6.4-8.7-10.6l7.9-4C401,315.7,408.6,320.4,416.9,320.4"/>
	</g>
</g>
<g id="Ebene_2">
</g>
</svg>
