<?xml version="1.0" encoding="utf-8"?>
<!-- Generator: Adobe Illustrator 18.0.0, SVG Export Plug-In . SVG Version: 6.00 Build 0)  -->
<!DOCTYPE svg PUBLIC "-//W3C//DTD SVG 1.1//EN" "http://www.w3.org/Graphics/SVG/1.1/DTD/svg11.dtd">
<svg version="1.1" id="Ebene_1" xmlns="http://www.w3.org/2000/svg" xmlns:xlink="http://www.w3.org/1999/xlink" x="0px" y="0px"
	 viewBox="0 0 100 40.1" style="enable-background:new 0 0 100 40.1;" xml:space="preserve">
<path d="M23.2,20.2c-1.6-1.2-2.5-1.7-8.1-4c-5.5-2.3-6.3-3-6.3-5c0-2.5,1.9-4,4.9-4c2.8,0,4.7,0.4,9.7,2.3l1.7-7
	C20.5,1,17,0.4,13.1,0.4c-3.8,0-6.6,0.8-8.8,2.5C1.6,5,0,8.4,0,12.3c0,3.1,1.1,5.5,3.3,7.3c1.5,1.2,2.8,1.8,7.3,3.7
	c6.1,2.6,6.9,3.2,6.9,5.4c0,2.8-2.1,4.5-5.5,4.5c-3.2,0-6.2-0.7-10.9-2.8L0,37.8C4.3,39.3,7.8,40,12.6,40c9,0,13.9-4.2,13.9-12
	C26.4,24.5,25.3,21.9,23.2,20.2z M56.2,20.2c-1.6-1.2-2.5-1.7-8.1-4c-5.5-2.3-6.3-3-6.3-5c0-2.5,1.9-4,4.9-4c2.8,0,4.7,0.4,9.7,2.3
	l1.7-7C53.5,1,50,0.4,46.1,0.4c-3.8,0-6.6,0.8-8.8,2.5C34.6,5,33,8.4,33,12.3c0,3.1,1.1,5.5,3.3,7.3c1.5,1.2,2.8,1.8,7.3,3.7
	c6.1,2.6,6.9,3.2,6.9,5.4c0,2.8-2.1,4.5-5.5,4.5c-3.2,0-6.2-0.7-10.9-2.8L33,37.8c4.3,1.5,7.8,2.2,12.6,2.2c9,0,13.9-4.2,13.9-12
	C59.4,24.5,58.3,21.9,56.2,20.2z M90.6,0.3v19.6c0,4.7,0,5.3,0.2,7.6c-1.6-3.6-2.7-5.6-4.8-9.3L75.7,0.3H66v39.6h8.4V22.2
	c0-5.7,0-6.1-0.2-9.4c2.1,4.4,2.9,6,5.6,10.6L89.5,40H99V0.3H90.6z"/>
</svg>