<?xml version="1.0" encoding="utf-8"?>
<!-- Generator: Adobe Illustrator 18.0.0, SVG Export Plug-In . SVG Version: 6.00 Build 0)  -->
<!DOCTYPE svg PUBLIC "-//W3C//DTD SVG 1.0//EN" "http://www.w3.org/TR/2001/REC-SVG-20010904/DTD/svg10.dtd">
<svg version="1.0" id="Ebene_1" xmlns="http://www.w3.org/2000/svg" xmlns:xlink="http://www.w3.org/1999/xlink" x="0px" y="0px"
	 viewBox="0.1 0 736.8 542" enable-background="new 0.1 0 736.8 542" xml:space="preserve">
<g>
	<defs>
		<rect id="SVGID_1_" x="-0.1" y="-0.9" width="736.8" height="543.1"/>
	</defs>
	<clipPath id="SVGID_2_">
		<use xlink:href="#SVGID_1_"  overflow="visible"/>
	</clipPath>
	<g clip-path="url(#SVGID_2_)">
		<defs>
			<rect id="SVGID_3_" x="-0.1" y="-0.9" width="736.8" height="543.1"/>
		</defs>
		<clipPath id="SVGID_4_">
			<use xlink:href="#SVGID_3_"  overflow="visible"/>
		</clipPath>
		<path clip-path="url(#SVGID_4_)" fill="#004669" d="M725.4,542.3H11.3c-6.3,0-11.4-5.1-11.4-11.4V10.5C-0.1,4.2,5-0.9,11.3-0.9
			h714.1c6.3,0,11.4,5.1,11.4,11.4v520.4C736.8,537.2,731.7,542.3,725.4,542.3"/>
		<g opacity="0.65" clip-path="url(#SVGID_4_)">
			<g>
				<defs>
					<rect id="SVGID_5_" x="-9.1" y="-7.9" width="754.8" height="551.1"/>
				</defs>
				<clipPath id="SVGID_6_">
					<use xlink:href="#SVGID_5_"  overflow="visible"/>
				</clipPath>
				<path clip-path="url(#SVGID_6_)" fill="#00284C" d="M725.4,542.3H11.3c-6.3,0-11.4-5.1-11.4-11.4V10.5C-0.1,4.2,5-0.9,11.3-0.9
					h714.1c6.3,0,11.4,5.1,11.4,11.4v520.4C736.8,537.2,731.7,542.3,725.4,542.3"/>
			</g>
		</g>
		<path clip-path="url(#SVGID_4_)" fill="#DFE6ED" d="M736.8,37.1V10.5c0-6.3-5.1-11.4-11.4-11.4H11.3C5-0.9-0.1,4.2-0.1,10.5v26.6
			H736.8z"/>
	</g>
	<rect x="510.3" y="10.8" clip-path="url(#SVGID_2_)" fill="#FFFFFF" width="206.4" height="15"/>
	<rect x="92.8" y="10.8" clip-path="url(#SVGID_2_)" fill="#FFFFFF" width="397.6" height="14.6"/>
	<g clip-path="url(#SVGID_2_)">
		<defs>
			<rect id="SVGID_7_" x="-0.1" y="-0.9" width="736.8" height="543.1"/>
		</defs>
		<clipPath id="SVGID_8_">
			<use xlink:href="#SVGID_7_"  overflow="visible"/>
		</clipPath>
		<path clip-path="url(#SVGID_8_)" fill="#F27D7D" d="M30.9,18.3c0,3.1-2.5,5.7-5.5,5.7s-5.5-2.5-5.5-5.7c0-3.1,2.5-5.7,5.5-5.7
			S30.9,15.1,30.9,18.3"/>
		<path clip-path="url(#SVGID_8_)" fill="#F5E391" d="M51.8,18c0,3.1-2.5,5.7-5.5,5.7c-3,0-5.5-2.5-5.5-5.7c0-3.1,2.5-5.7,5.5-5.7
			C49.4,12.3,51.8,14.8,51.8,18"/>
		<path clip-path="url(#SVGID_8_)" fill="#B5EDAD" d="M72.8,18c0,3.1-2.5,5.7-5.5,5.7c-3,0-5.5-2.5-5.5-5.7c0-3.1,2.5-5.7,5.5-5.7
			C70.3,12.3,72.8,14.8,72.8,18"/>
		<path clip-path="url(#SVGID_8_)" fill="#FFFFFF" d="M393,91.5c0-0.7,0.2-1.2,0.4-1.7c0.5-0.8,1.1-1.2,2-1.2c0.9,0,1.6,0.4,2,1.2
			c0.2,0.5,0.3,1,0.4,1.7H393z M399.2,92.6c0-1.3-0.2-2.4-0.5-3.1c-0.6-1.3-1.6-2-3.3-2c-1.1,0-1.9,0.3-2.6,0.9
			c-0.9,0.8-1.4,2.1-1.4,3.8c0,1.4,0.3,2.5,1,3.3c0.8,0.9,1.9,1.4,3.3,1.4c1.1,0,2.1-0.3,3-0.9l-0.5-1.1c-0.8,0.6-1.7,0.9-2.5,0.9
			c-1,0-1.7-0.3-2.2-1c-0.4-0.5-0.6-1.3-0.7-2.3H399.2z M387.3,95.8c-0.9,0-1.6-0.3-2-0.9c-0.5-0.7-0.8-1.6-0.8-2.8
			c0-1.1,0.2-2,0.7-2.6c0.5-0.7,1.1-1,2-1c0.7,0,1.5,0.2,2.2,0.7l0.5-1.1c-0.9-0.5-1.8-0.7-2.7-0.7c-1.2,0-2.2,0.4-2.9,1.1
			c-0.8,0.9-1.2,2.1-1.2,3.7c0,1.5,0.4,2.6,1.2,3.5c0.7,0.8,1.8,1.2,3.1,1.2c1,0,1.9-0.3,2.8-0.8l-0.5-1.1
			C388.8,95.6,388,95.8,387.3,95.8 M374.4,96.8v-6.5c0.9-1.1,1.9-1.7,2.9-1.7c0.8,0,1.3,0.3,1.6,1c0.1,0.4,0.2,1,0.2,1.9v5.3h1.4
			v-5.3c0-0.4,0-0.8,0-1.2c0-0.7-0.2-1.2-0.3-1.6c-0.4-0.8-1.2-1.3-2.4-1.3c-0.9,0-1.6,0.3-2.3,0.8c-0.3,0.2-0.6,0.5-1,0.9l-0.1-1.5
			H373c0,0.6,0.1,1.6,0.1,3v6.2H374.4z M368.4,94.4c-0.6,0.9-1.4,1.4-2.4,1.4c-0.5,0-0.9-0.1-1.2-0.4c-0.3-0.3-0.4-0.7-0.4-1.2
			c0-0.7,0.3-1.2,0.9-1.5c0.4-0.3,1.2-0.4,2.1-0.4c0.4,0,0.7,0,1,0V94.4z M368.5,96.8h1.3c0-0.6-0.1-1.3-0.1-2.3v-3
			c0-0.5,0-0.9,0-1.1c0-0.7-0.2-1.3-0.4-1.7c-0.5-0.8-1.5-1.2-2.8-1.2c-1.1,0-2.1,0.3-3.1,0.9l0.6,1c0.8-0.5,1.6-0.8,2.4-0.8
			c0.9,0,1.5,0.3,1.8,0.9c0.2,0.3,0.3,0.9,0.3,1.5v0.2c-0.7,0-1.1,0-1.3,0c-1.2,0-2,0.1-2.6,0.4c-1,0.5-1.5,1.4-1.5,2.6
			c0,0.8,0.2,1.4,0.7,1.9c0.5,0.5,1.2,0.8,2.2,0.8c0.7,0,1.3-0.2,1.8-0.5c0.3-0.2,0.6-0.4,0.9-0.8L368.5,96.8z M358.8,83.8
			c-0.1,0.2-0.2,0.4-0.2,0.6c0,0.2,0.1,0.4,0.2,0.6c0.2,0.3,0.4,0.4,0.8,0.4c0.3,0,0.6-0.1,0.8-0.4c0.1-0.2,0.2-0.4,0.2-0.6
			c0-0.2-0.1-0.4-0.2-0.6c-0.2-0.3-0.4-0.4-0.8-0.4C359.3,83.4,359,83.6,358.8,83.8 M360.3,87.6H359v9.1h1.4V87.6z M355.6,83.6h-1.4
			v13.2h1.4V83.6z M351,83.6h-1.4v13.2h1.4V83.6z M340.3,91.2l1.1-3.3c0.3-0.9,0.6-1.7,0.8-2.4c0.2,0.8,0.5,1.6,0.8,2.4l1.1,3.3
			H340.3z M346,96.8h1.6l-4.5-12.5h-1.8l-4.4,12.5h1.5l1.5-4.4h4.6L346,96.8z"/>
		<g opacity="0.75" clip-path="url(#SVGID_8_)">
			<g>
				<defs>
					<rect id="SVGID_9_" x="53.3" y="176.4" width="301.6" height="48.6"/>
				</defs>
				<clipPath id="SVGID_10_">
					<use xlink:href="#SVGID_9_"  overflow="visible"/>
				</clipPath>
				<path clip-path="url(#SVGID_10_)" fill="#50BED7" d="M77.1,183.4c0,0-14.7,0-14.7,14.7v11.2c0,0,0,14.7,14.7,14.7h254.1
					c0,0,14.7,0,14.7-14.7v-11.2c0,0,0-14.7-14.7-14.7H77.1z"/>
			</g>
		</g>
		<g opacity="0.75" clip-path="url(#SVGID_8_)">
			<g>
				<defs>
					<rect id="SVGID_11_" x="53.3" y="227.1" width="301.6" height="48.6"/>
				</defs>
				<clipPath id="SVGID_12_">
					<use xlink:href="#SVGID_11_"  overflow="visible"/>
				</clipPath>
				<path clip-path="url(#SVGID_12_)" fill="#50BED7" d="M77.1,234.1c0,0-14.7,0-14.7,14.7V260c0,0,0,14.7,14.7,14.7h254.1
					c0,0,14.7,0,14.7-14.7v-11.2c0,0,0-14.7-14.7-14.7H77.1z"/>
			</g>
		</g>
		<path clip-path="url(#SVGID_8_)" fill="#FFFFFF" d="M122.3,209.1v-4.5c0.1-0.4,0.3-0.7,0.5-1c0.4-0.5,0.9-0.8,1.4-0.8
			c0.1,0,0.2,0,0.4,0l0.1-1c-0.2,0-0.4-0.1-0.5-0.1c-0.5,0-0.9,0.1-1.2,0.4c-0.3,0.2-0.5,0.6-0.8,1l0-1.3h-1l0,0.3
			c0,0.9,0,1.8,0,2.7v4H122.3z M114.5,205c0-0.5,0.1-1,0.3-1.3c0.4-0.6,0.9-0.9,1.6-0.9c0.7,0,1.3,0.3,1.6,0.9
			c0.2,0.4,0.3,0.8,0.3,1.3H114.5z M119.3,205.8c0-1-0.1-1.8-0.4-2.4c-0.4-1-1.3-1.6-2.5-1.6c-0.8,0-1.5,0.2-2,0.7
			c-0.7,0.7-1.1,1.6-1.1,2.9c0,1.1,0.3,1.9,0.8,2.6c0.6,0.7,1.5,1.1,2.6,1.1c0.8,0,1.6-0.2,2.4-0.7l-0.4-0.8
			c-0.6,0.4-1.3,0.7-1.9,0.7c-0.8,0-1.3-0.3-1.7-0.8c-0.3-0.4-0.5-1-0.5-1.8H119.3z M109.6,206.9c0,0.8,0.1,1.3,0.3,1.6
			c0.3,0.4,0.8,0.7,1.5,0.7c0.4,0,0.7-0.1,1.1-0.2l-0.1-0.8c-0.3,0.1-0.6,0.2-0.8,0.2c-0.4,0-0.7-0.1-0.8-0.4
			c-0.1-0.2-0.2-0.6-0.2-1.2v-3.9h1.7V202h-1.7v-1.8l-1.1,0.2v1.6h-1.1v0.9h1.1V206.9z M102.6,204c0.5-0.9,1.1-1.3,1.9-1.3
			c0.6,0,1.1,0.3,1.4,0.8c0.3,0.5,0.5,1.2,0.5,2.1c0,0.8-0.1,1.4-0.4,2c-0.3,0.6-0.8,0.9-1.5,0.9c-0.5,0-0.9-0.2-1.3-0.6
			c-0.2-0.2-0.3-0.4-0.5-0.7V204z M102.6,212.1v-4c0.2,0.3,0.4,0.5,0.6,0.6c0.4,0.3,0.9,0.5,1.4,0.5c0.8,0,1.5-0.3,2-0.9
			c0.6-0.7,0.9-1.7,0.9-2.8c0-1.1-0.3-1.9-0.8-2.6c-0.5-0.7-1.2-1.1-2-1.1c-0.6,0-1,0.2-1.5,0.5c-0.2,0.2-0.4,0.4-0.7,0.7l0-1.1h-1
			l0,0.4c0,0.9,0,1.7,0,2.5v7.2H102.6z M98.1,207.3c-0.5,0.7-1.1,1.1-1.8,1.1c-0.4,0-0.7-0.1-0.9-0.3c-0.2-0.2-0.3-0.5-0.3-0.9
			c0-0.5,0.2-0.9,0.7-1.2c0.3-0.2,0.9-0.3,1.7-0.3c0.3,0,0.5,0,0.8,0V207.3z M98.2,209.1h1c0-0.5-0.1-1-0.1-1.8V205
			c0-0.4,0-0.7,0-0.9c0-0.6-0.1-1-0.3-1.3c-0.4-0.6-1.1-1-2.2-1c-0.9,0-1.7,0.2-2.4,0.7l0.5,0.8c0.6-0.4,1.3-0.6,1.8-0.6
			c0.7,0,1.2,0.2,1.4,0.7c0.1,0.3,0.2,0.7,0.2,1.2v0.2c-0.5,0-0.9,0-1,0c-0.9,0-1.6,0.1-2.1,0.3c-0.8,0.4-1.2,1.1-1.2,2
			c0,0.6,0.2,1.1,0.5,1.5c0.4,0.4,1,0.6,1.7,0.6c0.5,0,1-0.1,1.4-0.4c0.2-0.1,0.5-0.3,0.7-0.6L98.2,209.1z M87.3,209.1V204
			c0.7-0.9,1.5-1.3,2.2-1.3c0.6,0,1.1,0.3,1.2,0.8c0.1,0.3,0.2,0.8,0.2,1.5v4.1H92V205c0-0.3,0-0.6,0-0.9c0-0.5-0.1-0.9-0.3-1.2
			c-0.3-0.7-1-1-1.8-1c-0.9,0-1.8,0.4-2.6,1.2v-4.2h-1.1v10.2H87.3z M82.1,208.3c-0.6,0-1.1-0.1-1.5-0.3c-0.6-0.3-1.1-0.8-1.4-1.5
			c-0.3-0.6-0.4-1.4-0.4-2.1c0-1.1,0.3-2.1,0.8-2.9c0.6-0.8,1.4-1.2,2.4-1.2c0.7,0,1.4,0.2,2.2,0.6l0.4-0.9
			c-0.9-0.4-1.8-0.6-2.6-0.6c-0.7,0-1.4,0.1-2,0.4c-0.8,0.4-1.4,1-1.9,1.9c-0.4,0.8-0.6,1.7-0.6,2.7c0,1.5,0.4,2.7,1.3,3.6
			c0.8,0.9,1.9,1.3,3.2,1.3c0.8,0,1.7-0.2,2.6-0.5l-0.3-0.9C83.6,208.1,82.9,208.3,82.1,208.3"/>
		<path clip-path="url(#SVGID_8_)" fill="#FFFFFF" d="M122.3,259.7v-4.5c0.1-0.4,0.3-0.7,0.5-1c0.4-0.5,0.9-0.8,1.4-0.8
			c0.1,0,0.2,0,0.4,0l0.1-1c-0.2,0-0.4-0.1-0.5-0.1c-0.5,0-0.9,0.1-1.2,0.4c-0.3,0.2-0.5,0.6-0.8,1l0-1.3h-1l0,0.3
			c0,0.9,0,1.8,0,2.7v4H122.3z M114.5,255.6c0-0.5,0.1-1,0.3-1.3c0.4-0.6,0.9-0.9,1.6-0.9c0.7,0,1.3,0.3,1.6,0.9
			c0.2,0.4,0.3,0.8,0.3,1.3H114.5z M119.3,256.4c0-1-0.1-1.8-0.4-2.4c-0.4-1-1.3-1.6-2.5-1.6c-0.8,0-1.5,0.2-2,0.7
			c-0.7,0.7-1.1,1.6-1.1,2.9c0,1.1,0.3,1.9,0.8,2.6c0.6,0.7,1.5,1.1,2.6,1.1c0.8,0,1.6-0.2,2.4-0.7l-0.4-0.8
			c-0.6,0.4-1.3,0.7-1.9,0.7c-0.8,0-1.3-0.3-1.7-0.8c-0.3-0.4-0.5-1-0.5-1.8H119.3z M109.6,257.6c0,0.8,0.1,1.3,0.3,1.6
			c0.3,0.4,0.8,0.7,1.5,0.7c0.4,0,0.7-0.1,1.1-0.2l-0.1-0.8c-0.3,0.1-0.6,0.2-0.8,0.2c-0.4,0-0.7-0.1-0.8-0.4
			c-0.1-0.2-0.2-0.6-0.2-1.2v-3.9h1.7v-0.9h-1.7v-1.8l-1.1,0.2v1.6h-1.1v0.9h1.1V257.6z M102.6,254.6c0.5-0.9,1.1-1.3,1.9-1.3
			c0.6,0,1.1,0.3,1.4,0.8c0.3,0.5,0.5,1.2,0.5,2.1c0,0.8-0.1,1.4-0.4,2c-0.3,0.6-0.8,0.9-1.5,0.9c-0.5,0-0.9-0.2-1.3-0.6
			c-0.2-0.2-0.3-0.4-0.5-0.7V254.6z M102.6,262.7v-4c0.2,0.3,0.4,0.5,0.6,0.6c0.4,0.3,0.9,0.5,1.4,0.5c0.8,0,1.5-0.3,2-0.9
			c0.6-0.7,0.9-1.7,0.9-2.8c0-1.1-0.3-1.9-0.8-2.6c-0.5-0.7-1.2-1.1-2-1.1c-0.6,0-1,0.2-1.5,0.5c-0.2,0.2-0.4,0.4-0.7,0.7l0-1.1h-1
			l0,0.4c0,0.9,0,1.7,0,2.5v7.2H102.6z M98.1,257.9c-0.5,0.7-1.1,1.1-1.8,1.1c-0.4,0-0.7-0.1-0.9-0.3c-0.2-0.2-0.3-0.5-0.3-0.9
			c0-0.5,0.2-0.9,0.7-1.2c0.3-0.2,0.9-0.3,1.7-0.3c0.3,0,0.5,0,0.8,0V257.9z M98.2,259.7h1c0-0.5-0.1-1-0.1-1.8v-2.3
			c0-0.4,0-0.7,0-0.9c0-0.6-0.1-1-0.3-1.3c-0.4-0.6-1.1-1-2.2-1c-0.9,0-1.7,0.2-2.4,0.7l0.5,0.8c0.6-0.4,1.3-0.6,1.8-0.6
			c0.7,0,1.2,0.2,1.4,0.7c0.1,0.3,0.2,0.7,0.2,1.2v0.2c-0.5,0-0.9,0-1,0c-0.9,0-1.6,0.1-2.1,0.3c-0.8,0.4-1.2,1.1-1.2,2
			c0,0.6,0.2,1.1,0.5,1.5c0.4,0.4,1,0.6,1.7,0.6c0.5,0,1-0.1,1.4-0.4c0.2-0.1,0.5-0.3,0.7-0.6L98.2,259.7z M87.3,259.7v-5.1
			c0.7-0.9,1.5-1.3,2.2-1.3c0.6,0,1.1,0.3,1.2,0.8c0.1,0.3,0.2,0.8,0.2,1.5v4.1H92v-4.1c0-0.3,0-0.6,0-0.9c0-0.5-0.1-0.9-0.3-1.2
			c-0.3-0.7-1-1-1.8-1c-0.9,0-1.8,0.4-2.6,1.2v-4.2h-1.1v10.2H87.3z M82.1,258.9c-0.6,0-1.1-0.1-1.5-0.3c-0.6-0.3-1.1-0.8-1.4-1.5
			c-0.3-0.6-0.4-1.4-0.4-2.1c0-1.1,0.3-2.1,0.8-2.9c0.6-0.8,1.4-1.2,2.4-1.2c0.7,0,1.4,0.2,2.2,0.6l0.4-0.9
			c-0.9-0.4-1.8-0.6-2.6-0.6c-0.7,0-1.4,0.1-2,0.4c-0.8,0.4-1.4,1-1.9,1.9c-0.4,0.8-0.6,1.7-0.6,2.7c0,1.5,0.4,2.7,1.3,3.6
			c0.8,0.9,1.9,1.3,3.2,1.3c0.8,0,1.7-0.2,2.6-0.5l-0.3-0.9C83.6,258.7,82.9,258.9,82.1,258.9"/>
		<g opacity="0.75" clip-path="url(#SVGID_8_)">
			<g>
				<defs>
					<rect id="SVGID_13_" x="126.9" y="143.9" width="108" height="154.3"/>
				</defs>
				<clipPath id="SVGID_14_">
					<use xlink:href="#SVGID_13_"  overflow="visible"/>
				</clipPath>
				<path clip-path="url(#SVGID_14_)" fill="#005F87" d="M162.2,150.9c0,0-26.2,0-26.2,26.2V271c0,0,0,26.2,26.2,26.2h37.5
					c0,0,26.2,0,26.2-26.2v-93.8c0,0,0-26.2-26.2-26.2H162.2z"/>
			</g>
		</g>
	</g>
	<g clip-path="url(#SVGID_2_)">
		<text transform="matrix(1 0 0 1 161.8752 172.7766)"><tspan x="0" y="0" fill="#FFFFFF" font-family="'SiemensSans-Roman'" font-size="14">S</tspan><tspan x="7.3" y="0" fill="#FFFFFF" font-family="'SiemensSans-Roman'" font-size="14">q</tspan><tspan x="15" y="0" fill="#FFFFFF" font-family="'SiemensSans-Roman'" font-size="14">uad</tspan></text>
	</g>
	<g clip-path="url(#SVGID_2_)">
		<defs>
			<rect id="SVGID_15_" x="-0.1" y="-0.9" width="736.8" height="543.1"/>
		</defs>
		<clipPath id="SVGID_16_">
			<use xlink:href="#SVGID_15_"  overflow="visible"/>
		</clipPath>
		<path clip-path="url(#SVGID_16_)" fill="#FFFFFF" d="M154.7,193.8c0,0-11,0-11,11v2.8c0,0,0,11,11,11h52.6c0,0,11,0,11-11v-2.8
			c0,0,0-11-11-11H154.7z"/>
	</g>
	<rect x="171.4" y="200" clip-path="url(#SVGID_2_)" fill="#BECDD7" width="26" height="4.9"/>
	<rect x="171.4" y="208.2" clip-path="url(#SVGID_2_)" fill="#BECDD7" width="35.8" height="4.9"/>
	<g clip-path="url(#SVGID_2_)">
		<defs>
			<rect id="SVGID_17_" x="-0.1" y="-0.9" width="736.8" height="543.1"/>
		</defs>
		<clipPath id="SVGID_18_">
			<use xlink:href="#SVGID_17_"  overflow="visible"/>
		</clipPath>
		<path clip-path="url(#SVGID_18_)" fill="#EBF0F5" d="M156.2,215.4c4.9,0,8.9-4,8.9-8.9c0-4.9-4-8.9-8.9-8.9c-4.9,0-8.9,4-8.9,8.9
			C147.3,211.3,151.3,215.4,156.2,215.4"/>
	</g>
	<g clip-path="url(#SVGID_2_)">
		<defs>
			<path id="SVGID_19_" d="M147.3,206.4c0,4.9,4,8.9,8.9,8.9c4.9,0,8.9-4,8.9-8.9c0-4.9-4-8.9-8.9-8.9
				C151.3,197.5,147.3,201.5,147.3,206.4"/>
		</defs>
		<clipPath id="SVGID_20_">
			<use xlink:href="#SVGID_19_"  overflow="visible"/>
		</clipPath>
		<path clip-path="url(#SVGID_20_)" fill="#879BAA" d="M156.2,208.1c1.6,0,2.6-1.2,2.6-3s-1.1-3-2.6-3c-1.6,0-2.6,1.2-2.6,3
			S154.7,208.1,156.2,208.1"/>
		<path clip-path="url(#SVGID_20_)" fill="#879BAA" d="M154.5,209.3L154.5,209.3L154.5,209.3l-1.8,0.1l0,0c-1,0.1-1.7,0.9-1.7,2
			c0,0,0,0,0,0v5.2h4.9h0.7h4.9v-5.2c0,0,0,0,0,0c0-1.2-0.7-2-1.7-2l0,0l-1.8-0.1v0l0,0H154.5z"/>
	</g>
	<g clip-path="url(#SVGID_2_)">
		<defs>
			<rect id="SVGID_21_" x="-0.1" y="-0.9" width="736.8" height="543.1"/>
		</defs>
		<clipPath id="SVGID_22_">
			<use xlink:href="#SVGID_21_"  overflow="visible"/>
		</clipPath>
		<circle clip-path="url(#SVGID_22_)" fill="none" stroke="#50BED7" stroke-width="1.234" cx="156.2" cy="206.4" r="8.9"/>
		<path clip-path="url(#SVGID_22_)" fill="#FFFFFF" d="M154.7,244.5c0,0-11,0-11,11v2.8c0,0,0,11,11,11h52.6c0,0,11,0,11-11v-2.8
			c0,0,0-11-11-11H154.7z"/>
	</g>
	<rect x="171.4" y="250.6" clip-path="url(#SVGID_2_)" fill="#BECDD7" width="26" height="4.9"/>
	<rect x="171.4" y="258.8" clip-path="url(#SVGID_2_)" fill="#BECDD7" width="35.8" height="4.9"/>
	<g clip-path="url(#SVGID_2_)">
		<defs>
			<rect id="SVGID_23_" x="-0.1" y="-0.9" width="736.8" height="543.1"/>
		</defs>
		<clipPath id="SVGID_24_">
			<use xlink:href="#SVGID_23_"  overflow="visible"/>
		</clipPath>
		<path clip-path="url(#SVGID_24_)" fill="#EBF0F5" d="M156.2,266c4.9,0,8.9-4,8.9-8.9c0-4.9-4-8.9-8.9-8.9c-4.9,0-8.9,4-8.9,8.9
			C147.3,262,151.3,266,156.2,266"/>
	</g>
	<g clip-path="url(#SVGID_2_)">
		<defs>
			<path id="SVGID_25_" d="M147.3,257c0,4.9,4,8.9,8.9,8.9c4.9,0,8.9-4,8.9-8.9c0-4.9-4-8.9-8.9-8.9
				C151.3,248.1,147.3,252.1,147.3,257"/>
		</defs>
		<clipPath id="SVGID_26_">
			<use xlink:href="#SVGID_25_"  overflow="visible"/>
		</clipPath>
		<path clip-path="url(#SVGID_26_)" fill="#879BAA" d="M156.2,258.8c1.6,0,2.6-1.2,2.6-3c0-1.8-1.1-3-2.6-3c-1.6,0-2.6,1.2-2.6,3
			C153.6,257.6,154.7,258.8,156.2,258.8"/>
		<path clip-path="url(#SVGID_26_)" fill="#879BAA" d="M154.5,259.9L154.5,259.9L154.5,259.9l-1.8,0.1l0,0c-1,0.1-1.7,0.9-1.7,2
			c0,0,0,0,0,0v5.2h4.9h0.7h4.9v-5.2c0,0,0,0,0,0c0-1.2-0.7-2-1.7-2l0,0l-1.8-0.1v0l0,0H154.5z"/>
	</g>
	<g clip-path="url(#SVGID_2_)">
		<defs>
			<rect id="SVGID_27_" x="-0.1" y="-0.9" width="736.8" height="543.1"/>
		</defs>
		<clipPath id="SVGID_28_">
			<use xlink:href="#SVGID_27_"  overflow="visible"/>
		</clipPath>
		<circle clip-path="url(#SVGID_28_)" fill="none" stroke="#50BED7" stroke-width="1.234" cx="156.2" cy="257" r="8.9"/>
		<g opacity="0.75" clip-path="url(#SVGID_28_)">
			<g>
				<defs>
					<rect id="SVGID_29_" x="226.9" y="143.9" width="108" height="154.3"/>
				</defs>
				<clipPath id="SVGID_30_">
					<use xlink:href="#SVGID_29_"  overflow="visible"/>
				</clipPath>
				<path clip-path="url(#SVGID_30_)" fill="#005F87" d="M262.2,150.9c0,0-26.2,0-26.2,26.2V271c0,0,0,26.2,26.2,26.2h37.5
					c0,0,26.2,0,26.2-26.2v-93.8c0,0,0-26.2-26.2-26.2H262.2z"/>
			</g>
		</g>
	</g>
	<g clip-path="url(#SVGID_2_)">
		<text transform="matrix(1 0 0 1 261.8752 172.7766)"><tspan x="0" y="0" fill="#FFFFFF" font-family="'SiemensSans-Roman'" font-size="14">S</tspan><tspan x="7.3" y="0" fill="#FFFFFF" font-family="'SiemensSans-Roman'" font-size="14">q</tspan><tspan x="15" y="0" fill="#FFFFFF" font-family="'SiemensSans-Roman'" font-size="14">uad</tspan></text>
	</g>
	<g clip-path="url(#SVGID_2_)">
		<defs>
			<rect id="SVGID_31_" x="-0.1" y="-0.9" width="736.8" height="543.1"/>
		</defs>
		<clipPath id="SVGID_32_">
			<use xlink:href="#SVGID_31_"  overflow="visible"/>
		</clipPath>
		<path clip-path="url(#SVGID_32_)" fill="#FFFFFF" d="M254.7,193.8c0,0-11,0-11,11v2.8c0,0,0,11,11,11h52.6c0,0,11,0,11-11v-2.8
			c0,0,0-11-11-11H254.7z"/>
	</g>
	<rect x="271.4" y="200" clip-path="url(#SVGID_2_)" fill="#BECDD7" width="26" height="4.9"/>
	<rect x="271.4" y="208.2" clip-path="url(#SVGID_2_)" fill="#BECDD7" width="35.8" height="4.9"/>
	<g clip-path="url(#SVGID_2_)">
		<defs>
			<rect id="SVGID_33_" x="-0.1" y="-0.9" width="736.8" height="543.1"/>
		</defs>
		<clipPath id="SVGID_34_">
			<use xlink:href="#SVGID_33_"  overflow="visible"/>
		</clipPath>
		<path clip-path="url(#SVGID_34_)" fill="#EBF0F5" d="M256.2,215.4c4.9,0,8.9-4,8.9-8.9c0-4.9-4-8.9-8.9-8.9c-4.9,0-8.9,4-8.9,8.9
			C247.3,211.3,251.3,215.4,256.2,215.4"/>
	</g>
	<g clip-path="url(#SVGID_2_)">
		<defs>
			<path id="SVGID_35_" d="M247.3,206.4c0,4.9,4,8.9,8.9,8.9c4.9,0,9-4,9-8.9c0-4.9-4-8.9-9-8.9
				C251.3,197.5,247.3,201.5,247.3,206.4"/>
		</defs>
		<clipPath id="SVGID_36_">
			<use xlink:href="#SVGID_35_"  overflow="visible"/>
		</clipPath>
		<path clip-path="url(#SVGID_36_)" fill="#879BAA" d="M256.2,208.1c1.6,0,2.6-1.2,2.6-3s-1.1-3-2.6-3c-1.6,0-2.6,1.2-2.6,3
			S254.7,208.1,256.2,208.1"/>
		<path clip-path="url(#SVGID_36_)" fill="#879BAA" d="M254.5,209.3L254.5,209.3L254.5,209.3l-1.8,0.1l0,0c-1,0.1-1.7,0.9-1.7,2
			c0,0,0,0,0,0v5.2h4.9h0.7h4.9v-5.2c0,0,0,0,0,0c0-1.2-0.7-2-1.7-2l0,0l-1.8-0.1v0l0,0H254.5z"/>
	</g>
	<g clip-path="url(#SVGID_2_)">
		<defs>
			<rect id="SVGID_37_" x="-0.1" y="-0.9" width="736.8" height="543.1"/>
		</defs>
		<clipPath id="SVGID_38_">
			<use xlink:href="#SVGID_37_"  overflow="visible"/>
		</clipPath>
		<circle clip-path="url(#SVGID_38_)" fill="none" stroke="#50BED7" stroke-width="1.234" cx="256.2" cy="206.4" r="8.9"/>
		<path clip-path="url(#SVGID_38_)" fill="#FFFFFF" d="M254.7,244.5c0,0-11,0-11,11v2.8c0,0,0,11,11,11h52.6c0,0,11,0,11-11v-2.8
			c0,0,0-11-11-11H254.7z"/>
	</g>
	<rect x="271.4" y="250.6" clip-path="url(#SVGID_2_)" fill="#BECDD7" width="26" height="4.9"/>
	<rect x="271.4" y="258.8" clip-path="url(#SVGID_2_)" fill="#BECDD7" width="35.8" height="4.9"/>
	<g clip-path="url(#SVGID_2_)">
		<defs>
			<rect id="SVGID_39_" x="-0.1" y="-0.9" width="736.8" height="543.1"/>
		</defs>
		<clipPath id="SVGID_40_">
			<use xlink:href="#SVGID_39_"  overflow="visible"/>
		</clipPath>
		<path clip-path="url(#SVGID_40_)" fill="#EBF0F5" d="M256.2,266c4.9,0,8.9-4,8.9-8.9c0-4.9-4-8.9-8.9-8.9c-4.9,0-8.9,4-8.9,8.9
			C247.3,262,251.3,266,256.2,266"/>
	</g>
	<g clip-path="url(#SVGID_2_)">
		<defs>
			<path id="SVGID_41_" d="M247.3,257c0,4.9,4,8.9,8.9,8.9c4.9,0,9-4,9-8.9c0-4.9-4-8.9-9-8.9C251.3,248.1,247.3,252.1,247.3,257"/>
		</defs>
		<clipPath id="SVGID_42_">
			<use xlink:href="#SVGID_41_"  overflow="visible"/>
		</clipPath>
		<path clip-path="url(#SVGID_42_)" fill="#879BAA" d="M256.2,258.8c1.6,0,2.6-1.2,2.6-3c0-1.8-1.1-3-2.6-3c-1.6,0-2.6,1.2-2.6,3
			C253.6,257.6,254.7,258.8,256.2,258.8"/>
		<path clip-path="url(#SVGID_42_)" fill="#879BAA" d="M254.5,259.9L254.5,259.9L254.5,259.9l-1.8,0.1l0,0c-1,0.1-1.7,0.9-1.7,2
			c0,0,0,0,0,0v5.2h4.9h0.7h4.9v-5.2c0,0,0,0,0,0c0-1.2-0.7-2-1.7-2l0,0l-1.8-0.1v0l0,0H254.5z"/>
	</g>
	<g clip-path="url(#SVGID_2_)">
		<defs>
			<rect id="SVGID_43_" x="-0.1" y="-0.9" width="736.8" height="543.1"/>
		</defs>
		<clipPath id="SVGID_44_">
			<use xlink:href="#SVGID_43_"  overflow="visible"/>
		</clipPath>
		<circle clip-path="url(#SVGID_44_)" fill="none" stroke="#50BED7" stroke-width="1.234" cx="256.2" cy="257" r="8.9"/>
		<g opacity="0.75" clip-path="url(#SVGID_44_)">
			<g>
				<defs>
					<rect id="SVGID_45_" x="53.3" y="375.5" width="301.6" height="48.6"/>
				</defs>
				<clipPath id="SVGID_46_">
					<use xlink:href="#SVGID_45_"  overflow="visible"/>
				</clipPath>
				<path clip-path="url(#SVGID_46_)" fill="#50BED7" d="M77.1,382.5c0,0-14.7,0-14.7,14.7v11.2c0,0,0,14.7,14.7,14.7h254.1
					c0,0,14.7,0,14.7-14.7v-11.2c0,0,0-14.7-14.7-14.7H77.1z"/>
			</g>
		</g>
		<g opacity="0.75" clip-path="url(#SVGID_44_)">
			<g>
				<defs>
					<rect id="SVGID_47_" x="53.3" y="426.2" width="301.6" height="48.6"/>
				</defs>
				<clipPath id="SVGID_48_">
					<use xlink:href="#SVGID_47_"  overflow="visible"/>
				</clipPath>
				<path clip-path="url(#SVGID_48_)" fill="#50BED7" d="M77.1,433.2c0,0-14.7,0-14.7,14.7v11.2c0,0,0,14.7,14.7,14.7h254.1
					c0,0,14.7,0,14.7-14.7v-11.2c0,0,0-14.7-14.7-14.7H77.1z"/>
			</g>
		</g>
		<path clip-path="url(#SVGID_44_)" fill="#FFFFFF" d="M122.3,408.2v-4.5c0.1-0.4,0.3-0.7,0.5-1c0.4-0.5,0.9-0.8,1.4-0.8
			c0.1,0,0.2,0,0.4,0l0.1-1c-0.2,0-0.4-0.1-0.5-0.1c-0.5,0-0.9,0.1-1.2,0.4c-0.3,0.2-0.5,0.6-0.8,1l0-1.3h-1l0,0.3
			c0,0.9,0,1.8,0,2.7v4H122.3z M114.5,404.1c0-0.5,0.1-1,0.3-1.3c0.4-0.6,0.9-0.9,1.6-0.9c0.7,0,1.3,0.3,1.6,1
			c0.2,0.4,0.3,0.8,0.3,1.3H114.5z M119.3,404.9c0-1-0.1-1.8-0.4-2.4c-0.4-1-1.3-1.6-2.5-1.6c-0.8,0-1.5,0.2-2,0.7
			c-0.7,0.7-1.1,1.6-1.1,2.9c0,1.1,0.3,1.9,0.8,2.6c0.6,0.7,1.5,1.1,2.6,1.1c0.8,0,1.6-0.2,2.4-0.7l-0.4-0.8
			c-0.6,0.4-1.3,0.7-1.9,0.7c-0.8,0-1.3-0.3-1.7-0.8c-0.3-0.4-0.5-1-0.5-1.8H119.3z M109.6,406c0,0.8,0.1,1.3,0.3,1.6
			c0.3,0.4,0.8,0.7,1.5,0.7c0.4,0,0.7-0.1,1.1-0.2l-0.1-0.8c-0.3,0.1-0.6,0.2-0.8,0.2c-0.4,0-0.7-0.1-0.8-0.4
			c-0.1-0.2-0.2-0.6-0.2-1.2v-3.9h1.7v-0.9h-1.7v-1.8l-1.1,0.2v1.6h-1.1v0.9h1.1V406z M102.6,403.1c0.5-0.9,1.1-1.3,1.9-1.3
			c0.6,0,1.1,0.3,1.4,0.8c0.3,0.5,0.5,1.2,0.5,2.1c0,0.8-0.1,1.4-0.4,2c-0.3,0.6-0.8,0.9-1.5,0.9c-0.5,0-0.9-0.2-1.3-0.6
			c-0.2-0.2-0.3-0.4-0.5-0.7V403.1z M102.6,411.2v-4c0.2,0.3,0.4,0.5,0.6,0.6c0.4,0.3,0.9,0.5,1.4,0.5c0.8,0,1.5-0.3,2-0.9
			c0.6-0.7,0.9-1.7,0.9-2.8c0-1.1-0.3-1.9-0.8-2.6c-0.5-0.7-1.2-1.1-2-1.1c-0.6,0-1,0.2-1.5,0.5c-0.2,0.2-0.4,0.4-0.7,0.7l0-1.1h-1
			l0,0.4c0,0.9,0,1.7,0,2.5v7.2H102.6z M98.1,406.4c-0.5,0.7-1.1,1.1-1.8,1.1c-0.4,0-0.7-0.1-0.9-0.3c-0.2-0.2-0.3-0.5-0.3-0.9
			c0-0.5,0.2-0.9,0.7-1.2c0.3-0.2,0.9-0.3,1.7-0.3c0.3,0,0.5,0,0.8,0V406.4z M98.2,408.2h1c0-0.5-0.1-1-0.1-1.8v-2.3
			c0-0.4,0-0.7,0-0.9c0-0.6-0.1-1-0.3-1.3c-0.4-0.6-1.1-1-2.2-1c-0.9,0-1.7,0.2-2.4,0.7l0.5,0.8c0.6-0.4,1.3-0.6,1.8-0.6
			c0.7,0,1.2,0.2,1.4,0.7c0.1,0.3,0.2,0.7,0.2,1.2v0.2c-0.5,0-0.9,0-1,0c-0.9,0-1.6,0.1-2.1,0.3c-0.8,0.4-1.2,1.1-1.2,2
			c0,0.6,0.2,1.1,0.5,1.5c0.4,0.4,1,0.6,1.7,0.6c0.5,0,1-0.1,1.4-0.4c0.2-0.1,0.5-0.3,0.7-0.6L98.2,408.2z M87.3,408.2v-5.1
			c0.7-0.9,1.5-1.3,2.2-1.3c0.6,0,1.1,0.3,1.2,0.8c0.1,0.3,0.2,0.8,0.2,1.5v4.1H92v-4.1c0-0.3,0-0.6,0-0.9c0-0.5-0.1-0.9-0.3-1.2
			c-0.3-0.7-1-1-1.8-1c-0.9,0-1.8,0.4-2.6,1.2v-4.2h-1.1v10.2H87.3z M82.1,407.4c-0.6,0-1.1-0.1-1.5-0.3c-0.6-0.3-1.1-0.8-1.4-1.5
			c-0.3-0.6-0.4-1.4-0.4-2.1c0-1.1,0.3-2.1,0.8-2.9c0.6-0.8,1.4-1.2,2.4-1.2c0.7,0,1.4,0.2,2.2,0.6l0.4-0.9
			c-0.9-0.4-1.8-0.6-2.6-0.6c-0.7,0-1.4,0.1-2,0.4c-0.8,0.4-1.4,1-1.9,1.9c-0.4,0.8-0.6,1.7-0.6,2.7c0,1.5,0.4,2.7,1.3,3.6
			c0.8,0.9,1.9,1.3,3.2,1.3c0.8,0,1.7-0.2,2.6-0.5l-0.3-0.9C83.6,407.2,82.9,407.4,82.1,407.4"/>
		<path clip-path="url(#SVGID_44_)" fill="#FFFFFF" d="M122.3,458.8v-4.5c0.1-0.4,0.3-0.7,0.5-1c0.4-0.5,0.9-0.8,1.4-0.8
			c0.1,0,0.2,0,0.4,0l0.1-1c-0.2,0-0.4-0.1-0.5-0.1c-0.5,0-0.9,0.1-1.2,0.4c-0.3,0.2-0.5,0.6-0.8,1l0-1.3h-1l0,0.3
			c0,0.9,0,1.8,0,2.7v4H122.3z M114.5,454.7c0-0.5,0.1-1,0.3-1.3c0.4-0.6,0.9-0.9,1.6-0.9c0.7,0,1.3,0.3,1.6,0.9
			c0.2,0.4,0.3,0.8,0.3,1.3H114.5z M119.3,455.6c0-1-0.1-1.8-0.4-2.4c-0.4-1-1.3-1.6-2.5-1.6c-0.8,0-1.5,0.2-2,0.7
			c-0.7,0.7-1.1,1.6-1.1,2.9c0,1.1,0.3,1.9,0.8,2.6c0.6,0.7,1.5,1.1,2.6,1.1c0.8,0,1.6-0.2,2.4-0.7l-0.4-0.8
			c-0.6,0.4-1.3,0.7-1.9,0.7c-0.8,0-1.3-0.3-1.7-0.8c-0.3-0.4-0.5-1-0.5-1.8H119.3z M109.6,456.7c0,0.8,0.1,1.3,0.3,1.6
			c0.3,0.4,0.8,0.7,1.5,0.7c0.4,0,0.7-0.1,1.1-0.2l-0.1-0.8c-0.3,0.1-0.6,0.2-0.8,0.2c-0.4,0-0.7-0.1-0.8-0.4
			c-0.1-0.2-0.2-0.6-0.2-1.2v-3.9h1.7v-0.9h-1.7v-1.8l-1.1,0.2v1.6h-1.1v0.9h1.1V456.7z M102.6,453.7c0.5-0.9,1.1-1.3,1.9-1.3
			c0.6,0,1.1,0.3,1.4,0.8c0.3,0.5,0.5,1.2,0.5,2.1c0,0.8-0.1,1.4-0.4,2c-0.3,0.6-0.8,0.9-1.5,0.9c-0.5,0-0.9-0.2-1.3-0.6
			c-0.2-0.2-0.3-0.4-0.5-0.7V453.7z M102.6,461.8v-4c0.2,0.3,0.4,0.5,0.6,0.6c0.4,0.3,0.9,0.5,1.4,0.5c0.8,0,1.5-0.3,2-0.9
			c0.6-0.7,0.9-1.7,0.9-2.8c0-1.1-0.3-1.9-0.8-2.6c-0.5-0.7-1.2-1.1-2-1.1c-0.6,0-1,0.2-1.5,0.5c-0.2,0.2-0.4,0.4-0.7,0.7l0-1.1h-1
			l0,0.4c0,0.9,0,1.7,0,2.5v7.2H102.6z M98.1,457c-0.5,0.7-1.1,1.1-1.8,1.1c-0.4,0-0.7-0.1-0.9-0.3c-0.2-0.2-0.3-0.5-0.3-0.9
			c0-0.5,0.2-0.9,0.7-1.2c0.3-0.2,0.9-0.3,1.7-0.3c0.3,0,0.5,0,0.8,0V457z M98.2,458.8h1c0-0.5-0.1-1-0.1-1.8v-2.3
			c0-0.4,0-0.7,0-0.9c0-0.6-0.1-1-0.3-1.3c-0.4-0.6-1.1-1-2.2-1c-0.9,0-1.7,0.2-2.4,0.7l0.5,0.8c0.6-0.4,1.3-0.6,1.8-0.6
			c0.7,0,1.2,0.2,1.4,0.7c0.1,0.3,0.2,0.7,0.2,1.2v0.2c-0.5,0-0.9,0-1,0c-0.9,0-1.6,0.1-2.1,0.3c-0.8,0.4-1.2,1.1-1.2,2
			c0,0.6,0.2,1.1,0.5,1.5c0.4,0.4,1,0.6,1.7,0.6c0.5,0,1-0.1,1.4-0.4c0.2-0.1,0.5-0.3,0.7-0.6L98.2,458.8z M87.3,458.8v-5.1
			c0.7-0.9,1.5-1.3,2.2-1.3c0.6,0,1.1,0.3,1.2,0.8c0.1,0.3,0.2,0.8,0.2,1.5v4.1H92v-4.1c0-0.3,0-0.6,0-0.9c0-0.5-0.1-0.9-0.3-1.2
			c-0.3-0.7-1-1-1.8-1c-0.9,0-1.8,0.4-2.6,1.2v-4.2h-1.1v10.2H87.3z M82.1,458c-0.6,0-1.1-0.1-1.5-0.3c-0.6-0.3-1.1-0.8-1.4-1.5
			c-0.3-0.6-0.4-1.4-0.4-2.1c0-1.1,0.3-2.1,0.8-2.9c0.6-0.8,1.4-1.2,2.4-1.2c0.7,0,1.4,0.2,2.2,0.6l0.4-0.9
			c-0.9-0.4-1.8-0.6-2.6-0.6c-0.7,0-1.4,0.1-2,0.4c-0.8,0.4-1.4,1-1.9,1.9c-0.4,0.8-0.6,1.7-0.6,2.7c0,1.5,0.4,2.7,1.3,3.6
			c0.8,0.9,1.9,1.3,3.2,1.3c0.8,0,1.7-0.2,2.6-0.5l-0.3-0.9C83.6,457.9,82.9,458,82.1,458"/>
		<g opacity="0.75" clip-path="url(#SVGID_44_)">
			<g>
				<defs>
					<rect id="SVGID_49_" x="126.9" y="343.1" width="108" height="154.3"/>
				</defs>
				<clipPath id="SVGID_50_">
					<use xlink:href="#SVGID_49_"  overflow="visible"/>
				</clipPath>
				<path clip-path="url(#SVGID_50_)" fill="#005F87" d="M162.2,350.1c0,0-26.2,0-26.2,26.2v93.8c0,0,0,26.2,26.2,26.2h37.5
					c0,0,26.2,0,26.2-26.2v-93.8c0,0,0-26.2-26.2-26.2H162.2z"/>
			</g>
		</g>
	</g>
	<g clip-path="url(#SVGID_2_)">
		<text transform="matrix(1 0 0 1 161.8752 371.8889)"><tspan x="0" y="0" fill="#FFFFFF" font-family="'SiemensSans-Roman'" font-size="14">S</tspan><tspan x="7.3" y="0" fill="#FFFFFF" font-family="'SiemensSans-Roman'" font-size="14">q</tspan><tspan x="15" y="0" fill="#FFFFFF" font-family="'SiemensSans-Roman'" font-size="14">uad</tspan></text>
	</g>
	<g clip-path="url(#SVGID_2_)">
		<defs>
			<rect id="SVGID_51_" x="-0.1" y="-0.9" width="736.8" height="543.1"/>
		</defs>
		<clipPath id="SVGID_52_">
			<use xlink:href="#SVGID_51_"  overflow="visible"/>
		</clipPath>
		<path clip-path="url(#SVGID_52_)" fill="#FFFFFF" d="M154.7,393c0,0-11,0-11,11v2.8c0,0,0,11,11,11h52.6c0,0,11,0,11-11V404
			c0,0,0-11-11-11H154.7z"/>
	</g>
	<rect x="171.4" y="399.1" clip-path="url(#SVGID_2_)" fill="#BECDD7" width="26" height="4.9"/>
	<rect x="171.4" y="407.3" clip-path="url(#SVGID_2_)" fill="#BECDD7" width="35.8" height="4.9"/>
	<g clip-path="url(#SVGID_2_)">
		<defs>
			<rect id="SVGID_53_" x="-0.1" y="-0.9" width="736.8" height="543.1"/>
		</defs>
		<clipPath id="SVGID_54_">
			<use xlink:href="#SVGID_53_"  overflow="visible"/>
		</clipPath>
		<path clip-path="url(#SVGID_54_)" fill="#EBF0F5" d="M156.2,414.5c4.9,0,8.9-4,8.9-8.9c0-4.9-4-8.9-8.9-8.9c-4.9,0-8.9,4-8.9,8.9
			C147.3,410.5,151.3,414.5,156.2,414.5"/>
	</g>
	<g clip-path="url(#SVGID_2_)">
		<defs>
			<path id="SVGID_55_" d="M147.3,405.5c0,4.9,4,8.9,8.9,8.9c4.9,0,8.9-4,8.9-8.9c0-4.9-4-8.9-8.9-8.9
				C151.3,396.6,147.3,400.6,147.3,405.5"/>
		</defs>
		<clipPath id="SVGID_56_">
			<use xlink:href="#SVGID_55_"  overflow="visible"/>
		</clipPath>
		<path clip-path="url(#SVGID_56_)" fill="#879BAA" d="M156.2,407.3c1.6,0,2.6-1.2,2.6-3s-1.1-3-2.6-3c-1.6,0-2.6,1.2-2.6,3
			S154.7,407.3,156.2,407.3"/>
		<path clip-path="url(#SVGID_56_)" fill="#879BAA" d="M154.5,408.4L154.5,408.4L154.5,408.4l-1.8,0.1l0,0c-1,0.1-1.7,0.9-1.7,2
			c0,0,0,0,0,0v5.2h4.9h0.7h4.9v-5.2c0,0,0,0,0,0c0-1.2-0.7-2-1.7-2l0,0l-1.8-0.1v0l0,0H154.5z"/>
	</g>
	<g clip-path="url(#SVGID_2_)">
		<defs>
			<rect id="SVGID_57_" x="-0.1" y="-0.9" width="736.8" height="543.1"/>
		</defs>
		<clipPath id="SVGID_58_">
			<use xlink:href="#SVGID_57_"  overflow="visible"/>
		</clipPath>
		<circle clip-path="url(#SVGID_58_)" fill="none" stroke="#50BED7" stroke-width="1.234" cx="156.2" cy="405.5" r="8.9"/>
		<path clip-path="url(#SVGID_58_)" fill="#FFFFFF" d="M154.7,443.6c0,0-11,0-11,11v2.8c0,0,0,11,11,11h52.6c0,0,11,0,11-11v-2.8
			c0,0,0-11-11-11H154.7z"/>
	</g>
	<rect x="171.4" y="449.7" clip-path="url(#SVGID_2_)" fill="#BECDD7" width="26" height="4.9"/>
	<rect x="171.4" y="457.9" clip-path="url(#SVGID_2_)" fill="#BECDD7" width="35.8" height="4.9"/>
	<g clip-path="url(#SVGID_2_)">
		<defs>
			<rect id="SVGID_59_" x="-0.1" y="-0.9" width="736.8" height="543.1"/>
		</defs>
		<clipPath id="SVGID_60_">
			<use xlink:href="#SVGID_59_"  overflow="visible"/>
		</clipPath>
		<path clip-path="url(#SVGID_60_)" fill="#EBF0F5" d="M156.2,465.1c4.9,0,8.9-4,8.9-8.9c0-4.9-4-8.9-8.9-8.9c-4.9,0-8.9,4-8.9,8.9
			C147.3,461.1,151.3,465.1,156.2,465.1"/>
	</g>
	<g clip-path="url(#SVGID_2_)">
		<defs>
			<path id="SVGID_61_" d="M147.3,456.2c0,4.9,4,8.9,8.9,8.9c4.9,0,8.9-4,8.9-8.9c0-4.9-4-8.9-8.9-8.9
				C151.3,447.2,147.3,451.2,147.3,456.2"/>
		</defs>
		<clipPath id="SVGID_62_">
			<use xlink:href="#SVGID_61_"  overflow="visible"/>
		</clipPath>
		<path clip-path="url(#SVGID_62_)" fill="#879BAA" d="M156.2,457.9c1.6,0,2.6-1.2,2.6-3s-1.1-3-2.6-3c-1.6,0-2.6,1.2-2.6,3
			S154.7,457.9,156.2,457.9"/>
		<path clip-path="url(#SVGID_62_)" fill="#879BAA" d="M154.5,459L154.5,459L154.5,459l-1.8,0.1l0,0c-1,0.1-1.7,0.9-1.7,2
			c0,0,0,0,0,0v5.2h4.9h0.7h4.9v-5.2c0,0,0,0,0,0c0-1.2-0.7-2-1.7-2l0,0L158,459v0l0,0H154.5z"/>
	</g>
	<g clip-path="url(#SVGID_2_)">
		<defs>
			<rect id="SVGID_63_" x="-0.1" y="-0.9" width="736.8" height="543.1"/>
		</defs>
		<clipPath id="SVGID_64_">
			<use xlink:href="#SVGID_63_"  overflow="visible"/>
		</clipPath>
		<circle clip-path="url(#SVGID_64_)" fill="none" stroke="#50BED7" stroke-width="1.234" cx="156.2" cy="456.2" r="8.9"/>
		<g opacity="0.75" clip-path="url(#SVGID_64_)">
			<g>
				<defs>
					<rect id="SVGID_65_" x="226.9" y="343.1" width="108" height="154.3"/>
				</defs>
				<clipPath id="SVGID_66_">
					<use xlink:href="#SVGID_65_"  overflow="visible"/>
				</clipPath>
				<path clip-path="url(#SVGID_66_)" fill="#005F87" d="M262.2,350.1c0,0-26.2,0-26.2,26.2v93.8c0,0,0,26.2,26.2,26.2h37.5
					c0,0,26.2,0,26.2-26.2v-93.8c0,0,0-26.2-26.2-26.2H262.2z"/>
			</g>
		</g>
	</g>
	<g clip-path="url(#SVGID_2_)">
		<text transform="matrix(1 0 0 1 261.8752 371.8889)"><tspan x="0" y="0" fill="#FFFFFF" font-family="'SiemensSans-Roman'" font-size="14">S</tspan><tspan x="7.3" y="0" fill="#FFFFFF" font-family="'SiemensSans-Roman'" font-size="14">q</tspan><tspan x="15" y="0" fill="#FFFFFF" font-family="'SiemensSans-Roman'" font-size="14">uad</tspan></text>
	</g>
	<g clip-path="url(#SVGID_2_)">
		<defs>
			<rect id="SVGID_67_" x="-0.1" y="-0.9" width="736.8" height="543.1"/>
		</defs>
		<clipPath id="SVGID_68_">
			<use xlink:href="#SVGID_67_"  overflow="visible"/>
		</clipPath>
		<path clip-path="url(#SVGID_68_)" fill="#FFFFFF" d="M254.7,393c0,0-11,0-11,11v2.8c0,0,0,11,11,11h52.6c0,0,11,0,11-11V404
			c0,0,0-11-11-11H254.7z"/>
	</g>
	<rect x="271.4" y="399.1" clip-path="url(#SVGID_2_)" fill="#BECDD7" width="26" height="4.9"/>
	<rect x="271.4" y="407.3" clip-path="url(#SVGID_2_)" fill="#BECDD7" width="35.8" height="4.9"/>
	<g clip-path="url(#SVGID_2_)">
		<defs>
			<rect id="SVGID_69_" x="-0.1" y="-0.9" width="736.8" height="543.1"/>
		</defs>
		<clipPath id="SVGID_70_">
			<use xlink:href="#SVGID_69_"  overflow="visible"/>
		</clipPath>
		<path clip-path="url(#SVGID_70_)" fill="#EBF0F5" d="M256.2,414.5c4.9,0,8.9-4,8.9-8.9c0-4.9-4-8.9-8.9-8.9c-4.9,0-8.9,4-8.9,8.9
			C247.3,410.5,251.3,414.5,256.2,414.5"/>
	</g>
	<g clip-path="url(#SVGID_2_)">
		<defs>
			<path id="SVGID_71_" d="M247.3,405.5c0,4.9,4,8.9,8.9,8.9c4.9,0,9-4,9-8.9c0-4.9-4-8.9-9-8.9
				C251.3,396.6,247.3,400.6,247.3,405.5"/>
		</defs>
		<clipPath id="SVGID_72_">
			<use xlink:href="#SVGID_71_"  overflow="visible"/>
		</clipPath>
		<path clip-path="url(#SVGID_72_)" fill="#879BAA" d="M256.2,407.3c1.6,0,2.6-1.2,2.6-3s-1.1-3-2.6-3c-1.6,0-2.6,1.2-2.6,3
			S254.7,407.3,256.2,407.3"/>
		<path clip-path="url(#SVGID_72_)" fill="#879BAA" d="M254.5,408.4L254.5,408.4L254.5,408.4l-1.8,0.1l0,0c-1,0.1-1.7,0.9-1.7,2
			c0,0,0,0,0,0v5.2h4.9h0.7h4.9v-5.2c0,0,0,0,0,0c0-1.2-0.7-2-1.7-2l0,0l-1.8-0.1v0l0,0H254.5z"/>
	</g>
	<g clip-path="url(#SVGID_2_)">
		<defs>
			<rect id="SVGID_73_" x="-0.1" y="-0.9" width="736.8" height="543.1"/>
		</defs>
		<clipPath id="SVGID_74_">
			<use xlink:href="#SVGID_73_"  overflow="visible"/>
		</clipPath>
		<circle clip-path="url(#SVGID_74_)" fill="none" stroke="#50BED7" stroke-width="1.234" cx="256.2" cy="405.5" r="8.9"/>
		<path clip-path="url(#SVGID_74_)" fill="#FFFFFF" d="M254.7,443.6c0,0-11,0-11,11v2.8c0,0,0,11,11,11h52.6c0,0,11,0,11-11v-2.8
			c0,0,0-11-11-11H254.7z"/>
	</g>
	<rect x="271.4" y="449.7" clip-path="url(#SVGID_2_)" fill="#BECDD7" width="26" height="4.9"/>
	<rect x="271.4" y="457.9" clip-path="url(#SVGID_2_)" fill="#BECDD7" width="35.8" height="4.9"/>
	<g clip-path="url(#SVGID_2_)">
		<defs>
			<rect id="SVGID_75_" x="-0.1" y="-0.9" width="736.8" height="543.1"/>
		</defs>
		<clipPath id="SVGID_76_">
			<use xlink:href="#SVGID_75_"  overflow="visible"/>
		</clipPath>
		<path clip-path="url(#SVGID_76_)" fill="#EBF0F5" d="M256.2,465.1c4.9,0,8.9-4,8.9-8.9c0-4.9-4-8.9-8.9-8.9c-4.9,0-8.9,4-8.9,8.9
			C247.3,461.1,251.3,465.1,256.2,465.1"/>
	</g>
	<g clip-path="url(#SVGID_2_)">
		<defs>
			<path id="SVGID_77_" d="M247.3,456.2c0,4.9,4,8.9,8.9,8.9c4.9,0,9-4,9-8.9c0-4.9-4-8.9-9-8.9
				C251.3,447.2,247.3,451.2,247.3,456.2"/>
		</defs>
		<clipPath id="SVGID_78_">
			<use xlink:href="#SVGID_77_"  overflow="visible"/>
		</clipPath>
		<path clip-path="url(#SVGID_78_)" fill="#879BAA" d="M256.2,457.9c1.6,0,2.6-1.2,2.6-3s-1.1-3-2.6-3c-1.6,0-2.6,1.2-2.6,3
			S254.7,457.9,256.2,457.9"/>
		<path clip-path="url(#SVGID_78_)" fill="#879BAA" d="M254.5,459L254.5,459L254.5,459l-1.8,0.1l0,0c-1,0.1-1.7,0.9-1.7,2
			c0,0,0,0,0,0v5.2h4.9h0.7h4.9v-5.2c0,0,0,0,0,0c0-1.2-0.7-2-1.7-2l0,0L258,459v0l0,0H254.5z"/>
	</g>
	<g clip-path="url(#SVGID_2_)">
		<defs>
			<rect id="SVGID_79_" x="-0.1" y="-0.9" width="736.8" height="543.1"/>
		</defs>
		<clipPath id="SVGID_80_">
			<use xlink:href="#SVGID_79_"  overflow="visible"/>
		</clipPath>
		<circle clip-path="url(#SVGID_80_)" fill="none" stroke="#50BED7" stroke-width="1.234" cx="256.2" cy="456.2" r="8.9"/>
		<g opacity="0.75" clip-path="url(#SVGID_80_)">
			<g>
				<defs>
					<rect id="SVGID_81_" x="382.5" y="176.4" width="301.6" height="48.6"/>
				</defs>
				<clipPath id="SVGID_82_">
					<use xlink:href="#SVGID_81_"  overflow="visible"/>
				</clipPath>
				<path clip-path="url(#SVGID_82_)" fill="#50BED7" d="M406.2,183.4c0,0-14.7,0-14.7,14.7v11.2c0,0,0,14.7,14.7,14.7h254.1
					c0,0,14.7,0,14.7-14.7v-11.2c0,0,0-14.7-14.7-14.7H406.2z"/>
			</g>
		</g>
		<g opacity="0.75" clip-path="url(#SVGID_80_)">
			<g>
				<defs>
					<rect id="SVGID_83_" x="382.5" y="227.1" width="301.6" height="48.6"/>
				</defs>
				<clipPath id="SVGID_84_">
					<use xlink:href="#SVGID_83_"  overflow="visible"/>
				</clipPath>
				<path clip-path="url(#SVGID_84_)" fill="#50BED7" d="M406.2,234.1c0,0-14.7,0-14.7,14.7V260c0,0,0,14.7,14.7,14.7h254.1
					c0,0,14.7,0,14.7-14.7v-11.2c0,0,0-14.7-14.7-14.7H406.2z"/>
			</g>
		</g>
		<path clip-path="url(#SVGID_80_)" fill="#FFFFFF" d="M451.4,209.1v-4.5c0.1-0.4,0.3-0.7,0.5-1c0.4-0.5,0.9-0.8,1.4-0.8
			c0.1,0,0.2,0,0.4,0l0.1-1c-0.2,0-0.4-0.1-0.5-0.1c-0.5,0-0.9,0.1-1.2,0.4c-0.3,0.2-0.5,0.6-0.8,1l0-1.3h-1l0,0.3
			c0,0.9,0,1.8,0,2.7v4H451.4z M443.6,205c0-0.5,0.1-1,0.3-1.3c0.4-0.6,0.9-0.9,1.6-0.9c0.7,0,1.3,0.3,1.6,0.9
			c0.2,0.4,0.3,0.8,0.3,1.3H443.6z M448.5,205.8c0-1-0.1-1.8-0.4-2.4c-0.4-1-1.3-1.6-2.5-1.6c-0.8,0-1.5,0.2-2,0.7
			c-0.7,0.7-1.1,1.6-1.1,2.9c0,1.1,0.3,1.9,0.8,2.6c0.6,0.7,1.5,1.1,2.6,1.1c0.8,0,1.6-0.2,2.4-0.7l-0.4-0.8
			c-0.6,0.4-1.3,0.7-1.9,0.7c-0.8,0-1.3-0.3-1.7-0.8c-0.3-0.4-0.5-1-0.5-1.8H448.5z M438.7,206.9c0,0.8,0.1,1.3,0.3,1.6
			c0.3,0.4,0.8,0.7,1.5,0.7c0.4,0,0.7-0.1,1.1-0.2l-0.1-0.8c-0.3,0.1-0.6,0.2-0.8,0.2c-0.4,0-0.7-0.1-0.8-0.4
			c-0.1-0.2-0.1-0.6-0.1-1.2v-3.9h1.7V202h-1.7v-1.8l-1.1,0.2v1.6h-1.1v0.9h1.1V206.9z M431.7,204c0.5-0.9,1.1-1.3,1.9-1.3
			c0.6,0,1.1,0.3,1.4,0.8c0.3,0.5,0.5,1.2,0.5,2.1c0,0.8-0.1,1.4-0.4,2c-0.3,0.6-0.8,0.9-1.5,0.9c-0.5,0-0.9-0.2-1.3-0.6
			c-0.2-0.2-0.3-0.4-0.5-0.7V204z M431.7,212.1v-4c0.2,0.3,0.4,0.5,0.6,0.6c0.4,0.3,0.9,0.5,1.4,0.5c0.8,0,1.5-0.3,2-0.9
			c0.6-0.7,0.9-1.7,0.9-2.8c0-1.1-0.3-1.9-0.8-2.6c-0.5-0.7-1.2-1.1-2-1.1c-0.6,0-1,0.2-1.5,0.5c-0.2,0.2-0.4,0.4-0.7,0.7l0-1.1h-1
			l0,0.4c0,0.9,0,1.7,0,2.5v7.2H431.7z M427.2,207.3c-0.5,0.7-1.1,1.1-1.8,1.1c-0.4,0-0.7-0.1-1-0.3c-0.2-0.2-0.3-0.5-0.3-0.9
			c0-0.5,0.2-0.9,0.7-1.2c0.3-0.2,0.9-0.3,1.7-0.3c0.3,0,0.5,0,0.8,0V207.3z M427.3,209.1h1c0-0.5-0.1-1-0.1-1.8V205
			c0-0.4,0-0.7,0-0.9c0-0.6-0.1-1-0.3-1.3c-0.4-0.6-1.1-1-2.2-1c-0.9,0-1.7,0.2-2.4,0.7l0.5,0.8c0.6-0.4,1.3-0.6,1.8-0.6
			c0.7,0,1.2,0.2,1.4,0.7c0.1,0.3,0.2,0.7,0.2,1.2v0.2c-0.5,0-0.9,0-1,0c-0.9,0-1.6,0.1-2.1,0.3c-0.8,0.4-1.2,1.1-1.2,2
			c0,0.6,0.2,1.1,0.5,1.5c0.4,0.4,1,0.6,1.7,0.6c0.5,0,1-0.1,1.4-0.4c0.2-0.1,0.5-0.3,0.7-0.6L427.3,209.1z M416.4,209.1V204
			c0.7-0.9,1.5-1.3,2.2-1.3c0.6,0,1,0.3,1.2,0.8c0.1,0.3,0.2,0.8,0.2,1.5v4.1h1.1V205c0-0.3,0-0.6,0-0.9c0-0.5-0.1-0.9-0.3-1.2
			c-0.3-0.7-1-1-1.8-1c-0.9,0-1.8,0.4-2.6,1.2v-4.2h-1.1v10.2H416.4z M411.2,208.3c-0.6,0-1.1-0.1-1.5-0.3c-0.6-0.3-1.1-0.8-1.4-1.5
			c-0.3-0.6-0.4-1.4-0.4-2.1c0-1.1,0.3-2.1,0.8-2.9c0.6-0.8,1.4-1.2,2.4-1.2c0.7,0,1.4,0.2,2.2,0.6l0.4-0.9
			c-0.9-0.4-1.8-0.6-2.6-0.6c-0.7,0-1.4,0.1-2,0.4c-0.8,0.4-1.4,1-1.9,1.9c-0.4,0.8-0.6,1.7-0.6,2.7c0,1.5,0.4,2.7,1.3,3.6
			c0.8,0.9,1.9,1.3,3.2,1.3c0.8,0,1.7-0.2,2.6-0.5l-0.3-0.9C412.7,208.1,412,208.3,411.2,208.3"/>
		<path clip-path="url(#SVGID_80_)" fill="#FFFFFF" d="M451.4,259.7v-4.5c0.1-0.4,0.3-0.7,0.5-1c0.4-0.5,0.9-0.8,1.4-0.8
			c0.1,0,0.2,0,0.4,0l0.1-1c-0.2,0-0.4-0.1-0.5-0.1c-0.5,0-0.9,0.1-1.2,0.4c-0.3,0.2-0.5,0.6-0.8,1l0-1.3h-1l0,0.3
			c0,0.9,0,1.8,0,2.7v4H451.4z M443.6,255.6c0-0.5,0.1-1,0.3-1.3c0.4-0.6,0.9-0.9,1.6-0.9c0.7,0,1.3,0.3,1.6,0.9
			c0.2,0.4,0.3,0.8,0.3,1.3H443.6z M448.5,256.4c0-1-0.1-1.8-0.4-2.4c-0.4-1-1.3-1.6-2.5-1.6c-0.8,0-1.5,0.2-2,0.7
			c-0.7,0.7-1.1,1.6-1.1,2.9c0,1.1,0.3,1.9,0.8,2.6c0.6,0.7,1.5,1.1,2.6,1.1c0.8,0,1.6-0.2,2.4-0.7l-0.4-0.8
			c-0.6,0.4-1.3,0.7-1.9,0.7c-0.8,0-1.3-0.3-1.7-0.8c-0.3-0.4-0.5-1-0.5-1.8H448.5z M438.7,257.6c0,0.8,0.1,1.3,0.3,1.6
			c0.3,0.4,0.8,0.7,1.5,0.7c0.4,0,0.7-0.1,1.1-0.2l-0.1-0.8c-0.3,0.1-0.6,0.2-0.8,0.2c-0.4,0-0.7-0.1-0.8-0.4
			c-0.1-0.2-0.1-0.6-0.1-1.2v-3.9h1.7v-0.9h-1.7v-1.8l-1.1,0.2v1.6h-1.1v0.9h1.1V257.6z M431.7,254.6c0.5-0.9,1.1-1.3,1.9-1.3
			c0.6,0,1.1,0.3,1.4,0.8c0.3,0.5,0.5,1.2,0.5,2.1c0,0.8-0.1,1.4-0.4,2c-0.3,0.6-0.8,0.9-1.5,0.9c-0.5,0-0.9-0.2-1.3-0.6
			c-0.2-0.2-0.3-0.4-0.5-0.7V254.6z M431.7,262.7v-4c0.2,0.3,0.4,0.5,0.6,0.6c0.4,0.3,0.9,0.5,1.4,0.5c0.8,0,1.5-0.3,2-0.9
			c0.6-0.7,0.9-1.7,0.9-2.8c0-1.1-0.3-1.9-0.8-2.6c-0.5-0.7-1.2-1.1-2-1.1c-0.6,0-1,0.2-1.5,0.5c-0.2,0.2-0.4,0.4-0.7,0.7l0-1.1h-1
			l0,0.4c0,0.9,0,1.7,0,2.5v7.2H431.7z M427.2,257.9c-0.5,0.7-1.1,1.1-1.8,1.1c-0.4,0-0.7-0.1-1-0.3c-0.2-0.2-0.3-0.5-0.3-0.9
			c0-0.5,0.2-0.9,0.7-1.2c0.3-0.2,0.9-0.3,1.7-0.3c0.3,0,0.5,0,0.8,0V257.9z M427.3,259.7h1c0-0.5-0.1-1-0.1-1.8v-2.3
			c0-0.4,0-0.7,0-0.9c0-0.6-0.1-1-0.3-1.3c-0.4-0.6-1.1-1-2.2-1c-0.9,0-1.7,0.2-2.4,0.7l0.5,0.8c0.6-0.4,1.3-0.6,1.8-0.6
			c0.7,0,1.2,0.2,1.4,0.7c0.1,0.3,0.2,0.7,0.2,1.2v0.2c-0.5,0-0.9,0-1,0c-0.9,0-1.6,0.1-2.1,0.3c-0.8,0.4-1.2,1.1-1.2,2
			c0,0.6,0.2,1.1,0.5,1.5c0.4,0.4,1,0.6,1.7,0.6c0.5,0,1-0.1,1.4-0.4c0.2-0.1,0.5-0.3,0.7-0.6L427.3,259.7z M416.4,259.7v-5.1
			c0.7-0.9,1.5-1.3,2.2-1.3c0.6,0,1,0.3,1.2,0.8c0.1,0.3,0.2,0.8,0.2,1.5v4.1h1.1v-4.1c0-0.3,0-0.6,0-0.9c0-0.5-0.1-0.9-0.3-1.2
			c-0.3-0.7-1-1-1.8-1c-0.9,0-1.8,0.4-2.6,1.2v-4.2h-1.1v10.2H416.4z M411.2,258.9c-0.6,0-1.1-0.1-1.5-0.3c-0.6-0.3-1.1-0.8-1.4-1.5
			c-0.3-0.6-0.4-1.4-0.4-2.1c0-1.1,0.3-2.1,0.8-2.9c0.6-0.8,1.4-1.2,2.4-1.2c0.7,0,1.4,0.2,2.2,0.6l0.4-0.9
			c-0.9-0.4-1.8-0.6-2.6-0.6c-0.7,0-1.4,0.1-2,0.4c-0.8,0.4-1.4,1-1.9,1.9c-0.4,0.8-0.6,1.7-0.6,2.7c0,1.5,0.4,2.7,1.3,3.6
			c0.8,0.9,1.9,1.3,3.2,1.3c0.8,0,1.7-0.2,2.6-0.5l-0.3-0.9C412.7,258.7,412,258.9,411.2,258.9"/>
		<g opacity="0.75" clip-path="url(#SVGID_80_)">
			<g>
				<defs>
					<rect id="SVGID_85_" x="456" y="143.9" width="108" height="154.3"/>
				</defs>
				<clipPath id="SVGID_86_">
					<use xlink:href="#SVGID_85_"  overflow="visible"/>
				</clipPath>
				<path clip-path="url(#SVGID_86_)" fill="#005F87" d="M491.3,150.9c0,0-26.2,0-26.2,26.2V271c0,0,0,26.2,26.2,26.2h37.5
					c0,0,26.2,0,26.2-26.2v-93.8c0,0,0-26.2-26.2-26.2H491.3z"/>
			</g>
		</g>
	</g>
	<g clip-path="url(#SVGID_2_)">
		<text transform="matrix(1 0 0 1 490.9826 172.7766)"><tspan x="0" y="0" fill="#FFFFFF" font-family="'SiemensSans-Roman'" font-size="14">S</tspan><tspan x="7.3" y="0" fill="#FFFFFF" font-family="'SiemensSans-Roman'" font-size="14">q</tspan><tspan x="15" y="0" fill="#FFFFFF" font-family="'SiemensSans-Roman'" font-size="14">uad</tspan></text>
	</g>
	<g clip-path="url(#SVGID_2_)">
		<defs>
			<rect id="SVGID_87_" x="-0.1" y="-0.9" width="736.8" height="543.1"/>
		</defs>
		<clipPath id="SVGID_88_">
			<use xlink:href="#SVGID_87_"  overflow="visible"/>
		</clipPath>
		<path clip-path="url(#SVGID_88_)" fill="#FFFFFF" d="M483.8,193.8c0,0-11,0-11,11v2.8c0,0,0,11,11,11h52.6c0,0,11,0,11-11v-2.8
			c0,0,0-11-11-11H483.8z"/>
	</g>
	<rect x="500.5" y="200" clip-path="url(#SVGID_2_)" fill="#BECDD7" width="26" height="4.9"/>
	<rect x="500.5" y="208.2" clip-path="url(#SVGID_2_)" fill="#BECDD7" width="35.8" height="4.9"/>
	<g clip-path="url(#SVGID_2_)">
		<defs>
			<rect id="SVGID_89_" x="-0.1" y="-0.9" width="736.8" height="543.1"/>
		</defs>
		<clipPath id="SVGID_90_">
			<use xlink:href="#SVGID_89_"  overflow="visible"/>
		</clipPath>
		<path clip-path="url(#SVGID_90_)" fill="#EBF0F5" d="M485.3,215.4c4.9,0,8.9-4,8.9-8.9c0-4.9-4-8.9-8.9-8.9c-4.9,0-8.9,4-8.9,8.9
			C476.4,211.3,480.4,215.4,485.3,215.4"/>
	</g>
	<g clip-path="url(#SVGID_2_)">
		<defs>
			<path id="SVGID_91_" d="M476.4,206.4c0,4.9,4,8.9,8.9,8.9c4.9,0,8.9-4,8.9-8.9c0-4.9-4-8.9-8.9-8.9
				C480.4,197.5,476.4,201.5,476.4,206.4"/>
		</defs>
		<clipPath id="SVGID_92_">
			<use xlink:href="#SVGID_91_"  overflow="visible"/>
		</clipPath>
		<path clip-path="url(#SVGID_92_)" fill="#879BAA" d="M485.3,208.1c1.6,0,2.6-1.2,2.6-3s-1.1-3-2.6-3c-1.6,0-2.6,1.2-2.6,3
			S483.8,208.1,485.3,208.1"/>
		<path clip-path="url(#SVGID_92_)" fill="#879BAA" d="M483.6,209.3L483.6,209.3L483.6,209.3l-1.8,0.1l0,0c-1,0.1-1.7,0.9-1.7,2
			c0,0,0,0,0,0v5.2h4.9h0.7h4.9v-5.2c0,0,0,0,0,0c0-1.2-0.7-2-1.7-2l0,0l-1.8-0.1v0l0,0H483.6z"/>
	</g>
	<g clip-path="url(#SVGID_2_)">
		<defs>
			<rect id="SVGID_93_" x="-0.1" y="-0.9" width="736.8" height="543.1"/>
		</defs>
		<clipPath id="SVGID_94_">
			<use xlink:href="#SVGID_93_"  overflow="visible"/>
		</clipPath>
		<circle clip-path="url(#SVGID_94_)" fill="none" stroke="#50BED7" stroke-width="1.234" cx="485.3" cy="206.4" r="8.9"/>
		<path clip-path="url(#SVGID_94_)" fill="#FFFFFF" d="M483.8,244.5c0,0-11,0-11,11v2.8c0,0,0,11,11,11h52.6c0,0,11,0,11-11v-2.8
			c0,0,0-11-11-11H483.8z"/>
	</g>
	<rect x="500.5" y="250.6" clip-path="url(#SVGID_2_)" fill="#BECDD7" width="26" height="4.9"/>
	<rect x="500.5" y="258.8" clip-path="url(#SVGID_2_)" fill="#BECDD7" width="35.8" height="4.9"/>
	<g clip-path="url(#SVGID_2_)">
		<defs>
			<rect id="SVGID_95_" x="-0.1" y="-0.9" width="736.8" height="543.1"/>
		</defs>
		<clipPath id="SVGID_96_">
			<use xlink:href="#SVGID_95_"  overflow="visible"/>
		</clipPath>
		<path clip-path="url(#SVGID_96_)" fill="#EBF0F5" d="M485.3,266c4.9,0,8.9-4,8.9-8.9c0-4.9-4-8.9-8.9-8.9c-4.9,0-8.9,4-8.9,8.9
			C476.4,262,480.4,266,485.3,266"/>
	</g>
	<g clip-path="url(#SVGID_2_)">
		<defs>
			<path id="SVGID_97_" d="M476.4,257c0,4.9,4,8.9,8.9,8.9c4.9,0,8.9-4,8.9-8.9c0-4.9-4-8.9-8.9-8.9
				C480.4,248.1,476.4,252.1,476.4,257"/>
		</defs>
		<clipPath id="SVGID_98_">
			<use xlink:href="#SVGID_97_"  overflow="visible"/>
		</clipPath>
		<path clip-path="url(#SVGID_98_)" fill="#879BAA" d="M485.3,258.8c1.6,0,2.6-1.2,2.6-3c0-1.8-1.1-3-2.6-3c-1.6,0-2.6,1.2-2.6,3
			C482.7,257.6,483.8,258.8,485.3,258.8"/>
		<path clip-path="url(#SVGID_98_)" fill="#879BAA" d="M483.6,259.9L483.6,259.9L483.6,259.9l-1.8,0.1l0,0c-1,0.1-1.7,0.9-1.7,2
			c0,0,0,0,0,0v5.2h4.9h0.7h4.9v-5.2c0,0,0,0,0,0c0-1.2-0.7-2-1.7-2l0,0l-1.8-0.1v0l0,0H483.6z"/>
	</g>
	<g clip-path="url(#SVGID_2_)">
		<defs>
			<rect id="SVGID_99_" x="-0.1" y="-0.9" width="736.8" height="543.1"/>
		</defs>
		<clipPath id="SVGID_100_">
			<use xlink:href="#SVGID_99_"  overflow="visible"/>
		</clipPath>
		<circle clip-path="url(#SVGID_100_)" fill="none" stroke="#50BED7" stroke-width="1.234" cx="485.3" cy="257" r="8.9"/>
		<g opacity="0.75" clip-path="url(#SVGID_100_)">
			<g>
				<defs>
					<rect id="SVGID_101_" x="556" y="143.9" width="108" height="154.3"/>
				</defs>
				<clipPath id="SVGID_102_">
					<use xlink:href="#SVGID_101_"  overflow="visible"/>
				</clipPath>
				<path clip-path="url(#SVGID_102_)" fill="#005F87" d="M591.3,150.9c0,0-26.2,0-26.2,26.2V271c0,0,0,26.2,26.2,26.2h37.5
					c0,0,26.2,0,26.2-26.2v-93.8c0,0,0-26.2-26.2-26.2H591.3z"/>
			</g>
		</g>
	</g>
	<g clip-path="url(#SVGID_2_)">
		<text transform="matrix(1 0 0 1 590.9816 172.7766)"><tspan x="0" y="0" fill="#FFFFFF" font-family="'SiemensSans-Roman'" font-size="14">S</tspan><tspan x="7.3" y="0" fill="#FFFFFF" font-family="'SiemensSans-Roman'" font-size="14">q</tspan><tspan x="15" y="0" fill="#FFFFFF" font-family="'SiemensSans-Roman'" font-size="14">uad</tspan></text>
	</g>
	<g clip-path="url(#SVGID_2_)">
		<defs>
			<rect id="SVGID_103_" x="-0.1" y="-0.9" width="736.8" height="543.1"/>
		</defs>
		<clipPath id="SVGID_104_">
			<use xlink:href="#SVGID_103_"  overflow="visible"/>
		</clipPath>
		<path clip-path="url(#SVGID_104_)" fill="#FFFFFF" d="M583.8,193.8c0,0-11,0-11,11v2.8c0,0,0,11,11,11h52.6c0,0,11,0,11-11v-2.8
			c0,0,0-11-11-11H583.8z"/>
	</g>
	<rect x="600.5" y="200" clip-path="url(#SVGID_2_)" fill="#BECDD7" width="26" height="4.9"/>
	<rect x="600.5" y="208.2" clip-path="url(#SVGID_2_)" fill="#BECDD7" width="35.8" height="4.9"/>
	<g clip-path="url(#SVGID_2_)">
		<defs>
			<rect id="SVGID_105_" x="-0.1" y="-0.9" width="736.8" height="543.1"/>
		</defs>
		<clipPath id="SVGID_106_">
			<use xlink:href="#SVGID_105_"  overflow="visible"/>
		</clipPath>
		<path clip-path="url(#SVGID_106_)" fill="#EBF0F5" d="M585.3,215.4c4.9,0,8.9-4,8.9-8.9c0-4.9-4-8.9-8.9-8.9c-4.9,0-8.9,4-8.9,8.9
			C576.4,211.3,580.4,215.4,585.3,215.4"/>
	</g>
	<g clip-path="url(#SVGID_2_)">
		<defs>
			<path id="SVGID_107_" d="M576.4,206.4c0,4.9,4,8.9,9,8.9c4.9,0,8.9-4,8.9-8.9c0-4.9-4-8.9-8.9-8.9
				C580.4,197.5,576.4,201.5,576.4,206.4"/>
		</defs>
		<clipPath id="SVGID_108_">
			<use xlink:href="#SVGID_107_"  overflow="visible"/>
		</clipPath>
		<path clip-path="url(#SVGID_108_)" fill="#879BAA" d="M585.3,208.1c1.6,0,2.6-1.2,2.6-3s-1.1-3-2.6-3c-1.6,0-2.6,1.2-2.6,3
			S583.8,208.1,585.3,208.1"/>
		<path clip-path="url(#SVGID_108_)" fill="#879BAA" d="M583.6,209.3L583.6,209.3L583.6,209.3l-1.8,0.1l0,0c-1,0.1-1.7,0.9-1.7,2
			c0,0,0,0,0,0v5.2h4.9h0.7h4.9v-5.2c0,0,0,0,0,0c0-1.2-0.7-2-1.7-2l0,0l-1.8-0.1v0l0,0H583.6z"/>
	</g>
	<g clip-path="url(#SVGID_2_)">
		<defs>
			<rect id="SVGID_109_" x="-0.1" y="-0.9" width="736.8" height="543.1"/>
		</defs>
		<clipPath id="SVGID_110_">
			<use xlink:href="#SVGID_109_"  overflow="visible"/>
		</clipPath>
		<circle clip-path="url(#SVGID_110_)" fill="none" stroke="#50BED7" stroke-width="1.234" cx="585.3" cy="206.4" r="8.9"/>
		<path clip-path="url(#SVGID_110_)" fill="#FFFFFF" d="M583.8,244.5c0,0-11,0-11,11v2.8c0,0,0,11,11,11h52.6c0,0,11,0,11-11v-2.8
			c0,0,0-11-11-11H583.8z"/>
	</g>
	<rect x="600.5" y="250.6" clip-path="url(#SVGID_2_)" fill="#BECDD7" width="26" height="4.9"/>
	<rect x="600.5" y="258.8" clip-path="url(#SVGID_2_)" fill="#BECDD7" width="35.8" height="4.9"/>
	<g clip-path="url(#SVGID_2_)">
		<defs>
			<rect id="SVGID_111_" x="-0.1" y="-0.9" width="736.8" height="543.1"/>
		</defs>
		<clipPath id="SVGID_112_">
			<use xlink:href="#SVGID_111_"  overflow="visible"/>
		</clipPath>
		<path clip-path="url(#SVGID_112_)" fill="#EBF0F5" d="M585.3,266c4.9,0,8.9-4,8.9-8.9c0-4.9-4-8.9-8.9-8.9c-4.9,0-8.9,4-8.9,8.9
			C576.4,262,580.4,266,585.3,266"/>
	</g>
	<g clip-path="url(#SVGID_2_)">
		<defs>
			<path id="SVGID_113_" d="M576.4,257c0,4.9,4,8.9,9,8.9c4.9,0,8.9-4,8.9-8.9c0-4.9-4-8.9-8.9-8.9
				C580.4,248.1,576.4,252.1,576.4,257"/>
		</defs>
		<clipPath id="SVGID_114_">
			<use xlink:href="#SVGID_113_"  overflow="visible"/>
		</clipPath>
		<path clip-path="url(#SVGID_114_)" fill="#879BAA" d="M585.3,258.8c1.6,0,2.6-1.2,2.6-3c0-1.8-1.1-3-2.6-3c-1.6,0-2.6,1.2-2.6,3
			C582.7,257.6,583.8,258.8,585.3,258.8"/>
		<path clip-path="url(#SVGID_114_)" fill="#879BAA" d="M583.6,259.9L583.6,259.9L583.6,259.9l-1.8,0.1l0,0c-1,0.1-1.7,0.9-1.7,2
			c0,0,0,0,0,0v5.2h4.9h0.7h4.9v-5.2c0,0,0,0,0,0c0-1.2-0.7-2-1.7-2l0,0l-1.8-0.1v0l0,0H583.6z"/>
	</g>
	<g clip-path="url(#SVGID_2_)">
		<defs>
			<rect id="SVGID_115_" x="-0.1" y="-0.9" width="736.8" height="543.1"/>
		</defs>
		<clipPath id="SVGID_116_">
			<use xlink:href="#SVGID_115_"  overflow="visible"/>
		</clipPath>
		<circle clip-path="url(#SVGID_116_)" fill="none" stroke="#50BED7" stroke-width="1.234" cx="585.3" cy="257" r="8.9"/>
		<g opacity="0.75" clip-path="url(#SVGID_116_)">
			<g>
				<defs>
					<rect id="SVGID_117_" x="382.5" y="375.5" width="301.6" height="48.6"/>
				</defs>
				<clipPath id="SVGID_118_">
					<use xlink:href="#SVGID_117_"  overflow="visible"/>
				</clipPath>
				<path clip-path="url(#SVGID_118_)" fill="#50BED7" d="M406.2,382.5c0,0-14.7,0-14.7,14.7v11.2c0,0,0,14.7,14.7,14.7h254.1
					c0,0,14.7,0,14.7-14.7v-11.2c0,0,0-14.7-14.7-14.7H406.2z"/>
			</g>
		</g>
		<g opacity="0.75" clip-path="url(#SVGID_116_)">
			<g>
				<defs>
					<rect id="SVGID_119_" x="382.5" y="426.2" width="301.6" height="48.6"/>
				</defs>
				<clipPath id="SVGID_120_">
					<use xlink:href="#SVGID_119_"  overflow="visible"/>
				</clipPath>
				<path clip-path="url(#SVGID_120_)" fill="#50BED7" d="M406.2,433.2c0,0-14.7,0-14.7,14.7v11.2c0,0,0,14.7,14.7,14.7h254.1
					c0,0,14.7,0,14.7-14.7v-11.2c0,0,0-14.7-14.7-14.7H406.2z"/>
			</g>
		</g>
		<path clip-path="url(#SVGID_116_)" fill="#FFFFFF" d="M451.4,408.2v-4.5c0.1-0.4,0.3-0.7,0.5-1c0.4-0.5,0.9-0.8,1.4-0.8
			c0.1,0,0.2,0,0.4,0l0.1-1c-0.2,0-0.4-0.1-0.5-0.1c-0.5,0-0.9,0.1-1.2,0.4c-0.3,0.2-0.5,0.6-0.8,1l0-1.3h-1l0,0.3
			c0,0.9,0,1.8,0,2.7v4H451.4z M443.6,404.1c0-0.5,0.1-1,0.3-1.3c0.4-0.6,0.9-0.9,1.6-0.9c0.7,0,1.3,0.3,1.6,1
			c0.2,0.4,0.3,0.8,0.3,1.3H443.6z M448.5,404.9c0-1-0.1-1.8-0.4-2.4c-0.4-1-1.3-1.6-2.5-1.6c-0.8,0-1.5,0.2-2,0.7
			c-0.7,0.7-1.1,1.6-1.1,2.9c0,1.1,0.3,1.9,0.8,2.6c0.6,0.7,1.5,1.1,2.6,1.1c0.8,0,1.6-0.2,2.4-0.7l-0.4-0.8
			c-0.6,0.4-1.3,0.7-1.9,0.7c-0.8,0-1.3-0.3-1.7-0.8c-0.3-0.4-0.5-1-0.5-1.8H448.5z M438.7,406c0,0.8,0.1,1.3,0.3,1.6
			c0.3,0.4,0.8,0.7,1.5,0.7c0.4,0,0.7-0.1,1.1-0.2l-0.1-0.8c-0.3,0.1-0.6,0.2-0.8,0.2c-0.4,0-0.7-0.1-0.8-0.4
			c-0.1-0.2-0.1-0.6-0.1-1.2v-3.9h1.7v-0.9h-1.7v-1.8l-1.1,0.2v1.6h-1.1v0.9h1.1V406z M431.7,403.1c0.5-0.9,1.1-1.3,1.9-1.3
			c0.6,0,1.1,0.3,1.4,0.8c0.3,0.5,0.5,1.2,0.5,2.1c0,0.8-0.1,1.4-0.4,2c-0.3,0.6-0.8,0.9-1.5,0.9c-0.5,0-0.9-0.2-1.3-0.6
			c-0.2-0.2-0.3-0.4-0.5-0.7V403.1z M431.7,411.2v-4c0.2,0.3,0.4,0.5,0.6,0.6c0.4,0.3,0.9,0.5,1.4,0.5c0.8,0,1.5-0.3,2-0.9
			c0.6-0.7,0.9-1.7,0.9-2.8c0-1.1-0.3-1.9-0.8-2.6c-0.5-0.7-1.2-1.1-2-1.1c-0.6,0-1,0.2-1.5,0.5c-0.2,0.2-0.4,0.4-0.7,0.7l0-1.1h-1
			l0,0.4c0,0.9,0,1.7,0,2.5v7.2H431.7z M427.2,406.4c-0.5,0.7-1.1,1.1-1.8,1.1c-0.4,0-0.7-0.1-1-0.3c-0.2-0.2-0.3-0.5-0.3-0.9
			c0-0.5,0.2-0.9,0.7-1.2c0.3-0.2,0.9-0.3,1.7-0.3c0.3,0,0.5,0,0.8,0V406.4z M427.3,408.2h1c0-0.5-0.1-1-0.1-1.8v-2.3
			c0-0.4,0-0.7,0-0.9c0-0.6-0.1-1-0.3-1.3c-0.4-0.6-1.1-1-2.2-1c-0.9,0-1.7,0.2-2.4,0.7l0.5,0.8c0.6-0.4,1.3-0.6,1.8-0.6
			c0.7,0,1.2,0.2,1.4,0.7c0.1,0.3,0.2,0.7,0.2,1.2v0.2c-0.5,0-0.9,0-1,0c-0.9,0-1.6,0.1-2.1,0.3c-0.8,0.4-1.2,1.1-1.2,2
			c0,0.6,0.2,1.1,0.5,1.5c0.4,0.4,1,0.6,1.7,0.6c0.5,0,1-0.1,1.4-0.4c0.2-0.1,0.5-0.3,0.7-0.6L427.3,408.2z M416.4,408.2v-5.1
			c0.7-0.9,1.5-1.3,2.2-1.3c0.6,0,1,0.3,1.2,0.8c0.1,0.3,0.2,0.8,0.2,1.5v4.1h1.1v-4.1c0-0.3,0-0.6,0-0.9c0-0.5-0.1-0.9-0.3-1.2
			c-0.3-0.7-1-1-1.8-1c-0.9,0-1.8,0.4-2.6,1.2v-4.2h-1.1v10.2H416.4z M411.2,407.4c-0.6,0-1.1-0.1-1.5-0.3c-0.6-0.3-1.1-0.8-1.4-1.5
			c-0.3-0.6-0.4-1.4-0.4-2.1c0-1.1,0.3-2.1,0.8-2.9c0.6-0.8,1.4-1.2,2.4-1.2c0.7,0,1.4,0.2,2.2,0.6l0.4-0.9
			c-0.9-0.4-1.8-0.6-2.6-0.6c-0.7,0-1.4,0.1-2,0.4c-0.8,0.4-1.4,1-1.9,1.9c-0.4,0.8-0.6,1.7-0.6,2.7c0,1.5,0.4,2.7,1.3,3.6
			c0.8,0.9,1.9,1.3,3.2,1.3c0.8,0,1.7-0.2,2.6-0.5l-0.3-0.9C412.7,407.2,412,407.4,411.2,407.4"/>
		<path clip-path="url(#SVGID_116_)" fill="#FFFFFF" d="M451.4,458.8v-4.5c0.1-0.4,0.3-0.7,0.5-1c0.4-0.5,0.9-0.8,1.4-0.8
			c0.1,0,0.2,0,0.4,0l0.1-1c-0.2,0-0.4-0.1-0.5-0.1c-0.5,0-0.9,0.1-1.2,0.4c-0.3,0.2-0.5,0.6-0.8,1l0-1.3h-1l0,0.3
			c0,0.9,0,1.8,0,2.7v4H451.4z M443.6,454.7c0-0.5,0.1-1,0.3-1.3c0.4-0.6,0.9-0.9,1.6-0.9c0.7,0,1.3,0.3,1.6,0.9
			c0.2,0.4,0.3,0.8,0.3,1.3H443.6z M448.5,455.6c0-1-0.1-1.8-0.4-2.4c-0.4-1-1.3-1.6-2.5-1.6c-0.8,0-1.5,0.2-2,0.7
			c-0.7,0.7-1.1,1.6-1.1,2.9c0,1.1,0.3,1.9,0.8,2.6c0.6,0.7,1.5,1.1,2.6,1.1c0.8,0,1.6-0.2,2.4-0.7l-0.4-0.8
			c-0.6,0.4-1.3,0.7-1.9,0.7c-0.8,0-1.3-0.3-1.7-0.8c-0.3-0.4-0.5-1-0.5-1.8H448.5z M438.7,456.7c0,0.8,0.1,1.3,0.3,1.6
			c0.3,0.4,0.8,0.7,1.5,0.7c0.4,0,0.7-0.1,1.1-0.2l-0.1-0.8c-0.3,0.1-0.6,0.2-0.8,0.2c-0.4,0-0.7-0.1-0.8-0.4
			c-0.1-0.2-0.1-0.6-0.1-1.2v-3.9h1.7v-0.9h-1.7v-1.8l-1.1,0.2v1.6h-1.1v0.9h1.1V456.7z M431.7,453.7c0.5-0.9,1.1-1.3,1.9-1.3
			c0.6,0,1.1,0.3,1.4,0.8c0.3,0.5,0.5,1.2,0.5,2.1c0,0.8-0.1,1.4-0.4,2c-0.3,0.6-0.8,0.9-1.5,0.9c-0.5,0-0.9-0.2-1.3-0.6
			c-0.2-0.2-0.3-0.4-0.5-0.7V453.7z M431.7,461.8v-4c0.2,0.3,0.4,0.5,0.6,0.6c0.4,0.3,0.9,0.5,1.4,0.5c0.8,0,1.5-0.3,2-0.9
			c0.6-0.7,0.9-1.7,0.9-2.8c0-1.1-0.3-1.9-0.8-2.6c-0.5-0.7-1.2-1.1-2-1.1c-0.6,0-1,0.2-1.5,0.5c-0.2,0.2-0.4,0.4-0.7,0.7l0-1.1h-1
			l0,0.4c0,0.9,0,1.7,0,2.5v7.2H431.7z M427.2,457c-0.5,0.7-1.1,1.1-1.8,1.1c-0.4,0-0.7-0.1-1-0.3c-0.2-0.2-0.3-0.5-0.3-0.9
			c0-0.5,0.2-0.9,0.7-1.2c0.3-0.2,0.9-0.3,1.7-0.3c0.3,0,0.5,0,0.8,0V457z M427.3,458.8h1c0-0.5-0.1-1-0.1-1.8v-2.3
			c0-0.4,0-0.7,0-0.9c0-0.6-0.1-1-0.3-1.3c-0.4-0.6-1.1-1-2.2-1c-0.9,0-1.7,0.2-2.4,0.7l0.5,0.8c0.6-0.4,1.3-0.6,1.8-0.6
			c0.7,0,1.2,0.2,1.4,0.7c0.1,0.3,0.2,0.7,0.2,1.2v0.2c-0.5,0-0.9,0-1,0c-0.9,0-1.6,0.1-2.1,0.3c-0.8,0.4-1.2,1.1-1.2,2
			c0,0.6,0.2,1.1,0.5,1.5c0.4,0.4,1,0.6,1.7,0.6c0.5,0,1-0.1,1.4-0.4c0.2-0.1,0.5-0.3,0.7-0.6L427.3,458.8z M416.4,458.8v-5.1
			c0.7-0.9,1.5-1.3,2.2-1.3c0.6,0,1,0.3,1.2,0.8c0.1,0.3,0.2,0.8,0.2,1.5v4.1h1.1v-4.1c0-0.3,0-0.6,0-0.9c0-0.5-0.1-0.9-0.3-1.2
			c-0.3-0.7-1-1-1.8-1c-0.9,0-1.8,0.4-2.6,1.2v-4.2h-1.1v10.2H416.4z M411.2,458c-0.6,0-1.1-0.1-1.5-0.3c-0.6-0.3-1.1-0.8-1.4-1.5
			c-0.3-0.6-0.4-1.4-0.4-2.1c0-1.1,0.3-2.1,0.8-2.9c0.6-0.8,1.4-1.2,2.4-1.2c0.7,0,1.4,0.2,2.2,0.6l0.4-0.9
			c-0.9-0.4-1.8-0.6-2.6-0.6c-0.7,0-1.4,0.1-2,0.4c-0.8,0.4-1.4,1-1.9,1.9c-0.4,0.8-0.6,1.7-0.6,2.7c0,1.5,0.4,2.7,1.3,3.6
			c0.8,0.9,1.9,1.3,3.2,1.3c0.8,0,1.7-0.2,2.6-0.5l-0.3-0.9C412.7,457.9,412,458,411.2,458"/>
		<g opacity="0.75" clip-path="url(#SVGID_116_)">
			<g>
				<defs>
					<rect id="SVGID_121_" x="456" y="343.1" width="108" height="154.3"/>
				</defs>
				<clipPath id="SVGID_122_">
					<use xlink:href="#SVGID_121_"  overflow="visible"/>
				</clipPath>
				<path clip-path="url(#SVGID_122_)" fill="#005F87" d="M491.3,350.1c0,0-26.2,0-26.2,26.2v93.8c0,0,0,26.2,26.2,26.2h37.5
					c0,0,26.2,0,26.2-26.2v-93.8c0,0,0-26.2-26.2-26.2H491.3z"/>
			</g>
		</g>
	</g>
	<g clip-path="url(#SVGID_2_)">
		<text transform="matrix(1 0 0 1 490.9826 371.8889)"><tspan x="0" y="0" fill="#FFFFFF" font-family="'SiemensSans-Roman'" font-size="14">S</tspan><tspan x="7.3" y="0" fill="#FFFFFF" font-family="'SiemensSans-Roman'" font-size="14">q</tspan><tspan x="15" y="0" fill="#FFFFFF" font-family="'SiemensSans-Roman'" font-size="14">uad</tspan></text>
	</g>
	<g clip-path="url(#SVGID_2_)">
		<defs>
			<rect id="SVGID_123_" x="-0.1" y="-0.9" width="736.8" height="543.1"/>
		</defs>
		<clipPath id="SVGID_124_">
			<use xlink:href="#SVGID_123_"  overflow="visible"/>
		</clipPath>
		<path clip-path="url(#SVGID_124_)" fill="#FFFFFF" d="M483.8,393c0,0-11,0-11,11v2.8c0,0,0,11,11,11h52.6c0,0,11,0,11-11V404
			c0,0,0-11-11-11H483.8z"/>
	</g>
	<rect x="500.5" y="399.1" clip-path="url(#SVGID_2_)" fill="#BECDD7" width="26" height="4.9"/>
	<rect x="500.5" y="407.3" clip-path="url(#SVGID_2_)" fill="#BECDD7" width="35.8" height="4.9"/>
	<g clip-path="url(#SVGID_2_)">
		<defs>
			<rect id="SVGID_125_" x="-0.1" y="-0.9" width="736.8" height="543.1"/>
		</defs>
		<clipPath id="SVGID_126_">
			<use xlink:href="#SVGID_125_"  overflow="visible"/>
		</clipPath>
		<path clip-path="url(#SVGID_126_)" fill="#EBF0F5" d="M485.3,414.5c4.9,0,8.9-4,8.9-8.9c0-4.9-4-8.9-8.9-8.9c-4.9,0-8.9,4-8.9,8.9
			C476.4,410.5,480.4,414.5,485.3,414.5"/>
	</g>
	<g clip-path="url(#SVGID_2_)">
		<defs>
			<path id="SVGID_127_" d="M476.4,405.5c0,4.9,4,8.9,8.9,8.9c4.9,0,8.9-4,8.9-8.9c0-4.9-4-8.9-8.9-8.9
				C480.4,396.6,476.4,400.6,476.4,405.5"/>
		</defs>
		<clipPath id="SVGID_128_">
			<use xlink:href="#SVGID_127_"  overflow="visible"/>
		</clipPath>
		<path clip-path="url(#SVGID_128_)" fill="#879BAA" d="M485.3,407.3c1.6,0,2.6-1.2,2.6-3s-1.1-3-2.6-3c-1.6,0-2.6,1.2-2.6,3
			S483.8,407.3,485.3,407.3"/>
		<path clip-path="url(#SVGID_128_)" fill="#879BAA" d="M483.6,408.4L483.6,408.4L483.6,408.4l-1.8,0.1l0,0c-1,0.1-1.7,0.9-1.7,2
			c0,0,0,0,0,0v5.2h4.9h0.7h4.9v-5.2c0,0,0,0,0,0c0-1.2-0.7-2-1.7-2l0,0l-1.8-0.1v0l0,0H483.6z"/>
	</g>
	<g clip-path="url(#SVGID_2_)">
		<defs>
			<rect id="SVGID_129_" x="-0.1" y="-0.9" width="736.8" height="543.1"/>
		</defs>
		<clipPath id="SVGID_130_">
			<use xlink:href="#SVGID_129_"  overflow="visible"/>
		</clipPath>
		<circle clip-path="url(#SVGID_130_)" fill="none" stroke="#50BED7" stroke-width="1.234" cx="485.3" cy="405.5" r="8.9"/>
		<path clip-path="url(#SVGID_130_)" fill="#FFFFFF" d="M483.8,443.6c0,0-11,0-11,11v2.8c0,0,0,11,11,11h52.6c0,0,11,0,11-11v-2.8
			c0,0,0-11-11-11H483.8z"/>
	</g>
	<rect x="500.5" y="449.7" clip-path="url(#SVGID_2_)" fill="#BECDD7" width="26" height="4.9"/>
	<rect x="500.5" y="457.9" clip-path="url(#SVGID_2_)" fill="#BECDD7" width="35.8" height="4.9"/>
	<g clip-path="url(#SVGID_2_)">
		<defs>
			<rect id="SVGID_131_" x="-0.1" y="-0.9" width="736.8" height="543.1"/>
		</defs>
		<clipPath id="SVGID_132_">
			<use xlink:href="#SVGID_131_"  overflow="visible"/>
		</clipPath>
		<path clip-path="url(#SVGID_132_)" fill="#EBF0F5" d="M485.3,465.1c4.9,0,8.9-4,8.9-8.9c0-4.9-4-8.9-8.9-8.9c-4.9,0-8.9,4-8.9,8.9
			C476.4,461.1,480.4,465.1,485.3,465.1"/>
	</g>
	<g clip-path="url(#SVGID_2_)">
		<defs>
			<path id="SVGID_133_" d="M476.4,456.2c0,4.9,4,8.9,8.9,8.9c4.9,0,8.9-4,8.9-8.9c0-4.9-4-8.9-8.9-8.9
				C480.4,447.2,476.4,451.2,476.4,456.2"/>
		</defs>
		<clipPath id="SVGID_134_">
			<use xlink:href="#SVGID_133_"  overflow="visible"/>
		</clipPath>
		<path clip-path="url(#SVGID_134_)" fill="#879BAA" d="M485.3,457.9c1.6,0,2.6-1.2,2.6-3s-1.1-3-2.6-3c-1.6,0-2.6,1.2-2.6,3
			S483.8,457.9,485.3,457.9"/>
		<path clip-path="url(#SVGID_134_)" fill="#879BAA" d="M483.6,459L483.6,459L483.6,459l-1.8,0.1l0,0c-1,0.1-1.7,0.9-1.7,2
			c0,0,0,0,0,0v5.2h4.9h0.7h4.9v-5.2c0,0,0,0,0,0c0-1.2-0.7-2-1.7-2l0,0l-1.8-0.1v0l0,0H483.6z"/>
	</g>
	<g clip-path="url(#SVGID_2_)">
		<defs>
			<rect id="SVGID_135_" x="-0.1" y="-0.9" width="736.8" height="543.1"/>
		</defs>
		<clipPath id="SVGID_136_">
			<use xlink:href="#SVGID_135_"  overflow="visible"/>
		</clipPath>
		<circle clip-path="url(#SVGID_136_)" fill="none" stroke="#50BED7" stroke-width="1.234" cx="485.3" cy="456.2" r="8.9"/>
		<g opacity="0.75" clip-path="url(#SVGID_136_)">
			<g>
				<defs>
					<rect id="SVGID_137_" x="556" y="343.1" width="108" height="154.3"/>
				</defs>
				<clipPath id="SVGID_138_">
					<use xlink:href="#SVGID_137_"  overflow="visible"/>
				</clipPath>
				<path clip-path="url(#SVGID_138_)" fill="#005F87" d="M591.3,350.1c0,0-26.2,0-26.2,26.2v93.8c0,0,0,26.2,26.2,26.2h37.5
					c0,0,26.2,0,26.2-26.2v-93.8c0,0,0-26.2-26.2-26.2H591.3z"/>
			</g>
		</g>
	</g>
	<g clip-path="url(#SVGID_2_)">
		<text transform="matrix(1 0 0 1 590.9816 371.8889)"><tspan x="0" y="0" fill="#FFFFFF" font-family="'SiemensSans-Roman'" font-size="14">S</tspan><tspan x="7.3" y="0" fill="#FFFFFF" font-family="'SiemensSans-Roman'" font-size="14">q</tspan><tspan x="15" y="0" fill="#FFFFFF" font-family="'SiemensSans-Roman'" font-size="14">uad</tspan></text>
	</g>
	<g clip-path="url(#SVGID_2_)">
		<defs>
			<rect id="SVGID_139_" x="-0.1" y="-0.9" width="736.8" height="543.1"/>
		</defs>
		<clipPath id="SVGID_140_">
			<use xlink:href="#SVGID_139_"  overflow="visible"/>
		</clipPath>
		<path clip-path="url(#SVGID_140_)" fill="#FFFFFF" d="M583.8,393c0,0-11,0-11,11v2.8c0,0,0,11,11,11h52.6c0,0,11,0,11-11V404
			c0,0,0-11-11-11H583.8z"/>
	</g>
	<rect x="600.5" y="399.1" clip-path="url(#SVGID_2_)" fill="#BECDD7" width="26" height="4.9"/>
	<rect x="600.5" y="407.3" clip-path="url(#SVGID_2_)" fill="#BECDD7" width="35.8" height="4.9"/>
	<g clip-path="url(#SVGID_2_)">
		<defs>
			<rect id="SVGID_141_" x="-0.1" y="-0.9" width="736.8" height="543.1"/>
		</defs>
		<clipPath id="SVGID_142_">
			<use xlink:href="#SVGID_141_"  overflow="visible"/>
		</clipPath>
		<path clip-path="url(#SVGID_142_)" fill="#EBF0F5" d="M585.3,414.5c4.9,0,8.9-4,8.9-8.9c0-4.9-4-8.9-8.9-8.9c-4.9,0-8.9,4-8.9,8.9
			C576.4,410.5,580.4,414.5,585.3,414.5"/>
	</g>
	<g clip-path="url(#SVGID_2_)">
		<defs>
			<path id="SVGID_143_" d="M576.4,405.5c0,4.9,4,8.9,9,8.9c4.9,0,8.9-4,8.9-8.9c0-4.9-4-8.9-8.9-8.9
				C580.4,396.6,576.4,400.6,576.4,405.5"/>
		</defs>
		<clipPath id="SVGID_144_">
			<use xlink:href="#SVGID_143_"  overflow="visible"/>
		</clipPath>
		<path clip-path="url(#SVGID_144_)" fill="#879BAA" d="M585.3,407.3c1.6,0,2.6-1.2,2.6-3s-1.1-3-2.6-3c-1.6,0-2.6,1.2-2.6,3
			S583.8,407.3,585.3,407.3"/>
		<path clip-path="url(#SVGID_144_)" fill="#879BAA" d="M583.6,408.4L583.6,408.4L583.6,408.4l-1.8,0.1l0,0c-1,0.1-1.7,0.9-1.7,2
			c0,0,0,0,0,0v5.2h4.9h0.7h4.9v-5.2c0,0,0,0,0,0c0-1.2-0.7-2-1.7-2l0,0l-1.8-0.1v0l0,0H583.6z"/>
	</g>
	<g clip-path="url(#SVGID_2_)">
		<defs>
			<rect id="SVGID_145_" x="-0.1" y="-0.9" width="736.8" height="543.1"/>
		</defs>
		<clipPath id="SVGID_146_">
			<use xlink:href="#SVGID_145_"  overflow="visible"/>
		</clipPath>
		<circle clip-path="url(#SVGID_146_)" fill="none" stroke="#50BED7" stroke-width="1.234" cx="585.3" cy="405.5" r="8.9"/>
		<path clip-path="url(#SVGID_146_)" fill="#FFFFFF" d="M583.8,443.6c0,0-11,0-11,11v2.8c0,0,0,11,11,11h52.6c0,0,11,0,11-11v-2.8
			c0,0,0-11-11-11H583.8z"/>
	</g>
	<rect x="600.5" y="449.7" clip-path="url(#SVGID_2_)" fill="#BECDD7" width="26" height="4.9"/>
	<rect x="600.5" y="457.9" clip-path="url(#SVGID_2_)" fill="#BECDD7" width="35.8" height="4.9"/>
	<g clip-path="url(#SVGID_2_)">
		<defs>
			<rect id="SVGID_147_" x="-0.1" y="-0.9" width="736.8" height="543.1"/>
		</defs>
		<clipPath id="SVGID_148_">
			<use xlink:href="#SVGID_147_"  overflow="visible"/>
		</clipPath>
		<path clip-path="url(#SVGID_148_)" fill="#EBF0F5" d="M585.3,465.1c4.9,0,8.9-4,8.9-8.9c0-4.9-4-8.9-8.9-8.9c-4.9,0-8.9,4-8.9,8.9
			C576.4,461.1,580.4,465.1,585.3,465.1"/>
	</g>
	<g clip-path="url(#SVGID_2_)">
		<defs>
			<path id="SVGID_149_" d="M576.4,456.2c0,4.9,4,8.9,9,8.9c4.9,0,8.9-4,8.9-8.9c0-4.9-4-8.9-8.9-8.9
				C580.4,447.2,576.4,451.2,576.4,456.2"/>
		</defs>
		<clipPath id="SVGID_150_">
			<use xlink:href="#SVGID_149_"  overflow="visible"/>
		</clipPath>
		<path clip-path="url(#SVGID_150_)" fill="#879BAA" d="M585.3,457.9c1.6,0,2.6-1.2,2.6-3s-1.1-3-2.6-3c-1.6,0-2.6,1.2-2.6,3
			S583.8,457.9,585.3,457.9"/>
		<path clip-path="url(#SVGID_150_)" fill="#879BAA" d="M583.6,459L583.6,459L583.6,459l-1.8,0.1l0,0c-1,0.1-1.7,0.9-1.7,2
			c0,0,0,0,0,0v5.2h4.9h0.7h4.9v-5.2c0,0,0,0,0,0c0-1.2-0.7-2-1.7-2l0,0l-1.8-0.1v0l0,0H583.6z"/>
	</g>
	<g clip-path="url(#SVGID_2_)">
		<defs>
			<rect id="SVGID_151_" x="-0.1" y="-0.9" width="736.8" height="543.1"/>
		</defs>
		<clipPath id="SVGID_152_">
			<use xlink:href="#SVGID_151_"  overflow="visible"/>
		</clipPath>
		<circle clip-path="url(#SVGID_152_)" fill="none" stroke="#50BED7" stroke-width="1.234" cx="585.3" cy="456.2" r="8.9"/>
		<path clip-path="url(#SVGID_152_)" fill="#50BED7" d="M240.6,125.4l1.1-3.3c0.3-0.9,0.6-1.7,0.8-2.4c0.2,0.8,0.5,1.6,0.8,2.4
			l1.1,3.3H240.6z M246.4,130.9h1.6l-4.5-12.5h-1.8l-4.4,12.5h1.5l1.5-4.4h4.6L246.4,130.9z M225,125.6c0-0.7,0.2-1.2,0.4-1.7
			c0.5-0.8,1.1-1.2,2-1.2c0.9,0,1.6,0.4,2,1.2c0.2,0.5,0.3,1,0.4,1.7H225z M231.3,126.7c0-1.3-0.2-2.4-0.5-3.1c-0.6-1.3-1.6-2-3.3-2
			c-1.1,0-1.9,0.3-2.6,0.9c-0.9,0.8-1.4,2.1-1.4,3.8c0,1.4,0.3,2.5,1,3.3c0.8,0.9,1.9,1.4,3.3,1.4c1.1,0,2.1-0.3,3.1-0.9l-0.5-1.1
			c-0.8,0.6-1.7,0.9-2.5,0.9c-1,0-1.7-0.3-2.2-1c-0.4-0.5-0.6-1.3-0.7-2.3H231.3z M215.3,124.4c0.6-1.1,1.4-1.7,2.4-1.7
			c0.8,0,1.4,0.3,1.8,1c0.4,0.7,0.7,1.6,0.7,2.6c0,1-0.2,1.8-0.6,2.5c-0.4,0.8-1.1,1.2-1.9,1.2c-0.6,0-1.2-0.3-1.7-0.8
			c-0.2-0.2-0.5-0.5-0.7-0.9V124.4z M215.2,129.5c0.3,0.4,0.6,0.8,0.9,0.9c0.5,0.4,1.1,0.6,1.9,0.6c1,0,1.9-0.4,2.5-1.2
			c0.8-0.9,1.1-2.1,1.1-3.6c0-1.4-0.3-2.5-1-3.3c-0.7-0.9-1.6-1.4-2.6-1.4c-1.1,0-2,0.5-2.7,1.4v-5.3h-1.4v9.8c0,0.8,0,1.8-0.1,3
			l0,0.3h1.3L215.2,129.5z M209.1,118c-0.1,0.2-0.2,0.4-0.2,0.6c0,0.2,0.1,0.4,0.2,0.6c0.2,0.3,0.4,0.4,0.8,0.4
			c0.3,0,0.6-0.1,0.8-0.4c0.1-0.2,0.2-0.4,0.2-0.6c0-0.2-0.1-0.4-0.2-0.6c-0.2-0.3-0.4-0.4-0.8-0.4
			C209.6,117.6,209.3,117.7,209.1,118 M210.6,121.8h-1.4v9.1h1.4V121.8z M204.2,130.9v-5.8c0.2-0.5,0.4-0.9,0.7-1.3
			c0.5-0.7,1.1-1,1.8-1c0.2,0,0.3,0,0.5,0.1l0.1-1.2c-0.2,0-0.5-0.1-0.6-0.1c-0.6,0-1.2,0.2-1.6,0.6c-0.4,0.3-0.7,0.7-1,1.3
			l-0.1-1.7h-1.3l0,0.4c0,1.2,0.1,2.4,0.1,3.5v5.2H204.2z M198.3,130.9v-11.3h3.7v-1.2h-8.8v1.2h3.6v11.3H198.3z"/>
		<path clip-path="url(#SVGID_152_)" fill="#50BED7" d="M236.1,329c-0.7,0-1.4-0.1-1.9-0.4c-0.8-0.4-1.4-1.1-1.8-2
			c-0.4-0.8-0.6-1.7-0.6-2.8c0-1.5,0.4-2.7,1.1-3.8c0.7-1,1.8-1.6,3.1-1.6c0.9,0,1.8,0.2,2.9,0.7l0.5-1.2c-1.1-0.5-2.3-0.8-3.3-0.8
			c-0.9,0-1.8,0.2-2.5,0.5c-1,0.5-1.8,1.3-2.4,2.4c-0.5,1-0.8,2.2-0.8,3.5c0,1.9,0.6,3.5,1.7,4.7c1,1.1,2.4,1.7,4.1,1.7
			c1,0,2.2-0.2,3.3-0.7l-0.4-1.2C238.1,328.8,237.1,329,236.1,329 M217.3,324.8c0-0.7,0.2-1.2,0.4-1.7c0.5-0.8,1.1-1.2,2-1.2
			c0.9,0,1.6,0.4,2,1.2c0.2,0.5,0.3,1,0.4,1.7H217.3z M223.6,325.9c0-1.3-0.2-2.4-0.5-3.1c-0.6-1.3-1.6-2-3.3-2
			c-1.1,0-1.9,0.3-2.6,0.9c-0.9,0.8-1.4,2.1-1.4,3.8c0,1.4,0.3,2.5,1,3.3c0.8,0.9,1.9,1.4,3.3,1.4c1.1,0,2.1-0.3,3.1-0.9l-0.5-1.1
			c-0.8,0.6-1.7,0.9-2.5,0.9c-1,0-1.7-0.3-2.2-1c-0.4-0.5-0.6-1.3-0.7-2.3H223.6z M207.6,323.6c0.6-1.1,1.4-1.7,2.4-1.7
			c0.8,0,1.4,0.3,1.8,1c0.4,0.7,0.7,1.6,0.7,2.6c0,1-0.2,1.8-0.6,2.5c-0.4,0.8-1.1,1.2-1.9,1.2c-0.6,0-1.2-0.3-1.7-0.8
			c-0.2-0.2-0.5-0.5-0.7-0.9V323.6z M207.5,328.7c0.3,0.4,0.6,0.8,0.9,0.9c0.5,0.4,1.1,0.6,1.9,0.6c1,0,1.9-0.4,2.5-1.2
			c0.8-0.9,1.1-2.1,1.1-3.6c0-1.4-0.3-2.5-1-3.3c-0.7-0.9-1.6-1.4-2.6-1.4c-1.1,0-2,0.5-2.7,1.4v-5.3h-1.4v9.8c0,0.8,0,1.8-0.1,3
			l0,0.3h1.3L207.5,328.7z M201.5,317.1c-0.1,0.2-0.2,0.4-0.2,0.6c0,0.2,0.1,0.4,0.2,0.6c0.2,0.3,0.4,0.4,0.8,0.4
			c0.3,0,0.6-0.1,0.8-0.4c0.1-0.2,0.2-0.4,0.2-0.6c0-0.2-0.1-0.4-0.2-0.6c-0.2-0.3-0.4-0.4-0.8-0.4
			C201.9,316.7,201.7,316.8,201.5,317.1 M203,320.9h-1.4v9.1h1.4V320.9z M196.5,330.1v-5.8c0.2-0.5,0.4-0.9,0.7-1.3
			c0.5-0.7,1.1-1,1.8-1c0.2,0,0.3,0,0.5,0.1l0.1-1.2c-0.2,0-0.5-0.1-0.6-0.1c-0.6,0-1.2,0.2-1.6,0.6c-0.4,0.3-0.7,0.7-1,1.3
			l-0.1-1.7h-1.3l0,0.4c0,1.2,0.1,2.4,0.1,3.5v5.2H196.5z M190.6,330.1v-11.3h3.7v-1.2h-8.8v1.2h3.6v11.3H190.6z"/>
		<path clip-path="url(#SVGID_152_)" fill="#50BED7" d="M565,125.2h0.7c1.2,0,2,0.1,2.5,0.3c0.8,0.3,1.2,1,1.2,2
			c0,1.3-0.6,2-1.7,2.2c-0.4,0.1-1.1,0.1-1.9,0.1H565V125.2z M565,119.7h0.7c1.2,0,2,0.1,2.5,0.4c0.6,0.3,0.9,0.9,0.9,1.8
			c0,0.9-0.3,1.5-0.9,1.8c-0.4,0.2-1.2,0.4-2.4,0.4H565V119.7z M566,130.9c0.8,0,1.4,0,1.6,0c0.6-0.1,1.2-0.2,1.6-0.4
			c1.1-0.5,1.6-1.5,1.6-2.9c0-1.8-1-2.8-2.9-3c0.7-0.1,1.3-0.4,1.6-0.7c0.6-0.5,0.9-1.2,0.9-2.2c0-1.8-0.9-2.9-2.8-3.1
			c-0.5-0.1-1.3-0.1-2.2-0.1h-1.9v12.5H566z M550,125.6c0-0.7,0.2-1.2,0.4-1.7c0.5-0.8,1.1-1.2,2-1.2c0.9,0,1.6,0.4,2,1.2
			c0.2,0.5,0.3,1,0.4,1.7H550z M556.2,126.7c0-1.3-0.2-2.4-0.5-3.1c-0.6-1.3-1.6-2-3.3-2c-1.1,0-1.9,0.3-2.6,0.9
			c-0.9,0.8-1.4,2.1-1.4,3.8c0,1.4,0.3,2.5,1,3.3c0.8,0.9,1.9,1.4,3.3,1.4c1.1,0,2.1-0.3,3.1-0.9l-0.5-1.1c-0.8,0.6-1.7,0.9-2.5,0.9
			c-1,0-1.7-0.3-2.2-1c-0.4-0.5-0.6-1.3-0.7-2.3H556.2z M540.3,124.4c0.6-1.1,1.4-1.7,2.4-1.7c0.8,0,1.4,0.3,1.8,1
			c0.4,0.7,0.7,1.6,0.7,2.6c0,1-0.2,1.8-0.6,2.5c-0.4,0.8-1.1,1.2-1.9,1.2c-0.6,0-1.2-0.3-1.7-0.8c-0.2-0.2-0.5-0.5-0.7-0.9V124.4z
			 M540.2,129.5c0.3,0.4,0.6,0.8,0.9,0.9c0.5,0.4,1.1,0.6,1.9,0.6c1,0,1.9-0.4,2.5-1.2c0.8-0.9,1.1-2.1,1.1-3.6c0-1.4-0.3-2.5-1-3.3
			c-0.7-0.9-1.6-1.4-2.6-1.4c-1.1,0-2,0.5-2.7,1.4v-5.3h-1.4v9.8c0,0.8,0,1.8-0.1,3l0,0.3h1.3L540.2,129.5z M534.1,118
			c-0.1,0.2-0.2,0.4-0.2,0.6c0,0.2,0.1,0.4,0.2,0.6c0.2,0.3,0.4,0.4,0.8,0.4c0.3,0,0.6-0.1,0.8-0.4c0.1-0.2,0.2-0.4,0.2-0.6
			c0-0.2-0.1-0.4-0.2-0.6c-0.2-0.3-0.4-0.4-0.8-0.4C534.6,117.6,534.3,117.7,534.1,118 M535.6,121.8h-1.4v9.1h1.4V121.8z
			 M529.1,130.9v-5.8c0.2-0.5,0.4-0.9,0.7-1.3c0.5-0.7,1.1-1,1.8-1c0.2,0,0.3,0,0.5,0.1l0.1-1.2c-0.2,0-0.5-0.1-0.6-0.1
			c-0.6,0-1.2,0.2-1.6,0.6c-0.4,0.3-0.7,0.7-1,1.3l-0.1-1.7h-1.3l0,0.4c0,1.2,0.1,2.4,0.1,3.5v5.2H529.1z M523.3,130.9v-11.3h3.7
			v-1.2h-8.8v1.2h3.6v11.3H523.3z"/>
		<path clip-path="url(#SVGID_152_)" fill="#50BED7" d="M564,318.8h1c1,0,1.7,0,2.1,0.1c1,0.2,1.8,0.7,2.3,1.5
			c0.5,0.9,0.8,2.1,0.8,3.4c0,0.9-0.1,1.7-0.4,2.4c-0.3,0.8-0.7,1.4-1.3,1.9c-0.7,0.5-1.8,0.8-3.3,0.8H564V318.8z M565.2,330.1
			c1,0,1.9-0.1,2.5-0.2c1.4-0.3,2.5-1.1,3.2-2.3c0.6-1,0.9-2.3,0.9-3.8c0-1.5-0.3-2.8-0.9-3.9c-0.7-1.1-1.7-1.8-3.1-2.1
			c-0.6-0.1-1.4-0.2-2.4-0.2h-2.8v12.5H565.2z M549,324.8c0-0.7,0.2-1.2,0.4-1.7c0.5-0.8,1.1-1.2,2-1.2c0.9,0,1.6,0.4,2,1.2
			c0.2,0.5,0.3,1,0.4,1.7H549z M555.3,325.9c0-1.3-0.2-2.4-0.5-3.1c-0.6-1.3-1.6-2-3.3-2c-1.1,0-1.9,0.3-2.6,0.9
			c-0.9,0.8-1.4,2.1-1.4,3.8c0,1.4,0.3,2.5,1,3.3c0.8,0.9,1.9,1.4,3.3,1.4c1.1,0,2.1-0.3,3.1-0.9l-0.5-1.1c-0.8,0.6-1.7,0.9-2.5,0.9
			c-1,0-1.7-0.3-2.2-1c-0.4-0.5-0.6-1.3-0.7-2.3H555.3z M539.3,323.6c0.6-1.1,1.4-1.7,2.4-1.7c0.8,0,1.4,0.3,1.8,1
			c0.4,0.7,0.7,1.6,0.7,2.6c0,1-0.2,1.8-0.6,2.5c-0.4,0.8-1.1,1.2-1.9,1.2c-0.6,0-1.2-0.3-1.7-0.8c-0.2-0.2-0.5-0.5-0.7-0.9V323.6z
			 M539.2,328.7c0.3,0.4,0.6,0.8,0.9,0.9c0.5,0.4,1.1,0.6,1.9,0.6c1,0,1.9-0.4,2.5-1.2c0.8-0.9,1.1-2.1,1.1-3.6c0-1.4-0.3-2.5-1-3.3
			c-0.7-0.9-1.6-1.4-2.6-1.4c-1.1,0-2,0.5-2.7,1.4v-5.3h-1.4v9.8c0,0.8,0,1.8-0.1,3l0,0.3h1.3L539.2,328.7z M533.2,317.1
			c-0.1,0.2-0.2,0.4-0.2,0.6c0,0.2,0.1,0.4,0.2,0.6c0.2,0.3,0.4,0.4,0.8,0.4c0.3,0,0.6-0.1,0.8-0.4c0.1-0.2,0.2-0.4,0.2-0.6
			c0-0.2-0.1-0.4-0.2-0.6c-0.2-0.3-0.4-0.4-0.8-0.4C533.6,316.7,533.3,316.8,533.2,317.1 M534.6,320.9h-1.4v9.1h1.4V320.9z
			 M528.2,330.1v-5.8c0.2-0.5,0.4-0.9,0.7-1.3c0.5-0.7,1.1-1,1.8-1c0.2,0,0.3,0,0.5,0.1l0.1-1.2c-0.2,0-0.5-0.1-0.6-0.1
			c-0.6,0-1.2,0.2-1.6,0.6c-0.4,0.3-0.7,0.7-1,1.3l-0.1-1.7h-1.3l0,0.4c0,1.2,0.1,2.4,0.1,3.5v5.2H528.2z M522.3,330.1v-11.3h3.7
			v-1.2h-8.8v1.2h3.6v11.3H522.3z"/>
	</g>
</g>
</svg>
