<?xml version="1.0" encoding="utf-8"?>
<!-- Generator: Adobe Illustrator 18.0.0, SVG Export Plug-In . SVG Version: 6.00 Build 0)  -->
<!DOCTYPE svg PUBLIC "-//W3C//DTD SVG 1.1//EN" "http://www.w3.org/Graphics/SVG/1.1/DTD/svg11.dtd">
<svg version="1.1" id="Ebene_1" xmlns="http://www.w3.org/2000/svg" xmlns:xlink="http://www.w3.org/1999/xlink" x="0px" y="0px"
	 viewBox="-0.6 0 101.8 41" enable-background="new -0.6 0 101.8 41" xml:space="preserve">
<g>
	<rect x="-0.7" y="0" fill="#FFB900" width="101.8" height="41"/>
	<path fill="#FFFFFF" d="M18.7,32.8c1.3,0,2.4,0,3.1-0.2c1.2-0.2,2.3-0.5,3.1-1.1c1.9-1.2,2.8-3.1,2.8-5.6c0-3.2-1.6-5.1-4.8-5.8
		c2.9-0.7,4.3-2.6,4.3-5.6c0-1.5-0.4-2.9-1.2-3.9c-0.8-1.1-2-1.8-3.6-2.2c-1-0.2-2.5-0.4-4.5-0.4h-6.6v24.6H18.7z M15.6,11.4h1.8
		c0.9,0,1.5,0,1.9,0.1c0.9,0.1,1.6,0.3,2.2,0.7c0.9,0.6,1.4,1.6,1.4,3c0,1.4-0.5,2.4-1.4,3c-0.7,0.4-2,0.7-3.9,0.7h-2V11.4z
		 M15.6,21.8h2.1c1.7,0,3,0.2,3.8,0.6c1.2,0.6,1.8,1.7,1.8,3.2c0,2.1-1,3.4-2.9,3.7c-0.6,0.1-1.5,0.1-2.8,0.1h-2V21.8z M47.1,32.8
		v-3.5H36.5v-7.3h9.6v-3.5h-9.6v-6.9h10.1V8.2H32.2v24.6H47.1z M61.3,32.8V11.7h7.3V8.2H49.8v3.5h7.2v21.2H61.3z M85,32.8h4.6
		L80.3,8.2h-4.8l-9.1,24.6h4.3l2.5-7.1h9.2L85,32.8z M74.4,22.4l2.1-5.8c0.6-1.6,1-3,1.4-4.2c0.4,1.4,0.9,2.9,1.4,4.2l2.1,5.8H74.4z
		"/>
</g>
</svg>
