<?xml version="1.0" encoding="utf-8"?>
<!-- Generator: Adobe Illustrator 18.0.0, SVG Export Plug-In . SVG Version: 6.00 Build 0)  -->
<!DOCTYPE svg PUBLIC "-//W3C//DTD SVG 1.0//EN" "http://www.w3.org/TR/2001/REC-SVG-20010904/DTD/svg10.dtd">
<svg version="1.0" id="Ebene_1" xmlns="http://www.w3.org/2000/svg" xmlns:xlink="http://www.w3.org/1999/xlink" x="0px" y="0px"
	 viewBox="160.8 251 575.7 396" enable-background="new 160.8 251 575.7 396" xml:space="preserve">
<path fill="#1A171B" d="M704.7,386.8h-41.5V283c0-17.2-14-31.2-31.2-31.2h-62.3c-17.2,0-31.2,14-31.2,31.2v103.8h-27.7V283
	c0-17.2-14-31.2-31.2-31.2h-62.3c-17.2,0-31.2,14-31.2,31.2v103.8h-27.7V283c0-17.2-14-31.2-31.2-31.2h-62.3
	c-17.2,0-31.2,14-31.2,31.2v103.8h-41.5c-17.2,0-31.2,14-31.2,31.2v62.3c0,17.2,14,31.2,31.2,31.2H234v103.8
	c0,17.2,14,31.2,31.2,31.2h62.3c17.2,0,31.2-14,31.2-31.2V511.4h27.7v103.8c0,17.2,14,31.2,31.2,31.2h62.3c17.2,0,31.2-14,31.2-31.2
	V511.4h27.7v103.8c0,17.2,14,31.2,31.2,31.2h62.3c17.2,0,31.2-14,31.2-31.2V511.4h41.5c17.2,0,31.2-14,31.2-31.2V418
	C735.9,400.8,721.9,386.8,704.7,386.8z M559.4,283c0-5.7,4.6-10.4,10.4-10.4h62.3c5.7,0,10.4,4.6,10.4,10.4v103.8h-83.1V283z
	 M642.4,407.6v83.1h-83.1v-83.1L642.4,407.6L642.4,407.6z M407.1,283c0-5.7,4.6-10.4,10.4-10.4h62.3c5.7,0,10.4,4.6,10.4,10.4v103.8
	h-83.1L407.1,283L407.1,283z M490.1,407.6v83.1h-83.1v-83.1L490.1,407.6L490.1,407.6z M254.7,283c0-5.7,4.6-10.4,10.4-10.4h62.3
	c5.7,0,10.4,4.6,10.4,10.4v103.8h-83.1V283z M337.8,407.6v83.1h-83.1v-83.1L337.8,407.6L337.8,407.6z M192.4,490.6
	c-5.7,0-10.4-4.6-10.4-10.4V418c0-5.7,4.6-10.4,10.4-10.4H234v83.1H192.4z M337.8,615.3c0,5.7-4.6,10.4-10.4,10.4h-62.3
	c-5.7,0-10.4-4.6-10.4-10.4V511.4h83.1V615.3z M358.6,490.6v-83.1h27.7v83.1H358.6z M490.1,615.3c0,5.7-4.6,10.4-10.4,10.4h-62.3
	c-5.7,0-10.4-4.6-10.4-10.4V511.4h83.1V615.3z M510.9,490.6v-83.1h27.7v83.1H510.9z M642.4,615.3c0,5.7-4.6,10.4-10.4,10.4h-62.3
	c-5.7,0-10.4-4.6-10.4-10.4V511.4h83.1V615.3z M715.1,480.3c0,5.7-4.6,10.4-10.4,10.4h-41.5v-83.1h41.5c5.7,0,10.4,4.6,10.4,10.4
	V480.3z"/>
</svg>
