<?xml version="1.0" encoding="utf-8"?>
<!-- Generator: Adobe Illustrator 18.0.0, SVG Export Plug-In . SVG Version: 6.00 Build 0)  -->
<!DOCTYPE svg PUBLIC "-//W3C//DTD SVG 1.1//EN" "http://www.w3.org/Graphics/SVG/1.1/DTD/svg11.dtd">
<svg version="1.1" id="Ebene_1" xmlns="http://www.w3.org/2000/svg" xmlns:xlink="http://www.w3.org/1999/xlink" x="0px" y="0px"
	 viewBox="0 0 100 100" enable-background="new 0 0 100 100" xml:space="preserve">
<path d="M44.9,27.6c3.1-1.8,3.8-5.3,1.8-8.9l-8.7-15c-2-3.5-5.5-4.7-8.6-2.9c-6.3,3.6-10.9,8.1-13.4,10.8c-0.5,0.6-0.8,1.3-0.9,2.1
	c-1.5,17.1,2,34.8,11.3,50.8c9.2,16,22.8,27.9,38.4,35.2c0.7,0.3,1.5,0.4,2.3,0.3c3.7-0.8,9.8-2.6,16.1-6.2c3.1-1.8,3.8-5.3,1.8-8.9
	l-8.7-15c-2-3.5-5.5-4.7-8.6-2.9L55.3,74C49.6,69,44.7,63.1,40.7,56.2c-4-6.9-6.6-14.1-8.1-21.5L44.9,27.6z"/>
</svg>
