<?xml version="1.0" encoding="utf-8"?>
<!-- Generator: Adobe Illustrator 18.0.0, SVG Export Plug-In . SVG Version: 6.00 Build 0)  -->
<!DOCTYPE svg PUBLIC "-//W3C//DTD SVG 1.0//EN" "http://www.w3.org/TR/2001/REC-SVG-20010904/DTD/svg10.dtd">
<svg version="1.0" id="Ebene_1" xmlns="http://www.w3.org/2000/svg" xmlns:xlink="http://www.w3.org/1999/xlink" x="0px" y="0px"
	 viewBox="0 0 283.5 283.5" enable-background="new 0 0 283.5 283.5" xml:space="preserve">
<g>
	<path d="M151.3,79.1c0,18.3-14.8,33.1-33.1,33.1c-18.3,0-33.1-14.8-33.1-33.1c0-18.3,14.8-33.1,33.1-33.1
		C136.5,45.9,151.3,60.8,151.3,79.1"/>
	<path d="M99.8,160.1c18.3,0,33.1,14.8,33.1,33.1s-14.8,33.1-33.1,33.1c-18.3,0-33.1-14.8-33.1-33.1S81.5,160.1,99.8,160.1"/>
	<path d="M171.4,250.6l6.9,25.6c-14.5,3.9-29.5,5.4-44.4,4.6C56.9,276.2-1.8,210.2,2.7,133.3l26.5,1.5c7.7,0.6,14.7,4.3,19.5,10.3
		c3.2,7,6.9,13.8,11.1,20.2c-15.4,22.1-10,52.4,12.1,67.8c19.8,13.8,46.7,11,63.3-6.5c7.2,2.8,14.5,5.1,22,6.8
		C164.1,237,169.2,243.2,171.4,250.6"/>
	<path d="M207.9,118.9c18.3,0,33.1,14.8,33.1,33.1c0,18.3-14.8,33.1-33.1,33.1c-18.3,0-33.1-14.8-33.1-33.1
		C174.8,133.8,189.6,118.9,207.9,118.9"/>
	<path d="M266.7,78.9c34.6,68.9,6.7,152.7-62.1,187.2l-11.9-23.7c-3.3-6.9-3.6-14.9-0.8-22.1c4.5-6.3,8.4-12.9,11.9-19.7
		c26.8,2.3,50.4-17.6,52.7-44.4c2.1-24-13.8-45.9-37.2-51.5c-1.2-7.6-2.9-15.1-5.1-22.5c-0.4-7.7,2.4-15.2,7.7-20.7l18.7-18.8
		C251.1,53.3,260,65.5,266.7,78.9"/>
	<path d="M218.7,24.9l-14.6,22.2c-4.3,6.3-11.1,10.6-18.7,11.8c-7.7-0.7-15.4-0.9-23.1-0.5C150.9,34,121.9,23.5,97.5,35
		c-21.8,10.2-32.9,34.9-26,58c-6,4.8-11.7,10.1-16.9,15.7c-6.5,4.2-14.3,5.5-21.8,3.7l-25.6-6.8c3.9-14.5,10-28.2,18.3-40.8
		C67.8,0.4,154.3-17.4,218.7,24.9"/>
</g>
</svg>
