<svg xmlns="http://www.w3.org/2000/svg" width="24" height="24" viewBox="0 0 24 24">
    <path fill="#005F84" fill-rule="nonzero" d="M0 0h24v24H0V0zm5 14.673c.648.235 1.18.327 1.902.327C8.262 15 9 14.363 9 13.182c0-.52-.164-.914-.492-1.174-.238-.184-.385-.26-1.221-.611-.836-.352-.96-.453-.96-.763 0-.377.28-.612.747-.612.418 0 .713.067 1.467.352l.262-1.056C8.107 9.092 7.573 9 6.992 9c-.574 0-1 .126-1.336.385-.41.319-.648.838-.648 1.425 0 .478.164.838.5 1.098.238.176.426.276 1.115.561.918.386 1.04.486 1.04.822 0 .427-.31.687-.827.687-.492 0-.934-.11-1.656-.42L5 14.674zm5 0c.648.235 1.18.327 1.902.327 1.36 0 2.098-.637 2.098-1.818 0-.52-.164-.914-.492-1.174-.238-.184-.385-.26-1.221-.611-.836-.352-.96-.453-.96-.763 0-.377.28-.612.747-.612.418 0 .713.067 1.467.352l.262-1.056C13.107 9.092 12.573 9 11.992 9c-.574 0-1 .126-1.336.385-.41.319-.648.838-.648 1.425 0 .478.164.838.5 1.098.238.176.426.276 1.115.561.918.386 1.04.486 1.04.822 0 .427-.31.687-.827.687-.492 0-.934-.11-1.656-.42L10 14.674zM15 15h1.276v-2.688c0-.858 0-.928-.026-1.43.315.658.442.91.842 1.604L18.562 15H20V9h-1.276v2.965c0 .711 0 .798.026 1.145a14.84 14.84 0 0 0-.723-1.413L16.463 9H15v6z"/>
</svg>
