<?xml version="1.0" encoding="utf-8"?>
<!-- Generator: Adobe Illustrator 18.0.0, SVG Export Plug-In . SVG Version: 6.00 Build 0)  -->
<!DOCTYPE svg PUBLIC "-//W3C//DTD SVG 1.1//EN" "http://www.w3.org/Graphics/SVG/1.1/DTD/svg11.dtd">
<svg version="1.1" id="Ebene_1" xmlns="http://www.w3.org/2000/svg" xmlns:xlink="http://www.w3.org/1999/xlink" x="0px" y="0px"
	 viewBox="0 0 100 100" enable-background="new 0 0 100 100" xml:space="preserve">
<g>
	<rect x="0.4" y="16.8" fill="#BECDD7" width="99.5" height="66.3"/>
	<g>
		<g>
			<defs>
				<rect id="SVGID_1_" x="0.2" y="16.6" width="99.8" height="66.7"/>
			</defs>
			<clipPath id="SVGID_2_">
				<use xlink:href="#SVGID_1_"  overflow="visible"/>
			</clipPath>
			<rect x="0.4" y="16.8" clip-path="url(#SVGID_2_)" fill="none" stroke="#CEDAE1" width="99.5" height="66.3"/>
		</g>
	</g>
	<polygon fill="#FFFFFF" points="50.4,47.2 55.9,47.2 55.9,38.5 43.4,38.5 43.4,47.2 48.8,47.2 	"/>
	<rect x="53.4" y="53.4" fill="#FFFFFF" width="12.4" height="8.1"/>
	<rect x="73.4" y="53.4" fill="#FFFFFF" width="12.4" height="8.1"/>
	<rect x="14.4" y="53.4" fill="#FFFFFF" width="12.4" height="8.1"/>
	<rect x="33.4" y="53.4" fill="#FFFFFF" width="12.4" height="8.1"/>
	<polygon fill="#FFFFFF" points="40.3,51 59,51 59,52.2 60.2,52.2 60.2,49.8 50.3,49.8 50.3,48.4 49,48.4 49,49.8 39.1,49.8 
		39.1,52.2 40.3,52.2 	"/>
	<polyline fill="#FFFFFF" points="60.1,51 79,51 79,52.2 80.2,52.2 80.2,49.8 60.1,49.8 	"/>
	<polyline fill="#FFFFFF" points="40.1,51 21.2,51 21.2,52.2 20,52.2 20,49.8 40.1,49.8 	"/>
	<rect x="5.9" y="17.1" fill="#FFFFFF" width="88.4" height="5.5"/>
</g>
</svg>
