<svg xmlns="http://www.w3.org/2000/svg" xmlns:xlink="http://www.w3.org/1999/xlink" width="20" height="20" viewBox="0 0 20 20">
    <defs>
        <rect id="a" width="20" height="20" rx="10"/>
        <linearGradient id="b" x1="50%" x2="50%" y1="0%" y2="100%">
            <stop offset="0%" stop-color="#1132C7"/>
            <stop offset="100%" stop-color="#0522A5"/>
        </linearGradient>
    </defs>
    <g fill="none" fill-rule="evenodd">
        <mask id="c" fill="#fff">
            <use xlink:href="#a"/>
        </mask>
        <use fill="#FFF" xlink:href="#a"/>
        <path fill="url(#b)" d="M-4 0h28v20H-4z" mask="url(#c)"/>
        <path fill="#08379D" d="M9.333 0H24v20H9.333zM-4 0h9.333v20H-4z" mask="url(#c)"/>
        <path fill="#FFCC50" d="M5.333 0h9.333v20H5.333z" mask="url(#c)"/>
        <path fill="#262626" d="M9.838 6.278c.104-.153.275-.147.37 0l.944 1.444c.1.153.025.278-.157.278h-.323a.295.295 0 0 0-.305.332l.266 2.67a.38.38 0 0 0 .367.331.927.927 0 0 0 .574-.238l.185-.183a.912.912 0 0 0 .241-.576v-.664a.929.929 0 0 0-.24-.58l-.186-.185c-.133-.133-.097-.288.072-.344l1.375-.459c.172-.057.286.04.251.228l-.49 2.67c-.034.183-.17.436-.303.564l-.904.868a.969.969 0 0 1-.575.233.33.33 0 0 0-.333.336v.66a.331.331 0 0 1-.337.337h-.66a.331.331 0 0 1-.337-.336v-.66A.338.338 0 0 0 9 12.666a.92.92 0 0 1-.566-.233l-.868-.868a1.274 1.274 0 0 1-.299-.564l-.534-2.67c-.037-.183.078-.284.246-.228l1.375.459c.173.057.209.208.072.344l-.185.186A.922.922 0 0 0 8 9.672v.664c0 .186.104.44.24.576l.186.183a.952.952 0 0 0 .574.238.372.372 0 0 0 .367-.331l.266-2.67A.3.3 0 0 0 9.328 8h-.323c-.187 0-.25-.131-.15-.278l.983-1.444z" mask="url(#c)"/>
    </g>
</svg>
