<svg xmlns="http://www.w3.org/2000/svg" xmlns:xlink="http://www.w3.org/1999/xlink" width="28" height="20" viewBox="0 0 28 20">
    <defs>
        <rect id="a" width="28" height="20" rx="2"/>
    </defs>
    <g fill="none" fill-rule="evenodd">
        <mask id="b" fill="#fff">
            <use xlink:href="#a"/>
        </mask>
        <use fill="#FFF" xlink:href="#a"/>
        <path fill="#19BFBF" d="M0 0h28v20H0z" mask="url(#b)"/>
        <path fill="#FFF" d="M5.64 8.82a.337.337 0 0 1-.159-.45l.371-.74c.082-.164.1-.44.044-.61l-.458-1.374c-.058-.173.028-.246.191-.165l.742.371c.163.082.439.112.623.066l2.012-.503.654-.163 2.013-.504c.18-.045.435-.189.556-.31l1.542-1.542a.897.897 0 0 1 .56-.23h2.67a.33.33 0 0 1 .332.337v.66c0 .186-.104.441-.24.578l-.186.185c-.133.133-.087.255.094.271l6.665.606c.184.017.268.163.186.326l-.37.742a.598.598 0 0 1-.479.296h-1.34a.915.915 0 0 0-.562.232l-.869.869c-.128.128-.088.28.08.336l1.375.459a.916.916 0 0 1 .461.4l.37.741a.331.331 0 0 1-.147.444l-.742.37a.331.331 0 0 0-.148.445l.371.741c.082.164-.007.296-.185.296a.588.588 0 0 1-.482-.296l-.37-.741c-.082-.164-.253-.192-.38-.064l-.87.869a.331.331 0 0 0 .009.473l.185.185a.92.92 0 0 1 .241.577v.66a.591.591 0 0 1-.296.485l-.741.37a1.642 1.642 0 0 1-.633.149h-.66a.926.926 0 0 0-.577.24l-.186.186a.337.337 0 0 0 0 .481l.186.185a.92.92 0 0 1 .24.577v.66c0 .187-.132.271-.296.19l-.741-.371a2.437 2.437 0 0 1-.528-.38l-.87-.87a2.433 2.433 0 0 1-.38-.528l-.37-.741c-.082-.164-.205-.153-.271.012l-1.087 2.718a.536.536 0 0 1-.457.307.71.71 0 0 1-.518-.278l-.963-1.444a1.273 1.273 0 0 1-.185-.614v-.66a.45.45 0 0 0-.327-.419l-2.013-.503c-.18-.045-.327.073-.327.252 0 .184.133.4.296.481l.741.37c.164.082.192.253.056.39l-.186.185-.473.473-.868.868a.488.488 0 0 1-.529.085l-.741-.371a.925.925 0 0 1-.4-.46l-.458-1.376a2.48 2.48 0 0 1-.105-.645c0-.184.104-.438.241-.574l.185-.186c.133-.133.097-.288-.072-.345l-1.375-.458a.484.484 0 0 1-.312-.44v-.66a.34.34 0 0 1 .33-.337h1.34c.182 0 .463.066.626.148l.741.37a.331.331 0 0 0 .444-.148l.371-.741a.33.33 0 0 0-.158-.449L5.64 8.82zM14 17.333A.667.667 0 1 1 14 16a.667.667 0 0 1 0 1.333zm-4-6.666a.667.667 0 1 0 0-1.334.667.667 0 0 0 0 1.334zm12.667 2.666v-.997c0-.185.142-.336.336-.336h.66c.186 0 .204.066.041.148l-1.037.519.666.666-.518 1.038a.58.58 0 0 1-.485.296h-.66c-.186 0-.232-.105-.104-.233l1.1-1.1z" mask="url(#b)"/>
    </g>
</svg>
