<svg xmlns="http://www.w3.org/2000/svg" xmlns:xlink="http://www.w3.org/1999/xlink" width="20" height="20" viewBox="0 0 20 20">
    <defs>
        <rect id="a" width="20" height="20" rx="10"/>
    </defs>
    <g fill="none" fill-rule="evenodd">
        <mask id="b" fill="#fff">
            <use xlink:href="#a"/>
        </mask>
        <use fill="#FFF" xlink:href="#a"/>
        <path fill="#F00" d="M-4 0h28v20H-4z" mask="url(#b)"/>
        <path fill="#FFF" d="M8 12H4.341A.34.34 0 0 1 4 11.659V8.341A.34.34 0 0 1 4.341 8H8V4.341A.34.34 0 0 1 8.341 4h3.318a.34.34 0 0 1 .341.341V8h3.659a.34.34 0 0 1 .341.341v3.318a.34.34 0 0 1-.341.341H12v3.659a.34.34 0 0 1-.341.341H8.341A.34.34 0 0 1 8 15.659V12z" mask="url(#b)"/>
    </g>
</svg>
