<svg xmlns="http://www.w3.org/2000/svg" xmlns:xlink="http://www.w3.org/1999/xlink" width="20" height="20" viewBox="0 0 20 20">
    <defs>
        <rect id="a" width="20" height="20" rx="10"/>
    </defs>
    <g fill="none" fill-rule="evenodd">
        <mask id="b" fill="#fff">
            <use xlink:href="#a"/>
        </mask>
        <use fill="#FFF" xlink:href="#a"/>
        <rect width="19.5" height="19.5" x=".25" y=".25" stroke="#F5F5F5" stroke-width=".5" rx="9.75"/>
        <path fill="#DF1E35" d="M-4 0h28v6.667H-4z" mask="url(#b)"/>
        <path fill="#262626" d="M-4 13.333h28V20H-4z" mask="url(#b)"/>
        <path fill="#0F7A40" d="M14.667 8.341c0-.188.132-.275.296-.193l.741.37a.58.58 0 0 1 .296.48v2.67a.33.33 0 0 1-.336.332h-.66a.338.338 0 0 1-.337-.341V8.341zM6.667 8.341c0-.188.132-.275.296-.193l.741.37a.58.58 0 0 1 .296.48v2.67a.33.33 0 0 1-.336.332h-.66a.338.338 0 0 1-.337-.341V8.341zM12 8.998c0-.183.133-.398.296-.48l.741-.37c.164-.082.296.004.296.193v3.318a.334.334 0 0 1-.336.341h-.66a.33.33 0 0 1-.337-.332v-2.67z" mask="url(#b)"/>
        <path fill="#0F7A40" d="M9.333 10.33c0-.182.133-.396.296-.478l.742-.37c.163-.082.296 0 .296.189v1.055h2V12H9.67a.34.34 0 0 1-.337-.33v-1.34zM4 10.33c0-.182.133-.396.296-.478l.741-.37c.164-.082.296 0 .296.189v1.055h2V12H4.337A.34.34 0 0 1 4 11.67v-1.34z" mask="url(#b)"/>
    </g>
</svg>
