<svg xmlns="http://www.w3.org/2000/svg" xmlns:xlink="http://www.w3.org/1999/xlink" width="20" height="20" viewBox="0 0 20 20">
    <defs>
        <rect id="a" width="20" height="20" rx="10"/>
    </defs>
    <g fill="none" fill-rule="evenodd">
        <mask id="b" fill="#fff">
            <use xlink:href="#a"/>
        </mask>
        <use fill="#FFF" xlink:href="#a"/>
        <path fill="#0F3EB6" d="M-4 0h28v5.333H-4zM-4 14.667h28V20H-4z" mask="url(#b)"/>
        <path fill="#ED1A3C" d="M-4 5.333h28v9.333H-4z" mask="url(#b)"/>
        <path fill="#FFF" d="M6 10.667h1.333v2.666H4.667L6 10.667zm2 0h4v2.666H8v-2.666zm4.667 0H14l1.333 2.666h-2.666v-2.666zm0-2.001c0-.368.296-.666.666-.666.369 0 .667.295.667.666V10h-1.333V8.666zM8 8.727h1.333v-.73c0-.366.296-.664.667-.664.368 0 .667.296.667.665v.73H12V10H8V8.727zm-2-.061C6 8.298 6.296 8 6.667 8c.368 0 .666.295.666.666V10H6V8.666z" mask="url(#b)"/>
    </g>
</svg>
