<svg xmlns="http://www.w3.org/2000/svg" xmlns:xlink="http://www.w3.org/1999/xlink" width="20" height="20" viewBox="0 0 20 20">
    <defs>
        <rect id="a" width="20" height="20" rx="10"/>
    </defs>
    <g fill="none" fill-rule="evenodd">
        <mask id="b" fill="#fff">
            <use xlink:href="#a"/>
        </mask>
        <use fill="#FFF" xlink:href="#a"/>
        <rect width="19.5" height="19.5" x=".25" y=".25" stroke="#F5F5F5" stroke-width=".5" rx="9.75"/>
        <path fill="#FFCB49" d="M0 0h28v5.333H0z" mask="url(#b)"/>
        <path fill="#DC1D34" d="M0 9.333h28v5.333H0z" mask="url(#b)"/>
        <path fill="#4985D4" d="M0 14.667h28V20H0z" mask="url(#b)"/>
        <path fill="#4BA343" d="M0 20l13.333-10L0 0z" mask="url(#b)"/>
        <path fill="#FFF" d="M6.333 6.126a4 4 0 1 0 0 7.748 4.002 4.002 0 0 1 0-7.748zm1 1.874a.667.667 0 1 1 0-1.333.667.667 0 0 1 0 1.333zm0 2.667a.667.667 0 1 1 0-1.334.667.667 0 0 1 0 1.334zm0 2.666a.667.667 0 1 1 0-1.333.667.667 0 0 1 0 1.333z" mask="url(#b)"/>
    </g>
</svg>
