<svg xmlns="http://www.w3.org/2000/svg" xmlns:xlink="http://www.w3.org/1999/xlink" width="20" height="20" viewBox="0 0 20 20">
    <defs>
        <rect id="a" width="20" height="20" rx="10"/>
        <linearGradient id="c" x1="50%" x2="50%" y1="0%" y2="100%">
            <stop offset="0%" stop-color="#F8D246"/>
            <stop offset="100%" stop-color="#F9CE2F"/>
        </linearGradient>
    </defs>
    <g fill="none" fill-rule="evenodd">
        <mask id="b" fill="#fff">
            <use xlink:href="#a"/>
        </mask>
        <use fill="#FFF" xlink:href="#a"/>
        <path fill="#146BBC" d="M9.333 0h9.333v20H9.333z" mask="url(#b)"/>
        <path fill="#E43642" d="M0 0h9.333v20H0zM18.667 0H28v20h-9.333z" mask="url(#b)"/>
        <path fill="url(#c)" d="M5.333 12h1.334v4H5.333v-4zm-2.666 0H4v4H2.667v-4zM4 14.667h1.333L4.667 16 4 14.667zM4 12h1.333l-.666 1.333L4 12zm0-1.333L4.667 10l.666.667H4zM4.667 12a.667.667 0 1 1 0-1.333.667.667 0 0 1 0 1.333zm0 2.667a.667.667 0 1 1 0-1.334.667.667 0 0 1 0 1.334z" mask="url(#b)"/>
    </g>
</svg>
