<svg xmlns="http://www.w3.org/2000/svg" xmlns:xlink="http://www.w3.org/1999/xlink" width="20" height="20" viewBox="0 0 20 20">
    <defs>
        <rect id="a" width="20" height="20" rx="10"/>
    </defs>
    <g fill="none" fill-rule="evenodd">
        <mask id="b" fill="#fff">
            <use xlink:href="#a"/>
        </mask>
        <use fill="#FFF" xlink:href="#a"/>
        <path fill="#079D7B" d="M-4 0h28v20H-4z" mask="url(#b)"/>
        <g mask="url(#b)">
            <path fill="#FFF" d="M7.27 11.87c.19.05.378.094.563.13H4.667c.158.475.37.922.63 1.333h9.406c.26-.411.472-.858.63-1.333h-3.21c.191-.035.386-.079.583-.13-.605.02-1.592.13-2.706.13-1.13 0-2.128-.112-2.73-.13zm-.557-.168c-1.494-.504-2.518-1.313-2.357-1.914.18-.67 1.766-.828 3.545-.351.093.025.185.051.276.079a5.79 5.79 0 0 1-.062-.85c0-1.84.844-3.333 1.885-3.333s1.885 1.493 1.885 3.334c0 .292-.021.575-.061.844.102-.031.206-.061.312-.09 1.779-.476 3.366-.319 3.545.352.163.606-.88 1.423-2.395 1.927-.268-.794-1.637-1.033-3.286-1.033-1.65 0-3.021.24-3.287 1.035zm6.842 2.965A5.435 5.435 0 0 1 10 16c-1.347 0-2.584-.5-3.555-1.333h7.11z"/>
            <path fill="#FCD117" d="M10 4a.667.667 0 1 1 0-1.333A.667.667 0 0 1 10 4zM4.667 7.333a.667.667 0 1 1 0-1.333.667.667 0 0 1 0 1.333zm10.666 0a.667.667 0 1 1 0-1.333.667.667 0 0 1 0 1.333zm-2-2a.667.667 0 1 1 0-1.333.667.667 0 0 1 0 1.333zm-6.666 0a.667.667 0 1 1 0-1.333.667.667 0 0 1 0 1.333z"/>
        </g>
    </g>
</svg>
