<svg xmlns="http://www.w3.org/2000/svg" xmlns:xlink="http://www.w3.org/1999/xlink" width="20" height="20" viewBox="0 0 20 20">
    <defs>
        <rect id="a" width="20" height="20" rx="10"/>
        <path id="c" d="M.667 3.333c0-.898.498-2.687.498-2.687C1.258.29 1.634 0 1.994 0h2.679a.9.9 0 0 1 .829.642S6 2.413 6 3.333c0 .86-.502 2.693-.502 2.693-.09.354-.358.873-.608 1.137 0 0-.557.837-1.557.837-1 0-1.556-.837-1.556-.837a3.237 3.237 0 0 1-.612-1.146S.667 4.215.667 3.333z"/>
    </defs>
    <g fill="none" fill-rule="evenodd">
        <mask id="b" fill="#fff">
            <use xlink:href="#a"/>
        </mask>
        <use fill="#FFF" xlink:href="#a"/>
        <rect width="19.5" height="19.5" x=".25" y=".25" stroke="#F5F5F5" stroke-width=".5" rx="9.75"/>
        <path fill="#17508F" d="M0 6.667h28v6.667H0z" mask="url(#b)"/>
        <path fill="#E1444D" d="M0 0h28v6.667H0z" mask="url(#b)"/>
        <g mask="url(#b)">
            <g transform="translate(5.333 6.667)">
                <mask id="d" fill="#fff">
                    <use xlink:href="#c"/>
                </mask>
                <use fill="#FFF" xlink:href="#c"/>
                <path stroke="#E1444D" stroke-linecap="square" stroke-width="1.333" d="M6 .667L.667 7.333" mask="url(#d)"/>
                <path stroke="#E1444D" stroke-linecap="square" stroke-width="1.333" d="M6 .667L.667 7.333" mask="url(#d)" transform="matrix(-1 0 0 1 6.667 0)"/>
            </g>
        </g>
    </g>
</svg>
