<svg xmlns="http://www.w3.org/2000/svg" xmlns:xlink="http://www.w3.org/1999/xlink" width="20" height="20" viewBox="0 0 20 20">
    <defs>
        <rect id="a" width="20" height="20" rx="10"/>
        <ellipse id="c" cx="2" cy="1.333" rx="2" ry="1.333"/>
        <ellipse id="e" cx="2" cy="1.333" rx="2" ry="1.333"/>
        <ellipse id="g" cx="2" cy="1.333" rx="2" ry="1.333"/>
        <ellipse id="i" cx="2" cy=".667" rx="2" ry="1"/>
        <ellipse id="j" cx="2" cy="1.333" rx="2" ry="1.333"/>
    </defs>
    <g fill="none" fill-rule="evenodd">
        <mask id="b" fill="#fff">
            <use xlink:href="#a"/>
        </mask>
        <use fill="#FFF" xlink:href="#a"/>
        <path fill="#30C375" d="M-4 0h28v20H-4z" mask="url(#b)"/>
        <path fill="#DE414F" d="M0 0h4v20H0z" mask="url(#b)"/>
        <g mask="url(#b)">
            <g transform="translate(0 1.333)">
                <mask id="d" fill="#fff">
                    <use xlink:href="#c"/>
                </mask>
                <use fill="#FFF" xlink:href="#c"/>
                <circle cx="2" cy="1.333" r="1" fill="#DD404F" mask="url(#d)"/>
                <path fill="#FBAF29" d="M0 0h2v1.333H0zM2 1.333h2v1.333H2z" mask="url(#d)"/>
            </g>
        </g>
        <g mask="url(#b)">
            <g transform="translate(0 16)">
                <mask id="f" fill="#fff">
                    <use xlink:href="#e"/>
                </mask>
                <use fill="#FFF" xlink:href="#e"/>
                <circle cx="2" cy="1.333" r="1" fill="#DD404F" mask="url(#f)"/>
                <path fill="#FBAF29" d="M0 0h2v1.333H0zM2 1.333h2v1.333H2z" mask="url(#f)"/>
            </g>
        </g>
        <g mask="url(#b)">
            <g transform="translate(0 9.333)">
                <mask id="h" fill="#fff">
                    <use xlink:href="#g"/>
                </mask>
                <use fill="#28AE67" xlink:href="#g"/>
                <ellipse cx="2" cy="1.333" fill="#DD404F" mask="url(#h)" rx="1.333" ry="1"/>
            </g>
        </g>
        <g mask="url(#b)">
            <use fill="#28AE67" transform="translate(0 13.333)" xlink:href="#i"/>
        </g>
        <g mask="url(#b)">
            <g transform="translate(0 5.333)">
                <mask id="k" fill="#fff">
                    <use xlink:href="#j"/>
                </mask>
                <use fill="#FBAF29" xlink:href="#j"/>
                <circle cx="2" cy="1.333" r="1" fill="#DD404F" mask="url(#k)"/>
                <path fill="#28AE67" d="M0 0h1.333v2.667H0zM2.667 0H4v2.667H2.667z" mask="url(#k)"/>
            </g>
        </g>
        <path fill="#FFF" d="M10.823 4.238a.667.667 0 1 0 1.021.857.667.667 0 0 0-1.021-.857zM9.095 6.823a.667.667 0 1 0-.857 1.021.667.667 0 0 0 .857-1.021zM7.762 5.489a.667.667 0 1 0-.857 1.022.667.667 0 0 0 .857-1.022zm2.667-2.666a.667.667 0 1 0-.858 1.021.667.667 0 0 0 .858-1.021zm-.667 2a.667.667 0 1 0-.857 1.021.667.667 0 0 0 .857-1.021z" mask="url(#b)"/>
        <path fill="#FFF" d="M13.476 9.45a4.066 4.066 0 0 1-6.168-.487 4.067 4.067 0 0 0 5.68-5.68 4.066 4.066 0 0 1 .488 6.168z" mask="url(#b)"/>
    </g>
</svg>
