<svg xmlns="http://www.w3.org/2000/svg" xmlns:xlink="http://www.w3.org/1999/xlink" width="20" height="20" viewBox="0 0 20 20">
    <defs>
        <rect id="a" width="20" height="20" rx="10"/>
    </defs>
    <g fill="none" fill-rule="evenodd">
        <mask id="b" fill="#fff">
            <use xlink:href="#a"/>
        </mask>
        <use fill="#FFF" xlink:href="#a"/>
        <path fill="#E92434" d="M-4 0h28v20H-4z" mask="url(#b)"/>
        <path fill="#FFF" d="M11.811 5.698a4.667 4.667 0 1 0 0 8.604 4.334 4.334 0 0 1 0-8.604zM10 16a6 6 0 1 1 0-12 6 6 0 0 1 0 12zm2.354-4.83l1.803.674-1.033-1.624 1.197-1.507-1.863.482-1.063-1.605-.118 1.921-1.855.515 1.79.706-.083 1.923 1.225-1.485z" mask="url(#b)"/>
    </g>
</svg>
