<svg xmlns="http://www.w3.org/2000/svg" xmlns:xlink="http://www.w3.org/1999/xlink" width="20" height="20" viewBox="0 0 20 20">
    <defs>
        <rect id="a" width="20" height="20" rx="10"/>
    </defs>
    <g fill="none" fill-rule="evenodd">
        <mask id="b" fill="#fff">
            <use xlink:href="#a"/>
        </mask>
        <use fill="#FFF" xlink:href="#a"/>
        <path fill="#E92434" d="M-3 0h28v20H-3z" mask="url(#b)"/>
        <path fill="#FFF" d="M15.686 10.812l-1.568 1.118.579-1.836-1.547-1.146 1.924-.017.612-1.825.611 1.825 1.925.017-1.547 1.146.578 1.836-1.567-1.118z" mask="url(#b)"/>
        <path fill="#FFF" d="M14.403 6.316a6 6 0 1 0 0 7.368 5.21 5.21 0 0 1-3.07.983c-2.761 0-5-2.09-5-4.667s2.239-4.667 5-4.667a5.21 5.21 0 0 1 3.07.983z" mask="url(#b)"/>
    </g>
</svg>
