<svg xmlns="http://www.w3.org/2000/svg" xmlns:xlink="http://www.w3.org/1999/xlink" width="20" height="20" viewBox="0 0 20 20">
    <defs>
        <rect id="a" width="20" height="20" rx="10"/>
    </defs>
    <g fill="none" fill-rule="evenodd">
        <mask id="b" fill="#fff">
            <use xlink:href="#a"/>
        </mask>
        <use fill="#FFF" xlink:href="#a"/>
        <rect width="19.5" height="19.5" x=".25" y=".25" stroke="#F5F5F5" stroke-width=".5" rx="9.75"/>
        <path fill="#0E4DC5" d="M0 0h28v20H0V0zm13.333 0v2.667H28V0H13.333zm0 5.333V8H28V5.333H13.333zm0 5.334v2.666H28v-2.666H13.333zM0 16v2.667h28V16H0zM0 0v13.333h13.333V0H0z" mask="url(#b)"/>
        <path fill="#FED443" d="M6.667 9.321l-.89 1.329-.226-1.583-1.378.81.484-1.524-1.594.133L4.16 7.322 2.667 6.75l1.493-.572-1.097-1.163 1.594.132-.484-1.524 1.378.81.226-1.582.89 1.328.89-1.328.225 1.583 1.379-.811-.484 1.524 1.594-.132-1.098 1.163 1.494.572-1.494.572 1.098 1.164-1.594-.133.484 1.525-1.379-.811-.225 1.583-.89-1.329zm0-.025a2.545 2.545 0 1 0 0-5.091 2.545 2.545 0 0 0 0 5.09zm0-.63a2 2 0 1 1 0-4 2 2 0 0 1 0 4z" mask="url(#b)"/>
    </g>
</svg>
