<svg xmlns="http://www.w3.org/2000/svg" xmlns:xlink="http://www.w3.org/1999/xlink" width="20" height="20" viewBox="0 0 20 20">
    <defs>
        <rect id="a" width="20" height="20" rx="10"/>
        <path id="c" d="M-1.333 20V0H0l13.333 10L0 20z"/>
        <linearGradient id="d" x1="50%" x2="50%" y1="0%" y2="100%">
            <stop offset="0%" stop-color="#F12F1F"/>
            <stop offset="100%" stop-color="#DE2010"/>
        </linearGradient>
    </defs>
    <g fill="none" fill-rule="evenodd">
        <mask id="b" fill="#fff">
            <use xlink:href="#a"/>
        </mask>
        <use fill="#FFF" xlink:href="#a"/>
        <path fill="#369D0C" d="M0 0h28v2.667H0zM0 17.333h28V20H0zM0 5.333h28V8H0zM0 12h28v2.667H0z" mask="url(#b)"/>
        <path fill="#262626" d="M0 8h28v4H0z" mask="url(#b)"/>
        <path fill="#FFD40E" d="M0 2.667h28v2.667H0zM0 14.667h28v2.667H0z" mask="url(#b)"/>
        <g mask="url(#b)">
            <use fill="#FFF" xlink:href="#c"/>
            <path stroke="#262626" stroke-width="1.333" d="M-.667 19.333h.445L12.222 10-.222.667h-.445v18.666z"/>
        </g>
        <path fill="url(#d)" d="M4 11.3l-1.96 1.397.724-2.295L.83 8.97l2.406-.022L4 6.667l.764 2.281 2.406.022-1.934 1.432.723 2.295z" mask="url(#b)"/>
    </g>
</svg>
