<?xml version="1.0" encoding="utf-8"?>
<!-- Generator: Adobe Illustrator 16.0.4, SVG Export Plug-In . SVG Version: 6.00 Build 0)  -->
<!DOCTYPE svg PUBLIC "-//W3C//DTD SVG 1.1//EN" "http://www.w3.org/Graphics/SVG/1.1/DTD/svg11.dtd">
<svg version="1.1" id="Ebene_1" xmlns="http://www.w3.org/2000/svg" xmlns:xlink="http://www.w3.org/1999/xlink" x="0px" y="0px"
	 width="100px" height="100px" viewBox="0 0 100 100" enable-background="new 0 0 100 100" xml:space="preserve">
<path fill="#AAB414" d="M50,100C22.387,100,0,77.614,0,50C0,22.386,22.387,0,50,0s50,22.386,50,50C100,77.614,77.613,100,50,100"/>
<path fill="#FFFFFF" d="M61.807,42.661c-2.606,0.003-4.726-2.191-4.729-4.895c-0.003-2.703,2.111-4.9,4.72-4.903
	c2.606-0.003,4.726,2.19,4.728,4.895C66.529,40.46,64.413,42.658,61.807,42.661 M71.25,46.115L71.25,46.115V30.168
	c-0.036-0.163-0.062-0.329-0.109-0.488c-0.314-1.039-1.22-1.716-2.293-1.716c-4.928-0.001-9.856,0.001-14.785-0.002
	c-0.703-0.001-1.293,0.254-1.789,0.769c-5.523,5.731-11.049,11.46-16.574,17.191c-2.079,2.156-4.159,4.312-6.237,6.469
	c-0.948,0.983-0.948,2.509-0.002,3.489c4.949,5.133,9.897,10.267,14.847,15.399c0.975,1.011,2.437,1.011,3.41,0
	c3.827-3.97,7.654-7.938,11.482-11.907c3.773-3.916,7.548-7.83,11.322-11.744c0.281-0.291,0.496-0.621,0.612-1.017
	C71.184,46.45,71.212,46.281,71.25,46.115"/>
</svg>
