<?xml version="1.0" encoding="utf-8"?>
<!-- Generator: Adobe Illustrator 22.0.1, SVG Export Plug-In . SVG Version: 6.00 Build 0)  -->
<svg version="1.1" id="Ebene_1" xmlns="http://www.w3.org/2000/svg" xmlns:xlink="http://www.w3.org/1999/xlink" x="0px" y="0px"
	 viewBox="0 0 155 153.7" style="enable-background:new 0 0 155 153.7;" xml:space="preserve">
<style type="text/css">
	.st0{clip-path:url(#SVGID_2_);fill:#DFE6ED;}
	.st1{clip-path:url(#SVGID_4_);fill:#879BAA;}
	.st2{clip-path:url(#SVGID_6_);fill:#DFE6ED;}
	.st3{clip-path:url(#SVGID_8_);fill:#879BAA;}
	.st4{clip-path:url(#SVGID_10_);fill:#DFE6ED;}
	.st5{clip-path:url(#SVGID_12_);fill:#879BAA;}
</style>
<g>
	<defs>
		<rect id="SVGID_1_" x="2.3" y="2.3" width="517.3" height="150.3"/>
	</defs>
	<clipPath id="SVGID_2_">
		<use xlink:href="#SVGID_1_"  style="overflow:visible;"/>
	</clipPath>
	<path class="st0" d="M261,152.7c41.5,0,75.2-33.6,75.2-75.2S302.5,2.3,261,2.3S185.8,36,185.8,77.5S219.5,152.7,261,152.7"/>
</g>
<g>
	<defs>
		<path id="SVGID_3_" d="M185.8,77.5c0,41.5,33.7,75.2,75.2,75.2c41.5,0,75.2-33.6,75.2-75.2S302.5,2.3,261,2.3
			C219.5,2.3,185.8,36,185.8,77.5"/>
	</defs>
	<clipPath id="SVGID_4_">
		<use xlink:href="#SVGID_3_"  style="overflow:visible;"/>
	</clipPath>
	<path class="st1" d="M307.5,106.8c-0.2-10.4-6.1-17.4-15-18l0,0l-16-1.1v0l0,0L261,103.1h0l-15.5-15.5c0,0,0,0,0,0v0l-16,1.1l0,0
		c-8.8,0.6-14.8,7.7-15,18c0,0,0,0,0,0v45.9h93L307.5,106.8C307.5,106.9,307.5,106.8,307.5,106.8"/>
	<path class="st1" d="M282,32.1c-0.7-0.5-1.8-1.3-1.8-1.3c-0.7-4.8-7.2-9.4-18.7-9.4c-11.6,0-15.1,4.2-16.5,5.2
		c-1.4,1.1-2,4.2-2,4.2s-4.8,2.8-5.5,6.2c-0.7,3.4,1.2,15.3,1.2,15.3c0.4-0.2,0.7-0.3,1.1-0.5c-0.1,1.1-0.2,2.2-0.2,3.4
		c0,14.6,15.5,24.4,21.4,24.4c5.9,0,21.4-9.8,21.4-24.4c0-1.1-0.1-2.1-0.2-3.2c0.6,0.2,0.9,0.3,0.9,0.3S287,35.7,282,32.1"/>
</g>
<g>
	<defs>
		<rect id="SVGID_5_" x="2.3" y="2.3" width="517.3" height="150.3"/>
	</defs>
	<clipPath id="SVGID_6_">
		<use xlink:href="#SVGID_5_"  style="overflow:visible;"/>
	</clipPath>
	<path class="st2" d="M77.5,152.7c41.5,0,75.2-33.6,75.2-75.2S119,2.3,77.5,2.3S2.3,36,2.3,77.5S36,152.7,77.5,152.7"/>
</g>
<g>
	<defs>
		<path id="SVGID_7_" d="M2.3,77.5c0,41.5,33.7,75.2,75.2,75.2c41.5,0,75.2-33.6,75.2-75.2S119,2.3,77.5,2.3C36,2.3,2.3,36,2.3,77.5
			"/>
	</defs>
	<clipPath id="SVGID_8_">
		<use xlink:href="#SVGID_7_"  style="overflow:visible;"/>
	</clipPath>
	<path class="st3" d="M77.4,78.2c13.8,0,23.2-10.6,23.2-26.5s-9.4-26.5-23.2-26.5S54.3,35.9,54.3,51.7S63.6,78.2,77.4,78.2"/>
	<path class="st3" d="M62,88.4L62,88.4L62,88.4l-16,1.1l0,0c-8.8,0.6-14.8,7.7-15,18c0,0,0,0,0,0v45.9h43.3h6.5H124l0-45.9
		c0,0,0,0,0,0c-0.2-10.4-6.1-17.4-15-18l0,0l-16-1.1v0l0,0H62z"/>
</g>
<g>
	<defs>
		<rect id="SVGID_9_" x="2.3" y="2.3" width="517.3" height="150.3"/>
	</defs>
	<clipPath id="SVGID_10_">
		<use xlink:href="#SVGID_9_"  style="overflow:visible;"/>
	</clipPath>
	<path class="st4" d="M444.5,152.7c41.5,0,75.2-33.6,75.2-75.2S486,2.3,444.5,2.3S369.3,36,369.3,77.5S403,152.7,444.5,152.7"/>
</g>
<g>
	<defs>
		<path id="SVGID_11_" d="M369.3,77.5c0,41.5,33.7,75.2,75.2,75.2c41.5,0,75.2-33.6,75.2-75.2S486,2.3,444.5,2.3
			C403,2.3,369.3,36,369.3,77.5"/>
	</defs>
	<clipPath id="SVGID_12_">
		<use xlink:href="#SVGID_11_"  style="overflow:visible;"/>
	</clipPath>
	<path class="st5" d="M444.5,96.2c-13,0-15.5-8.5-15.5-8.5l0,0v0l-16,1.1l0,0c-8.8,0.6-14.8,7.7-15,18c0,0,0,0,0,0l9.3,45.9h34h6.5
		h34l9.3-45.9c0,0,0,0,0,0c-0.2-10.4-6.1-17.4-15-18l0,0l-16-1.1v0l0,0C460,87.6,457.5,96.2,444.5,96.2"/>
	<path class="st5" d="M450.4,22.1c4.4,1.2,20.8,8.1,15.2,29c-1,2.6-1.6,7.4-1.3,9.9c0.3,2.5-0.4,12.1,5.4,15.9c0,0-9.2,3.8-16.7-0.4
		c-8.8-5-17.3,0.1-17.4,0.2l-0.5,0.2c-7.3,3.5-15.8-0.1-15.8-0.1c5.7-3.8,5.1-13.6,5.4-16.1c0.3-2.5-0.3-7.6-1.3-10.2
		c-5.6-21,7-23.1,7-23.1s5-4.6,8.2-5.5C441.8,21.2,446,21,450.4,22.1"/>
</g>
</svg>
