<?xml version="1.0" encoding="utf-8"?>
<!-- Generator: Adobe Illustrator 18.0.0, SVG Export Plug-In . SVG Version: 6.00 Build 0)  -->
<!DOCTYPE svg PUBLIC "-//W3C//DTD SVG 1.0//EN" "http://www.w3.org/TR/2001/REC-SVG-20010904/DTD/svg10.dtd">
<svg version="1.0" id="Layer_1" xmlns="http://www.w3.org/2000/svg" xmlns:xlink="http://www.w3.org/1999/xlink" x="0px" y="0px"
	 viewBox="0 0 283.5 283.5" enable-background="new 0 0 283.5 283.5" xml:space="preserve">
<g>
	<g>
		<path fill="#2387AA" d="M141.6,282c77.1,0,139.6-62.8,139.6-140.3S218.8,1.4,141.6,1.4S2,64.2,2,141.7S64.5,282,141.6,282"/>
		<path fill="#FFFFFF" d="M147.2,104.6c0,10.9-8.8,19.7-19.6,19.7c-10.9,0-19.6-8.8-19.6-19.7c0-10.9,8.8-19.7,19.6-19.7
			C138.4,84.8,147.2,93.7,147.2,104.6"/>
		<path fill="#FFFFFF" d="M116.6,152.8c10.9,0,19.6,8.8,19.6,19.7c0,10.9-8.8,19.7-19.6,19.7c-10.8,0-19.6-8.8-19.6-19.7
			C97,161.7,105.8,152.8,116.6,152.8"/>
		<path fill="#FFFFFF" d="M159,206.7l4.1,15.3c-8.6,2.3-17.5,3.2-26.3,2.7c-45.6-2.7-80.4-42-77.7-87.8l15.7,0.9
			c4.5,0.4,8.7,2.6,11.6,6.2c1.9,4.2,4.1,8.2,6.6,12c-9.1,13.2-5.9,31.2,7.2,40.4c11.7,8.2,27.7,6.6,37.5-3.9c4.3,1.7,8.6,3,13.1,4
			C154.7,198.7,157.8,202.3,159,206.7"/>
		<path fill="#FFFFFF" d="M180.7,128.3c10.8,0,19.6,8.8,19.6,19.7c0,10.9-8.8,19.7-19.6,19.7c-10.8,0-19.6-8.8-19.6-19.7
			C161.1,137.2,169.9,128.3,180.7,128.3"/>
		<path fill="#FFFFFF" d="M215.5,104.5c20.5,41,4,91-36.8,111.5l-7-14.1c-2-4.1-2.1-8.9-0.5-13.2c2.6-3.7,5-7.7,7.1-11.8
			c15.9,1.4,29.9-10.5,31.2-26.4c1.2-14.3-8.2-27.4-22.1-30.7c-0.7-4.5-1.7-9-3-13.4c-0.2-4.6,1.4-9,4.6-12.3L200,82.9
			C206.3,89.2,211.6,96.5,215.5,104.5"/>
		<path fill="#FFFFFF" d="M187.1,72.3l-8.6,13.2c-2.6,3.8-6.6,6.3-11.1,7c-4.5-0.4-9.1-0.5-13.7-0.3c-6.8-14.5-24-20.8-38.4-14
			c-12.9,6.1-19.5,20.8-15.4,34.6c-3.6,2.9-6.9,6-10,9.4c-3.8,2.5-8.5,3.3-12.9,2.2l-15.2-4.1c2.3-8.6,5.9-16.8,10.8-24.3
			C97.6,57.7,148.9,47.1,187.1,72.3"/>
	</g>
	<g>
		<rect x="196.3" y="29.1" fill="#FFB900" width="86.3" height="34.9"/>
		<path fill="#FFFFFF" d="M212.7,57.1c1.1,0,2,0,2.6-0.2c1-0.2,2-0.4,2.6-0.9c1.6-1,2.4-2.6,2.4-4.8c0-2.7-1.4-4.3-4.1-5
			c2.5-0.6,3.7-2.2,3.7-4.8c0-1.3-0.3-2.5-1-3.3c-0.7-0.9-1.7-1.5-3.1-1.9c-0.9-0.2-2.1-0.3-3.8-0.3h-5.6v21.2L212.7,57.1
			L212.7,57.1z M210.1,38.8h1.5c0.8,0,1.3,0,1.6,0.1c0.8,0.1,1.4,0.3,1.9,0.6c0.8,0.5,1.2,1.4,1.2,2.6c0,1.2-0.4,2-1.2,2.6
			c-0.6,0.3-1.7,0.6-3.3,0.6h-1.7L210.1,38.8L210.1,38.8z M210.1,47.7h1.8c1.4,0,2.6,0.2,3.2,0.5c1,0.5,1.5,1.5,1.5,2.7
			c0,1.8-0.9,2.9-2.5,3.1c-0.5,0.1-1.3,0.1-2.4,0.1h-1.7V47.7z M236.8,57.1v-3h-9v-6.2h8.1v-3h-8.1V39h8.6v-2.9h-12.2v21
			C224.2,57.1,236.8,57.1,236.8,57.1z M248.8,57.1v-18h6.2v-3h-15.9v3h6.1v18.1L248.8,57.1L248.8,57.1z M268.9,57.1h3.9l-7.9-21
			h-4.1l-7.7,21h3.7l2.1-6.1h7.8L268.9,57.1z M260,48.2l1.8-5c0.5-1.4,0.9-2.6,1.2-3.6c0.3,1.2,0.8,2.5,1.2,3.6l1.8,5
			C265.9,48.2,260,48.2,260,48.2z"/>
	</g>
</g>
</svg>
