<?xml version="1.0" encoding="utf-8"?>
<!-- Generator: Adobe Illustrator 18.0.0, SVG Export Plug-In . SVG Version: 6.00 Build 0)  -->
<!DOCTYPE svg PUBLIC "-//W3C//DTD SVG 1.0//EN" "http://www.w3.org/TR/2001/REC-SVG-20010904/DTD/svg10.dtd">
<svg version="1.0" id="Ebene_1" xmlns="http://www.w3.org/2000/svg" xmlns:xlink="http://www.w3.org/1999/xlink" x="0px" y="0px"
	 viewBox="0 0 222.6 133" enable-background="new 0 0 222.6 133" xml:space="preserve">
<g>
	<defs>
		<rect id="SVGID_1_" x="0.3" y="-0.1" width="222.6" height="133"/>
	</defs>
	<clipPath id="SVGID_2_">
		<use xlink:href="#SVGID_1_"  overflow="visible"/>
	</clipPath>
	<g clip-path="url(#SVGID_2_)">
		<defs>
			<rect id="SVGID_3_" x="0.3" y="-0.1" width="222.6" height="133"/>
		</defs>
		<clipPath id="SVGID_4_">
			<use xlink:href="#SVGID_3_"  overflow="visible"/>
		</clipPath>
		<g opacity="0.75" clip-path="url(#SVGID_4_)">
			<g>
				<defs>
					<rect id="SVGID_5_" x="-8.6" y="27.1" width="240.4" height="28.3"/>
				</defs>
				<clipPath id="SVGID_6_">
					<use xlink:href="#SVGID_5_"  overflow="visible"/>
				</clipPath>
				<path clip-path="url(#SVGID_6_)" fill="#50BED7" d="M5.4,34.1c0,0-5,0-5,5v10.3c0,0,0,5,5,5h212.4c0,0,5,0,5-5V39.1c0,0,0-5-5-5
					H5.4z"/>
			</g>
		</g>
		<g opacity="0.75" clip-path="url(#SVGID_4_)">
			<g>
				<defs>
					<rect id="SVGID_7_" x="-8.6" y="52.4" width="240.4" height="28.3"/>
				</defs>
				<clipPath id="SVGID_8_">
					<use xlink:href="#SVGID_7_"  overflow="visible"/>
				</clipPath>
				<path clip-path="url(#SVGID_8_)" fill="#50BED7" d="M5.4,59.4c0,0-5,0-5,5v10.3c0,0,0,5,5,5h212.4c0,0,5,0,5-5V64.4c0,0,0-5-5-5
					H5.4z"/>
			</g>
		</g>
		<g opacity="0.75" clip-path="url(#SVGID_4_)">
			<g>
				<defs>
					<rect id="SVGID_9_" x="-8.6" y="95.8" width="240.4" height="28.3"/>
				</defs>
				<clipPath id="SVGID_10_">
					<use xlink:href="#SVGID_9_"  overflow="visible"/>
				</clipPath>
				<path clip-path="url(#SVGID_10_)" fill="#50BED7" d="M5.4,102.8c0,0-5,0-5,5v10.3c0,0,0,5,5,5h212.4c0,0,5,0,5-5v-10.3
					c0,0,0-5-5-5H5.4z"/>
			</g>
		</g>
		<path clip-path="url(#SVGID_4_)" fill="#41AAAA" d="M3.4,20.4c0,0-3,0-3,3v3c0,0,0,3,3,3h216.4c0,0,3,0,3-3v-3c0,0,0-3-3-3H3.4z"
			/>
		<path clip-path="url(#SVGID_4_)" fill="#41AAAA" d="M3.4,90.2c0,0-3,0-3,3v3c0,0,0,3,3,3h216.4c0,0,3,0,3-3v-3c0,0,0-3-3-3H3.4z"
			/>
	</g>
	<g clip-path="url(#SVGID_2_)">
		<text transform="matrix(1 0 0 1 5.0335 26.6001)"><tspan x="0" y="0" fill="#FFFFFF" font-family="'SiemensSans-Bold'" font-size="4.7066">C</tspan><tspan x="2.9" y="0" fill="#FFFFFF" font-family="'SiemensSans-Bold'" font-size="4.7066">HAPTERS</tspan></text>
	</g>
	<g clip-path="url(#SVGID_2_)">
		<defs>
			<rect id="SVGID_11_" x="0.3" y="-0.1" width="222.6" height="133"/>
		</defs>
		<clipPath id="SVGID_12_">
			<use xlink:href="#SVGID_11_"  overflow="visible"/>
		</clipPath>
		<g opacity="0.75" clip-path="url(#SVGID_12_)">
			<g>
				<defs>
					<rect id="SVGID_13_" x="101.6" y="-7.1" width="68.9" height="141"/>
				</defs>
				<clipPath id="SVGID_14_">
					<use xlink:href="#SVGID_13_"  overflow="visible"/>
				</clipPath>
				<path clip-path="url(#SVGID_14_)" fill="#005F87" d="M121.8-0.1c0,0-11.2,0-11.2,11.2v110.6c0,0,0,11.2,11.2,11.2h28.5
					c0,0,11.2,0,11.2-11.2V11.1c0,0,0-11.2-11.2-11.2H121.8z"/>
			</g>
		</g>
		<g opacity="0.75" clip-path="url(#SVGID_12_)">
			<g>
				<defs>
					<rect id="SVGID_15_" x="158" y="-7.1" width="68.9" height="141"/>
				</defs>
				<clipPath id="SVGID_16_">
					<use xlink:href="#SVGID_15_"  overflow="visible"/>
				</clipPath>
				<path clip-path="url(#SVGID_16_)" fill="#005F87" d="M178.2-0.1c0,0-11.2,0-11.2,11.2v110.6c0,0,0,11.2,11.2,11.2h28.5
					c0,0,11.2,0,11.2-11.2V11.1c0,0,0-11.2-11.2-11.2H178.2z"/>
			</g>
		</g>
		<path clip-path="url(#SVGID_12_)" fill="#FFFFFF" d="M118.8,105.9c0,0-5,0-5,5v4c0,0,0,5,5,5h34.5c0,0,5,0,5-5v-4c0,0,0-5-5-5
			H118.8z"/>
	</g>
	<rect x="129.5" y="109.9" clip-path="url(#SVGID_2_)" fill="#BECDD7" width="21" height="2.4"/>
	<rect x="128.9" y="113.9" clip-path="url(#SVGID_2_)" fill="#BECDD7" width="25.8" height="2.4"/>
	<g clip-path="url(#SVGID_2_)">
		<defs>
			<rect id="SVGID_17_" x="0.3" y="-0.1" width="222.6" height="133"/>
		</defs>
		<clipPath id="SVGID_18_">
			<use xlink:href="#SVGID_17_"  overflow="visible"/>
		</clipPath>
		<path clip-path="url(#SVGID_18_)" fill="#EBF0F5" d="M121.2,118.1c2.9,0,5.2-2.3,5.2-5.2c0-2.9-2.3-5.2-5.2-5.2
			c-2.9,0-5.2,2.3-5.2,5.2C116,115.8,118.3,118.1,121.2,118.1"/>
	</g>
	<g clip-path="url(#SVGID_2_)">
		<defs>
			<path id="SVGID_19_" d="M116,112.9c0,2.9,2.3,5.2,5.2,5.2c2.9,0,5.2-2.3,5.2-5.2c0-2.9-2.3-5.2-5.2-5.2
				C118.3,107.7,116,110,116,112.9"/>
		</defs>
		<clipPath id="SVGID_20_">
			<use xlink:href="#SVGID_19_"  overflow="visible"/>
		</clipPath>
		<path clip-path="url(#SVGID_20_)" fill="#879BAA" d="M121,113.4c1,0,1.6-0.7,1.6-1.8s-0.7-1.8-1.6-1.8c-1,0-1.6,0.7-1.6,1.8
			S120.1,113.4,121,113.4"/>
		<path clip-path="url(#SVGID_20_)" fill="#879BAA" d="M120,114.1L120,114.1l-1.1,0.1v0c-0.6,0-1,0.5-1,1.3l0,0v3.2h3h0.5h3l0-3.2
			l0,0c0-0.7-0.4-1.2-1-1.3l0,0l-1.1-0.1H120z"/>
	</g>
	<g clip-path="url(#SVGID_2_)">
		<defs>
			<rect id="SVGID_21_" x="0.3" y="-0.1" width="222.6" height="133"/>
		</defs>
		<clipPath id="SVGID_22_">
			<use xlink:href="#SVGID_21_"  overflow="visible"/>
		</clipPath>
		<circle clip-path="url(#SVGID_22_)" fill="none" stroke="#50BED7" stroke-width="0.764" cx="121.2" cy="112.9" r="5.2"/>
		<path clip-path="url(#SVGID_22_)" fill="#FFFFFF" d="M175.2,105.9c0,0-5,0-5,5v4c0,0,0,5,5,5h34.5c0,0,5,0,5-5v-4c0,0,0-5-5-5
			H175.2z"/>
	</g>
	<rect x="185.9" y="109.9" clip-path="url(#SVGID_2_)" fill="#BECDD7" width="21" height="2.4"/>
	<rect x="185.2" y="113.9" clip-path="url(#SVGID_2_)" fill="#BECDD7" width="25.8" height="2.4"/>
	<g clip-path="url(#SVGID_2_)">
		<defs>
			<rect id="SVGID_23_" x="0.3" y="-0.1" width="222.6" height="133"/>
		</defs>
		<clipPath id="SVGID_24_">
			<use xlink:href="#SVGID_23_"  overflow="visible"/>
		</clipPath>
		<path clip-path="url(#SVGID_24_)" fill="#EBF0F5" d="M177.5,118.1c2.9,0,5.2-2.3,5.2-5.2c0-2.9-2.3-5.2-5.2-5.2
			c-2.9,0-5.2,2.3-5.2,5.2C172.3,115.8,174.7,118.1,177.5,118.1"/>
	</g>
	<g clip-path="url(#SVGID_2_)">
		<defs>
			<path id="SVGID_25_" d="M172.3,112.9c0,2.9,2.3,5.2,5.2,5.2c2.9,0,5.2-2.3,5.2-5.2c0-2.9-2.3-5.2-5.2-5.2
				C174.7,107.7,172.3,110,172.3,112.9"/>
		</defs>
		<clipPath id="SVGID_26_">
			<use xlink:href="#SVGID_25_"  overflow="visible"/>
		</clipPath>
		<path clip-path="url(#SVGID_26_)" fill="#879BAA" d="M177.4,113.4c1,0,1.6-0.7,1.6-1.8s-0.7-1.8-1.6-1.8c-1,0-1.6,0.7-1.6,1.8
			S176.4,113.4,177.4,113.4"/>
		<path clip-path="url(#SVGID_26_)" fill="#879BAA" d="M176.3,114.1L176.3,114.1l-1.1,0.1v0c-0.6,0-1,0.5-1,1.3l0,0v3.2h3h0.5h3
			l0-3.2l0,0c0-0.7-0.4-1.2-1-1.3l0,0l-1.1-0.1H176.3z"/>
	</g>
	<g clip-path="url(#SVGID_2_)">
		<defs>
			<rect id="SVGID_27_" x="0.3" y="-0.1" width="222.6" height="133"/>
		</defs>
		<clipPath id="SVGID_28_">
			<use xlink:href="#SVGID_27_"  overflow="visible"/>
		</clipPath>
		<circle clip-path="url(#SVGID_28_)" fill="none" stroke="#50BED7" stroke-width="0.764" cx="177.5" cy="112.9" r="5.2"/>
		<path clip-path="url(#SVGID_28_)" fill="#FFFFFF" d="M118.8,62.6c0,0-5,0-5,5v4c0,0,0,5,5,5h34.5c0,0,5,0,5-5v-4c0,0,0-5-5-5
			H118.8z"/>
	</g>
	<rect x="129.5" y="66.5" clip-path="url(#SVGID_2_)" fill="#BECDD7" width="21" height="2.4"/>
	<rect x="128.9" y="70.5" clip-path="url(#SVGID_2_)" fill="#BECDD7" width="25.8" height="2.4"/>
	<g clip-path="url(#SVGID_2_)">
		<defs>
			<rect id="SVGID_29_" x="0.3" y="-0.1" width="222.6" height="133"/>
		</defs>
		<clipPath id="SVGID_30_">
			<use xlink:href="#SVGID_29_"  overflow="visible"/>
		</clipPath>
		<path clip-path="url(#SVGID_30_)" fill="#EBF0F5" d="M121.2,74.8c2.9,0,5.2-2.3,5.2-5.2s-2.3-5.2-5.2-5.2c-2.9,0-5.2,2.3-5.2,5.2
			S118.3,74.8,121.2,74.8"/>
	</g>
	<g clip-path="url(#SVGID_2_)">
		<defs>
			<path id="SVGID_31_" d="M116,69.6c0,2.9,2.3,5.2,5.2,5.2c2.9,0,5.2-2.3,5.2-5.2c0-2.9-2.3-5.2-5.2-5.2
				C118.3,64.4,116,66.7,116,69.6"/>
		</defs>
		<clipPath id="SVGID_32_">
			<use xlink:href="#SVGID_31_"  overflow="visible"/>
		</clipPath>
		<path clip-path="url(#SVGID_32_)" fill="#879BAA" d="M121,70c1,0,1.6-0.7,1.6-1.8s-0.7-1.8-1.6-1.8c-1,0-1.6,0.7-1.6,1.8
			S120.1,70,121,70"/>
		<path clip-path="url(#SVGID_32_)" fill="#879BAA" d="M120,70.7L120,70.7l-1.1,0.1v0c-0.6,0-1,0.5-1,1.3l0,0v3.2h3h0.5h3l0-3.2l0,0
			c0-0.7-0.4-1.2-1-1.3l0,0l-1.1-0.1H120z"/>
	</g>
	<g clip-path="url(#SVGID_2_)">
		<defs>
			<rect id="SVGID_33_" x="0.3" y="-0.1" width="222.6" height="133"/>
		</defs>
		<clipPath id="SVGID_34_">
			<use xlink:href="#SVGID_33_"  overflow="visible"/>
		</clipPath>
		<circle clip-path="url(#SVGID_34_)" fill="none" stroke="#50BED7" stroke-width="0.764" cx="121.2" cy="69.6" r="5.2"/>
		<path clip-path="url(#SVGID_34_)" fill="#FFFFFF" d="M175.2,62.6c0,0-5,0-5,5v4c0,0,0,5,5,5h34.5c0,0,5,0,5-5v-4c0,0,0-5-5-5
			H175.2z"/>
	</g>
	<rect x="185.9" y="66.5" clip-path="url(#SVGID_2_)" fill="#BECDD7" width="21" height="2.4"/>
	<rect x="185.2" y="70.5" clip-path="url(#SVGID_2_)" fill="#BECDD7" width="25.8" height="2.4"/>
	<g clip-path="url(#SVGID_2_)">
		<defs>
			<rect id="SVGID_35_" x="0.3" y="-0.1" width="222.6" height="133"/>
		</defs>
		<clipPath id="SVGID_36_">
			<use xlink:href="#SVGID_35_"  overflow="visible"/>
		</clipPath>
		<path clip-path="url(#SVGID_36_)" fill="#EBF0F5" d="M177.5,74.8c2.9,0,5.2-2.3,5.2-5.2s-2.3-5.2-5.2-5.2c-2.9,0-5.2,2.3-5.2,5.2
			S174.7,74.8,177.5,74.8"/>
	</g>
	<g clip-path="url(#SVGID_2_)">
		<defs>
			<path id="SVGID_37_" d="M172.3,69.6c0,2.9,2.3,5.2,5.2,5.2c2.9,0,5.2-2.3,5.2-5.2c0-2.9-2.3-5.2-5.2-5.2
				C174.7,64.4,172.3,66.7,172.3,69.6"/>
		</defs>
		<clipPath id="SVGID_38_">
			<use xlink:href="#SVGID_37_"  overflow="visible"/>
		</clipPath>
		<path clip-path="url(#SVGID_38_)" fill="#879BAA" d="M177.4,70c1,0,1.6-0.7,1.6-1.8s-0.7-1.8-1.6-1.8c-1,0-1.6,0.7-1.6,1.8
			S176.4,70,177.4,70"/>
		<path clip-path="url(#SVGID_38_)" fill="#879BAA" d="M176.3,70.7L176.3,70.7l-1.1,0.1v0c-0.6,0-1,0.5-1,1.3l0,0v3.2h3h0.5h3l0-3.2
			l0,0c0-0.7-0.4-1.2-1-1.3l0,0l-1.1-0.1H176.3z"/>
	</g>
	<g clip-path="url(#SVGID_2_)">
		<defs>
			<rect id="SVGID_39_" x="0.3" y="-0.1" width="222.6" height="133"/>
		</defs>
		<clipPath id="SVGID_40_">
			<use xlink:href="#SVGID_39_"  overflow="visible"/>
		</clipPath>
		<circle clip-path="url(#SVGID_40_)" fill="none" stroke="#50BED7" stroke-width="0.764" cx="177.5" cy="69.6" r="5.2"/>
		<path clip-path="url(#SVGID_40_)" fill="#FFFFFF" d="M118.8,37.2c0,0-5,0-5,5v4c0,0,0,5,5,5h34.5c0,0,5,0,5-5v-4c0,0,0-5-5-5
			H118.8z"/>
	</g>
	<rect x="129.5" y="41.2" clip-path="url(#SVGID_2_)" fill="#BECDD7" width="21" height="2.4"/>
	<rect x="128.9" y="45.2" clip-path="url(#SVGID_2_)" fill="#BECDD7" width="25.8" height="2.4"/>
	<g clip-path="url(#SVGID_2_)">
		<defs>
			<rect id="SVGID_41_" x="0.3" y="-0.1" width="222.6" height="133"/>
		</defs>
		<clipPath id="SVGID_42_">
			<use xlink:href="#SVGID_41_"  overflow="visible"/>
		</clipPath>
		<path clip-path="url(#SVGID_42_)" fill="#EBF0F5" d="M121.2,49.4c2.9,0,5.2-2.3,5.2-5.2c0-2.9-2.3-5.2-5.2-5.2
			c-2.9,0-5.2,2.3-5.2,5.2C116,47.1,118.3,49.4,121.2,49.4"/>
	</g>
	<g clip-path="url(#SVGID_2_)">
		<defs>
			<path id="SVGID_43_" d="M116,44.2c0,2.9,2.3,5.2,5.2,5.2c2.9,0,5.2-2.3,5.2-5.2c0-2.9-2.3-5.2-5.2-5.2
				C118.3,39,116,41.4,116,44.2"/>
		</defs>
		<clipPath id="SVGID_44_">
			<use xlink:href="#SVGID_43_"  overflow="visible"/>
		</clipPath>
		<path clip-path="url(#SVGID_44_)" fill="#879BAA" d="M121,44.7c1,0,1.6-0.7,1.6-1.8S122,41,121,41c-1,0-1.6,0.7-1.6,1.8
			S120.1,44.7,121,44.7"/>
		<path clip-path="url(#SVGID_44_)" fill="#879BAA" d="M120,45.4L120,45.4l-1.1,0.1v0c-0.6,0-1,0.5-1,1.3l0,0v3.2h3h0.5h3l0-3.2l0,0
			c0-0.7-0.4-1.2-1-1.3l0,0l-1.1-0.1H120z"/>
	</g>
	<g clip-path="url(#SVGID_2_)">
		<defs>
			<rect id="SVGID_45_" x="0.3" y="-0.1" width="222.6" height="133"/>
		</defs>
		<clipPath id="SVGID_46_">
			<use xlink:href="#SVGID_45_"  overflow="visible"/>
		</clipPath>
		<circle clip-path="url(#SVGID_46_)" fill="none" stroke="#50BED7" stroke-width="0.764" cx="121.2" cy="44.2" r="5.2"/>
		<path clip-path="url(#SVGID_46_)" fill="#FFFFFF" d="M175.2,37.2c0,0-5,0-5,5v4c0,0,0,5,5,5h34.5c0,0,5,0,5-5v-4c0,0,0-5-5-5
			H175.2z"/>
	</g>
	<rect x="185.9" y="41.2" clip-path="url(#SVGID_2_)" fill="#BECDD7" width="21" height="2.4"/>
	<rect x="185.2" y="45.2" clip-path="url(#SVGID_2_)" fill="#BECDD7" width="25.8" height="2.4"/>
	<g clip-path="url(#SVGID_2_)">
		<defs>
			<rect id="SVGID_47_" x="0.3" y="-0.1" width="222.6" height="133"/>
		</defs>
		<clipPath id="SVGID_48_">
			<use xlink:href="#SVGID_47_"  overflow="visible"/>
		</clipPath>
		<path clip-path="url(#SVGID_48_)" fill="#EBF0F5" d="M177.5,49.4c2.9,0,5.2-2.3,5.2-5.2c0-2.9-2.3-5.2-5.2-5.2
			c-2.9,0-5.2,2.3-5.2,5.2C172.3,47.1,174.7,49.4,177.5,49.4"/>
	</g>
	<g clip-path="url(#SVGID_2_)">
		<defs>
			<path id="SVGID_49_" d="M172.3,44.2c0,2.9,2.3,5.2,5.2,5.2c2.9,0,5.2-2.3,5.2-5.2c0-2.9-2.3-5.2-5.2-5.2
				C174.7,39,172.3,41.4,172.3,44.2"/>
		</defs>
		<clipPath id="SVGID_50_">
			<use xlink:href="#SVGID_49_"  overflow="visible"/>
		</clipPath>
		<path clip-path="url(#SVGID_50_)" fill="#879BAA" d="M177.4,44.7c1,0,1.6-0.7,1.6-1.8s-0.7-1.8-1.6-1.8c-1,0-1.6,0.7-1.6,1.8
			S176.4,44.7,177.4,44.7"/>
		<path clip-path="url(#SVGID_50_)" fill="#879BAA" d="M176.3,45.4L176.3,45.4l-1.1,0.1v0c-0.6,0-1,0.5-1,1.3l0,0v3.2h3h0.5h3l0-3.2
			l0,0c0-0.7-0.4-1.2-1-1.3l0,0l-1.1-0.1H176.3z"/>
	</g>
	<g clip-path="url(#SVGID_2_)">
		<defs>
			<rect id="SVGID_51_" x="0.3" y="-0.1" width="222.6" height="133"/>
		</defs>
		<clipPath id="SVGID_52_">
			<use xlink:href="#SVGID_51_"  overflow="visible"/>
		</clipPath>
		<circle clip-path="url(#SVGID_52_)" fill="none" stroke="#50BED7" stroke-width="0.764" cx="177.5" cy="44.2" r="5.2"/>
	</g>
	<rect x="123.2" y="14.2" clip-path="url(#SVGID_2_)" fill="#50BED7" width="25.8" height="2.5"/>
	<rect x="179.5" y="14.2" clip-path="url(#SVGID_2_)" fill="#50BED7" width="25.8" height="2.5"/>
	<rect x="123.2" y="4.1" clip-path="url(#SVGID_2_)" fill="#50BED7" width="25.8" height="5"/>
	<rect x="179.5" y="4.1" clip-path="url(#SVGID_2_)" fill="#50BED7" width="25.8" height="5"/>
	<rect x="5" y="48.1" clip-path="url(#SVGID_2_)" fill="#FFFFFF" width="25.8" height="2.5"/>
	<rect x="5" y="37.9" clip-path="url(#SVGID_2_)" fill="#FFFFFF" width="25.8" height="5"/>
	<rect x="5" y="73.4" clip-path="url(#SVGID_2_)" fill="#FFFFFF" width="25.8" height="2.5"/>
	<rect x="5" y="63.2" clip-path="url(#SVGID_2_)" fill="#FFFFFF" width="25.8" height="5"/>
	<rect x="5" y="106.6" clip-path="url(#SVGID_2_)" fill="#FFFFFF" width="25.8" height="5"/>
	<rect x="5" y="116.8" clip-path="url(#SVGID_2_)" fill="#FFFFFF" width="25.8" height="2.5"/>
	<rect x="4.1" y="22.4" clip-path="url(#SVGID_2_)" fill="#FFFFFF" width="25.8" height="5"/>
	<rect x="4.1" y="92.1" clip-path="url(#SVGID_2_)" fill="#FFFFFF" width="44.5" height="5"/>
	<g clip-path="url(#SVGID_2_)">
		<defs>
			<rect id="SVGID_53_" x="0.3" y="-0.1" width="222.6" height="133"/>
		</defs>
		<clipPath id="SVGID_54_">
			<use xlink:href="#SVGID_53_"  overflow="visible"/>
		</clipPath>
		<g opacity="0.75" clip-path="url(#SVGID_54_)">
			<g>
				<defs>
					<rect id="SVGID_55_" x="-8.6" y="-7.1" width="240.4" height="141"/>
				</defs>
				<clipPath id="SVGID_56_">
					<use xlink:href="#SVGID_55_"  overflow="visible"/>
				</clipPath>
				<path clip-path="url(#SVGID_56_)" fill="#004669" d="M167,102.8L167,102.8h-5.4v-3.6h5.4V102.8z M167,90.2L167,90.2h-5.4V79.7
					h5.4V90.2z M167,59.4L167,59.4h-5.4v-5h5.4V59.4z M167,34.1L167,34.1h-5.4v-4.7h5.4V34.1z M222.8,118.1v-10.3c0,0,0-5-5-5v-3.6
					h2c0,0,3,0,3-3v-3c0,0,0-3-3-3h-2V79.7c0.5,0,5-0.3,5-5V64.4c0,0,0-5-5-5v-5c0.5,0,5-0.2,5-5V39.1c0,0,0-5-5-5v-4.7h2
					c0,0,3,0,3-3v-3c0,0,0-3-3-3h-2v-9.3c0,0,0-11.2-11.2-11.2h-28.5c0,0-11.2,0-11.2,11.2v9.3h-5.4v-9.3c0,0,0-11.2-11.2-11.2
					h-28.5c0,0-11.2,0-11.2,11.2v9.3H3.4c0,0-3,0-3,3v3c0,0,0,3,3,3h107.2v4.7H5.4c0,0-5,0-5,5v10.3c0,0,0,5,5,5h105.2v5H5.4
					c0,0-5,0-5,5v10.3c0,0,0,5,5,5h105.2v10.5H3.4c0,0-3,0-3,3v3c0,0,0,3,3,3h107.2v3.6H5.4c0,0-5,0-5,5v10.3c0,0,0,5,5,5h105.3
					c0.4,3,2.3,9.8,11.1,9.8h28.5c0,0,10.2,0,11.1-9.8h5.6c0.4,3,2.3,9.8,11.1,9.8h28.5c0,0,10.2,0,11.1-9.8h0
					C217.8,123.1,222.8,123.1,222.8,118.1"/>
			</g>
		</g>
		<g opacity="0.75" clip-path="url(#SVGID_54_)">
			<g>
				<defs>
					<rect id="SVGID_57_" x="45.3" y="-7.1" width="68.9" height="141"/>
				</defs>
				<clipPath id="SVGID_58_">
					<use xlink:href="#SVGID_57_"  overflow="visible"/>
				</clipPath>
				<path clip-path="url(#SVGID_58_)" fill="#005F87" d="M65.5-0.1c0,0-11.2,0-11.2,11.2v110.6c0,0,0,11.2,11.2,11.2H94
					c0,0,11.2,0,11.2-11.2V11.1c0,0,0-11.2-11.2-11.2H65.5z"/>
			</g>
		</g>
	</g>
	<rect x="54.3" y="20.4" clip-path="url(#SVGID_2_)" fill="#41AAAA" width="50.8" height="9"/>
	<g clip-path="url(#SVGID_2_)">
		<defs>
			<rect id="SVGID_59_" x="0.3" y="-0.1" width="222.6" height="133"/>
		</defs>
		<clipPath id="SVGID_60_">
			<use xlink:href="#SVGID_59_"  overflow="visible"/>
		</clipPath>
		<path clip-path="url(#SVGID_60_)" fill="#FFFFFF" d="M62.5,105.9c0,0-5,0-5,5v4c0,0,0,5,5,5H97c0,0,5,0,5-5v-4c0,0,0-5-5-5H62.5z"
			/>
	</g>
	<rect x="73.2" y="109.9" clip-path="url(#SVGID_2_)" fill="#BECDD7" width="21" height="2.4"/>
	<rect x="72.6" y="113.9" clip-path="url(#SVGID_2_)" fill="#BECDD7" width="25.8" height="2.4"/>
	<g clip-path="url(#SVGID_2_)">
		<defs>
			<rect id="SVGID_61_" x="0.3" y="-0.1" width="222.6" height="133"/>
		</defs>
		<clipPath id="SVGID_62_">
			<use xlink:href="#SVGID_61_"  overflow="visible"/>
		</clipPath>
		<path clip-path="url(#SVGID_62_)" fill="#EBF0F5" d="M64.9,118.1c2.9,0,5.2-2.3,5.2-5.2c0-2.9-2.3-5.2-5.2-5.2s-5.2,2.3-5.2,5.2
			C59.7,115.8,62,118.1,64.9,118.1"/>
	</g>
	<g clip-path="url(#SVGID_2_)">
		<defs>
			<path id="SVGID_63_" d="M59.7,112.9c0,2.9,2.3,5.2,5.2,5.2c2.9,0,5.2-2.3,5.2-5.2c0-2.9-2.3-5.2-5.2-5.2
				C62,107.7,59.7,110,59.7,112.9"/>
		</defs>
		<clipPath id="SVGID_64_">
			<use xlink:href="#SVGID_63_"  overflow="visible"/>
		</clipPath>
		<path clip-path="url(#SVGID_64_)" fill="#879BAA" d="M64.7,113.4c1,0,1.6-0.7,1.6-1.8s-0.7-1.8-1.6-1.8s-1.6,0.7-1.6,1.8
			S63.8,113.4,64.7,113.4"/>
		<path clip-path="url(#SVGID_64_)" fill="#879BAA" d="M63.7,114.1L63.7,114.1l-1.1,0.1v0c-0.6,0-1,0.5-1,1.3l0,0v3.2h3H65h3l0-3.2
			l0,0c0-0.7-0.4-1.2-1-1.3l0,0l-1.1-0.1H63.7z"/>
	</g>
	<g clip-path="url(#SVGID_2_)">
		<defs>
			<rect id="SVGID_65_" x="0.3" y="-0.1" width="222.6" height="133"/>
		</defs>
		<clipPath id="SVGID_66_">
			<use xlink:href="#SVGID_65_"  overflow="visible"/>
		</clipPath>
		<circle clip-path="url(#SVGID_66_)" fill="none" stroke="#50BED7" stroke-width="0.764" cx="64.9" cy="112.9" r="5.2"/>
		<path clip-path="url(#SVGID_66_)" fill="#FFFFFF" d="M62.5,62.6c0,0-5,0-5,5v4c0,0,0,5,5,5H97c0,0,5,0,5-5v-4c0,0,0-5-5-5H62.5z"
			/>
	</g>
	<rect x="73.2" y="66.5" clip-path="url(#SVGID_2_)" fill="#BECDD7" width="21" height="2.4"/>
	<rect x="72.6" y="70.5" clip-path="url(#SVGID_2_)" fill="#BECDD7" width="25.8" height="2.4"/>
	<g clip-path="url(#SVGID_2_)">
		<defs>
			<rect id="SVGID_67_" x="0.3" y="-0.1" width="222.6" height="133"/>
		</defs>
		<clipPath id="SVGID_68_">
			<use xlink:href="#SVGID_67_"  overflow="visible"/>
		</clipPath>
		<path clip-path="url(#SVGID_68_)" fill="#EBF0F5" d="M64.9,74.8c2.9,0,5.2-2.3,5.2-5.2s-2.3-5.2-5.2-5.2s-5.2,2.3-5.2,5.2
			S62,74.8,64.9,74.8"/>
	</g>
	<g clip-path="url(#SVGID_2_)">
		<defs>
			<path id="SVGID_69_" d="M59.7,69.6c0,2.9,2.3,5.2,5.2,5.2c2.9,0,5.2-2.3,5.2-5.2c0-2.9-2.3-5.2-5.2-5.2
				C62,64.4,59.7,66.7,59.7,69.6"/>
		</defs>
		<clipPath id="SVGID_70_">
			<use xlink:href="#SVGID_69_"  overflow="visible"/>
		</clipPath>
		<path clip-path="url(#SVGID_70_)" fill="#879BAA" d="M64.7,70c1,0,1.6-0.7,1.6-1.8s-0.7-1.8-1.6-1.8s-1.6,0.7-1.6,1.8
			S63.8,70,64.7,70"/>
		<path clip-path="url(#SVGID_70_)" fill="#879BAA" d="M63.7,70.7L63.7,70.7l-1.1,0.1v0c-0.6,0-1,0.5-1,1.3l0,0v3.2h3H65h3l0-3.2
			l0,0c0-0.7-0.4-1.2-1-1.3l0,0l-1.1-0.1H63.7z"/>
	</g>
	<g clip-path="url(#SVGID_2_)">
		<defs>
			<rect id="SVGID_71_" x="0.3" y="-0.1" width="222.6" height="133"/>
		</defs>
		<clipPath id="SVGID_72_">
			<use xlink:href="#SVGID_71_"  overflow="visible"/>
		</clipPath>
		<circle clip-path="url(#SVGID_72_)" fill="none" stroke="#50BED7" stroke-width="0.764" cx="64.9" cy="69.6" r="5.2"/>
		<path clip-path="url(#SVGID_72_)" fill="#FFFFFF" d="M62.5,37.2c0,0-5,0-5,5v4c0,0,0,5,5,5H97c0,0,5,0,5-5v-4c0,0,0-5-5-5H62.5z"
			/>
	</g>
	<rect x="73.2" y="41.2" clip-path="url(#SVGID_2_)" fill="#BECDD7" width="21" height="2.4"/>
	<rect x="72.6" y="45.2" clip-path="url(#SVGID_2_)" fill="#BECDD7" width="25.8" height="2.4"/>
	<rect x="66.9" y="14.2" clip-path="url(#SVGID_2_)" fill="#50BED7" width="25.8" height="2.5"/>
	<g clip-path="url(#SVGID_2_)">
		<defs>
			<rect id="SVGID_73_" x="0.3" y="-0.1" width="222.6" height="133"/>
		</defs>
		<clipPath id="SVGID_74_">
			<use xlink:href="#SVGID_73_"  overflow="visible"/>
		</clipPath>
		<path clip-path="url(#SVGID_74_)" fill="#EBF0F5" d="M64.9,49.4c2.9,0,5.2-2.3,5.2-5.2c0-2.9-2.3-5.2-5.2-5.2s-5.2,2.3-5.2,5.2
			C59.7,47.1,62,49.4,64.9,49.4"/>
	</g>
	<g clip-path="url(#SVGID_2_)">
		<defs>
			<path id="SVGID_75_" d="M59.7,44.2c0,2.9,2.3,5.2,5.2,5.2c2.9,0,5.2-2.3,5.2-5.2S67.8,39,64.9,39C62,39,59.7,41.4,59.7,44.2"/>
		</defs>
		<clipPath id="SVGID_76_">
			<use xlink:href="#SVGID_75_"  overflow="visible"/>
		</clipPath>
		<path clip-path="url(#SVGID_76_)" fill="#879BAA" d="M64.7,44.7c1,0,1.6-0.7,1.6-1.8S65.7,41,64.7,41s-1.6,0.7-1.6,1.8
			S63.8,44.7,64.7,44.7"/>
		<path clip-path="url(#SVGID_76_)" fill="#879BAA" d="M63.7,45.4L63.7,45.4l-1.1,0.1v0c-0.6,0-1,0.5-1,1.3l0,0v3.2h3H65h3l0-3.2
			l0,0c0-0.7-0.4-1.2-1-1.3l0,0l-1.1-0.1H63.7z"/>
	</g>
	<g clip-path="url(#SVGID_2_)">
		<defs>
			<rect id="SVGID_77_" x="0.3" y="-0.1" width="222.6" height="133"/>
		</defs>
		<clipPath id="SVGID_78_">
			<use xlink:href="#SVGID_77_"  overflow="visible"/>
		</clipPath>
		<circle clip-path="url(#SVGID_78_)" fill="none" stroke="#50BED7" stroke-width="0.764" cx="64.9" cy="44.2" r="5.2"/>
	</g>
	<rect x="66.9" y="4.1" clip-path="url(#SVGID_2_)" fill="#50BED7" width="25.8" height="5"/>
</g>
</svg>
