<svg xmlns="http://www.w3.org/2000/svg" xmlns:xlink="http://www.w3.org/1999/xlink" width="20" height="20" viewBox="0 0 20 20">
    <defs>
        <rect id="a" width="20" height="20" rx="10"/>
        <path id="c" d="M0 0h28L14 20z"/>
        <path id="f" d="M14 11l-2.296 2.543.175-3.422-3.422.175L11 8 8 5.333 11.879 6l-.546-4L14 5.333 16.667 2l-.546 4L20 5.333 17 8l2.543 2.296-3.422-.175.175 3.422z"/>
        <filter id="e" width="125%" height="126%" x="-12.5%" y="-13%" filterUnits="objectBoundingBox">
            <feMorphology in="SourceAlpha" operator="dilate" radius=".5" result="shadowSpreadOuter1"/>
            <feOffset in="shadowSpreadOuter1" result="shadowOffsetOuter1"/>
            <feColorMatrix in="shadowOffsetOuter1" values="0 0 0 0 0 0 0 0 0 0 0 0 0 0 0 0 0 0 0.06 0"/>
        </filter>
        <path id="h" d="M0 8h28v5.333H0z"/>
        <filter id="g" width="110.7%" height="156.2%" x="-5.4%" y="-28.1%" filterUnits="objectBoundingBox">
            <feMorphology in="SourceAlpha" operator="dilate" radius=".5" result="shadowSpreadOuter1"/>
            <feOffset in="shadowSpreadOuter1" result="shadowOffsetOuter1"/>
            <feColorMatrix in="shadowOffsetOuter1" values="0 0 0 0 0 0 0 0 0 0 0 0 0 0 0 0 0 0 0.06 0"/>
        </filter>
    </defs>
    <g fill="none" fill-rule="evenodd">
        <mask id="b" fill="#fff">
            <use xlink:href="#a"/>
        </mask>
        <use fill="#FFF" xlink:href="#a"/>
        <path fill="#E2243B" d="M-4 0h28v20H-4z" mask="url(#b)"/>
        <g mask="url(#b)">
            <g transform="translate(-4)">
                <mask id="d" fill="#fff">
                    <use xlink:href="#c"/>
                </mask>
                <use fill="#262626" xlink:href="#c"/>
                <g mask="url(#d)">
                    <use fill="#000" filter="url(#e)" xlink:href="#f"/>
                    <use fill="#FFCF3C" xlink:href="#f"/>
                </g>
                <g mask="url(#d)">
                    <use fill="#000" filter="url(#g)" xlink:href="#h"/>
                    <use fill="#1984D8" xlink:href="#h"/>
                </g>
                <path fill="#FFF" d="M0 13.333h28V20H0z" mask="url(#d)"/>
            </g>
        </g>
    </g>
</svg>
