<svg xmlns="http://www.w3.org/2000/svg" xmlns:xlink="http://www.w3.org/1999/xlink" width="20" height="20" viewBox="0 0 20 20">
    <defs>
        <rect id="a" width="20" height="20" rx="10"/>
    </defs>
    <g fill="none" fill-rule="evenodd">
        <mask id="b" fill="#fff">
            <use xlink:href="#a"/>
        </mask>
        <use fill="#FFF" xlink:href="#a"/>
        <rect width="19.5" height="19.5" x=".25" y=".25" stroke="#F5F5F5" stroke-width=".5" rx="9.75"/>
        <path fill="#D6182D" d="M6.667 0h6.667v20H6.667z" mask="url(#b)"/>
        <path fill="#1425A2" d="M-4 6.667h28v6.667H-4z" mask="url(#b)"/>
        <path fill="#FFF" d="M7.333 11.667l-.471.138.138-.472-.138-.471.471.138.472-.138-.138.471.138.472zM12.667 11.667l-.472.138.138-.472-.138-.471.472.138.471-.138-.138.471.138.472zM4.667 10.333l-.472.138.138-.471-.138-.471.472.138.471-.138L5 10l.138.471zM15.333 10.333l-.471.138L15 10l-.138-.471.471.138.472-.138-.138.471.138.471zM10 9l-.471.138.138-.471-.138-.472.471.138.471-.138-.138.472.138.471z" mask="url(#b)"/>
    </g>
</svg>
