<svg xmlns="http://www.w3.org/2000/svg" xmlns:xlink="http://www.w3.org/1999/xlink" width="20" height="20" viewBox="0 0 20 20">
    <defs>
        <rect id="a" width="20" height="20" rx="10"/>
        <linearGradient id="b" x1="50%" x2="50%" y1="0%" y2="100%">
            <stop offset="0%" stop-color="#FF323E"/>
            <stop offset="100%" stop-color="#FD0D1B"/>
        </linearGradient>
        <path id="e" d="M-4 10.667h28V20H-4z"/>
        <filter id="d" width="110.7%" height="132.1%" x="-5.4%" y="-16.1%" filterUnits="objectBoundingBox">
            <feMorphology in="SourceAlpha" operator="dilate" radius=".5" result="shadowSpreadOuter1"/>
            <feOffset in="shadowSpreadOuter1" result="shadowOffsetOuter1"/>
            <feColorMatrix in="shadowOffsetOuter1" values="0 0 0 0 0 0 0 0 0 0 0 0 0 0 0 0 0 0 0.06 0"/>
        </filter>
        <path id="g" d="M-4 0h28v10.667H-4z"/>
        <filter id="f" width="110.7%" height="128.1%" x="-5.4%" y="-14.1%" filterUnits="objectBoundingBox">
            <feMorphology in="SourceAlpha" operator="dilate" radius=".5" result="shadowSpreadOuter1"/>
            <feOffset in="shadowSpreadOuter1" result="shadowOffsetOuter1"/>
            <feColorMatrix in="shadowOffsetOuter1" values="0 0 0 0 0 0 0 0 0 0 0 0 0 0 0 0 0 0 0.06 0"/>
        </filter>
        <path id="i" d="M10.174 11.806l-1.877-1.251a.667.667 0 0 1 .74-1.11l2.047 1.365a2.667 2.667 0 0 0-1.67-3.818.667.667 0 1 1 .345-1.287 4 4 0 0 1 2.439 5.848l.838.559a.667.667 0 1 1-.74 1.11l-.949-.634a3.996 3.996 0 0 1-3.659.844.667.667 0 1 1 .345-1.288 2.66 2.66 0 0 0 2.141-.338zm-1.507-3.14a.667.667 0 1 1 0-1.333.667.667 0 0 1 0 1.334z"/>
        <filter id="h" width="116.3%" height="125.4%" x="-8.1%" y="-6.3%" filterUnits="objectBoundingBox">
            <feOffset dy="1" in="SourceAlpha" result="shadowOffsetOuter1"/>
            <feColorMatrix in="shadowOffsetOuter1" values="0 0 0 0 0 0 0 0 0 0 0 0 0 0 0 0 0 0 0.06 0"/>
        </filter>
    </defs>
    <g fill="none" fill-rule="evenodd">
        <mask id="c" fill="#fff">
            <use xlink:href="#a"/>
        </mask>
        <use fill="#FFF" xlink:href="#a"/>
        <path fill="url(#b)" d="M-4 0h28v20H-4z" mask="url(#c)"/>
        <g mask="url(#c)">
            <use fill="#000" filter="url(#d)" xlink:href="#e"/>
            <use fill="#262626" xlink:href="#e"/>
        </g>
        <g mask="url(#c)">
            <use fill="#000" filter="url(#f)" xlink:href="#g"/>
            <use fill="#DD2137" xlink:href="#g"/>
        </g>
        <g fill-rule="nonzero" mask="url(#c)">
            <use fill="#000" filter="url(#h)" xlink:href="#i"/>
            <use fill="#F8D84B" fill-rule="evenodd" xlink:href="#i"/>
        </g>
    </g>
</svg>
