<svg xmlns="http://www.w3.org/2000/svg" xmlns:xlink="http://www.w3.org/1999/xlink" width="20" height="20" viewBox="0 0 20 20">
    <defs>
        <rect id="a" width="20" height="20" rx="10"/>
        <path id="d" d="M0 0h28v20H0z"/>
        <filter id="c" width="114.3%" x="-7.1%" y="-5%" filterUnits="objectBoundingBox">
            <feOffset dy="1" in="SourceAlpha" result="shadowOffsetOuter1"/>
            <feGaussianBlur in="shadowOffsetOuter1" result="shadowBlurOuter1" stdDeviation=".5"/>
            <feColorMatrix in="shadowBlurOuter1" values="0 0 0 0 0 0 0 0 0 0 0 0 0 0 0 0 0 0 0.16 0"/>
        </filter>
        <path id="e" d="M5.335 5.636l-1.414.445.444-1.414-.444-1.415 1.414.445 1.414-.445-.444 1.415.444 1.414z"/>
    </defs>
    <g fill="none" fill-rule="evenodd">
        <mask id="b" fill="#fff">
            <use xlink:href="#a"/>
        </mask>
        <use fill="#FFF" xlink:href="#a"/>
        <g mask="url(#b)">
            <use fill="#000" filter="url(#c)" xlink:href="#d"/>
            <use fill="#4189DD" xlink:href="#d"/>
        </g>
        <g mask="url(#b)" transform="rotate(135 5.335 4.667)">
            <use fill="#D21034" xlink:href="#e"/>
            <path stroke="#FFF" stroke-width=".667" d="M5.335 5.986l-1.924.604.605-1.923-.605-1.924 1.924.604 1.924-.604-.605 1.924.605 1.923-1.924-.604z"/>
        </g>
        <path fill="#F9D616" d="M0 14.667h28V16H0zM0 12h28v1.333H0z" mask="url(#b)"/>
    </g>
</svg>
