<svg xmlns="http://www.w3.org/2000/svg" xmlns:xlink="http://www.w3.org/1999/xlink" width="20" height="20" viewBox="0 0 20 20">
    <defs>
        <rect id="a" width="20" height="20" rx="10"/>
    </defs>
    <g fill="none" fill-rule="evenodd">
        <mask id="b" fill="#fff">
            <use xlink:href="#a"/>
        </mask>
        <use fill="#FFF" xlink:href="#a"/>
        <path fill="#E4233B" d="M-4 0h28v20H-4z" mask="url(#b)"/>
        <path fill="#34CD4E" d="M-4 0L8 10-4 20z" mask="url(#b)"/>
        <path fill="#34CD4E" d="M12 0l12 10-12 10z" mask="url(#b)" transform="matrix(-1 0 0 1 36 0)"/>
        <path fill="#FFF" d="M7.038 6.394l-12.32-8.31-1.492 2.21 12.32 8.31a4.665 4.665 0 0 0 0 2.792l-12.32 8.31 1.492 2.21 12.32-8.31A4.647 4.647 0 0 0 10 14.666a4.647 4.647 0 0 0 2.962-1.06l12.32 8.31 1.492-2.21-12.32-8.31a4.665 4.665 0 0 0 0-2.792l12.32-8.31-1.492-2.21-12.32 8.31A4.647 4.647 0 0 0 10 5.334a4.647 4.647 0 0 0-2.962 1.06z" mask="url(#b)"/>
        <path fill="#DF2239" d="M10 8.667l-.943.276L9.333 8l-.276-.943.943.276.943-.276-.276.943.276.943L10 8.667zM8 12l-.943.276.276-.943-.276-.942.943.276.943-.276-.276.942.276.943L8 12zm4 0l-.943.276.276-.943-.276-.942.943.276.943-.276-.276.942.276.943L12 12z" mask="url(#b)"/>
    </g>
</svg>
