<svg xmlns="http://www.w3.org/2000/svg" xmlns:xlink="http://www.w3.org/1999/xlink" width="20" height="20" viewBox="0 0 20 20">
    <defs>
        <rect id="a" width="20" height="20" rx="10"/>
        <circle id="c" cx="4.667" cy="4.667" r="4.667"/>
    </defs>
    <g fill="none" fill-rule="evenodd">
        <mask id="b" fill="#fff">
            <use xlink:href="#a"/>
        </mask>
        <use fill="#FFF" xlink:href="#a"/>
        <path fill="#05AB41" d="M-4 0h28v20H-4z" mask="url(#b)"/>
        <path fill="#FDD216" d="M-.771 10.364c-.31-.201-.304-.53 0-.728L9.438 3.03c.31-.2.82-.196 1.124 0l10.21 6.606c.31.201.303.53 0 .728l-10.21 6.606c-.31.2-.82.196-1.124 0l-10.21-6.606z" mask="url(#b)"/>
        <g mask="url(#b)">
            <g transform="translate(5.333 5.333)">
                <mask id="d" fill="#fff">
                    <use xlink:href="#c"/>
                </mask>
                <use fill="#053087" xlink:href="#c"/>
                <path stroke="#FFF" stroke-linecap="square" stroke-width="1.333" d="M-.667 4C0 3.333 2.41 3.645 4.667 4 6.923 4.355 9.34 5.341 10 6" mask="url(#d)" transform="rotate(6 4.667 4.804)"/>
            </g>
        </g>
    </g>
</svg>
