<svg xmlns="http://www.w3.org/2000/svg" xmlns:xlink="http://www.w3.org/1999/xlink" width="20" height="20" viewBox="0 0 20 20">
    <defs>
        <rect id="a" width="20" height="20" rx="10"/>
    </defs>
    <g fill="none" fill-rule="evenodd">
        <mask id="b" fill="#fff">
            <use xlink:href="#a"/>
        </mask>
        <use fill="#FFF" xlink:href="#a"/>
        <path fill="#E54252" d="M0 0h28v13.333H0z" mask="url(#b)"/>
        <path fill="#5CBE6B" d="M0 13.333h28V20H0z" mask="url(#b)"/>
        <path fill="#FFF" d="M4 17v3H0V0h4v3l-.667 1L4 5v2l-.667 1L4 9v2l-.667 1L4 13v2l-.667 1L4 17z" mask="url(#b)"/>
        <path fill="#E54252" d="M-2 4l1.333-2L.667 4-.667 6-2 4zm0 4l1.333-2L.667 8l-1.334 2L-2 8zm0 4l1.333-2 1.334 2-1.334 2L-2 12zm0 4l1.333-2 1.334 2-1.334 2L-2 16zM.667 2L2 0l1.333 2L2 4 .667 2zm0 4L2 4l1.333 2L2 8 .667 6zm0 4L2 8l1.333 2L2 12 .667 10zm0 4L2 12l1.333 2L2 16 .667 14zm0 4L2 16l1.333 2L2 20 .667 18z" mask="url(#b)"/>
    </g>
</svg>
