<svg xmlns="http://www.w3.org/2000/svg" xmlns:xlink="http://www.w3.org/1999/xlink" width="28" height="20" viewBox="0 0 28 20">
    <defs>
        <rect id="a" width="28" height="20" rx="2"/>
    </defs>
    <g fill="none" fill-rule="evenodd">
        <mask id="b" fill="#fff">
            <use xlink:href="#a"/>
        </mask>
        <use fill="#FFF" xlink:href="#a"/>
        <path fill="#19BFBF" d="M0 0h28v20H0z" mask="url(#b)"/>
        <path fill="#FFF" d="M17.566 17.768a.329.329 0 0 1-.465 0l-.869-.87a1.671 1.671 0 0 1-.336-.544l-.459-1.375a.496.496 0 0 0-.437-.312c-.184 0-.297.143-.252.327l.504 2.012a.655.655 0 0 1-.16.568l-.185.185a.337.337 0 0 1-.481 0l-.185-.185a.92.92 0 0 1-.241-.577v-.66c0-.186-.066-.47-.148-.633l-.37-.741a.598.598 0 0 0-.479-.296h-1.34c-.182 0-.462.066-.626.148l-.741.37a.925.925 0 0 0-.4.46l-.458 1.376a.916.916 0 0 1-.4.46l-.742.371a.746.746 0 0 1-.592 0l-.741-.37a.578.578 0 0 1-.296-.476v-2.012c0-.18.157-.327.33-.327h1.34c.182 0 .33-.143.33-.337v-.66c0-.186.048-.48.104-.65l.458-1.374a.484.484 0 0 1 .44-.313h.661c.186 0 .47-.066.633-.148l.741-.37c.164-.082.439-.148.632-.148h.66a.338.338 0 0 0 .337-.334c0-.184.105-.437.241-.574l.185-.185c.133-.133.307-.108.389.055l.37.742a.598.598 0 0 0 .479.296h1.34a.493.493 0 0 0 .434-.313l.458-1.375a.484.484 0 0 1 .44-.312h.661a.338.338 0 0 0 .337-.334A.33.33 0 0 0 18.33 8h-.66a.331.331 0 0 1-.337-.336v-.66c0-.187.067-.47.148-.633l.371-.742a.491.491 0 0 0-.093-.536l-.185-.186a.335.335 0 0 0-.473-.008l-.869.869a.903.903 0 0 0-.232.568v.66c0 .187-.048.481-.104.65l-.458 1.375a.496.496 0 0 1-.438.312.922.922 0 0 1-.574-.24l-.185-.186A.947.947 0 0 1 14 8.333c0-.184-.133-.267-.296-.185l-.741.37a.491.491 0 0 1-.537-.092l-.185-.185A.92.92 0 0 1 12 7.664v-.66c0-.187.105-.442.232-.57l.87-.868c.127-.129.339-.34.46-.462l1.542-1.541c.127-.127.373-.278.542-.334l1.375-.458c.172-.058.455-.104.649-.104h.66c.186 0 .403.132.485.296l.37.741c.082.164.148.453.148.626v1.34c0 .182.105.434.241.57l.185.186a.599.599 0 0 1 .137.553l-.459 1.375c-.057.173.028.4.174.498l1.444.963c.154.102.411.251.574.333l.742.37a.29.29 0 0 1 .11.427l-.962 1.444a1.32 1.32 0 0 0-.186.608v1.34a.493.493 0 0 1-.312.434l-1.375.458a.916.916 0 0 0-.46.4l-.371.742c-.082.163-.253.4-.38.528l-.87.869zm-6.233-.435a.667.667 0 1 1 0-1.333.667.667 0 0 1 0 1.333zm-2.666-8a.667.667 0 1 1 0-1.333.667.667 0 0 1 0 1.333z" mask="url(#b)"/>
        <path fill="#FFF" d="M9.852 8.963c.082-.164.148-.451.148-.63a1.67 1.67 0 0 0-.148-.629l-.37-.741c-.082-.164-.006-.296.188-.296h.66a.34.34 0 0 1 .337.33v1.34c0 .182.066.462.148.626l.37.741c.082.164-.009.296-.182.296h-1.34c-.182 0-.263-.133-.182-.296l.371-.741z" mask="url(#b)"/>
    </g>
</svg>
