<svg xmlns="http://www.w3.org/2000/svg" xmlns:xlink="http://www.w3.org/1999/xlink" width="20" height="20" viewBox="0 0 20 20">
    <defs>
        <rect id="a" width="20" height="20" rx="10"/>
    </defs>
    <g fill="none" fill-rule="evenodd">
        <mask id="b" fill="#fff">
            <use xlink:href="#a"/>
        </mask>
        <use fill="#FFF" xlink:href="#a"/>
        <rect width="19.5" height="19.5" x=".25" y=".25" stroke="#F5F5F5" stroke-width=".5" rx="9.75"/>
        <path fill="#0884E6" d="M-4 0h28v6.667H-4zM-4 13.333h28V20H-4z" mask="url(#b)"/>
        <path fill="#0E88E9" d="M10 10.667l-.943.276.276-.943-.276-.943.943.276.943-.276-.276.943.276.943zM15.333 9.333l-.942.276.276-.942-.276-.943.942.276.943-.276-.276.943.276.942zM15.333 12l-.942.276.276-.943-.276-.942.942.276.943-.276-.276.942.276.943zM4.667 12l-.943.276.276-.943-.276-.942.943.276.942-.276-.276.942.276.943zM4.667 9.333l-.943.276L4 8.667l-.276-.943.943.276.942-.276-.276.943.276.942z" mask="url(#b)"/>
    </g>
</svg>
