<svg xmlns="http://www.w3.org/2000/svg" xmlns:xlink="http://www.w3.org/1999/xlink" width="20" height="20" viewBox="0 0 20 20">
    <defs>
        <rect id="a" width="20" height="20" rx="10"/>
    </defs>
    <g fill="none" fill-rule="evenodd">
        <mask id="b" fill="#fff">
            <use xlink:href="#a"/>
        </mask>
        <use fill="#FFF" xlink:href="#a"/>
        <rect width="19.5" height="19.5" x=".25" y=".25" stroke="#F5F5F5" stroke-width=".5" rx="9.75"/>
        <path fill="#38BB56" d="M-4 0h28v6.667H-4z" mask="url(#b)"/>
        <path fill="#DE1B27" d="M-4 13.333h28V20H-4z" mask="url(#b)"/>
        <path fill="#FFF" fill-opacity=".5" d="M-2.667 5.67c0-.186.143-.337.337-.337h.66c.186 0 .337.143.337.337v.66a.331.331 0 0 1-.337.337h-.66a.331.331 0 0 1-.337-.337v-.66zM0 5.67c0-.186.143-.337.336-.337h.66c.187 0 .337.143.337.337v.66a.331.331 0 0 1-.336.337h-.66A.331.331 0 0 1 0 6.33v-.66zm2.667 0c0-.186.142-.337.336-.337h.66c.186 0 .337.143.337.337v.66a.331.331 0 0 1-.336.337h-.66a.331.331 0 0 1-.337-.337v-.66zm2.666 0c0-.186.143-.337.337-.337h.66c.186 0 .337.143.337.337v.66a.331.331 0 0 1-.337.337h-.66a.331.331 0 0 1-.337-.337v-.66zM8 5.67c0-.186.143-.337.336-.337h.66c.187 0 .337.143.337.337v.66a.331.331 0 0 1-.336.337h-.66A.331.331 0 0 1 8 6.33v-.66zm2.667 0c0-.186.142-.337.336-.337h.66c.186 0 .337.143.337.337v.66a.331.331 0 0 1-.336.337h-.66a.331.331 0 0 1-.337-.337v-.66zm2.666 0c0-.186.143-.337.337-.337h.66c.186 0 .337.143.337.337v.66a.331.331 0 0 1-.337.337h-.66a.331.331 0 0 1-.337-.337v-.66zm2.667 0c0-.186.143-.337.336-.337h.66c.187 0 .337.143.337.337v.66a.331.331 0 0 1-.336.337h-.66A.331.331 0 0 1 16 6.33v-.66zm2.667 0c0-.186.142-.337.336-.337h.66c.186 0 .337.143.337.337v.66a.331.331 0 0 1-.336.337h-.66a.331.331 0 0 1-.337-.337v-.66zm2.666 0c0-.186.143-.337.337-.337h.66c.186 0 .337.143.337.337v.66a.331.331 0 0 1-.337.337h-.66a.331.331 0 0 1-.337-.337v-.66zm-24 8c0-.186.143-.337.337-.337h.66c.186 0 .337.143.337.337v.66a.331.331 0 0 1-.337.337h-.66a.331.331 0 0 1-.337-.337v-.66zm2.667 0c0-.186.143-.337.336-.337h.66c.187 0 .337.143.337.337v.66a.331.331 0 0 1-.336.337h-.66A.331.331 0 0 1 0 14.33v-.66zm2.667 0c0-.186.142-.337.336-.337h.66c.186 0 .337.143.337.337v.66a.331.331 0 0 1-.336.337h-.66a.331.331 0 0 1-.337-.337v-.66zm2.666 0c0-.186.143-.337.337-.337h.66c.186 0 .337.143.337.337v.66a.331.331 0 0 1-.337.337h-.66a.331.331 0 0 1-.337-.337v-.66zm2.667 0c0-.186.143-.337.336-.337h.66c.187 0 .337.143.337.337v.66a.331.331 0 0 1-.336.337h-.66A.331.331 0 0 1 8 14.33v-.66zm2.667 0c0-.186.142-.337.336-.337h.66c.186 0 .337.143.337.337v.66a.331.331 0 0 1-.336.337h-.66a.331.331 0 0 1-.337-.337v-.66zm2.666 0c0-.186.143-.337.337-.337h.66c.186 0 .337.143.337.337v.66a.331.331 0 0 1-.337.337h-.66a.331.331 0 0 1-.337-.337v-.66zm2.667 0c0-.186.143-.337.336-.337h.66c.187 0 .337.143.337.337v.66a.331.331 0 0 1-.336.337h-.66A.331.331 0 0 1 16 14.33v-.66zm2.667 0c0-.186.142-.337.336-.337h.66c.186 0 .337.143.337.337v.66a.331.331 0 0 1-.336.337h-.66a.331.331 0 0 1-.337-.337v-.66zm2.666 0c0-.186.143-.337.337-.337h.66c.186 0 .337.143.337.337v.66a.331.331 0 0 1-.337.337h-.66a.331.331 0 0 1-.337-.337v-.66z" mask="url(#b)"/>
        <path stroke="#D80915" stroke-width=".667" d="M8.788 8.856a1.667 1.667 0 1 0 2.44.019l-2.44-.02z" mask="url(#b)"/>
        <rect width="1.333" height="2.667" x="9.333" y="9.333" fill="#D80915" mask="url(#b)" rx=".667"/>
    </g>
</svg>
