<svg xmlns="http://www.w3.org/2000/svg" xmlns:xlink="http://www.w3.org/1999/xlink" width="20" height="20" viewBox="0 0 20 20">
    <defs>
        <rect id="a" width="20" height="20" rx="10"/>
        <circle id="c" cx="4.667" cy="4.667" r="4.667"/>
    </defs>
    <g fill="none" fill-rule="evenodd">
        <mask id="b" fill="#fff">
            <use xlink:href="#a"/>
        </mask>
        <use fill="#FFF" xlink:href="#a"/>
        <rect width="19.5" height="19.5" x=".25" y=".25" stroke="#F5F5F5" stroke-width=".5" rx="9.75"/>
        <g mask="url(#b)">
            <g transform="translate(5.333 5.333)">
                <mask id="d" fill="#fff">
                    <use xlink:href="#c"/>
                </mask>
                <use fill="#E01B41" xlink:href="#c"/>
                <path fill="#0E4B9C" d="M0 5.333c1.333 1.25 3.333 2 4.667 0 1.333-2 4-2 4.666 0 .667 2 0 4 0 4H0s-1.333-5.25 0-4z" mask="url(#d)"/>
            </g>
        </g>
        <path fill="#262626" d="M14.944 5.23a.334.334 0 0 1 .12-.464l.573-.33a.338.338 0 0 1 .462.127l1.659 2.874a.334.334 0 0 1-.121.463l-.572.33a.338.338 0 0 1-.462-.127L14.944 5.23zm1.732-1a.334.334 0 0 1 .12-.464l.573-.33a.338.338 0 0 1 .462.127l1.659 2.874a.334.334 0 0 1-.121.463l-.572.33a.338.338 0 0 1-.462-.127L16.676 4.23zM.51 13.563a.334.334 0 0 1 .121-.463l.572-.33a.338.338 0 0 1 .462.127l1.659 2.873a.334.334 0 0 1-.12.464l-.573.33a.338.338 0 0 1-.462-.127L.51 13.563zm1.732-1a.334.334 0 0 1 .121-.463l.572-.33a.338.338 0 0 1 .462.127l1.659 2.873a.334.334 0 0 1-.12.464l-.573.33a.338.338 0 0 1-.462-.127l-1.659-2.874zm14.361-.666a.334.334 0 0 1 .462-.127l.572.33c.16.093.215.3.12.463L16.1 15.437a.334.334 0 0 1-.462.127l-.572-.33a.338.338 0 0 1-.121-.464l1.659-2.873zm1.732 1a.334.334 0 0 1 .462-.127l.572.33c.16.093.215.3.12.463l-1.658 2.874a.334.334 0 0 1-.462.127l-.572-.33a.338.338 0 0 1-.12-.464l1.658-2.873zM2.169 3.563a.334.334 0 0 1 .462-.127l.572.33c.161.093.215.3.12.464L1.666 7.103a.334.334 0 0 1-.462.127L.631 6.9a.338.338 0 0 1-.12-.463l1.658-2.874zm1.732 1a.334.334 0 0 1 .462-.127l.572.33c.161.093.216.3.121.464L3.397 8.103a.334.334 0 0 1-.462.127l-.572-.33a.338.338 0 0 1-.12-.463L3.9 4.563z" mask="url(#b)" opacity=".75"/>
    </g>
</svg>
