<svg xmlns="http://www.w3.org/2000/svg" xmlns:xlink="http://www.w3.org/1999/xlink" width="20" height="20" viewBox="0 0 20 20">
    <defs>
        <rect id="a" width="20" height="20" rx="10"/>
    </defs>
    <g fill="none" fill-rule="evenodd">
        <mask id="b" fill="#fff">
            <use xlink:href="#a"/>
        </mask>
        <use fill="#FFF" xlink:href="#a"/>
        <path fill="#30C6E0" d="M0 0h28v20H0z" mask="url(#b)"/>
        <circle cx="14" cy="10" r="4" fill="#FFCD4B" mask="url(#b)"/>
        <path fill="#FFCD4B" d="M14 14.714l-1.632 2.435-.413-2.902-2.527 1.486.887-2.794-2.922.243 2.012-2.133L6.667 10l2.738-1.049-2.012-2.133 2.922.243-.887-2.794 2.527 1.486.413-2.902L14 5.286l1.632-2.435.413 2.902 2.527-1.486-.887 2.794 2.922-.243-2.012 2.133L21.333 10l-2.738 1.049 2.012 2.133-2.922-.243.887 2.794-2.527-1.486-.413 2.902L14 14.714zm0-.047a4.667 4.667 0 1 0 0-9.334 4.667 4.667 0 0 0 0 9.334zM1.333 1.67c0-.186.143-.337.337-.337h.66c.186 0 .337.143.337.337v.66a.331.331 0 0 1-.337.337h-.66a.331.331 0 0 1-.337-.337v-.66zm0 2.666c0-.185.143-.336.337-.336h.66c.186 0 .337.143.337.336v.66a.331.331 0 0 1-.337.337h-.66a.331.331 0 0 1-.337-.336v-.66zm0 2.667c0-.186.143-.336.337-.336h.66c.186 0 .337.142.337.336v.66A.331.331 0 0 1 2.33 8h-.66a.331.331 0 0 1-.337-.336v-.66zm0 2.667c0-.186.143-.337.337-.337h.66c.186 0 .337.143.337.337v.66a.331.331 0 0 1-.337.337h-.66a.331.331 0 0 1-.337-.337v-.66zm0 2.666c0-.185.143-.336.337-.336h.66c.186 0 .337.143.337.336v.66a.331.331 0 0 1-.337.337h-.66a.331.331 0 0 1-.337-.336v-.66zm0 2.667c0-.186.143-.336.337-.336h.66c.186 0 .337.142.337.336v.66A.331.331 0 0 1 2.33 16h-.66a.331.331 0 0 1-.337-.336v-.66zm0 2.667c0-.186.143-.337.337-.337h.66c.186 0 .337.143.337.337v.66a.331.331 0 0 1-.337.337h-.66a.331.331 0 0 1-.337-.337v-.66zm1.334-1.334c0-.185.142-.336.336-.336h.66c.186 0 .337.143.337.336v.66a.331.331 0 0 1-.336.337h-.66a.331.331 0 0 1-.337-.336v-.66zm0-2.666c0-.186.142-.337.336-.337h.66c.186 0 .337.143.337.337v.66a.331.331 0 0 1-.336.337h-.66a.331.331 0 0 1-.337-.337v-.66zm0-2.667c0-.186.142-.336.336-.336h.66c.186 0 .337.142.337.336v.66a.331.331 0 0 1-.336.337h-.66a.331.331 0 0 1-.337-.336v-.66zm0-2.667c0-.185.142-.336.336-.336h.66C3.85 8 4 8.143 4 8.336v.66a.331.331 0 0 1-.336.337h-.66a.331.331 0 0 1-.337-.336v-.66zm0-2.666c0-.186.142-.337.336-.337h.66c.186 0 .337.143.337.337v.66a.331.331 0 0 1-.336.337h-.66a.331.331 0 0 1-.337-.337v-.66zm0-2.667c0-.186.142-.336.336-.336h.66c.186 0 .337.142.337.336v.66A.331.331 0 0 1 3.664 4h-.66a.331.331 0 0 1-.337-.336v-.66z" mask="url(#b)"/>
    </g>
</svg>
