<svg xmlns="http://www.w3.org/2000/svg" xmlns:xlink="http://www.w3.org/1999/xlink" width="20" height="20" viewBox="0 0 20 20">
    <defs>
        <rect id="a" width="20" height="20" rx="10"/>
    </defs>
    <g fill="none" fill-rule="evenodd">
        <mask id="b" fill="#fff">
            <use xlink:href="#a"/>
        </mask>
        <use fill="#FFF" xlink:href="#a"/>
        <rect width="19.5" height="19.5" x=".25" y=".25" stroke="#F5F5F5" stroke-width=".5" rx="9.75"/>
        <path fill="#F03340" d="M-4 0h28v5.333H-4zM-4 14.667h28V20H-4z" mask="url(#b)"/>
        <path fill="#1FC065" d="M8.867 12.466a.663.663 0 0 0-.004-.936l.274.274c-.26-.26-.756-.4-1.116-.31l-1.375.345c-.357.089-.4-.024-.106-.244l1.587-1.19c.298-.224.245-.405-.126-.405h-.668c-.368 0-.4-.133-.075-.296l1.484-.741c.326-.164.296-.296-.075-.296H8c-.368 0-.42-.185-.126-.405l1.587-1.19c.298-.224.786-.22 1.08 0l1.587 1.19c.298.223.245.405-.126.405h-.668c-.368 0-.4.132-.075.296l1.484.741c.326.164.296.296-.075.296H12c-.368 0-.42.185-.126.405l1.587 1.19c.298.224.255.334-.106.244l-1.375-.344c-.357-.09-.857.05-1.116.309l.274-.274a.662.662 0 0 0-.004.936l.4.401c.258.258.166.466-.194.466H8.661c-.365 0-.453-.208-.195-.466l.401-.4z" mask="url(#b)"/>
    </g>
</svg>
