<svg xmlns="http://www.w3.org/2000/svg" xmlns:xlink="http://www.w3.org/1999/xlink" width="20" height="20" viewBox="0 0 20 20">
    <defs>
        <rect id="a" width="20" height="20" rx="10"/>
    </defs>
    <g fill="none" fill-rule="evenodd">
        <mask id="b" fill="#fff">
            <use xlink:href="#a"/>
        </mask>
        <use fill="#FFF" xlink:href="#a"/>
        <path fill="#FFBF19" d="M-2 0h28v20H-2z" mask="url(#b)"/>
        <path fill="#A52531" d="M8.667 1.333H23.33c.738 0 1.337.597 1.337 1.332v14.67c0 .736-.589 1.332-1.337 1.332H8.667V1.333z" mask="url(#b)"/>
        <path fill="#03664F" d="M-.667 2.665c0-.736.59-1.332 1.332-1.332h2.668v17.334H.665a1.332 1.332 0 0 1-1.332-1.332V2.665z" mask="url(#b)"/>
        <rect width="4" height="17.333" x="3.333" y="1.333" fill="#FF6816" mask="url(#b)" rx=".667"/>
        <path fill="#FFBF18" d="M10.667 4A.667.667 0 0 1 10 3.333v-.666h.667a.667.667 0 0 1 0 1.333zm12 0a.667.667 0 1 1 0-1.333h.666v.666a.667.667 0 0 1-.666.667zm0 12c.368 0 .666.298.666.667v.666h-.666a.667.667 0 1 1 0-1.333zm-12 0a.667.667 0 0 1 0 1.333H10v-.666c0-.369.298-.667.667-.667zM14 12.667a.669.669 0 0 0-.667-.667H14c-.368 0-.945-.101-1.289-.241 0 0-1.378-.426-1.378-1.092 0-.667.264-.807.264-.807.222-.29.293-.797.161-1.148 0 0-.558-1.246-.425-2.045.134-.8.761-.999.761-.999.316-.185.573-.034.573.326v2.679c0 .365.27.795.604.962l.125.063c.333.167.815.091 1.074-.168l-.274.274c.26-.26.2-.606-.134-.773l-.729-.364V8H14c.368 0 .397-.135.062-.302l-.729-.365v-.666H14c.368 0 .878-.211 1.137-.47l-.274.273C15.123 6.21 15.63 6 16 6c.368 0 .802.27.969.604l.062.125c.167.334.21.882.091 1.237l-.244.735c-.117.349.096.632.463.632h1.984c.373 0 .886-.21 1.145-.47l-.274.274c.26-.26.2-.605-.134-.772l-.124-.063A3.36 3.36 0 0 0 18.667 8 .665.665 0 0 1 18 7.333c0-.368.21-.877.47-1.137L18.667 6v.667c0 .368.302.666.666.666h-.666H20c.368 0 .802.27.969.605l.062.124c.167.334.329.898.352 1.264 0 0 .092.634-.05 1.34-.14.707-.301.786-.301.786-.202.302-.365.854-.365 1.22v1.322a.668.668 0 0 1-.667.673c-.368 0-.532-.27-.365-.605l.063-.124c.167-.334.167-.874 0-1.209l-.063-.125c-.166-.333-.302-.308-.302.063 0 .368-.135.936-.302 1.27l-.062.125c-.167.334-.598.605-.969.605-.368 0-.532-.27-.365-.605l.063-.124c.167-.334.302-.9.302-1.271a.673.673 0 0 0-.673-.667h-1.32a.668.668 0 0 0-.674.667c0 .368-.135.936-.302 1.27l-.062.125c-.167.334-.598.605-.969.605-.368 0-.532-.27-.365-.605l.063-.124c.167-.334.302-.9.302-1.271z" mask="url(#b)"/>
    </g>
</svg>
