<svg xmlns="http://www.w3.org/2000/svg" xmlns:xlink="http://www.w3.org/1999/xlink" width="20" height="20" viewBox="0 0 20 20">
    <defs>
        <rect id="a" width="20" height="20" rx="10"/>
    </defs>
    <g fill="none" fill-rule="evenodd">
        <mask id="b" fill="#fff">
            <use xlink:href="#a"/>
        </mask>
        <use fill="#FFF" xlink:href="#a"/>
        <rect width="19.5" height="19.5" x=".25" y=".25" stroke="#F5F5F5" stroke-width=".5" rx="9.75"/>
        <path fill="#0C33B8" d="M-4 0h28v6.667H-4z" mask="url(#b)"/>
        <path fill="#1DB158" d="M-4 13.333h28V20H-4z" mask="url(#b)"/>
        <path fill="#262626" d="M9.333 10l.456-1.367c.117-.35.304-.355.422 0L10.667 10l1.148 1.722c.102.153.075.37-.073.474 0 0-.409.47-1.742.47s-1.742-.47-1.742-.47a.361.361 0 0 1-.073-.474L9.333 10z" mask="url(#b)"/>
        <circle cx="10" cy="8.667" r="1" stroke="#262626" stroke-width=".667" mask="url(#b)"/>
    </g>
</svg>
