<svg xmlns="http://www.w3.org/2000/svg" xmlns:xlink="http://www.w3.org/1999/xlink" width="20" height="20" viewBox="0 0 20 20">
    <defs>
        <rect id="a" width="20" height="20" rx="10"/>
        <path id="d" d="M-4 6.667h28v6.667H-4z"/>
        <filter id="c" width="110.7%" height="145%" x="-5.4%" y="-22.5%" filterUnits="objectBoundingBox">
            <feMorphology in="SourceAlpha" operator="dilate" radius=".5" result="shadowSpreadOuter1"/>
            <feOffset in="shadowSpreadOuter1" result="shadowOffsetOuter1"/>
            <feColorMatrix in="shadowOffsetOuter1" values="0 0 0 0 0 0 0 0 0 0 0 0 0 0 0 0 0 0 0.06 0"/>
        </filter>
        <path id="f" d="M-4 13.333h28V20H-4z"/>
        <filter id="e" width="110.7%" height="145%" x="-5.4%" y="-22.5%" filterUnits="objectBoundingBox">
            <feMorphology in="SourceAlpha" operator="dilate" radius=".5" result="shadowSpreadOuter1"/>
            <feOffset in="shadowSpreadOuter1" result="shadowOffsetOuter1"/>
            <feColorMatrix in="shadowOffsetOuter1" values="0 0 0 0 0 0 0 0 0 0 0 0 0 0 0 0 0 0 0.06 0"/>
        </filter>
    </defs>
    <g fill="none" fill-rule="evenodd">
        <mask id="b" fill="#fff">
            <use xlink:href="#a"/>
        </mask>
        <use fill="#FFF" xlink:href="#a"/>
        <g mask="url(#b)">
            <use fill="#000" filter="url(#c)" xlink:href="#d"/>
            <use fill="#262626" xlink:href="#d"/>
        </g>
        <g mask="url(#b)">
            <use fill="#000" filter="url(#e)" xlink:href="#f"/>
            <use fill="#34B857" xlink:href="#f"/>
        </g>
        <path fill="#F41F34" d="M-4 0h28v6.667H-4z" mask="url(#b)"/>
        <path fill="#FFF" d="M11.111 8.337a1.667 1.667 0 1 0 0 3.326 2 2 0 1 1 0-3.326zm.222 2.33a.667.667 0 1 1 0-1.334.667.667 0 0 1 0 1.334z" mask="url(#b)"/>
    </g>
</svg>
