<svg xmlns="http://www.w3.org/2000/svg" xmlns:xlink="http://www.w3.org/1999/xlink" width="20" height="20" viewBox="0 0 20 20">
    <defs>
        <rect id="a" width="20" height="20" rx="10"/>
        <circle id="c" cx="3.333" cy="3.333" r="3.333"/>
    </defs>
    <g fill="none" fill-rule="evenodd">
        <mask id="b" fill="#fff">
            <use xlink:href="#a"/>
        </mask>
        <use fill="#FFF" xlink:href="#a"/>
        <rect width="19.5" height="19.5" x=".25" y=".25" stroke="#F5F5F5" stroke-width=".5" rx="9.75"/>
        <path fill="#D82332" d="M-4 0h28v5.333H-4zM-4 14.667h28V20H-4z" mask="url(#b)"/>
        <g mask="url(#b)">
            <path fill="#514537" d="M10.625 6.727c-.691-.144-1.313-.061-1.313.6v1.809c0 .198.004.224.237.279l1.101.26v-1.86c-.429-.049-.593-.294-.593-.578 0-.276.19-.456.568-.51M8.854 11.828c-.385 0-.79-.34-.79-.987V9.23c0-.146.017-.167-.017-.2-.02-.02.023-.05.05-.08.044-.043.073-.079.015-.137-.057-.059-.033-.074.003-.111.037-.037.05-.074.016-.11-.035-.034-.043-.046-.005-.084.038-.039.022-.055-.01-.087-.03-.032-.046-.055-.005-.096.04-.04.042-.046.088-.046h.19c.044 0 .044.013.007.051-.048.049-.062.068-.008.123.055.056.052.074.018.11-.052.052-.075.088-.022.142.053.054.057.078.017.119-.04.04-.044.077 0 .122.034.034.036.054.036.115v1.644c0 .276.196.442.568.442.373 0 .5-.153.606-.256-.069.494-.271.936-.757.936M11.022 11.828c.385 0 .79-.34.79-.987V9.23c0-.146-.017-.167.017-.2.02-.02-.023-.05-.05-.08-.044-.043-.073-.079-.015-.137.057-.059.033-.074-.003-.111-.037-.037-.05-.074-.016-.11.035-.034.043-.046.005-.084-.038-.039-.022-.055.009-.087.032-.032.047-.055.006-.096-.04-.04-.042-.046-.088-.046h-.19c-.044 0-.044.013-.007.051.048.049.062.068.008.123-.055.056-.052.074-.018.11.052.052.075.088.022.142-.053.054-.057.078-.017.119.04.04.044.077 0 .122-.034.034-.036.054-.036.115v1.644c0 .276-.196.442-.568.442-.373 0-.499-.153-.606-.256.069.494.271.936.757.936"/>
            <path fill="#EEA339" d="M7.91 9.773l-1.243-.17c.036-.271.104-.535.202-.786l1.04.42v.536M10.476 7.696l.221-.922c.258.064.51.16.748.286l-.713 1.386.003-.696c-.082 0-.208-.012-.259-.054M7.938 9.863l-1.265-.078c-.016.27 0 .542.048.81 0 0 1.217.008 1.217 0v-.732M7.926 8.996c-.041-.055-.016-.084.028-.113.045-.029.038-.051.016-.093s-.044-.086-.003-.131c.041-.045.025-.064-.006-.097-.032-.032-.035-.067-.007-.093.029-.025.022-.044.004-.07-.02-.026-.057-.078-.023-.111l-.517-.439c-.17.208-.316.437-.434.682l.942.465M9.163 9.234l-.616-.606c.087-.088.096-.103.034-.165-.067-.068-.07-.075.067-.214.047-.047.02-.08-.045-.08h-.406c-.035 0-.062.001-.087.027l-.491-.482c.187-.196.396-.367.622-.51l.922 1.506v.524M8.523 9.327v-.321c0-.045-.003-.063-.038-.098-.035-.035-.017-.052.01-.09l.583.493v.29l-.555-.274M9.07 8.446v-.71c0-.463.025-.694.091-.74l-.053-.222c-.259.071-.51.167-.748.293l.71 1.38M11.958 9.773l1.242-.17a3.385 3.385 0 0 0-.202-.786l-1.04.42v.536M11.958 9.863l1.265-.078c.016.27 0 .542-.048.81 0 0-1.217.008-1.217 0v-.732M11.918 8.996c.04-.055.015-.084-.029-.113-.044-.029-.038-.051-.016-.093s.045-.086.004-.131c-.042-.045-.026-.064.006-.097.031-.032.035-.067.006-.093-.028-.025-.022-.044-.003-.07.019-.026.056-.078.023-.111l.516-.439c.17.208.317.437.434.682l-.941.465M10.794 9.234l.615-.606c-.087-.088-.096-.103-.034-.165.067-.068.07-.075-.067-.214-.047-.047-.02-.08.046-.08h.405c.035 0 .062.001.088.027l.49-.482a3.299 3.299 0 0 0-.622-.51l-.921 1.506v.524M11.35 9.327l-.001-.321c0-.045.003-.063.038-.098.035-.035.017-.052-.01-.09l-.583.493v.29l.555-.274"/>
            <path fill="#D82332" d="M8.148 9.032c.022.023.032.045.032.1v1.716c0 .57.34.888.691.888.322 0 .533-.298.644-.645-.142.113-.35.148-.55.148-.23 0-.602-.157-.602-.497V9.077c0-.045-.044-.045-.215-.045M10.161 6.784c-.44-.045-.848.048-.848.658v1.62c0 .272-.021.24.204.296.41.103.456.117.953.232V7.94c-.424-.047-.608-.329-.608-.641 0-.25.108-.483.299-.515M11.737 9.032c-.022.023-.031.045-.031.1v1.716c0 .57-.341.888-.692.888-.322 0-.533-.298-.644-.645.142.113.35.148.55.148.23 0 .602-.157.602-.497V9.077c0-.045.045-.045.215-.045"/>
            <g transform="translate(6.667 6.667)">
                <mask id="d" fill="#fff">
                    <use xlink:href="#c"/>
                </mask>
                <circle cx="3.333" cy="8.667" r="3.333" fill="#064A89" mask="url(#d)"/>
            </g>
        </g>
    </g>
</svg>
