<svg xmlns="http://www.w3.org/2000/svg" xmlns:xlink="http://www.w3.org/1999/xlink" width="20" height="20" viewBox="0 0 20 20">
    <defs>
        <rect id="a" width="20" height="20" rx="10"/>
    </defs>
    <g fill="none" fill-rule="evenodd">
        <mask id="b" fill="#fff">
            <use xlink:href="#a"/>
        </mask>
        <use fill="#FFF" xlink:href="#a"/>
        <rect width="19.5" height="19.5" x=".25" y=".25" stroke="#F5F5F5" stroke-width=".5" rx="9.75"/>
        <path fill="#0A632F" d="M-4 0h28v20H-4V0zm0 20h8V0h-8v20z" mask="url(#b)"/>
        <g fill="#FFF" mask="url(#b)">
            <path d="M19.67 10.75a5.577 5.577 0 0 1-1.603 3.395c-2.246 2.246-5.966 2.167-8.31-.176-2.343-2.343-2.422-6.063-.176-8.31a5.577 5.577 0 0 1 3.395-1.603 5.553 5.553 0 0 0-1.107.86c-2.042 2.041-2.143 5.25-.226 7.167 1.917 1.917 5.126 1.816 7.168-.225.34-.34.627-.714.86-1.107zm-2.578-2.645l-.318 1.898-.89-1.707-1.903.284 1.349-1.373-.859-1.723 1.723.858 1.374-1.349-.284 1.904 1.707.89-1.899.318z"/>
        </g>
    </g>
</svg>
