<svg xmlns="http://www.w3.org/2000/svg" xmlns:xlink="http://www.w3.org/1999/xlink" width="20" height="20" viewBox="0 0 20 20">
    <defs>
        <rect id="a" width="20" height="20" rx="10"/>
        <linearGradient id="b" x1="50%" x2="50%" y1="0%" y2="100%">
            <stop offset="0%" stop-color="#07319C"/>
            <stop offset="100%" stop-color="#00247E"/>
        </linearGradient>
        <path id="d" d="M0 4.667V1.332A1.33 1.33 0 0 1 1.333 0h4c.737 0 1.334.588 1.334 1.332v3.335c0 3.333-3.334 4.666-3.334 4.666S0 8 0 4.667z"/>
        <path id="f" d="M0 4.667V1.332A1.33 1.33 0 0 1 1.333 0h4c.737 0 1.334.588 1.334 1.332v3.335c0 3.333-3.334 4.666-3.334 4.666S0 8 0 4.667z"/>
        <path id="g" d="M.667 4L-4 0h.667l4.666 3.333h1.334L8 0v.333a.716.716 0 0 1-.278.532L3.333 4v1.333L7.75 9.118c.139.119.096.215-.082.215-.184 0-.449-.082-.612-.198L2.667 6H1.333L-4 9.333v-.666L.667 5.333V4z"/>
    </defs>
    <g fill="none" fill-rule="evenodd">
        <mask id="c" fill="#fff">
            <use xlink:href="#a"/>
        </mask>
        <use fill="#FFF" xlink:href="#a"/>
        <path fill="url(#b)" d="M-4 0h28v20H-4z" mask="url(#c)"/>
        <g mask="url(#c)">
            <g transform="translate(13.333 5.333)">
                <mask id="e" fill="#fff">
                    <use xlink:href="#d"/>
                </mask>
                <use fill="#8FC5FF" xlink:href="#d"/>
                <path fill="#366CC9" d="M2.757 6.55s.667-.864 1.06-.864c.392 0 .464.574 1.068.574.603 0 .921-.915 1.503-.915.581 0 0 3 0 3l-.788.813-4.611.533 1.768-3.14z" mask="url(#e)"/>
                <path fill="#CF6200" d="M.793 5.218l.588-.551.579 1.415.776-1.415.668 4.035-1.11-.226-3.627-1.658z" mask="url(#e)"/>
                <path fill="#FF0" d="M0 0h6.667v4H0z" mask="url(#e)"/>
            </g>
            <path stroke="#FFF" stroke-width=".667" d="M16.667 14.303a6.195 6.195 0 0 0 1.444-.967c.976-.88 1.556-1.981 1.556-3.336V6.666c0-.557-.445-1-1-1h-4c-.556 0-1 .446-1 1V10c0 1.355.58 2.457 1.556 3.336a6.195 6.195 0 0 0 1.444.967z"/>
        </g>
        <g mask="url(#c)">
            <use fill="#DB1E36" xlink:href="#g"/>
            <path stroke="#FFF" stroke-width=".667" d="M.333 4.153L-4.9-.333h1.568l.193.062L1.44 3h1.131L8.333-.601v.934c0 .296-.17.627-.417.803l-4.25 3.036V5.18l4.3 3.685c.377.323.185.802-.3.802-.257 0-.588-.107-.804-.261L2.56 6.333H1.429l-5.762 3.602v-1.44L.333 5.162V4.153z"/>
        </g>
        <path fill="#FFF" d="M-4 3.333V6H.667v3.34c0 .364.306.66.673.66h1.32a.67.67 0 0 0 .673-.66V6h4.658a.677.677 0 0 0 .676-.673v-1.32a.674.674 0 0 0-.676-.674H3.333V0H.667v3.333H-4z" mask="url(#c)"/>
        <path fill="#DB1E36" d="M-4 4h5.333V0h1.334v4H8v1.333H2.667v4H1.333v-4H-4z" mask="url(#c)"/>
    </g>
</svg>
