<svg xmlns="http://www.w3.org/2000/svg" xmlns:xlink="http://www.w3.org/1999/xlink" width="20" height="20" viewBox="0 0 20 20">
    <defs>
        <rect id="a" width="20" height="20" rx="10"/>
    </defs>
    <g fill="none" fill-rule="evenodd">
        <mask id="b" fill="#fff">
            <use xlink:href="#a"/>
        </mask>
        <use fill="#FFF" xlink:href="#a"/>
        <path fill="#2ACB41" d="M-5 13.333h28V20H-5zM-5 0h28v6.667H-5z" mask="url(#b)"/>
        <path fill="#FDD043" d="M-5 6.667h28v6.667H-5z" mask="url(#b)"/>
        <path fill="#E71E43" d="M-5 0L5.667 10-5 20z" mask="url(#b)"/>
        <path fill="#262626" d="M9.667 11.093l-1.568 1.064.528-1.82L7.13 9.177l1.893-.06.643-1.783.642 1.782 1.894.061-1.497 1.162.528 1.82zM16.333 11.093l-1.567 1.064.528-1.82-1.497-1.161 1.894-.06.642-1.783.643 1.782 1.893.061-1.496 1.162.528 1.82z" mask="url(#b)"/>
    </g>
</svg>
