<svg xmlns="http://www.w3.org/2000/svg" xmlns:xlink="http://www.w3.org/1999/xlink" width="20" height="20" viewBox="0 0 20 20">
    <defs>
        <rect id="a" width="20" height="20" rx="10"/>
        <linearGradient id="c" x1="50%" x2="50%" y1="0%" y2="100%">
            <stop offset="0%" stop-color="#DF101B"/>
            <stop offset="100%" stop-color="#C00711"/>
        </linearGradient>
    </defs>
    <g fill="none" fill-rule="evenodd">
        <mask id="b" fill="#fff">
            <use xlink:href="#a"/>
        </mask>
        <use fill="#FFF" xlink:href="#a"/>
        <rect width="19.5" height="19.5" x=".25" y=".25" stroke="#F5F5F5" stroke-width=".5" rx="9.75"/>
        <path fill="#E20F1B" d="M0 0h28v20H0V0zm0 10.667h16V0H0v10.667z" mask="url(#b)"/>
        <path fill="url(#c)" d="M9.333 4V1.657a.33.33 0 0 0-.327-.324H6.994a.323.323 0 0 0-.327.324V4H4.324A.33.33 0 0 0 4 4.327V6.34c0 .183.145.327.324.327h2.343V9.01c0 .17.146.323.327.323h2.012a.323.323 0 0 0 .327-.323V6.667h2.343A.33.33 0 0 0 12 6.34V4.327A.323.323 0 0 0 11.676 4H9.333z" mask="url(#b)"/>
    </g>
</svg>
