<svg xmlns="http://www.w3.org/2000/svg" xmlns:xlink="http://www.w3.org/1999/xlink" width="20" height="20" viewBox="0 0 20 20">
    <defs>
        <rect id="a" width="20" height="20" rx="10"/>
    </defs>
    <g fill="none" fill-rule="evenodd">
        <mask id="b" fill="#fff">
            <use xlink:href="#a"/>
        </mask>
        <use fill="#FFF" xlink:href="#a"/>
        <path fill="#1537D1" d="M-4 0h28v20H-4z" mask="url(#b)"/>
        <path fill="#EA3058" d="M9.333 0H24v20H9.333z" mask="url(#b)"/>
        <path fill="#FFCF3C" d="M5.333 0h9.333v20H5.333z" mask="url(#b)"/>
        <path fill="#FFEDB1" d="M8.667 8.667H10v.666H8.667z" mask="url(#b)"/>
        <path stroke="#D32E28" stroke-width=".667" d="M8.387 8.633l.168 2.007a1.14 1.14 0 0 0 1.115 1.027h.66c.566 0 1.068-.463 1.115-1.027l.168-2.007c.014-.175-.1-.3-.274-.3H8.661a.268.268 0 0 0-.274.3z" mask="url(#b)"/>
        <path fill="#D32E28" d="M8.667 9.333h2.666V10H8.667z" mask="url(#b)"/>
    </g>
</svg>
