<svg xmlns="http://www.w3.org/2000/svg" xmlns:xlink="http://www.w3.org/1999/xlink" width="20" height="20" viewBox="0 0 20 20">
    <defs>
        <rect id="a" width="20" height="20" rx="10"/>
    </defs>
    <g fill="none" fill-rule="evenodd">
        <mask id="b" fill="#fff">
            <use xlink:href="#a"/>
        </mask>
        <use fill="#FFF" xlink:href="#a"/>
        <rect width="19.5" height="19.5" x=".25" y=".25" stroke="#F5F5F5" stroke-width=".5" rx="9.75"/>
        <path fill="#048345" d="M-4 0h14.667v20H-4z" mask="url(#b)"/>
        <path fill="#E81B42" d="M13.333 11.04l-1.567 1.117.578-1.836-1.547-1.145 1.925-.017.611-1.826.612 1.826 1.924.017-1.547 1.145.579 1.836z" mask="url(#b)"/>
        <path fill="#E81B42" d="M13.68 5.619A5.605 5.605 0 0 0 9.75 4C6.576 4 4 6.686 4 10s2.575 6 5.75 6c1.52 0 2.902-.615 3.93-1.619a5.483 5.483 0 0 1-2.36.528C8.431 14.91 6.09 12.711 6.09 10s2.34-4.91 5.228-4.91c.85 0 1.652.191 2.361.529z" mask="url(#b)"/>
    </g>
</svg>
