<svg xmlns="http://www.w3.org/2000/svg" xmlns:xlink="http://www.w3.org/1999/xlink" width="20" height="20" viewBox="0 0 20 20">
    <defs>
        <rect id="a" width="20" height="20" rx="10"/>
        <path id="c" d="M6.667 8.66c0-.364.296-.66.666-.66h.33c.186 0 .403.133.485.296l.519 1.037S9.399 8 10 8c.667 0 1.333 1.333 1.333 1.333l.519-1.037A.58.58 0 0 1 12.336 8h.33c.369 0 .667.3.667.66v2.68c0 .364-.245.497-.546.296l-1.454-.97h-.666v.667A.665.665 0 0 1 10 12a.665.665 0 0 1-.667-.667v-.666h-.666l-1.454.969c-.302.2-.546.063-.546-.297V8.661z"/>
    </defs>
    <g fill="none" fill-rule="evenodd">
        <mask id="b" fill="#fff">
            <use xlink:href="#a"/>
        </mask>
        <use fill="#FFF" xlink:href="#a"/>
        <rect width="19.5" height="19.5" x=".25" y=".25" stroke="#F5F5F5" stroke-width=".5" rx="9.75"/>
        <path fill="#E41D33" d="M-4 0h28v6.667H-4z" mask="url(#b)"/>
        <path fill="#262626" d="M-4 13.333h28V20H-4z" mask="url(#b)"/>
        <g mask="url(#b)">
            <use fill="#F4B32E" fill-opacity=".25" xlink:href="#c"/>
            <path stroke="#C6A846" stroke-width=".667" d="M7 8.66v2.68c0 .097-.049.07.028.018l1.454-.969.185-.056h1v1c0 .186.148.334.333.334a.332.332 0 0 0 .333-.334v-1h1l.185.056 1.454.97c.079.052.028.08.028-.02V8.661a.334.334 0 0 0-.333-.328h-.33a.254.254 0 0 0-.187.112l-.817 1.634-.298-.597a4.293 4.293 0 0 0-.385-.615c-.254-.339-.498-.534-.65-.534a.274.274 0 0 0-.119.042c-.146.08-.324.256-.51.496-.18.234-.328.47-.412.623l-.306.557-.803-1.606c-.025-.05-.126-.112-.186-.112h-.33A.329.329 0 0 0 7 8.661z"/>
        </g>
    </g>
</svg>
