<svg xmlns="http://www.w3.org/2000/svg" xmlns:xlink="http://www.w3.org/1999/xlink" width="20" height="20" viewBox="0 0 20 20">
    <defs>
        <rect id="a" width="20" height="20" rx="10"/>
    </defs>
    <g fill="none" fill-rule="evenodd">
        <mask id="b" fill="#fff">
            <use xlink:href="#a"/>
        </mask>
        <use fill="#FFF" xlink:href="#a"/>
        <path fill="#95CEF5" d="M-4 0h28v20H-4z" mask="url(#b)"/>
        <path fill="#FFF" d="M10 5.76L8.433 6.824l.527-1.82-1.496-1.161 1.893-.06L10 2l.643 1.782 1.893.06-1.496 1.163.527 1.819L10 5.76zm0 10.667L8.433 17.49l.527-1.82-1.496-1.162 1.893-.06.643-1.782.643 1.782 1.893.06-1.496 1.162.527 1.82L10 16.427zm5.333-5.334l-1.567 1.064.528-1.82-1.497-1.161 1.894-.06.642-1.783.643 1.782 1.893.061-1.496 1.162.528 1.82-1.568-1.065zm-10.666 0l-1.568 1.064.528-1.82L2.13 9.177l1.893-.06.643-1.783.642 1.782 1.894.061-1.497 1.162.528 1.82-1.567-1.065z" mask="url(#b)"/>
    </g>
</svg>
