<svg xmlns="http://www.w3.org/2000/svg" xmlns:xlink="http://www.w3.org/1999/xlink" width="20" height="20" viewBox="0 0 20 20">
    <defs>
        <rect id="a" width="20" height="20" rx="10"/>
    </defs>
    <g fill="none" fill-rule="evenodd">
        <mask id="b" fill="#fff">
            <use xlink:href="#a"/>
        </mask>
        <use fill="#FFF" xlink:href="#a"/>
        <path fill="#0A17A7" d="M-4 0h28v20H-4z" mask="url(#b)"/>
        <path fill="#FFF" d="M2.674 13.333H-4V6.667h6.674L-6.774.294l1.492-2.21 11.949 8.06v-7.477h6.666v7.476l11.95-8.06 1.49 2.211-9.447 6.373H24v6.666h-6.674l9.448 6.373-1.492 2.21-11.949-8.06v7.477H6.667v-7.476l-11.95 8.06-1.49-2.211 9.447-6.373z" mask="url(#b)"/>
        <path stroke="#DB1F35" stroke-linecap="round" stroke-width=".667" d="M14.668 6.332L27.333-2" mask="url(#b)"/>
        <path stroke="#DB1F35" stroke-linecap="round" stroke-width=".667" d="M16.013 21.35l11.354-7.652" mask="url(#b)" transform="matrix(1 0 0 -1 0 35.048)"/>
        <path stroke="#DB1F35" stroke-linecap="round" stroke-width=".667" d="M4.006 6.31L-7.837-1.67" mask="url(#b)"/>
        <path stroke="#DB1F35" stroke-linecap="round" stroke-width=".667" d="M5.29 22.31l-13.127-8.705" mask="url(#b)" transform="matrix(1 0 0 -1 0 35.915)"/>
        <path fill="#E6273E" d="M-4 12H8v8h4v-8h12V8H12V0H8v8H-4z" mask="url(#b)"/>
    </g>
</svg>
