<svg xmlns="http://www.w3.org/2000/svg" xmlns:xlink="http://www.w3.org/1999/xlink" width="20" height="20" viewBox="0 0 20 20">
    <defs>
        <rect id="a" width="20" height="20" rx="10"/>
    </defs>
    <g fill="none" fill-rule="evenodd">
        <mask id="b" fill="#fff">
            <use xlink:href="#a"/>
        </mask>
        <use fill="#FFF" xlink:href="#a"/>
        <rect width="19.5" height="19.5" x=".25" y=".25" stroke="#F5F5F5" stroke-width=".5" rx="9.75"/>
        <path fill="#E34F4F" d="M-3 13.333h28V20H-3zM6.333 8h8v5.333h-8z" mask="url(#b)"/>
        <path fill="#181A1A" d="M7.667 12H9v1.333H7.667zM11.667 12H13v1.333h-1.333zM6.333 6.667h1.333V8H6.333zM10.333 6.667h1.333V8h-1.333zM9 6.667h1.333V8H9zM13 6.667h1.333V8H13z" mask="url(#b)"/>
        <path fill="#E34F4F" d="M6.333 5.333h1.333v1.333H6.333zM10.333 5.333h1.333v1.333h-1.333zM9 5.333h1.333v1.333H9zM13 5.333h1.333v1.333H13z" mask="url(#b)"/>
    </g>
</svg>
