<svg xmlns="http://www.w3.org/2000/svg" xmlns:xlink="http://www.w3.org/1999/xlink" width="20" height="20" viewBox="0 0 20 20">
    <defs>
        <rect id="a" width="20" height="20" rx="10"/>
    </defs>
    <g fill="none" fill-rule="evenodd">
        <mask id="b" fill="#fff">
            <use xlink:href="#a"/>
        </mask>
        <use fill="#FFF" xlink:href="#a"/>
        <path fill="#F22A46" d="M-4 0h28v20H-4z" mask="url(#b)"/>
        <circle cx="10" cy="10" r="3.333" fill="#FFF04D" mask="url(#b)"/>
        <path fill="#FFF04D" d="M10 14.714l-1.632 2.435-.413-2.902-2.527 1.486.887-2.794-2.922.243 2.012-2.133L2.667 10l2.738-1.049-2.012-2.133 2.922.243-.887-2.794 2.527 1.486.413-2.902L10 5.286l1.632-2.435.413 2.902 2.527-1.486-.887 2.794 2.922-.243-2.012 2.133L17.333 10l-2.738 1.049 2.012 2.133-2.922-.243.887 2.794-2.527-1.486-.413 2.902L10 14.714zm0-.047a4.667 4.667 0 1 0 0-9.334 4.667 4.667 0 0 0 0 9.334z" mask="url(#b)"/>
    </g>
</svg>
