<svg xmlns="http://www.w3.org/2000/svg" xmlns:xlink="http://www.w3.org/1999/xlink" width="20" height="20" viewBox="0 0 20 20">
    <defs>
        <rect id="a" width="20" height="20" rx="10"/>
    </defs>
    <g fill="none" fill-rule="evenodd">
        <mask id="b" fill="#fff">
            <use xlink:href="#a"/>
        </mask>
        <use fill="#FFF" xlink:href="#a"/>
        <path fill="#1EC160" d="M-4 13.333L24 0H-4z" mask="url(#b)"/>
        <path fill="#DF2A40" d="M-4 20h28V6.667z" mask="url(#b)"/>
        <path fill="#FFD956" d="M-3.216 25.333l32.791-20.49-6.359-10.176-32.791 20.49z" mask="url(#b)"/>
        <path fill="#262626" d="M-4.63 23.072l32.792-20.49-3.533-5.654-32.791 20.49z" mask="url(#b)"/>
        <path fill="#FFF" d="M16.31 7.797l-.946 1.498-.613-1.661-1.717-.437 1.39-1.097-.115-1.767 1.473.984 1.645-.656-.48 1.705 1.132 1.361zM5.643 14.264l-.946 1.497-.613-1.66-1.716-.437 1.39-1.097-.115-1.767 1.472.983 1.645-.655-.48 1.704 1.132 1.362z" mask="url(#b)"/>
    </g>
</svg>
