<svg xmlns="http://www.w3.org/2000/svg" xmlns:xlink="http://www.w3.org/1999/xlink" width="20" height="20" viewBox="0 0 20 20">
    <defs>
        <rect id="a" width="20" height="20" rx="10"/>
    </defs>
    <g fill="none" fill-rule="evenodd">
        <mask id="b" fill="#fff">
            <use xlink:href="#a"/>
        </mask>
        <use fill="#FFF" xlink:href="#a"/>
        <path fill="#1461B6" d="M0 0h28v4H0zM0 16h28v4H0z" mask="url(#b)"/>
        <path fill="#FFF" d="M0 4h28v12H0z" mask="url(#b)"/>
        <path fill="#F53846" d="M0 5.333h28v9.333H0z" mask="url(#b)"/>
        <path fill="#FFF" d="M10 13.333a3.333 3.333 0 1 1 0-6.666 3.333 3.333 0 0 1 0 6.666zm0-1.995l1.96 1.359-.688-2.284L13.17 8.97l-2.384-.052L10 6.667l-.786 2.25-2.384.053 1.898 1.443-.687 2.284L10 11.337z" mask="url(#b)"/>
    </g>
</svg>
