<svg xmlns="http://www.w3.org/2000/svg" xmlns:xlink="http://www.w3.org/1999/xlink" width="20" height="20" viewBox="0 0 20 20">
    <defs>
        <rect id="a" width="20" height="20" rx="10"/>
    </defs>
    <g fill="none" fill-rule="evenodd">
        <mask id="b" fill="#fff">
            <use xlink:href="#a"/>
        </mask>
        <use fill="#FFF" xlink:href="#a"/>
        <path fill="#0C4799" d="M0 13.333L28 0H0z" mask="url(#b)"/>
        <path fill="#FFD243" d="M4.667 6l-1.02 1.13.077-1.52-1.521.077 1.13-1.02-1.13-1.02 1.52.077-.077-1.521 1.02 1.13 1.021-1.13-.078 1.52 1.521-.077L6 4.666l1.13 1.021-1.52-.078.077 1.521z" mask="url(#b)"/>
        <path fill="#1BAC55" d="M0 20h28V6.667z" mask="url(#b)"/>
        <path fill="#FFF" d="M3.082 22.667L30.171 5.74l-5.253-8.407L-2.171 14.26z" mask="url(#b)"/>
        <path fill="#E52347" d="M-.63 23.072l32.792-20.49-3.533-5.654-32.791 20.49z" mask="url(#b)"/>
    </g>
</svg>
