<svg xmlns="http://www.w3.org/2000/svg" xmlns:xlink="http://www.w3.org/1999/xlink" width="20" height="20" viewBox="0 0 20 20">
    <defs>
        <rect id="a" width="20" height="20" rx="10"/>
        <path id="b" d="M0 1.99C0 .892.903 0 1.994 0c.371 0 .924.168 1.223.367l14.337 9.558c.615.41.509.742-.217.742H8l9.663 8.455c.554.485.404.878-.339.878H1.998A1.999 1.999 0 0 1 0 18.01V1.99z"/>
        <path id="d" d="M0 0h1.994c.371 0 .924.168 1.223.367l14.337 9.558c.615.41.509.742-.217.742H8l9.663 8.455c.554.485.404.878-.339.878H0V0z"/>
    </defs>
    <g fill="none" fill-rule="evenodd">
        <use fill="#FFF" xlink:href="#a"/>
        <rect width="19.5" height="19.5" x=".25" y=".25" stroke="#F5F5F5" stroke-width=".5" rx="9.75"/>
        <mask id="c" fill="#fff">
            <use xlink:href="#b"/>
        </mask>
        <use fill="#FFF" xlink:href="#b"/>
        <g mask="url(#c)">
            <use fill="#EE1B44" xlink:href="#d"/>
            <path stroke="#0543A8" stroke-width="1.333" d="M.667.667v18.666h16.225L6.226 10h10.239L2.848.922a1.977 1.977 0 0 0-.854-.255H.667z"/>
        </g>
        <path fill="#FFF" d="M6.851 7.8c.384-.104.738-.248 1.052-.424a2.668 2.668 0 0 1-5.143 0c.314.176.67.32 1.055.426l.518-.469-.847-.765 1.14.058-.058-1.14.765.847.766-.847-.059 1.14 1.141-.058-.848.765.518.468zM5.333 16l-1.02 1.13.078-1.52-1.521.077L4 14.667l-1.13-1.02 1.52.077-.077-1.521 1.02 1.13 1.02-1.13-.077 1.52 1.521-.077-1.13 1.02 1.13 1.021-1.52-.078.077 1.521L5.334 16z" mask="url(#c)"/>
    </g>
</svg>
