<svg xmlns="http://www.w3.org/2000/svg" xmlns:xlink="http://www.w3.org/1999/xlink" width="20" height="20" viewBox="0 0 20 20">
    <defs>
        <rect id="a" width="20" height="20" rx="10"/>
    </defs>
    <g fill="none" fill-rule="evenodd">
        <mask id="b" fill="#fff">
            <use xlink:href="#a"/>
        </mask>
        <use fill="#FFF" xlink:href="#a"/>
        <path fill="#262626" d="M-4 0h28v20H-4z" mask="url(#b)"/>
        <path fill="#E8283F" d="M-4 0h28v20z" mask="url(#b)"/>
        <path fill="#FFF" d="M2.667 16.667l-.943.276L2 16l-.276-.943.943.276.942-.276-.276.943.276.943zM2.667 8.667l-.943.276L2 8l-.276-.943.943.276.942-.276L3.333 8l.276.943zM-.667 12l-.942.276.276-.943-.276-.942.942.276.943-.276-.276.942.276.943zM5.333 11.333l-.942.276.276-.942-.276-.943.942.276.943-.276-.276.943.276.942z" mask="url(#b)"/>
        <path fill="#FFD84E" d="M14.861 9.266a.653.653 0 0 1-.289-.502V7.535c0-.181-.13-.285-.328-.22l-.758.254a1.16 1.16 0 0 1-.656 0l-.758-.253c-.181-.06-.201-.185-.04-.283l1.78-1.067a.43.43 0 0 0 .18-.502l-.253-.758c-.06-.181.02-.284.218-.219l.759.253a.442.442 0 0 0 .501-.18l1.067-1.778c.096-.16.217-.159.283.038l.253.759c.06.18.066.458 0 .656l-.253.758c-.06.181.039.328.22.328h1.228c.181 0 .404.127.502.289l1.067 1.779c.096.16.019.32-.154.354l-1.702.34a.552.552 0 0 0-.393.394l-.34 1.702c-.036.18-.192.251-.355.154l-1.779-1.067z" mask="url(#b)"/>
    </g>
</svg>
