<svg xmlns="http://www.w3.org/2000/svg" xmlns:xlink="http://www.w3.org/1999/xlink" width="20" height="20" viewBox="0 0 20 20">
    <defs>
        <rect id="a" width="20" height="20" rx="10"/>
    </defs>
    <g fill="none" fill-rule="evenodd">
        <mask id="b" fill="#fff">
            <use xlink:href="#a"/>
        </mask>
        <use fill="#FFF" xlink:href="#a"/>
        <rect width="19.5" height="19.5" x=".25" y=".25" stroke="#F5F5F5" stroke-width=".5" rx="9.75"/>
        <path fill="#D9101C" d="M-4 0h28v6.667H-4z" mask="url(#b)"/>
        <path fill="#0F7811" d="M-4 13.333h28V20H-4z" mask="url(#b)"/>
        <path fill="#FAD14E" d="M9.421 10.667A4.354 4.354 0 0 1 9.333 10a.667.667 0 0 1 1.334 0c0 .12-.032.377-.088.667h.76a.667.667 0 0 1 0 1.333H8.661a.667.667 0 0 1 0-1.333h.76zm-.754-1.334a.667.667 0 1 1 0-1.333.667.667 0 0 1 0 1.333zm2.666 0a.667.667 0 1 1 0-1.333.667.667 0 0 1 0 1.333zM14 10.667a.667.667 0 1 1 0-1.334.667.667 0 0 1 0 1.334zm-8 0a.667.667 0 1 1 0-1.334.667.667 0 0 1 0 1.334z" mask="url(#b)"/>
    </g>
</svg>
