<svg xmlns="http://www.w3.org/2000/svg" xmlns:xlink="http://www.w3.org/1999/xlink" width="20" height="20" viewBox="0 0 20 20">
    <defs>
        <rect id="a" width="20" height="20" rx="10"/>
    </defs>
    <g fill="none" fill-rule="evenodd">
        <mask id="b" fill="#fff">
            <use xlink:href="#a"/>
        </mask>
        <use fill="#FFF" xlink:href="#a"/>
        <rect width="19.5" height="19.5" x=".25" y=".25" stroke="#F5F5F5" stroke-width=".5" rx="9.75"/>
        <path fill="#04AAC8" d="M0 0h28v6.667H0z" mask="url(#b)"/>
        <path fill="#23C840" d="M0 13.333h28V20H0z" mask="url(#b)"/>
        <path fill="#FFF" d="M5.778 1.67a2 2 0 1 0 0 3.326 1.667 1.667 0 1 1 0-3.326zm1.555 3.663a.667.667 0 1 1 0-1.333.667.667 0 0 1 0 1.333zM10 2.667a.667.667 0 1 1 0-1.334.667.667 0 0 1 0 1.334zm2.667 0a.667.667 0 1 1 0-1.334.667.667 0 0 1 0 1.334zm0 2.666a.667.667 0 1 1 0-1.333.667.667 0 0 1 0 1.333zm-2.667 0A.667.667 0 1 1 10 4a.667.667 0 0 1 0 1.333z" mask="url(#b)"/>
    </g>
</svg>
