<svg xmlns="http://www.w3.org/2000/svg" xmlns:xlink="http://www.w3.org/1999/xlink" width="20" height="20" viewBox="0 0 20 20">
    <defs>
        <rect id="a" width="20" height="20" rx="10"/>
    </defs>
    <g fill="none" fill-rule="evenodd">
        <mask id="b" fill="#fff">
            <use xlink:href="#a"/>
        </mask>
        <use fill="#FFF" xlink:href="#a"/>
        <path fill="#E31F37" d="M0 0h28v20H0z" mask="url(#b)"/>
        <path fill="#083B9A" d="M-1.333-1.333h16v12h-16z" mask="url(#b)"/>
        <path fill="#FFF" d="M6.667 9.333l-.943.276L6 8.667l-.276-.943.943.276.942-.276-.276.943.276.942-.942-.276zm0-6.666l-.943.276L6 2l-.276-.943.943.276.942-.276L7.333 2l.276.943-.942-.276zM4 6l-.943.276.276-.943-.276-.942.943.276.943-.276-.276.942.276.943L4 6zm6-.667l-.943.276.276-.942-.276-.943L10 4l.943-.276-.276.943.276.942L10 5.333zm-1.667 2a.333.333 0 1 1 0-.666.333.333 0 0 1 0 .666z" mask="url(#b)"/>
    </g>
</svg>
